<?xml version="1.0" encoding="UTF-8" standalone="no"?>
<!DOCTYPE svg PUBLIC "-//W3C//DTD SVG 1.1//EN" "http://www.w3.org/Graphics/SVG/1.1/DTD/svg11.dtd">
<svg xmlns="http://www.w3.org/2000/svg" version="1.1" viewBox="0.00 0.00 1920.00 1080.00">
<g stroke-width="2.00" fill="none" stroke-linecap="butt">
<path stroke="#7d3dec" vector-effect="non-scaling-stroke" d="
  M 1435.74 135.41
  Q 1435.58 136.73 1436.08 138.02
  Q 1454.24 185.13 1450.14 235.47
  Q 1449.85 239.05 1449.59 242.54
  Q 1428.77 523.97 1409.57 784.50
  Q 1406.84 821.59 1393.29 854.75
  Q 1372.89 904.67 1332.63 941.73
  C 1295.91 975.53 1248.43 998.63 1198.57 1004.07
  Q 1188.84 1005.14 1178.54 1005.13
  Q 929.89 1005.12 684.65 1005.12
  Q 678.93 1005.12 673.38 1004.55
  Q 619.66 999.07 574.49 971.63
  Q 557.91 961.56 541.37 947.77
  C 535.57 942.95 530.29 937.57 524.95 932.36
  Q 524.86 932.27 521.62 928.63
  Q 519.79 926.57 517.56 925.39"
/>
<path stroke="#c6a9ff" vector-effect="non-scaling-stroke" d="
  M 1258.55 526.07
  Q 1259.24 526.00 1259.24 525.30
  L 1259.25 493.51
  Q 1259.25 492.86 1258.60 492.79
  C 1232.28 489.95 1215.39 471.98 1205.36 448.59
  Q 1196.37 427.62 1192.36 403.12
  C 1188.06 376.83 1186.72 350.18 1187.49 323.37
  C 1187.89 309.58 1186.81 298.17 1180.82 286.26
  Q 1167.84 260.45 1140.84 252.31
  Q 1133.14 249.99 1125.45 249.99
  Q 935.26 250.02 748.56 249.96
  Q 736.83 249.96 730.16 251.42
  Q 720.44 253.56 711.65 259.05
  Q 687.92 273.88 681.58 302.08
  C 679.34 312.07 680.22 323.71 680.35 334.17
  Q 680.66 360.60 677.61 388.00
  Q 674.73 413.76 667.12 436.54
  C 657.63 464.96 640.31 489.56 608.88 492.82
  A 0.46 0.46 0.0 0 0 608.46 493.28
  L 608.48 525.25
  Q 608.48 525.99 609.22 526.07
  C 645.60 529.99 662.43 562.74 670.74 594.19
  Q 675.23 611.19 677.31 628.34
  C 680.04 650.86 680.99 673.94 680.20 696.86
  Q 679.81 708.15 681.43 716.12
  C 685.27 734.90 696.90 751.83 713.78 761.03
  Q 727.35 768.42 740.65 768.69
  Q 751.01 768.90 762.20 768.89
  Q 926.57 768.66 1113.83 768.95
  Q 1127.83 768.97 1133.71 768.07
  C 1160.82 763.89 1181.36 741.98 1186.38 715.21
  Q 1187.75 707.91 1187.40 695.62
  C 1186.71 671.01 1187.84 646.35 1191.22 622.14
  Q 1194.94 595.43 1204.32 572.43
  Q 1210.65 556.91 1220.71 545.52
  Q 1235.73 528.51 1258.55 526.07"
/>
<path stroke="#c6a9ff" vector-effect="non-scaling-stroke" d="
  M 982.27 502.18
  C 994.89 495.15 1005.11 485.77 1011.26 472.66
  Q 1015.81 462.96 1017.16 452.17
  C 1020.15 428.26 1015.94 401.77 997.17 385.75
  Q 986.31 376.48 972.51 371.85
  Q 952.61 365.18 930.91 365.09
  Q 884.99 364.90 837.00 365.03
  A 0.26 0.26 0.0 0 0 836.75 365.29
  L 836.75 657.71
  Q 836.75 658.23 837.27 658.23
  Q 891.14 658.29 951.15 658.21
  C 975.37 658.18 1000.79 651.54 1019.19 635.18
  C 1033.66 622.31 1041.94 604.61 1043.57 585.17
  Q 1044.81 570.31 1042.05 556.33
  C 1038.86 540.16 1030.45 525.07 1016.70 516.21
  C 1006.16 509.43 994.79 505.37 982.40 502.97
  Q 981.25 502.75 982.27 502.18"
/>
<path stroke="#c6a9ff" vector-effect="non-scaling-stroke" d="
  M 903.56 417.03
  L 903.56 479.21
  A 0.24 0.24 0.0 0 0 903.80 479.45
  L 918.69 479.45
  A 34.55 28.33 0.0 0 0 953.24 451.12
  L 953.24 445.12
  A 34.55 28.33 -0.0 0 0 918.69 416.79
  L 903.80 416.79
  A 0.24 0.24 0.0 0 0 903.56 417.03"
/>
<path stroke="#c6a9ff" vector-effect="non-scaling-stroke" d="
  M 973.41 577.43
  C 974.84 560.22 967.86 545.64 950.22 540.78
  C 935.37 536.69 919.28 537.27 904.05 537.55
  Q 903.56 537.56 903.56 538.05
  L 903.56 606.05
  Q 903.56 606.63 904.14 606.65
  Q 922.34 607.21 936.92 606.05
  Q 948.81 605.10 958.08 600.36
  Q 972.09 593.21 973.41 577.43"
/>
</g>
<path fill="#8c52ff" d="
  M 1435.74 135.41
  Q 1435.58 136.73 1436.08 138.02
  Q 1454.24 185.13 1450.14 235.47
  Q 1449.85 239.05 1449.59 242.54
  Q 1428.77 523.97 1409.57 784.50
  Q 1406.84 821.59 1393.29 854.75
  Q 1372.89 904.67 1332.63 941.73
  C 1295.91 975.53 1248.43 998.63 1198.57 1004.07
  Q 1188.84 1005.14 1178.54 1005.13
  Q 929.89 1005.12 684.65 1005.12
  Q 678.93 1005.12 673.38 1004.55
  Q 619.66 999.07 574.49 971.63
  Q 557.91 961.56 541.37 947.77
  C 535.57 942.95 530.29 937.57 524.95 932.36
  Q 524.86 932.27 521.62 928.63
  Q 519.79 926.57 517.56 925.39
  C 516.28 923.36 515.13 921.29 513.55 919.43
  Q 478.69 878.31 464.80 826.23
  Q 463.41 821.04 462.62 816.24
  Q 461.73 810.81 460.44 806.14
  Q 459.44 802.51 459.39 798.94
  C 459.30 793.39 457.87 788.30 457.72 782.94
  Q 457.47 773.81 456.44 766.21
  C 455.20 757.11 455.89 747.69 454.77 738.69
  Q 453.74 730.49 453.49 721.64
  C 453.35 716.55 452.02 711.55 451.93 706.33
  C 451.82 699.95 451.65 693.45 450.98 687.30
  C 450.26 680.79 450.10 674.23 449.32 667.83
  Q 448.46 660.79 448.38 657.94
  Q 447.82 639.13 446.18 622.01
  Q 445.83 618.31 445.14 614.03
  C 443.88 606.22 444.89 597.60 443.64 589.18
  C 442.42 580.90 443.29 572.42 441.72 564.30
  C 440.28 556.85 440.66 549.38 440.35 541.78
  Q 440.29 540.32 439.26 529.28
  Q 438.67 522.98 438.41 516.78
  C 438.21 512.22 436.87 507.50 436.87 502.72
  Q 436.87 495.93 436.32 488.26
  Q 435.54 477.55 434.41 466.44
  Q 433.35 456.05 432.96 446.45
  Q 432.23 428.30 430.67 414.77
  C 430.27 411.35 429.39 407.77 429.47 404.29
  Q 429.69 394.04 428.41 385.14
  C 427.20 376.78 427.88 368.81 426.51 360.63
  Q 425.60 355.23 425.59 350.26
  C 425.58 343.84 425.41 337.33 424.52 330.57
  C 423.52 323.01 423.82 315.65 422.71 308.45
  C 421.40 299.98 422.03 291.48 421.02 282.99
  C 420.22 276.23 420.24 269.22 419.29 262.82
  C 417.86 253.09 418.31 243.29 417.34 233.48
  Q 416.19 221.94 416.68 206.40
  Q 416.85 201.07 417.47 196.03
  C 418.06 191.23 418.20 186.55 419.10 181.71
  Q 421.66 167.96 424.99 156.80
  Q 442.12 99.37 487.17 61.09
  Q 494.65 54.73 503.03 48.95
  Q 540.90 22.81 587.76 15.50
  Q 594.29 14.49 600.29 13.63
  C 603.43 13.18 606.61 13.17 609.75 13.17
  Q 960.28 13.26 1260.50 13.18
  C 1265.23 13.18 1270.75 14.32 1274.18 14.76
  Q 1326.20 21.39 1369.57 52.95
  C 1373.42 55.75 1377.16 58.59 1380.68 61.77
  Q 1395.55 75.24 1403.91 85.27
  Q 1420.04 104.60 1432.70 130.54
  C 1433.54 132.27 1434.66 133.87 1435.74 135.41
  Z
  M 1258.55 526.07
  Q 1259.24 526.00 1259.24 525.30
  L 1259.25 493.51
  Q 1259.25 492.86 1258.60 492.79
  C 1232.28 489.95 1215.39 471.98 1205.36 448.59
  Q 1196.37 427.62 1192.36 403.12
  C 1188.06 376.83 1186.72 350.18 1187.49 323.37
  C 1187.89 309.58 1186.81 298.17 1180.82 286.26
  Q 1167.84 260.45 1140.84 252.31
  Q 1133.14 249.99 1125.45 249.99
  Q 935.26 250.02 748.56 249.96
  Q 736.83 249.96 730.16 251.42
  Q 720.44 253.56 711.65 259.05
  Q 687.92 273.88 681.58 302.08
  C 679.34 312.07 680.22 323.71 680.35 334.17
  Q 680.66 360.60 677.61 388.00
  Q 674.73 413.76 667.12 436.54
  C 657.63 464.96 640.31 489.56 608.88 492.82
  A 0.46 0.46 0.0 0 0 608.46 493.28
  L 608.48 525.25
  Q 608.48 525.99 609.22 526.07
  C 645.60 529.99 662.43 562.74 670.74 594.19
  Q 675.23 611.19 677.31 628.34
  C 680.04 650.86 680.99 673.94 680.20 696.86
  Q 679.81 708.15 681.43 716.12
  C 685.27 734.90 696.90 751.83 713.78 761.03
  Q 727.35 768.42 740.65 768.69
  Q 751.01 768.90 762.20 768.89
  Q 926.57 768.66 1113.83 768.95
  Q 1127.83 768.97 1133.71 768.07
  C 1160.82 763.89 1181.36 741.98 1186.38 715.21
  Q 1187.75 707.91 1187.40 695.62
  C 1186.71 671.01 1187.84 646.35 1191.22 622.14
  Q 1194.94 595.43 1204.32 572.43
  Q 1210.65 556.91 1220.71 545.52
  Q 1235.73 528.51 1258.55 526.07
  Z"
/>
<path fill="#6d27d9" d="
  M 1435.74 135.41
  C 1437.72 137.50 1439.74 139.51 1441.51 141.76
  Q 1444.57 145.67 1447.55 149.66
  Q 1478.40 190.98 1485.86 240.56
  C 1486.90 247.48 1487.30 254.36 1487.99 261.25
  Q 1489.26 273.95 1488.06 285.13
  Q 1487.17 293.34 1486.97 299.77
  Q 1486.71 308.22 1485.94 314.93
  C 1485.03 322.96 1485.13 330.53 1484.09 338.34
  C 1483.05 346.13 1483.56 353.75 1482.50 361.42
  Q 1481.35 369.82 1481.23 378.34
  Q 1481.18 382.41 1480.50 386.49
  C 1479.00 395.55 1479.95 404.63 1478.60 413.69
  Q 1477.45 421.41 1477.38 429.38
  Q 1477.34 434.82 1476.56 440.26
  Q 1475.45 447.94 1475.52 456.42
  C 1475.58 463.17 1473.64 469.65 1473.74 476.35
  C 1473.85 484.73 1472.24 492.65 1471.94 500.66
  C 1471.73 506.13 1471.71 511.60 1470.99 517.02
  C 1469.93 524.97 1470.19 532.71 1469.08 540.42
  C 1467.84 549.00 1468.38 557.79 1467.22 566.42
  C 1466.12 574.52 1466.62 582.65 1465.37 590.74
  C 1464.07 599.12 1464.77 607.99 1463.60 616.67
  C 1462.43 625.42 1462.54 634.46 1461.62 643.41
  Q 1460.93 650.12 1460.54 657.93
  Q 1460.18 665.01 1459.36 673.44
  Q 1458.64 680.79 1458.42 688.94
  C 1458.33 692.28 1457.24 696.21 1457.19 699.03
  Q 1456.95 711.95 1455.88 720.91
  Q 1455.23 726.41 1455.11 731.59
  C 1454.92 739.64 1453.38 747.39 1453.26 754.95
  Q 1453.14 762.92 1452.10 770.54
  C 1451.15 777.50 1451.72 784.57 1450.61 791.48
  Q 1449.29 799.79 1449.36 808.79
  Q 1449.41 814.05 1448.56 819.94
  C 1447.31 828.64 1447.55 837.72 1446.46 846.74
  Q 1445.64 853.59 1444.70 860.21
  Q 1441.85 880.34 1434.56 901.08
  Q 1422.99 934.02 1402.25 962.23
  Q 1392.42 975.60 1379.76 989.06
  Q 1373.46 995.75 1364.89 1003.05
  Q 1334.43 1028.99 1300.24 1043.55
  Q 1269.74 1056.55 1240.87 1060.05
  Q 1227.45 1061.68 1207.31 1061.67
  Q 970.13 1061.59 727.50 1061.63
  Q 692.90 1061.64 662.43 1051.71
  Q 621.85 1038.48 588.23 1012.23
  Q 569.36 997.50 553.53 979.48
  Q 531.98 954.95 517.56 925.39
  Q 519.79 926.57 521.62 928.63
  Q 524.86 932.27 524.95 932.36
  C 530.29 937.57 535.57 942.95 541.37 947.77
  Q 557.91 961.56 574.49 971.63
  Q 619.66 999.07 673.38 1004.55
  Q 678.93 1005.12 684.65 1005.12
  Q 929.89 1005.12 1178.54 1005.13
  Q 1188.84 1005.14 1198.57 1004.07
  C 1248.43 998.63 1295.91 975.53 1332.63 941.73
  Q 1372.89 904.67 1393.29 854.75
  Q 1406.84 821.59 1409.57 784.50
  Q 1428.77 523.97 1449.59 242.54
  Q 1449.85 239.05 1450.14 235.47
  Q 1454.24 185.13 1436.08 138.02
  Q 1435.58 136.73 1435.74 135.41
  Z"
/>
<path fill="#ffffff" d="
  M 1258.55 526.07
  Q 1235.73 528.51 1220.71 545.52
  Q 1210.65 556.91 1204.32 572.43
  Q 1194.94 595.43 1191.22 622.14
  C 1187.84 646.35 1186.71 671.01 1187.40 695.62
  Q 1187.75 707.91 1186.38 715.21
  C 1181.36 741.98 1160.82 763.89 1133.71 768.07
  Q 1127.83 768.97 1113.83 768.95
  Q 926.57 768.66 762.20 768.89
  Q 751.01 768.90 740.65 768.69
  Q 727.35 768.42 713.78 761.03
  C 696.90 751.83 685.27 734.90 681.43 716.12
  Q 679.81 708.15 680.20 696.86
  C 680.99 673.94 680.04 650.86 677.31 628.34
  Q 675.23 611.19 670.74 594.19
  C 662.43 562.74 645.60 529.99 609.22 526.07
  Q 608.48 525.99 608.48 525.25
  L 608.46 493.28
  A 0.46 0.46 0.0 0 1 608.88 492.82
  C 640.31 489.56 657.63 464.96 667.12 436.54
  Q 674.73 413.76 677.61 388.00
  Q 680.66 360.60 680.35 334.17
  C 680.22 323.71 679.34 312.07 681.58 302.08
  Q 687.92 273.88 711.65 259.05
  Q 720.44 253.56 730.16 251.42
  Q 736.83 249.96 748.56 249.96
  Q 935.26 250.02 1125.45 249.99
  Q 1133.14 249.99 1140.84 252.31
  Q 1167.84 260.45 1180.82 286.26
  C 1186.81 298.17 1187.89 309.58 1187.49 323.37
  C 1186.72 350.18 1188.06 376.83 1192.36 403.12
  Q 1196.37 427.62 1205.36 448.59
  C 1215.39 471.98 1232.28 489.95 1258.60 492.79
  Q 1259.25 492.86 1259.25 493.51
  L 1259.24 525.30
  Q 1259.24 526.00 1258.55 526.07
  Z
  M 982.27 502.18
  C 994.89 495.15 1005.11 485.77 1011.26 472.66
  Q 1015.81 462.96 1017.16 452.17
  C 1020.15 428.26 1015.94 401.77 997.17 385.75
  Q 986.31 376.48 972.51 371.85
  Q 952.61 365.18 930.91 365.09
  Q 884.99 364.90 837.00 365.03
  A 0.26 0.26 0.0 0 0 836.75 365.29
  L 836.75 657.71
  Q 836.75 658.23 837.27 658.23
  Q 891.14 658.29 951.15 658.21
  C 975.37 658.18 1000.79 651.54 1019.19 635.18
  C 1033.66 622.31 1041.94 604.61 1043.57 585.17
  Q 1044.81 570.31 1042.05 556.33
  C 1038.86 540.16 1030.45 525.07 1016.70 516.21
  C 1006.16 509.43 994.79 505.37 982.40 502.97
  Q 981.25 502.75 982.27 502.18
  Z"
/>
<path fill="#8c52ff" d="
  M 982.40 502.97
  C 994.79 505.37 1006.16 509.43 1016.70 516.21
  C 1030.45 525.07 1038.86 540.16 1042.05 556.33
  Q 1044.81 570.31 1043.57 585.17
  C 1041.94 604.61 1033.66 622.31 1019.19 635.18
  C 1000.79 651.54 975.37 658.18 951.15 658.21
  Q 891.14 658.29 837.27 658.23
  Q 836.75 658.23 836.75 657.71
  L 836.75 365.29
  A 0.26 0.26 0.0 0 1 837.00 365.03
  Q 884.99 364.90 930.91 365.09
  Q 952.61 365.18 972.51 371.85
  Q 986.31 376.48 997.17 385.75
  C 1015.94 401.77 1020.15 428.26 1017.16 452.17
  Q 1015.81 462.96 1011.26 472.66
  C 1005.11 485.77 994.89 495.15 982.27 502.18
  Q 981.25 502.75 982.40 502.97
  Z
  M 903.56 417.03
  L 903.56 479.21
  A 0.24 0.24 0.0 0 0 903.80 479.45
  L 918.69 479.45
  A 34.55 28.33 0.0 0 0 953.24 451.12
  L 953.24 445.12
  A 34.55 28.33 -0.0 0 0 918.69 416.79
  L 903.80 416.79
  A 0.24 0.24 0.0 0 0 903.56 417.03
  Z
  M 973.41 577.43
  C 974.84 560.22 967.86 545.64 950.22 540.78
  C 935.37 536.69 919.28 537.27 904.05 537.55
  Q 903.56 537.56 903.56 538.05
  L 903.56 606.05
  Q 903.56 606.63 904.14 606.65
  Q 922.34 607.21 936.92 606.05
  Q 948.81 605.10 958.08 600.36
  Q 972.09 593.21 973.41 577.43
  Z"
/>
<path fill="#ffffff" d="
  M 903.56 417.03
  A 0.24 0.24 0.0 0 1 903.80 416.79
  L 918.69 416.79
  A 34.55 28.33 0.0 0 1 953.24 445.12
  L 953.24 451.12
  A 34.55 28.33 0.0 0 1 918.69 479.45
  L 903.80 479.45
  A 0.24 0.24 0.0 0 1 903.56 479.21
  L 903.56 417.03
  Z"
/>
<path fill="#ffffff" d="
  M 950.22 540.78
  C 967.86 545.64 974.84 560.22 973.41 577.43
  Q 972.09 593.21 958.08 600.36
  Q 948.81 605.10 936.92 606.05
  Q 922.34 607.21 904.14 606.65
  Q 903.56 606.63 903.56 606.05
  L 903.56 538.05
  Q 903.56 537.56 904.05 537.55
  C 919.28 537.27 935.37 536.69 950.22 540.78
  Z"
/>
</svg>
