<?xml version="1.0" encoding="UTF-8" standalone="no"?>
<!DOCTYPE svg PUBLIC "-//W3C//DTD SVG 1.1//EN" "http://www.w3.org/Graphics/SVG/1.1/DTD/svg11.dtd">
<svg xmlns="http://www.w3.org/2000/svg" version="1.1" viewBox="0.00 0.00 1920.00 1080.00">
<g stroke-width="2.00" fill="none" stroke-linecap="butt">
<path stroke="#7d3dec" vector-effect="non-scaling-stroke" d="
  M 1434.83 134.91
  Q 1450.53 174.70 1450.86 216.75
  Q 1450.92 224.11 1449.99 236.72
  Q 1429.91 509.25 1409.75 781.78
  Q 1408.82 794.42 1407.73 801.67
  Q 1399.25 858.40 1365.50 904.75
  Q 1320.28 966.85 1247.50 992.90
  Q 1223.82 1001.38 1198.48 1004.08
  Q 1188.57 1005.13 1178.01 1005.13
  Q 931.42 1005.13 684.76 1005.11
  Q 678.91 1005.11 673.47 1004.56
  Q 608.51 997.98 555.83 959.08
  Q 541.59 948.56 534.13 941.30
  Q 529.69 936.96 525.31 932.95
  Q 524.75 932.44 522.21 929.56
  Q 520.47 927.58 518.43 926.80"
/>
<path stroke="#c6a9ff" vector-effect="non-scaling-stroke" d="
  M 571.19 439.72
  Q 552.27 483.96 559.28 532.20
  C 566.44 581.47 596.42 625.73 636.58 654.17
  Q 698.46 697.99 775.77 689.75
  Q 798.51 687.33 817.92 682.00
  Q 839.80 676.00 861.57 662.69
  Q 864.70 660.78 867.53 658.50
  Q 867.87 658.22 867.68 657.83
  L 833.50 589.48
  A 0.46 0.46 0.0 0 0 832.82 589.31
  C 829.44 591.72 826.16 594.20 822.44 596.20
  Q 812.12 601.76 796.68 606.28
  Q 782.19 610.52 767.33 610.92
  Q 748.01 611.44 731.78 608.29
  C 714.31 604.90 696.92 597.48 683.70 586.09
  Q 667.90 572.48 657.80 553.79
  C 641.85 524.27 641.67 489.65 657.25 459.72
  Q 666.56 441.86 680.85 428.73
  Q 688.38 421.80 699.16 416.11
  Q 709.78 410.50 719.61 407.52
  Q 732.22 403.70 747.83 402.02
  Q 759.36 400.78 772.00 401.71
  C 788.06 402.88 804.06 408.18 818.44 414.40
  Q 825.33 417.39 832.68 422.90
  Q 833.22 423.31 833.52 422.71
  L 867.75 354.54
  A 0.34 0.34 0.0 0 0 867.64 354.11
  C 859.66 348.55 851.76 342.78 842.72 339.10
  Q 814.96 327.81 786.81 323.80
  Q 769.47 321.34 752.05 321.35
  Q 736.53 321.36 720.16 323.96
  Q 713.85 324.96 706.65 326.70
  Q 698.84 328.59 693.69 330.32
  Q 656.62 342.78 629.34 364.20
  Q 606.95 381.77 591.35 403.75
  Q 579.30 420.74 571.19 439.72"
/>
<path stroke="#c6a9ff" vector-effect="non-scaling-stroke" d="
  M 1021.85 472.25
  A 0.36 0.36 0.0 0 1 1021.49 471.89
  L 1021.47 394.86
  A 0.36 0.36 0.0 0 0 1021.11 394.50
  L 955.61 394.50
  A 0.36 0.36 0.0 0 0 955.25 394.86
  L 955.25 471.89
  A 0.36 0.36 0.0 0 1 954.89 472.25
  L 877.82 472.25
  A 0.36 0.36 0.0 0 0 877.46 472.61
  L 877.45 538.12
  A 0.36 0.36 0.0 0 0 877.81 538.48
  L 954.89 538.54
  A 0.36 0.36 0.0 0 1 955.25 538.90
  L 955.25 615.89
  A 0.36 0.36 0.0 0 0 955.61 616.25
  L 1021.12 616.25
  A 0.36 0.36 0.0 0 0 1021.48 615.89
  L 1021.48 538.87
  A 0.36 0.36 0.0 0 1 1021.84 538.51
  L 1098.90 538.49
  A 0.36 0.36 0.0 0 0 1099.26 538.13
  L 1099.27 472.61
  A 0.36 0.36 0.0 0 0 1098.91 472.25
  L 1021.85 472.25"
/>
<path stroke="#c6a9ff" vector-effect="non-scaling-stroke" d="
  M 1273.63 471.69
  L 1273.63 394.68
  A 0.19 0.19 0.0 0 0 1273.44 394.49
  L 1207.85 394.52
  A 0.39 0.38 -89.2 0 0 1207.47 394.90
  L 1207.28 471.48
  A 0.77 0.76 -90.0 0 1 1206.52 472.25
  L 1129.91 472.25
  Q 1129.58 472.25 1129.58 472.59
  L 1129.57 537.89
  Q 1129.57 538.47 1130.15 538.47
  L 1207.13 538.57
  A 0.26 0.25 -90.0 0 1 1207.38 538.83
  Q 1207.44 572.60 1207.31 608.12
  Q 1207.29 612.10 1207.55 615.78
  Q 1207.58 616.25 1208.05 616.25
  L 1273.06 616.25
  Q 1273.63 616.25 1273.63 615.69
  L 1273.63 538.93
  A 0.42 0.42 0.0 0 1 1274.05 538.51
  L 1350.02 538.49
  Q 1351.44 538.49 1351.44 537.07
  L 1351.48 472.74
  Q 1351.48 472.25 1350.99 472.25
  L 1274.19 472.25
  Q 1273.63 472.25 1273.63 471.69"
/>
</g>
<path fill="#8c52ff" d="
  M 1434.83 134.91
  Q 1450.53 174.70 1450.86 216.75
  Q 1450.92 224.11 1449.99 236.72
  Q 1429.91 509.25 1409.75 781.78
  Q 1408.82 794.42 1407.73 801.67
  Q 1399.25 858.40 1365.50 904.75
  Q 1320.28 966.85 1247.50 992.90
  Q 1223.82 1001.38 1198.48 1004.08
  Q 1188.57 1005.13 1178.01 1005.13
  Q 931.42 1005.13 684.76 1005.11
  Q 678.91 1005.11 673.47 1004.56
  Q 608.51 997.98 555.83 959.08
  Q 541.59 948.56 534.13 941.30
  Q 529.69 936.96 525.31 932.95
  Q 524.75 932.44 522.21 929.56
  Q 520.47 927.58 518.43 926.80
  Q 517.24 924.65 515.85 922.40
  Q 514.46 920.15 512.80 918.20
  Q 479.08 878.77 464.95 826.21
  Q 463.57 821.06 462.76 816.18
  C 461.75 810.06 459.49 804.06 459.37 797.78
  C 459.27 792.24 457.86 786.66 457.83 781.18
  Q 457.79 772.67 456.49 765.20
  C 455.05 756.87 455.93 748.29 455.07 740.30
  Q 453.99 730.09 453.59 721.30
  C 453.43 717.54 452.97 713.92 452.32 710.22
  Q 451.95 708.07 451.94 705.77
  Q 451.88 694.34 450.85 683.70
  Q 450.18 676.83 449.65 670.25
  C 449.17 664.21 448.29 658.45 448.17 652.39
  Q 447.80 633.38 445.40 615.29
  Q 444.48 608.38 444.47 602.74
  Q 444.46 594.15 443.72 588.09
  C 442.63 579.06 443.01 569.68 441.31 560.43
  Q 440.71 557.18 440.74 553.61
  Q 440.84 541.91 439.73 532.56
  C 438.84 525.08 438.87 517.51 437.78 510.24
  C 436.47 501.48 436.98 492.58 436.16 483.69
  C 434.85 469.40 433.35 455.12 432.83 440.99
  Q 432.27 425.95 430.25 410.95
  Q 429.55 405.81 429.48 401.13
  C 429.41 396.60 429.45 392.03 428.85 387.47
  Q 427.67 378.43 427.62 369.72
  Q 427.60 366.01 427.02 362.20
  C 426.52 358.95 425.81 355.82 425.74 352.51
  C 425.59 344.71 425.75 337.12 424.60 329.50
  C 423.50 322.24 423.91 314.85 422.82 307.81
  Q 422.07 302.92 421.93 298.21
  C 421.75 292.11 421.73 286.12 420.99 279.94
  C 420.27 273.97 420.06 267.99 419.35 262.23
  C 418.83 257.97 418.24 253.85 418.22 249.57
  C 418.19 240.47 417.10 231.31 416.80 222.18
  Q 416.39 209.35 416.98 202.13
  Q 417.44 196.54 417.94 190.68
  Q 418.44 184.92 419.67 179.34
  C 420.77 174.32 421.64 169.19 422.91 164.26
  Q 436.00 113.43 472.00 75.72
  Q 512.63 33.15 570.47 19.06
  C 580.01 16.74 589.56 15.49 599.22 14.01
  Q 604.60 13.18 610.27 13.18
  Q 934.97 13.22 1261.04 13.21
  Q 1264.02 13.21 1267.51 13.93
  C 1271.46 14.75 1275.54 14.99 1279.55 15.61
  Q 1326.23 22.91 1365.77 50.15
  Q 1369.41 52.65 1372.71 55.44
  C 1375.73 57.99 1378.94 60.17 1381.84 62.89
  Q 1397.88 77.95 1403.99 85.45
  Q 1420.12 105.27 1428.54 122.48
  Q 1433.31 132.23 1434.83 134.91
  Z
  M 571.19 439.72
  Q 552.27 483.96 559.28 532.20
  C 566.44 581.47 596.42 625.73 636.58 654.17
  Q 698.46 697.99 775.77 689.75
  Q 798.51 687.33 817.92 682.00
  Q 839.80 676.00 861.57 662.69
  Q 864.70 660.78 867.53 658.50
  Q 867.87 658.22 867.68 657.83
  L 833.50 589.48
  A 0.46 0.46 0.0 0 0 832.82 589.31
  C 829.44 591.72 826.16 594.20 822.44 596.20
  Q 812.12 601.76 796.68 606.28
  Q 782.19 610.52 767.33 610.92
  Q 748.01 611.44 731.78 608.29
  C 714.31 604.90 696.92 597.48 683.70 586.09
  Q 667.90 572.48 657.80 553.79
  C 641.85 524.27 641.67 489.65 657.25 459.72
  Q 666.56 441.86 680.85 428.73
  Q 688.38 421.80 699.16 416.11
  Q 709.78 410.50 719.61 407.52
  Q 732.22 403.70 747.83 402.02
  Q 759.36 400.78 772.00 401.71
  C 788.06 402.88 804.06 408.18 818.44 414.40
  Q 825.33 417.39 832.68 422.90
  Q 833.22 423.31 833.52 422.71
  L 867.75 354.54
  A 0.34 0.34 0.0 0 0 867.64 354.11
  C 859.66 348.55 851.76 342.78 842.72 339.10
  Q 814.96 327.81 786.81 323.80
  Q 769.47 321.34 752.05 321.35
  Q 736.53 321.36 720.16 323.96
  Q 713.85 324.96 706.65 326.70
  Q 698.84 328.59 693.69 330.32
  Q 656.62 342.78 629.34 364.20
  Q 606.95 381.77 591.35 403.75
  Q 579.30 420.74 571.19 439.72
  Z
  M 1021.85 472.25
  A 0.36 0.36 0.0 0 1 1021.49 471.89
  L 1021.47 394.86
  A 0.36 0.36 0.0 0 0 1021.11 394.50
  L 955.61 394.50
  A 0.36 0.36 0.0 0 0 955.25 394.86
  L 955.25 471.89
  A 0.36 0.36 0.0 0 1 954.89 472.25
  L 877.82 472.25
  A 0.36 0.36 0.0 0 0 877.46 472.61
  L 877.45 538.12
  A 0.36 0.36 0.0 0 0 877.81 538.48
  L 954.89 538.54
  A 0.36 0.36 0.0 0 1 955.25 538.90
  L 955.25 615.89
  A 0.36 0.36 0.0 0 0 955.61 616.25
  L 1021.12 616.25
  A 0.36 0.36 0.0 0 0 1021.48 615.89
  L 1021.48 538.87
  A 0.36 0.36 0.0 0 1 1021.84 538.51
  L 1098.90 538.49
  A 0.36 0.36 0.0 0 0 1099.26 538.13
  L 1099.27 472.61
  A 0.36 0.36 0.0 0 0 1098.91 472.25
  L 1021.85 472.25
  Z
  M 1273.63 471.69
  L 1273.63 394.68
  A 0.19 0.19 0.0 0 0 1273.44 394.49
  L 1207.85 394.52
  A 0.39 0.38 -89.2 0 0 1207.47 394.90
  L 1207.28 471.48
  A 0.77 0.76 -90.0 0 1 1206.52 472.25
  L 1129.91 472.25
  Q 1129.58 472.25 1129.58 472.59
  L 1129.57 537.89
  Q 1129.57 538.47 1130.15 538.47
  L 1207.13 538.57
  A 0.26 0.25 -90.0 0 1 1207.38 538.83
  Q 1207.44 572.60 1207.31 608.12
  Q 1207.29 612.10 1207.55 615.78
  Q 1207.58 616.25 1208.05 616.25
  L 1273.06 616.25
  Q 1273.63 616.25 1273.63 615.69
  L 1273.63 538.93
  A 0.42 0.42 0.0 0 1 1274.05 538.51
  L 1350.02 538.49
  Q 1351.44 538.49 1351.44 537.07
  L 1351.48 472.74
  Q 1351.48 472.25 1350.99 472.25
  L 1274.19 472.25
  Q 1273.63 472.25 1273.63 471.69
  Z"
/>
<path fill="#6d27d9" d="
  M 1434.83 134.91
  Q 1438.83 138.86 1445.03 146.74
  Q 1474.21 183.83 1483.64 229.78
  Q 1484.84 235.61 1485.82 241.72
  C 1486.91 248.50 1487.13 255.10 1487.96 262.00
  Q 1488.91 270.00 1487.65 285.41
  C 1486.86 295.09 1486.87 304.85 1485.77 314.68
  Q 1485.22 319.64 1485.07 323.34
  C 1484.92 327.20 1484.87 330.92 1484.32 334.80
  Q 1483.13 343.16 1483.10 351.52
  Q 1483.09 355.75 1482.59 359.72
  C 1482.11 363.47 1481.40 367.21 1481.40 371.00
  Q 1481.41 380.16 1480.16 387.67
  C 1479.19 393.52 1479.44 399.62 1479.31 405.63
  C 1479.21 410.03 1478.13 414.27 1477.87 418.53
  C 1477.44 425.82 1477.53 433.18 1476.36 440.24
  Q 1475.58 444.98 1475.62 447.82
  Q 1475.79 458.32 1474.49 466.79
  C 1473.46 473.47 1473.84 480.12 1473.02 486.65
  Q 1472.12 493.93 1471.92 499.39
  C 1471.72 505.16 1471.55 510.43 1470.90 516.36
  Q 1470.02 524.53 1469.79 532.05
  Q 1469.69 535.13 1468.62 543.42
  C 1467.79 549.83 1468.35 557.15 1467.37 563.89
  Q 1466.26 571.43 1466.22 580.13
  C 1466.19 585.84 1464.55 592.08 1464.56 597.30
  Q 1464.57 605.14 1463.90 612.46
  Q 1462.73 625.03 1462.59 627.63
  Q 1461.97 638.72 1460.97 649.52
  Q 1460.51 654.37 1460.46 659.55
  Q 1460.40 664.92 1459.39 670.89
  C 1458.25 677.64 1458.83 685.23 1457.79 692.67
  C 1456.58 701.31 1457.03 710.20 1455.87 719.08
  C 1454.83 727.01 1455.19 735.16 1454.02 743.22
  Q 1453.07 749.72 1453.11 757.40
  C 1453.13 761.84 1452.50 766.19 1451.87 770.62
  C 1450.88 777.52 1451.76 784.48 1450.48 791.35
  C 1449.92 794.35 1449.42 797.78 1449.49 800.89
  Q 1449.66 808.82 1448.82 816.08
  Q 1447.91 823.79 1447.56 831.10
  Q 1446.86 845.35 1444.63 860.00
  Q 1435.94 916.98 1400.80 963.95
  Q 1389.31 979.31 1375.49 993.30
  C 1369.70 999.17 1362.94 1004.53 1356.40 1009.83
  Q 1317.79 1041.06 1268.27 1054.52
  Q 1242.69 1061.47 1218.10 1061.48
  Q 969.36 1061.53 722.18 1061.42
  Q 707.19 1061.42 693.22 1058.89
  C 641.90 1049.62 596.26 1024.36 560.16 986.69
  Q 556.33 982.69 552.82 978.43
  C 549.72 974.65 546.38 971.08 543.43 967.19
  Q 529.11 948.36 518.43 926.80
  Q 520.47 927.58 522.21 929.56
  Q 524.75 932.44 525.31 932.95
  Q 529.69 936.96 534.13 941.30
  Q 541.59 948.56 555.83 959.08
  Q 608.51 997.98 673.47 1004.56
  Q 678.91 1005.11 684.76 1005.11
  Q 931.42 1005.13 1178.01 1005.13
  Q 1188.57 1005.13 1198.48 1004.08
  Q 1223.82 1001.38 1247.50 992.90
  Q 1320.28 966.85 1365.50 904.75
  Q 1399.25 858.40 1407.73 801.67
  Q 1408.82 794.42 1409.75 781.78
  Q 1429.91 509.25 1449.99 236.72
  Q 1450.92 224.11 1450.86 216.75
  Q 1450.53 174.70 1434.83 134.91
  Z"
/>
<path fill="#ffffff" d="
  M 571.19 439.72
  Q 579.30 420.74 591.35 403.75
  Q 606.95 381.77 629.34 364.20
  Q 656.62 342.78 693.69 330.32
  Q 698.84 328.59 706.65 326.70
  Q 713.85 324.96 720.16 323.96
  Q 736.53 321.36 752.05 321.35
  Q 769.47 321.34 786.81 323.80
  Q 814.96 327.81 842.72 339.10
  C 851.76 342.78 859.66 348.55 867.64 354.11
  A 0.34 0.34 0.0 0 1 867.75 354.54
  L 833.52 422.71
  Q 833.22 423.31 832.68 422.90
  Q 825.33 417.39 818.44 414.40
  C 804.06 408.18 788.06 402.88 772.00 401.71
  Q 759.36 400.78 747.83 402.02
  Q 732.22 403.70 719.61 407.52
  Q 709.78 410.50 699.16 416.11
  Q 688.38 421.80 680.85 428.73
  Q 666.56 441.86 657.25 459.72
  C 641.67 489.65 641.85 524.27 657.80 553.79
  Q 667.90 572.48 683.70 586.09
  C 696.92 597.48 714.31 604.90 731.78 608.29
  Q 748.01 611.44 767.33 610.92
  Q 782.19 610.52 796.68 606.28
  Q 812.12 601.76 822.44 596.20
  C 826.16 594.20 829.44 591.72 832.82 589.31
  A 0.46 0.46 0.0 0 1 833.50 589.48
  L 867.68 657.83
  Q 867.87 658.22 867.53 658.50
  Q 864.70 660.78 861.57 662.69
  Q 839.80 676.00 817.92 682.00
  Q 798.51 687.33 775.77 689.75
  Q 698.46 697.99 636.58 654.17
  C 596.42 625.73 566.44 581.47 559.28 532.20
  Q 552.27 483.96 571.19 439.72
  Z"
/>
<path fill="#ffffff" d="
  M 1021.85 472.25
  L 1098.91 472.25
  A 0.36 0.36 0.0 0 1 1099.27 472.61
  L 1099.26 538.13
  A 0.36 0.36 0.0 0 1 1098.90 538.49
  L 1021.84 538.51
  A 0.36 0.36 0.0 0 0 1021.48 538.87
  L 1021.48 615.89
  A 0.36 0.36 0.0 0 1 1021.12 616.25
  L 955.61 616.25
  A 0.36 0.36 0.0 0 1 955.25 615.89
  L 955.25 538.90
  A 0.36 0.36 0.0 0 0 954.89 538.54
  L 877.81 538.48
  A 0.36 0.36 0.0 0 1 877.45 538.12
  L 877.46 472.61
  A 0.36 0.36 0.0 0 1 877.82 472.25
  L 954.89 472.25
  A 0.36 0.36 0.0 0 0 955.25 471.89
  L 955.25 394.86
  A 0.36 0.36 0.0 0 1 955.61 394.50
  L 1021.11 394.50
  A 0.36 0.36 0.0 0 1 1021.47 394.86
  L 1021.49 471.89
  A 0.36 0.36 0.0 0 0 1021.85 472.25
  Z"
/>
<path fill="#ffffff" d="
  M 1274.19 472.25
  L 1350.99 472.25
  Q 1351.48 472.25 1351.48 472.74
  L 1351.44 537.07
  Q 1351.44 538.49 1350.02 538.49
  L 1274.05 538.51
  A 0.42 0.42 0.0 0 0 1273.63 538.93
  L 1273.63 615.69
  Q 1273.63 616.25 1273.06 616.25
  L 1208.05 616.25
  Q 1207.58 616.25 1207.55 615.78
  Q 1207.29 612.10 1207.31 608.12
  Q 1207.44 572.60 1207.38 538.83
  A 0.26 0.25 90.0 0 0 1207.13 538.57
  L 1130.15 538.47
  Q 1129.57 538.47 1129.57 537.89
  L 1129.58 472.59
  Q 1129.58 472.25 1129.91 472.25
  L 1206.52 472.25
  A 0.77 0.76 -90.0 0 0 1207.28 471.48
  L 1207.47 394.90
  A 0.39 0.38 -89.2 0 1 1207.85 394.52
  L 1273.44 394.49
  A 0.19 0.19 0.0 0 1 1273.63 394.68
  L 1273.63 471.69
  Q 1273.63 472.25 1274.19 472.25
  Z"
/>
</svg>
