<?xml version="1.0" encoding="UTF-8" standalone="no"?>
<!DOCTYPE svg PUBLIC "-//W3C//DTD SVG 1.1//EN" "http://www.w3.org/Graphics/SVG/1.1/DTD/svg11.dtd">
<svg xmlns="http://www.w3.org/2000/svg" version="1.1" viewBox="0.00 0.00 1920.00 1080.00">
<g stroke-width="2.00" fill="none" stroke-linecap="butt">
<path stroke="#7d3dec" vector-effect="non-scaling-stroke" d="
  M 1435.36 135.18
  Q 1436.86 140.77 1438.71 146.15
  Q 1441.64 154.63 1442.32 157.03
  Q 1453.10 194.88 1450.20 234.19
  Q 1429.81 510.25 1409.54 784.67
  Q 1406.43 826.71 1389.86 862.75
  Q 1357.61 932.89 1290.56 972.96
  C 1263.23 989.29 1230.87 1000.51 1198.99 1004.04
  Q 1189.04 1005.15 1178.25 1005.15
  Q 933.07 1005.09 684.40 1005.14
  Q 678.98 1005.14 673.45 1004.57
  Q 619.80 999.07 574.92 971.87
  Q 558.45 961.89 540.94 947.45
  C 535.26 942.76 530.25 937.49 524.83 932.46
  Q 523.09 930.85 521.53 928.98
  Q 519.11 926.07 518.60 924.99
  Q 517.53 922.74 515.91 922.21"
/>
<path stroke="#c6a9ff" vector-effect="non-scaling-stroke" d="
  M 714.48 783.86
  L 932.08 844.08
  Q 933.54 844.48 935.00 844.08
  L 1153.04 783.69
  A 0.85 0.84 85.5 0 0 1153.66 782.96
  L 1202.43 235.98
  A 0.44 0.44 0.0 0 0 1201.99 235.50
  L 665.70 235.50
  A 0.67 0.67 0.0 0 0 665.06 236.37
  Q 665.46 237.63 665.61 239.33
  Q 687.51 488.22 710.32 741.25
  Q 712.35 763.77 713.94 783.20
  A 0.75 0.74 -84.4 0 0 714.48 783.86"
/>
<path stroke="#c6a9ff" vector-effect="non-scaling-stroke" d="
  M 949.74 481.63
  Q 949.81 480.08 951.56 479.30
  Q 1022.89 447.40 1094.44 415.41
  A 2.59 2.59 0.0 0 0 1095.95 413.29
  L 1102.02 347.98
  Q 1102.05 347.66 1101.73 347.66
  L 766.30 347.66
  Q 765.00 347.66 765.11 348.96
  L 770.98 413.99
  A 0.80 0.80 0.0 0 0 771.78 414.72
  Q 844.54 414.70 922.53 414.74
  Q 924.78 414.74 926.77 415.41
  A 1.21 1.21 0.0 0 0 927.57 415.41
  L 929.18 414.86
  Q 929.31 414.81 929.43 414.88
  Q 929.60 414.98 929.68 415.13
  Q 929.82 415.41 929.54 415.53
  L 778.33 483.16
  Q 777.31 483.62 777.41 484.73
  L 783.26 550.00
  Q 783.30 550.47 783.77 550.47
  Q 798.66 550.51 812.50 550.53
  Q 909.72 550.73 1015.95 550.72
  A 0.49 0.49 0.0 0 1 1016.44 551.26
  L 1008.73 636.75
  A 2.12 2.11 -5.2 0 1 1007.18 638.60
  L 935.28 657.81
  A 5.64 5.64 0.0 0 1 932.40 657.81
  L 859.81 638.43
  A 1.86 1.84 -85.3 0 1 858.45 636.81
  L 853.88 585.13
  A 0.84 0.83 87.4 0 0 853.05 584.37
  L 786.98 584.36
  A 0.61 0.61 0.0 0 0 786.37 585.02
  L 795.67 688.57
  A 1.91 1.90 -85.0 0 0 797.06 690.24
  L 932.33 727.59
  A 6.05 5.98 44.7 0 0 935.56 727.59
  L 1070.04 690.30
  A 1.79 1.79 0.0 0 0 1071.35 688.73
  L 1089.71 484.05
  A 0.34 0.33 2.3 0 0 1089.37 483.69
  Q 1019.99 483.73 950.92 483.69
  Q 950.29 483.69 949.76 482.97"
/>
<path stroke="#c6a9ff" vector-effect="non-scaling-stroke" d="
  M 944.72 482.93
  Q 943.79 482.64 943.34 483.06
  Q 942.90 483.49 943.40 483.85
  Q 944.16 484.40 945.53 483.44"
/>
</g>
<path fill="#8c52ff" d="
  M 1435.36 135.18
  Q 1436.86 140.77 1438.71 146.15
  Q 1441.64 154.63 1442.32 157.03
  Q 1453.10 194.88 1450.20 234.19
  Q 1429.81 510.25 1409.54 784.67
  Q 1406.43 826.71 1389.86 862.75
  Q 1357.61 932.89 1290.56 972.96
  C 1263.23 989.29 1230.87 1000.51 1198.99 1004.04
  Q 1189.04 1005.15 1178.25 1005.15
  Q 933.07 1005.09 684.40 1005.14
  Q 678.98 1005.14 673.45 1004.57
  Q 619.80 999.07 574.92 971.87
  Q 558.45 961.89 540.94 947.45
  C 535.26 942.76 530.25 937.49 524.83 932.46
  Q 523.09 930.85 521.53 928.98
  Q 519.11 926.07 518.60 924.99
  Q 517.53 922.74 515.91 922.21
  Q 510.51 915.47 505.21 908.57
  Q 482.82 879.46 471.15 846.13
  Q 465.39 829.68 463.41 819.43
  Q 462.06 812.45 460.39 805.33
  Q 459.47 801.44 459.38 797.92
  C 459.23 792.42 457.84 786.82 457.81 781.31
  Q 457.77 772.71 456.56 765.84
  C 454.83 755.99 455.96 745.98 454.68 736.03
  Q 453.81 729.24 453.57 721.33
  C 453.46 717.56 452.92 713.91 452.29 710.22
  Q 451.91 708.00 451.92 705.76
  Q 451.96 695.52 450.99 685.97
  Q 450.33 679.38 449.93 673.23
  C 449.57 667.60 448.59 661.96 448.38 656.29
  C 447.86 642.35 447.27 627.93 445.26 614.29
  C 444.06 606.20 444.87 598.68 443.95 590.85
  Q 442.89 581.86 442.73 573.22
  C 442.60 566.47 440.74 560.10 440.74 553.50
  Q 440.74 542.27 439.92 534.63
  Q 439.02 526.19 438.59 518.05
  Q 438.42 514.72 437.97 511.46
  C 437.57 508.58 437.01 505.79 436.94 502.87
  C 436.79 495.64 436.57 488.73 435.90 481.24
  C 434.71 468.02 433.34 454.66 432.85 441.55
  Q 432.29 426.30 430.25 411.20
  Q 429.51 405.73 429.48 401.00
  C 429.46 396.37 429.39 391.98 428.79 387.35
  Q 427.56 377.86 427.46 366.27
  Q 427.45 364.30 426.46 358.99
  C 425.21 352.34 425.64 345.24 425.40 338.58
  C 425.20 332.79 423.90 326.99 423.83 321.25
  Q 423.75 314.00 422.74 307.34
  Q 421.84 301.49 421.79 295.92
  C 421.74 290.79 421.68 285.76 421.04 280.68
  C 420.28 274.64 420.10 268.50 419.40 262.61
  C 418.90 258.46 418.31 254.36 418.27 250.28
  C 418.18 240.69 417.11 231.09 416.80 221.28
  Q 416.44 210.22 417.02 202.37
  Q 417.42 196.78 417.88 191.22
  Q 418.37 185.25 419.45 180.28
  C 420.61 174.88 421.56 169.35 422.94 164.06
  Q 436.49 112.20 473.18 74.44
  Q 513.13 33.32 569.42 19.28
  C 579.19 16.84 588.74 15.56 598.67 14.05
  Q 604.44 13.17 610.27 13.18
  Q 838.76 13.24 1259.26 13.19
  Q 1263.90 13.19 1268.16 13.89
  Q 1273.16 14.70 1274.92 14.94
  Q 1323.44 21.48 1363.93 48.89
  Q 1368.27 51.83 1372.52 55.21
  Q 1378.92 60.29 1380.78 61.97
  C 1391.59 71.69 1402.37 82.49 1410.99 94.35
  Q 1423.00 110.87 1429.71 124.77
  Q 1433.50 132.61 1435.36 135.18
  Z
  M 714.48 783.86
  L 932.08 844.08
  Q 933.54 844.48 935.00 844.08
  L 1153.04 783.69
  A 0.85 0.84 85.5 0 0 1153.66 782.96
  L 1202.43 235.98
  A 0.44 0.44 0.0 0 0 1201.99 235.50
  L 665.70 235.50
  A 0.67 0.67 0.0 0 0 665.06 236.37
  Q 665.46 237.63 665.61 239.33
  Q 687.51 488.22 710.32 741.25
  Q 712.35 763.77 713.94 783.20
  A 0.75 0.74 -84.4 0 0 714.48 783.86
  Z"
/>
<path fill="#6d27d9" d="
  M 1435.36 135.18
  Q 1476.28 180.72 1485.69 240.67
  C 1486.92 248.51 1487.50 256.34 1488.02 264.12
  Q 1488.79 275.89 1487.54 288.37
  C 1486.78 296.00 1487.11 303.66 1486.13 311.26
  Q 1485.20 318.55 1484.98 325.94
  C 1484.74 334.02 1483.17 341.58 1483.15 349.87
  Q 1483.13 355.94 1482.36 361.40
  Q 1481.19 369.77 1481.19 378.17
  Q 1481.19 381.59 1480.48 385.56
  C 1479.35 391.92 1479.50 397.12 1479.35 403.24
  Q 1479.23 408.11 1478.55 413.37
  Q 1477.33 422.73 1477.06 433.97
  C 1476.96 437.94 1476.06 441.71 1475.82 445.64
  Q 1475.51 450.70 1475.50 456.04
  C 1475.50 462.46 1473.90 468.57 1473.73 474.96
  Q 1473.46 484.41 1472.38 493.15
  Q 1471.76 498.13 1471.73 504.83
  C 1471.70 512.71 1470.15 520.42 1469.98 528.46
  C 1469.80 536.41 1468.03 544.43 1468.13 552.57
  Q 1468.19 558.03 1467.42 563.58
  Q 1466.21 572.20 1466.21 580.85
  C 1466.20 586.52 1464.55 592.46 1464.58 598.08
  Q 1464.62 605.79 1463.91 612.45
  C 1462.55 625.08 1462.12 637.43 1460.90 650.30
  C 1460.39 655.66 1460.83 661.04 1459.99 666.32
  Q 1458.74 674.21 1458.63 682.32
  Q 1458.55 687.89 1457.72 693.54
  C 1456.72 700.34 1456.99 707.79 1456.32 714.93
  C 1455.80 720.44 1455.03 725.85 1455.00 731.46
  Q 1454.97 736.39 1454.61 738.86
  Q 1453.12 748.96 1453.06 757.06
  C 1453.02 762.32 1452.57 766.27 1451.89 770.97
  C 1450.86 778.08 1451.63 785.00 1450.36 792.14
  C 1449.03 799.64 1449.65 807.18 1448.95 814.79
  Q 1447.72 828.02 1447.61 830.04
  Q 1446.67 847.59 1444.70 860.02
  Q 1434.80 922.29 1395.43 971.00
  Q 1392.25 974.93 1388.99 978.85
  C 1384.30 984.47 1379.24 989.55 1374.18 994.64
  C 1369.96 998.88 1365.10 1002.45 1360.55 1006.48
  Q 1357.94 1008.80 1355.01 1011.10
  Q 1314.77 1042.71 1265.50 1055.32
  C 1249.08 1059.52 1232.67 1061.52 1215.17 1061.52
  Q 964.31 1061.51 724.58 1061.47
  C 716.51 1061.47 708.48 1061.25 700.52 1060.07
  C 654.22 1053.21 611.83 1033.14 576.31 1002.43
  Q 571.97 998.68 564.02 990.73
  C 550.26 976.96 538.03 961.20 528.18 944.79
  Q 522.74 935.72 515.91 922.21
  Q 517.53 922.74 518.60 924.99
  Q 519.11 926.07 521.53 928.98
  Q 523.09 930.85 524.83 932.46
  C 530.25 937.49 535.26 942.76 540.94 947.45
  Q 558.45 961.89 574.92 971.87
  Q 619.80 999.07 673.45 1004.57
  Q 678.98 1005.14 684.40 1005.14
  Q 933.07 1005.09 1178.25 1005.15
  Q 1189.04 1005.15 1198.99 1004.04
  C 1230.87 1000.51 1263.23 989.29 1290.56 972.96
  Q 1357.61 932.89 1389.86 862.75
  Q 1406.43 826.71 1409.54 784.67
  Q 1429.81 510.25 1450.20 234.19
  Q 1453.10 194.88 1442.32 157.03
  Q 1441.64 154.63 1438.71 146.15
  Q 1436.86 140.77 1435.36 135.18
  Z"
/>
<path fill="#ffffff" d="
  M 932.08 844.08
  L 714.48 783.86
  A 0.75 0.74 -84.4 0 1 713.94 783.20
  Q 712.35 763.77 710.32 741.25
  Q 687.51 488.22 665.61 239.33
  Q 665.46 237.63 665.06 236.37
  A 0.67 0.67 0.0 0 1 665.70 235.50
  L 1201.99 235.50
  A 0.44 0.44 0.0 0 1 1202.43 235.98
  L 1153.66 782.96
  A 0.85 0.84 85.5 0 1 1153.04 783.69
  L 935.00 844.08
  Q 933.54 844.48 932.08 844.08
  Z
  M 949.76 482.97
  Q 950.01 482.32 949.74 481.63
  Q 949.81 480.08 951.56 479.30
  Q 1022.89 447.40 1094.44 415.41
  A 2.59 2.59 0.0 0 0 1095.95 413.29
  L 1102.02 347.98
  Q 1102.05 347.66 1101.73 347.66
  L 766.30 347.66
  Q 765.00 347.66 765.11 348.96
  L 770.98 413.99
  A 0.80 0.80 0.0 0 0 771.78 414.72
  Q 844.54 414.70 922.53 414.74
  Q 924.78 414.74 926.77 415.41
  A 1.21 1.21 0.0 0 0 927.57 415.41
  L 929.18 414.86
  Q 929.31 414.81 929.43 414.88
  Q 929.60 414.98 929.68 415.13
  Q 929.82 415.41 929.54 415.53
  L 778.33 483.16
  Q 777.31 483.62 777.41 484.73
  L 783.26 550.00
  Q 783.30 550.47 783.77 550.47
  Q 798.66 550.51 812.50 550.53
  Q 909.72 550.73 1015.95 550.72
  A 0.49 0.49 0.0 0 1 1016.44 551.26
  L 1008.73 636.75
  A 2.12 2.11 -5.2 0 1 1007.18 638.60
  L 935.28 657.81
  A 5.64 5.64 0.0 0 1 932.40 657.81
  L 859.81 638.43
  A 1.86 1.84 -85.3 0 1 858.45 636.81
  L 853.88 585.13
  A 0.84 0.83 87.4 0 0 853.05 584.37
  L 786.98 584.36
  A 0.61 0.61 0.0 0 0 786.37 585.02
  L 795.67 688.57
  A 1.91 1.90 -85.0 0 0 797.06 690.24
  L 932.33 727.59
  A 6.05 5.98 44.7 0 0 935.56 727.59
  L 1070.04 690.30
  A 1.79 1.79 0.0 0 0 1071.35 688.73
  L 1089.71 484.05
  A 0.34 0.33 2.3 0 0 1089.37 483.69
  Q 1019.99 483.73 950.92 483.69
  Q 950.29 483.69 949.76 482.97
  Z"
/>
<path fill="#8c52ff" d="
  M 949.74 481.63
  Q 946.80 481.34 944.72 482.93
  Q 943.79 482.64 943.34 483.06
  Q 942.90 483.49 943.40 483.85
  Q 944.16 484.40 945.53 483.44
  Q 947.53 483.88 949.76 482.97
  Q 950.29 483.69 950.92 483.69
  Q 1019.99 483.73 1089.37 483.69
  A 0.34 0.33 2.3 0 1 1089.71 484.05
  L 1071.35 688.73
  A 1.79 1.79 0.0 0 1 1070.04 690.30
  L 935.56 727.59
  A 6.05 5.98 44.7 0 1 932.33 727.59
  L 797.06 690.24
  A 1.91 1.90 -85.0 0 1 795.67 688.57
  L 786.37 585.02
  A 0.61 0.61 0.0 0 1 786.98 584.36
  L 853.05 584.37
  A 0.84 0.83 87.4 0 1 853.88 585.13
  L 858.45 636.81
  A 1.86 1.84 -85.3 0 0 859.81 638.43
  L 932.40 657.81
  A 5.64 5.64 0.0 0 0 935.28 657.81
  L 1007.18 638.60
  A 2.12 2.11 -5.2 0 0 1008.73 636.75
  L 1016.44 551.26
  A 0.49 0.49 0.0 0 0 1015.95 550.72
  Q 909.72 550.73 812.50 550.53
  Q 798.66 550.51 783.77 550.47
  Q 783.30 550.47 783.26 550.00
  L 777.41 484.73
  Q 777.31 483.62 778.33 483.16
  L 929.54 415.53
  Q 929.82 415.41 929.68 415.13
  Q 929.60 414.98 929.43 414.88
  Q 929.31 414.81 929.18 414.86
  L 927.57 415.41
  A 1.21 1.21 0.0 0 1 926.77 415.41
  Q 924.78 414.74 922.53 414.74
  Q 844.54 414.70 771.78 414.72
  A 0.80 0.80 0.0 0 1 770.98 413.99
  L 765.11 348.96
  Q 765.00 347.66 766.30 347.66
  L 1101.73 347.66
  Q 1102.05 347.66 1102.02 347.98
  L 1095.95 413.29
  A 2.59 2.59 0.0 0 1 1094.44 415.41
  Q 1022.89 447.40 951.56 479.30
  Q 949.81 480.08 949.74 481.63
  Z"
/>
<path fill="#ffffff" d="
  M 944.72 482.93
  Q 945.10 483.28 945.53 483.44
  Q 944.16 484.40 943.40 483.85
  Q 942.90 483.49 943.34 483.06
  Q 943.79 482.64 944.72 482.93
  Z"
/>
</svg>
