<?xml version="1.0" encoding="UTF-8" standalone="no"?>
<!DOCTYPE svg PUBLIC "-//W3C//DTD SVG 1.1//EN" "http://www.w3.org/Graphics/SVG/1.1/DTD/svg11.dtd">
<svg xmlns="http://www.w3.org/2000/svg" version="1.1" viewBox="0.00 0.00 1920.00 1080.00">
<g stroke-width="2.00" fill="none" stroke-linecap="butt">
<path stroke="#7d3dec" vector-effect="non-scaling-stroke" d="
  M 1435.00 134.78
  Q 1435.14 135.16 1435.14 135.60
  Q 1435.13 136.09 1435.31 136.54
  Q 1453.93 183.59 1450.15 234.68
  Q 1429.85 509.80 1409.73 782.83
  Q 1408.92 793.77 1407.74 801.68
  Q 1399.24 858.40 1365.50 904.75
  Q 1320.26 966.88 1247.49 992.90
  Q 1223.76 1001.39 1198.52 1004.07
  Q 1188.43 1005.14 1177.52 1005.14
  Q 933.24 1005.10 685.03 1005.13
  Q 677.79 1005.14 670.50 1004.29
  Q 618.56 998.26 574.97 971.92
  Q 558.68 962.08 541.22 947.71
  C 536.03 943.43 530.59 937.87 525.31 932.85
  Q 525.07 932.63 521.66 928.73
  Q 519.79 926.61 517.55 925.01"
/>
<path stroke="#c6a9ff" vector-effect="non-scaling-stroke" d="
  M 706.45 499.75
  L 901.56 499.75
  Q 901.91 499.75 901.91 499.40
  Q 902.10 476.04 898.65 453.47
  Q 895.46 432.60 887.22 411.77
  C 876.10 383.69 856.08 359.28 828.01 347.67
  Q 798.76 335.56 765.59 338.30
  Q 745.32 339.97 728.16 348.13
  Q 697.27 362.82 678.09 388.70
  Q 661.91 410.53 654.58 436.09
  Q 649.53 453.74 649.18 474.00
  C 648.40 520.28 670.69 563.68 708.42 589.79
  Q 731.56 605.79 758.31 611.37
  C 763.43 612.44 768.90 612.84 774.13 613.41
  Q 784.14 614.51 796.88 614.09
  Q 801.31 613.94 805.63 613.24
  C 813.06 612.04 820.38 611.14 827.77 609.25
  Q 865.88 599.54 894.45 572.40
  Q 894.85 572.01 894.46 571.62
  L 862.09 539.09
  A 0.48 0.48 0.0 0 0 861.42 539.08
  Q 832.67 566.25 793.83 566.90
  Q 783.29 567.08 774.11 565.09
  C 740.57 557.82 715.84 533.04 706.00 500.36
  A 0.48 0.47 81.7 0 1 706.45 499.75"
/>
<path stroke="#c6a9ff" vector-effect="non-scaling-stroke" d="
  M 1100.05 343.75
  A 0.34 0.34 0.0 0 0 1099.78 343.89
  L 1039.47 425.90
  A 0.34 0.34 0.0 0 1 1038.93 425.90
  L 978.08 343.89
  A 0.34 0.34 0.0 0 0 977.81 343.75
  L 913.70 343.74
  A 0.34 0.34 0.0 0 0 913.43 344.28
  L 1006.50 470.79
  A 0.34 0.34 0.0 0 1 1006.50 471.19
  L 906.28 607.21
  A 0.34 0.34 0.0 0 0 906.55 607.75
  L 970.69 607.75
  A 0.34 0.34 0.0 0 0 970.96 607.61
  L 1038.94 515.36
  A 0.34 0.34 0.0 0 1 1039.48 515.36
  L 1106.91 607.61
  A 0.34 0.34 0.0 0 0 1107.18 607.75
  L 1171.34 607.76
  A 0.34 0.34 0.0 0 0 1171.61 607.22
  L 1071.93 471.19
  A 0.34 0.34 0.0 0 1 1071.93 470.79
  L 1164.47 344.28
  A 0.34 0.34 0.0 0 0 1164.20 343.74
  L 1100.05 343.75"
/>
<path stroke="#c6a9ff" vector-effect="non-scaling-stroke" d="
  M 1163.70 690.03
  C 1156.34 698.95 1152.87 710.91 1152.86 722.64
  C 1152.84 746.18 1170.84 762.60 1190.68 771.82
  Q 1202.48 777.30 1213.15 782.61
  Q 1217.94 785.00 1223.14 788.91
  Q 1228.62 793.02 1229.56 798.33
  C 1231.40 808.74 1225.12 815.81 1215.31 818.00
  C 1200.87 821.21 1190.51 817.94 1177.32 811.25
  Q 1166.60 805.81 1158.10 798.66
  A 0.35 0.35 0.0 0 0 1157.57 798.75
  L 1136.92 833.46
  Q 1136.67 833.89 1137.04 834.21
  Q 1141.67 838.26 1146.74 841.23
  C 1155.10 846.14 1164.34 850.98 1173.58 853.65
  C 1195.49 859.98 1220.73 860.58 1241.82 851.96
  C 1253.32 847.26 1262.64 840.54 1268.80 829.56
  Q 1276.31 816.16 1276.11 798.14
  C 1275.84 773.59 1252.89 756.58 1231.91 747.71
  C 1220.77 742.99 1209.69 738.40 1200.20 731.54
  Q 1192.75 726.15 1194.52 717.82
  C 1197.45 704.07 1215.08 703.42 1225.74 705.83
  Q 1240.89 709.25 1253.24 717.18
  Q 1253.73 717.49 1253.99 716.97
  L 1270.46 684.42
  Q 1270.73 683.89 1270.26 683.54
  Q 1264.20 679.02 1258.12 676.33
  C 1240.64 668.61 1218.84 663.76 1200.75 667.55
  Q 1178.38 672.24 1163.70 690.03"
/>
<path stroke="#c6a9ff" vector-effect="non-scaling-stroke" d="
  M 1043.61 805.77
  L 1030.42 840.25
  Q 1030.29 840.59 1030.56 840.84
  Q 1048.38 857.29 1071.10 858.26
  C 1092.54 859.17 1113.80 852.78 1124.68 833.15
  C 1129.83 823.85 1131.39 812.38 1131.39 801.52
  Q 1131.36 735.73 1131.39 670.33
  Q 1131.39 669.71 1130.76 669.71
  L 1089.94 669.71
  Q 1089.14 669.71 1089.14 670.51
  Q 1089.16 730.72 1089.16 792.19
  C 1089.15 804.90 1084.49 816.02 1070.58 817.78
  C 1060.70 819.04 1051.06 812.39 1044.15 805.65
  A 0.33 0.33 0.0 0 0 1043.61 805.77"
/>
<path stroke="#c6a9ff" vector-effect="non-scaling-stroke" d="
  M 844.57 451.63
  C 843.06 434.54 836.67 418.03 824.52 405.55
  Q 806.00 386.55 778.91 386.04
  C 760.67 385.70 744.29 393.06 730.92 405.97
  Q 712.07 424.18 705.44 451.86
  Q 705.35 452.25 705.75 452.25
  L 844.00 452.25
  Q 844.62 452.25 844.57 451.63"
/>
</g>
<path fill="#8c52ff" d="
  M 1435.00 134.78
  Q 1435.14 135.16 1435.14 135.60
  Q 1435.13 136.09 1435.31 136.54
  Q 1453.93 183.59 1450.15 234.68
  Q 1429.85 509.80 1409.73 782.83
  Q 1408.92 793.77 1407.74 801.68
  Q 1399.24 858.40 1365.50 904.75
  Q 1320.26 966.88 1247.49 992.90
  Q 1223.76 1001.39 1198.52 1004.07
  Q 1188.43 1005.14 1177.52 1005.14
  Q 933.24 1005.10 685.03 1005.13
  Q 677.79 1005.14 670.50 1004.29
  Q 618.56 998.26 574.97 971.92
  Q 558.68 962.08 541.22 947.71
  C 536.03 943.43 530.59 937.87 525.31 932.85
  Q 525.07 932.63 521.66 928.73
  Q 519.79 926.61 517.55 925.01
  Q 516.60 923.60 515.57 921.95
  Q 514.59 920.36 513.43 919.00
  Q 477.81 877.13 464.37 823.80
  Q 463.12 818.81 462.30 813.61
  C 461.57 808.97 459.71 804.43 459.53 799.77
  C 459.29 793.13 457.94 786.74 457.83 780.29
  Q 457.69 772.16 456.51 765.15
  Q 455.51 759.22 455.58 753.12
  C 455.71 741.64 453.87 730.28 453.43 719.01
  C 453.25 714.55 452.08 709.97 451.97 705.44
  C 451.77 697.86 451.60 690.19 450.75 682.68
  C 450.12 677.15 449.91 671.47 449.25 665.87
  Q 448.39 658.53 448.08 649.42
  Q 447.33 627.89 445.53 616.40
  Q 444.29 608.55 444.42 599.69
  C 444.53 591.84 442.95 584.01 442.88 576.26
  Q 442.83 569.99 441.87 564.32
  Q 440.88 558.50 440.74 552.34
  C 440.61 546.86 440.60 541.38 440.08 535.89
  Q 438.92 523.79 438.18 512.69
  C 438.01 510.05 437.23 507.57 437.12 504.95
  C 436.73 496.28 436.64 487.76 435.78 478.86
  C 434.75 468.09 433.72 457.46 433.16 446.51
  C 432.57 434.81 432.03 423.44 430.32 411.53
  Q 429.51 405.90 429.47 401.28
  C 429.43 396.63 429.39 392.12 428.86 387.51
  Q 427.67 377.19 427.44 366.98
  Q 427.36 363.51 426.45 358.75
  C 425.17 352.04 425.66 345.06 425.38 338.00
  C 425.15 332.32 424.00 326.50 423.88 321.01
  Q 423.72 314.01 422.81 307.81
  Q 421.93 301.83 421.87 296.20
  Q 421.76 285.66 420.66 276.48
  C 420.04 271.23 419.99 265.84 419.17 260.52
  C 417.96 252.70 418.35 244.78 417.68 236.86
  Q 416.47 222.56 416.71 208.26
  C 416.81 201.79 417.63 195.87 418.11 189.50
  Q 418.37 185.90 419.09 182.05
  Q 421.12 171.06 423.42 162.51
  Q 435.33 118.25 463.99 84.61
  Q 504.04 37.58 564.19 20.62
  C 577.10 16.97 590.65 15.12 603.97 13.45
  Q 606.31 13.16 608.96 13.16
  Q 923.36 13.27 1259.76 13.18
  C 1264.22 13.18 1268.31 14.21 1272.68 14.72
  Q 1276.17 15.13 1279.81 15.70
  Q 1325.77 22.86 1365.70 50.08
  Q 1369.22 52.48 1372.65 55.39
  C 1375.74 58.01 1379.02 60.26 1381.99 63.06
  Q 1397.11 77.25 1402.58 83.79
  Q 1418.94 103.33 1428.52 122.48
  Q 1433.46 132.37 1435.00 134.78
  Z
  M 706.45 499.75
  L 901.56 499.75
  Q 901.91 499.75 901.91 499.40
  Q 902.10 476.04 898.65 453.47
  Q 895.46 432.60 887.22 411.77
  C 876.10 383.69 856.08 359.28 828.01 347.67
  Q 798.76 335.56 765.59 338.30
  Q 745.32 339.97 728.16 348.13
  Q 697.27 362.82 678.09 388.70
  Q 661.91 410.53 654.58 436.09
  Q 649.53 453.74 649.18 474.00
  C 648.40 520.28 670.69 563.68 708.42 589.79
  Q 731.56 605.79 758.31 611.37
  C 763.43 612.44 768.90 612.84 774.13 613.41
  Q 784.14 614.51 796.88 614.09
  Q 801.31 613.94 805.63 613.24
  C 813.06 612.04 820.38 611.14 827.77 609.25
  Q 865.88 599.54 894.45 572.40
  Q 894.85 572.01 894.46 571.62
  L 862.09 539.09
  A 0.48 0.48 0.0 0 0 861.42 539.08
  Q 832.67 566.25 793.83 566.90
  Q 783.29 567.08 774.11 565.09
  C 740.57 557.82 715.84 533.04 706.00 500.36
  A 0.48 0.47 81.7 0 1 706.45 499.75
  Z
  M 1100.05 343.75
  A 0.34 0.34 0.0 0 0 1099.78 343.89
  L 1039.47 425.90
  A 0.34 0.34 0.0 0 1 1038.93 425.90
  L 978.08 343.89
  A 0.34 0.34 0.0 0 0 977.81 343.75
  L 913.70 343.74
  A 0.34 0.34 0.0 0 0 913.43 344.28
  L 1006.50 470.79
  A 0.34 0.34 0.0 0 1 1006.50 471.19
  L 906.28 607.21
  A 0.34 0.34 0.0 0 0 906.55 607.75
  L 970.69 607.75
  A 0.34 0.34 0.0 0 0 970.96 607.61
  L 1038.94 515.36
  A 0.34 0.34 0.0 0 1 1039.48 515.36
  L 1106.91 607.61
  A 0.34 0.34 0.0 0 0 1107.18 607.75
  L 1171.34 607.76
  A 0.34 0.34 0.0 0 0 1171.61 607.22
  L 1071.93 471.19
  A 0.34 0.34 0.0 0 1 1071.93 470.79
  L 1164.47 344.28
  A 0.34 0.34 0.0 0 0 1164.20 343.74
  L 1100.05 343.75
  Z
  M 1163.70 690.03
  C 1156.34 698.95 1152.87 710.91 1152.86 722.64
  C 1152.84 746.18 1170.84 762.60 1190.68 771.82
  Q 1202.48 777.30 1213.15 782.61
  Q 1217.94 785.00 1223.14 788.91
  Q 1228.62 793.02 1229.56 798.33
  C 1231.40 808.74 1225.12 815.81 1215.31 818.00
  C 1200.87 821.21 1190.51 817.94 1177.32 811.25
  Q 1166.60 805.81 1158.10 798.66
  A 0.35 0.35 0.0 0 0 1157.57 798.75
  L 1136.92 833.46
  Q 1136.67 833.89 1137.04 834.21
  Q 1141.67 838.26 1146.74 841.23
  C 1155.10 846.14 1164.34 850.98 1173.58 853.65
  C 1195.49 859.98 1220.73 860.58 1241.82 851.96
  C 1253.32 847.26 1262.64 840.54 1268.80 829.56
  Q 1276.31 816.16 1276.11 798.14
  C 1275.84 773.59 1252.89 756.58 1231.91 747.71
  C 1220.77 742.99 1209.69 738.40 1200.20 731.54
  Q 1192.75 726.15 1194.52 717.82
  C 1197.45 704.07 1215.08 703.42 1225.74 705.83
  Q 1240.89 709.25 1253.24 717.18
  Q 1253.73 717.49 1253.99 716.97
  L 1270.46 684.42
  Q 1270.73 683.89 1270.26 683.54
  Q 1264.20 679.02 1258.12 676.33
  C 1240.64 668.61 1218.84 663.76 1200.75 667.55
  Q 1178.38 672.24 1163.70 690.03
  Z
  M 1043.61 805.77
  L 1030.42 840.25
  Q 1030.29 840.59 1030.56 840.84
  Q 1048.38 857.29 1071.10 858.26
  C 1092.54 859.17 1113.80 852.78 1124.68 833.15
  C 1129.83 823.85 1131.39 812.38 1131.39 801.52
  Q 1131.36 735.73 1131.39 670.33
  Q 1131.39 669.71 1130.76 669.71
  L 1089.94 669.71
  Q 1089.14 669.71 1089.14 670.51
  Q 1089.16 730.72 1089.16 792.19
  C 1089.15 804.90 1084.49 816.02 1070.58 817.78
  C 1060.70 819.04 1051.06 812.39 1044.15 805.65
  A 0.33 0.33 0.0 0 0 1043.61 805.77
  Z"
/>
<path fill="#6d27d9" d="
  M 1435.00 134.78
  Q 1476.41 180.48 1485.80 241.28
  C 1486.86 248.17 1487.37 255.38 1487.94 262.26
  Q 1488.87 273.47 1487.86 284.10
  Q 1487.13 291.76 1486.98 297.78
  C 1486.76 306.83 1485.43 315.60 1485.11 324.28
  Q 1484.91 329.70 1484.36 334.44
  C 1483.84 338.99 1483.23 343.59 1483.21 348.20
  Q 1483.18 356.17 1481.97 364.57
  C 1480.96 371.66 1481.72 378.77 1480.41 385.82
  C 1478.72 394.98 1480.10 404.29 1478.48 413.49
  Q 1477.48 419.14 1477.54 422.50
  Q 1477.69 431.40 1476.71 438.16
  Q 1475.77 444.66 1475.67 447.91
  C 1475.49 453.80 1475.72 459.63 1474.71 465.25
  C 1473.43 472.46 1473.79 479.84 1472.99 486.75
  Q 1472.20 493.53 1471.95 499.40
  C 1471.70 505.01 1471.66 510.82 1470.91 516.38
  C 1469.86 524.09 1470.18 531.67 1469.09 539.34
  C 1467.88 547.86 1468.41 556.25 1467.25 564.88
  Q 1466.39 571.25 1466.29 578.34
  Q 1466.22 583.40 1465.27 590.23
  C 1464.14 598.37 1464.85 607.24 1463.62 615.65
  Q 1462.66 622.22 1462.47 629.87
  Q 1462.31 636.61 1461.54 643.48
  Q 1460.45 653.30 1460.25 663.74
  C 1460.18 667.25 1459.19 670.78 1459.05 674.42
  Q 1458.64 685.68 1457.48 695.86
  Q 1456.91 700.95 1456.70 708.34
  C 1456.50 715.87 1455.15 723.07 1455.07 730.58
  Q 1455.01 735.51 1454.38 740.19
  Q 1453.25 748.53 1453.12 756.83
  Q 1453.02 763.22 1452.08 769.57
  C 1451.02 776.79 1451.70 784.18 1450.48 791.45
  Q 1449.18 799.15 1449.36 809.07
  Q 1449.44 813.37 1448.68 817.96
  C 1447.21 826.71 1447.92 835.57 1446.61 844.51
  C 1445.69 850.74 1445.22 857.20 1444.14 863.56
  Q 1435.00 917.08 1402.48 961.64
  Q 1387.71 981.87 1370.51 997.97
  Q 1367.44 1000.85 1358.21 1008.40
  C 1327.74 1033.32 1292.04 1050.16 1253.47 1057.98
  C 1236.46 1061.44 1219.39 1061.50 1202.02 1061.50
  Q 965.26 1061.50 728.50 1061.48
  C 719.69 1061.48 710.68 1061.40 702.17 1060.21
  Q 683.04 1057.52 668.42 1053.14
  Q 604.68 1034.04 558.93 985.31
  Q 556.05 982.25 550.19 975.39
  Q 545.23 969.57 541.88 965.08
  Q 527.95 946.40 517.55 925.01
  Q 519.79 926.61 521.66 928.73
  Q 525.07 932.63 525.31 932.85
  C 530.59 937.87 536.03 943.43 541.22 947.71
  Q 558.68 962.08 574.97 971.92
  Q 618.56 998.26 670.50 1004.29
  Q 677.79 1005.14 685.03 1005.13
  Q 933.24 1005.10 1177.52 1005.14
  Q 1188.43 1005.14 1198.52 1004.07
  Q 1223.76 1001.39 1247.49 992.90
  Q 1320.26 966.88 1365.50 904.75
  Q 1399.24 858.40 1407.74 801.68
  Q 1408.92 793.77 1409.73 782.83
  Q 1429.85 509.80 1450.15 234.68
  Q 1453.93 183.59 1435.31 136.54
  Q 1435.13 136.09 1435.14 135.60
  Q 1435.14 135.16 1435.00 134.78
  Z"
/>
<path fill="#ffffff" d="
  M 706.45 499.75
  A 0.48 0.47 81.7 0 0 706.00 500.36
  C 715.84 533.04 740.57 557.82 774.11 565.09
  Q 783.29 567.08 793.83 566.90
  Q 832.67 566.25 861.42 539.08
  A 0.48 0.48 0.0 0 1 862.09 539.09
  L 894.46 571.62
  Q 894.85 572.01 894.45 572.40
  Q 865.88 599.54 827.77 609.25
  C 820.38 611.14 813.06 612.04 805.63 613.24
  Q 801.31 613.94 796.88 614.09
  Q 784.14 614.51 774.13 613.41
  C 768.90 612.84 763.43 612.44 758.31 611.37
  Q 731.56 605.79 708.42 589.79
  C 670.69 563.68 648.40 520.28 649.18 474.00
  Q 649.53 453.74 654.58 436.09
  Q 661.91 410.53 678.09 388.70
  Q 697.27 362.82 728.16 348.13
  Q 745.32 339.97 765.59 338.30
  Q 798.76 335.56 828.01 347.67
  C 856.08 359.28 876.10 383.69 887.22 411.77
  Q 895.46 432.60 898.65 453.47
  Q 902.10 476.04 901.91 499.40
  Q 901.91 499.75 901.56 499.75
  L 706.45 499.75
  Z
  M 844.57 451.63
  C 843.06 434.54 836.67 418.03 824.52 405.55
  Q 806.00 386.55 778.91 386.04
  C 760.67 385.70 744.29 393.06 730.92 405.97
  Q 712.07 424.18 705.44 451.86
  Q 705.35 452.25 705.75 452.25
  L 844.00 452.25
  Q 844.62 452.25 844.57 451.63
  Z"
/>
<path fill="#ffffff" d="
  M 1100.05 343.75
  L 1164.20 343.74
  A 0.34 0.34 0.0 0 1 1164.47 344.28
  L 1071.93 470.79
  A 0.34 0.34 0.0 0 0 1071.93 471.19
  L 1171.61 607.22
  A 0.34 0.34 0.0 0 1 1171.34 607.76
  L 1107.18 607.75
  A 0.34 0.34 0.0 0 1 1106.91 607.61
  L 1039.48 515.36
  A 0.34 0.34 0.0 0 0 1038.94 515.36
  L 970.96 607.61
  A 0.34 0.34 0.0 0 1 970.69 607.75
  L 906.55 607.75
  A 0.34 0.34 0.0 0 1 906.28 607.21
  L 1006.50 471.19
  A 0.34 0.34 0.0 0 0 1006.50 470.79
  L 913.43 344.28
  A 0.34 0.34 0.0 0 1 913.70 343.74
  L 977.81 343.75
  A 0.34 0.34 0.0 0 1 978.08 343.89
  L 1038.93 425.90
  A 0.34 0.34 0.0 0 0 1039.47 425.90
  L 1099.78 343.89
  A 0.34 0.34 0.0 0 1 1100.05 343.75
  Z"
/>
<path fill="#8c52ff" d="
  M 824.52 405.55
  C 836.67 418.03 843.06 434.54 844.57 451.63
  Q 844.62 452.25 844.00 452.25
  L 705.75 452.25
  Q 705.35 452.25 705.44 451.86
  Q 712.07 424.18 730.92 405.97
  C 744.29 393.06 760.67 385.70 778.91 386.04
  Q 806.00 386.55 824.52 405.55
  Z"
/>
<path fill="#ffffff" d="
  M 1152.86 722.64
  C 1152.87 710.91 1156.34 698.95 1163.70 690.03
  Q 1178.38 672.24 1200.75 667.55
  C 1218.84 663.76 1240.64 668.61 1258.12 676.33
  Q 1264.20 679.02 1270.26 683.54
  Q 1270.73 683.89 1270.46 684.42
  L 1253.99 716.97
  Q 1253.73 717.49 1253.24 717.18
  Q 1240.89 709.25 1225.74 705.83
  C 1215.08 703.42 1197.45 704.07 1194.52 717.82
  Q 1192.75 726.15 1200.20 731.54
  C 1209.69 738.40 1220.77 742.99 1231.91 747.71
  C 1252.89 756.58 1275.84 773.59 1276.11 798.14
  Q 1276.31 816.16 1268.80 829.56
  C 1262.64 840.54 1253.32 847.26 1241.82 851.96
  C 1220.73 860.58 1195.49 859.98 1173.58 853.65
  C 1164.34 850.98 1155.10 846.14 1146.74 841.23
  Q 1141.67 838.26 1137.04 834.21
  Q 1136.67 833.89 1136.92 833.46
  L 1157.57 798.75
  A 0.35 0.35 0.0 0 1 1158.10 798.66
  Q 1166.60 805.81 1177.32 811.25
  C 1190.51 817.94 1200.87 821.21 1215.31 818.00
  C 1225.12 815.81 1231.40 808.74 1229.56 798.33
  Q 1228.62 793.02 1223.14 788.91
  Q 1217.94 785.00 1213.15 782.61
  Q 1202.48 777.30 1190.68 771.82
  C 1170.84 762.60 1152.84 746.18 1152.86 722.64
  Z"
/>
<path fill="#ffffff" d="
  M 1030.42 840.25
  L 1043.61 805.77
  A 0.33 0.33 0.0 0 1 1044.15 805.65
  C 1051.06 812.39 1060.70 819.04 1070.58 817.78
  C 1084.49 816.02 1089.15 804.90 1089.16 792.19
  Q 1089.16 730.72 1089.14 670.51
  Q 1089.14 669.71 1089.94 669.71
  L 1130.76 669.71
  Q 1131.39 669.71 1131.39 670.33
  Q 1131.36 735.73 1131.39 801.52
  C 1131.39 812.38 1129.83 823.85 1124.68 833.15
  C 1113.80 852.78 1092.54 859.17 1071.10 858.26
  Q 1048.38 857.29 1030.56 840.84
  Q 1030.29 840.59 1030.42 840.25
  Z"
/>
</svg>
