<?xml version="1.0" encoding="UTF-8" standalone="no"?>
<!DOCTYPE svg PUBLIC "-//W3C//DTD SVG 1.1//EN" "http://www.w3.org/Graphics/SVG/1.1/DTD/svg11.dtd">
<svg xmlns="http://www.w3.org/2000/svg" version="1.1" viewBox="0.00 0.00 1920.00 1080.00">
<g stroke-width="2.00" fill="none" stroke-linecap="butt">
<path stroke="#7d3dec" vector-effect="non-scaling-stroke" d="
  M 1435.94 135.62
  Q 1435.39 136.28 1435.96 137.77
  Q 1452.50 180.57 1450.69 225.77
  Q 1450.55 229.29 1449.34 245.71
  Q 1430.38 502.65 1410.36 773.57
  Q 1409.56 784.34 1408.61 793.67
  C 1402.85 850.37 1374.60 903.07 1332.80 941.58
  Q 1295.45 975.99 1247.66 992.83
  Q 1223.27 1001.42 1198.51 1004.16
  Q 1189.80 1005.12 1178.00 1005.12
  Q 933.12 1005.13 684.75 1005.10
  Q 678.92 1005.10 673.48 1004.55
  Q 620.29 999.19 575.40 972.17
  Q 560.40 963.15 544.31 950.18
  C 536.74 944.09 529.70 937.21 522.80 930.43
  Q 521.67 929.32 520.58 927.75
  Q 520.10 927.06 518.45 926.96"
/>
<path stroke="#c6a9ff" vector-effect="non-scaling-stroke" d="
  M 976.17 660.43
  Q 967.01 677.49 948.34 683.16
  C 935.59 687.04 920.90 684.89 909.83 677.38
  C 893.68 666.43 885.48 646.82 890.44 627.67
  Q 896.04 606.05 916.94 596.29
  A 1.39 1.38 -12.3 0 0 917.75 595.03
  L 917.74 430.20
  A 1.25 1.23 -77.8 0 0 917.02 429.07
  Q 899.83 421.27 892.76 404.81
  C 887.93 393.56 887.73 381.30 892.22 369.83
  A 1.78 1.77 33.5 0 0 891.82 367.92
  L 824.05 300.19
  Q 823.86 299.99 823.66 300.19
  Q 734.11 389.60 642.81 481.05
  C 626.98 496.90 627.48 521.43 643.16 537.11
  Q 774.47 668.43 906.18 800.15
  C 919.58 813.55 939.20 816.17 955.28 806.27
  Q 959.62 803.60 968.88 794.32
  Q 1094.65 668.29 1221.06 542.14
  C 1228.40 534.82 1234.04 527.98 1235.89 517.78
  Q 1238.61 502.81 1231.22 490.08
  Q 1228.69 485.71 1219.30 476.33
  Q 1090.81 347.91 964.92 222.05
  C 957.48 214.61 950.72 209.14 940.48 207.40
  Q 926.00 204.96 914.13 211.79
  Q 908.90 214.80 902.51 221.24
  Q 875.11 248.83 851.09 272.59
  A 0.42 0.42 0.0 0 0 851.09 273.19
  L 919.93 342.04
  A 1.61 1.61 0.0 0 0 921.57 342.43
  Q 929.50 339.90 937.42 340.30
  C 967.92 341.86 988.87 371.56 979.30 400.85
  A 1.30 1.30 0.0 0 0 979.62 402.19
  Q 1011.13 433.63 1044.00 466.63
  Q 1045.09 467.72 1046.32 468.46
  Q 1046.75 468.72 1047.23 468.57
  Q 1067.14 462.54 1084.98 472.76
  C 1094.10 477.98 1101.57 487.28 1105.00 497.10
  C 1115.96 528.51 1091.88 560.69 1058.78 558.88
  C 1027.19 557.14 1007.28 525.38 1018.20 496.04
  Q 1018.57 495.02 1017.81 494.26
  L 956.59 433.17
  Q 955.82 432.41 955.82 433.49
  L 955.80 596.45
  A 1.32 1.32 0.0 0 0 956.51 597.62
  C 979.42 609.58 988.32 637.80 976.17 660.43"
/>
</g>
<path fill="#8c52ff" d="
  M 1435.94 135.62
  Q 1435.39 136.28 1435.96 137.77
  Q 1452.50 180.57 1450.69 225.77
  Q 1450.55 229.29 1449.34 245.71
  Q 1430.38 502.65 1410.36 773.57
  Q 1409.56 784.34 1408.61 793.67
  C 1402.85 850.37 1374.60 903.07 1332.80 941.58
  Q 1295.45 975.99 1247.66 992.83
  Q 1223.27 1001.42 1198.51 1004.16
  Q 1189.80 1005.12 1178.00 1005.12
  Q 933.12 1005.13 684.75 1005.10
  Q 678.92 1005.10 673.48 1004.55
  Q 620.29 999.19 575.40 972.17
  Q 560.40 963.15 544.31 950.18
  C 536.74 944.09 529.70 937.21 522.80 930.43
  Q 521.67 929.32 520.58 927.75
  Q 520.10 927.06 518.45 926.96
  C 516.84 924.13 515.42 921.39 513.28 918.87
  Q 478.76 878.25 464.96 826.22
  Q 463.53 820.80 462.72 816.00
  Q 461.78 810.45 460.38 805.19
  C 459.04 800.19 459.54 795.08 458.64 789.95
  C 457.32 782.45 458.10 774.88 456.84 767.45
  C 456.41 764.91 455.77 762.46 455.74 759.89
  Q 455.62 752.11 455.41 745.03
  C 455.23 739.00 453.89 732.85 453.83 726.90
  Q 453.75 719.94 452.76 713.81
  C 451.35 705.16 452.12 696.49 451.13 687.81
  Q 450.40 681.47 450.02 674.98
  C 449.64 668.38 448.38 661.90 448.27 655.32
  Q 447.92 635.40 445.40 615.66
  Q 444.44 608.12 444.47 603.00
  Q 444.52 594.95 443.63 588.13
  C 442.54 579.76 443.12 571.35 441.65 563.18
  C 439.82 552.98 441.09 542.52 439.68 532.23
  C 438.68 525.00 438.81 517.83 437.79 510.80
  C 436.43 501.51 437.06 492.53 436.06 483.33
  C 435.16 475.08 434.67 466.61 433.82 458.24
  Q 433.21 452.22 432.97 444.50
  Q 432.50 428.74 430.28 411.46
  Q 429.52 405.54 429.48 401.22
  C 429.43 396.61 429.44 392.09 428.81 387.54
  Q 427.60 378.74 427.52 369.15
  Q 427.50 365.84 427.00 362.49
  C 426.53 359.35 425.74 356.27 425.71 353.07
  C 425.65 345.48 425.72 337.68 424.56 330.13
  C 423.42 322.64 423.88 314.87 422.72 307.70
  C 421.37 299.31 422.15 290.68 421.11 282.11
  Q 420.28 275.28 419.99 268.70
  C 419.76 263.68 418.46 258.69 418.39 253.83
  C 418.14 236.92 415.62 220.13 416.92 203.20
  Q 417.40 197.00 417.93 190.99
  Q 418.47 184.77 419.73 179.16
  C 420.90 173.92 421.79 168.55 423.20 163.31
  Q 440.38 99.25 490.41 58.54
  Q 527.28 28.53 574.08 18.21
  Q 583.76 16.07 597.12 14.24
  Q 604.84 13.18 612.95 13.18
  Q 936.10 13.21 1259.25 13.20
  C 1261.60 13.20 1264.08 13.17 1266.40 13.64
  C 1271.19 14.63 1276.00 14.97 1280.76 15.76
  Q 1335.74 24.92 1377.99 59.57
  Q 1384.61 64.99 1395.00 75.56
  Q 1402.29 82.98 1408.11 90.58
  Q 1420.93 107.30 1429.04 123.46
  Q 1433.18 131.71 1435.94 135.62
  Z
  M 976.17 660.43
  Q 967.01 677.49 948.34 683.16
  C 935.59 687.04 920.90 684.89 909.83 677.38
  C 893.68 666.43 885.48 646.82 890.44 627.67
  Q 896.04 606.05 916.94 596.29
  A 1.39 1.38 -12.3 0 0 917.75 595.03
  L 917.74 430.20
  A 1.25 1.23 -77.8 0 0 917.02 429.07
  Q 899.83 421.27 892.76 404.81
  C 887.93 393.56 887.73 381.30 892.22 369.83
  A 1.78 1.77 33.5 0 0 891.82 367.92
  L 824.05 300.19
  Q 823.86 299.99 823.66 300.19
  Q 734.11 389.60 642.81 481.05
  C 626.98 496.90 627.48 521.43 643.16 537.11
  Q 774.47 668.43 906.18 800.15
  C 919.58 813.55 939.20 816.17 955.28 806.27
  Q 959.62 803.60 968.88 794.32
  Q 1094.65 668.29 1221.06 542.14
  C 1228.40 534.82 1234.04 527.98 1235.89 517.78
  Q 1238.61 502.81 1231.22 490.08
  Q 1228.69 485.71 1219.30 476.33
  Q 1090.81 347.91 964.92 222.05
  C 957.48 214.61 950.72 209.14 940.48 207.40
  Q 926.00 204.96 914.13 211.79
  Q 908.90 214.80 902.51 221.24
  Q 875.11 248.83 851.09 272.59
  A 0.42 0.42 0.0 0 0 851.09 273.19
  L 919.93 342.04
  A 1.61 1.61 0.0 0 0 921.57 342.43
  Q 929.50 339.90 937.42 340.30
  C 967.92 341.86 988.87 371.56 979.30 400.85
  A 1.30 1.30 0.0 0 0 979.62 402.19
  Q 1011.13 433.63 1044.00 466.63
  Q 1045.09 467.72 1046.32 468.46
  Q 1046.75 468.72 1047.23 468.57
  Q 1067.14 462.54 1084.98 472.76
  C 1094.10 477.98 1101.57 487.28 1105.00 497.10
  C 1115.96 528.51 1091.88 560.69 1058.78 558.88
  C 1027.19 557.14 1007.28 525.38 1018.20 496.04
  Q 1018.57 495.02 1017.81 494.26
  L 956.59 433.17
  Q 955.82 432.41 955.82 433.49
  L 955.80 596.45
  A 1.32 1.32 0.0 0 0 956.51 597.62
  C 979.42 609.58 988.32 637.80 976.17 660.43
  Z"
/>
<path fill="#6d27d9" d="
  M 1435.94 135.62
  Q 1476.10 180.54 1485.67 239.62
  Q 1486.62 245.46 1486.99 251.41
  Q 1487.36 257.16 1487.90 263.20
  Q 1488.96 274.92 1487.55 288.19
  C 1486.71 296.10 1487.11 304.06 1486.09 311.91
  C 1484.93 320.89 1485.21 329.68 1483.95 338.42
  C 1482.84 346.14 1483.48 354.30 1482.32 362.06
  Q 1481.11 370.13 1481.23 378.32
  C 1481.31 383.46 1479.61 388.57 1479.58 393.54
  Q 1479.54 404.04 1478.95 409.26
  Q 1477.79 419.59 1477.30 429.10
  Q 1476.94 436.26 1476.21 442.38
  Q 1475.43 448.90 1475.51 455.68
  C 1475.58 462.14 1473.76 468.19 1473.75 474.59
  Q 1473.74 482.51 1472.77 489.70
  Q 1471.90 496.08 1471.82 502.24
  Q 1471.70 511.69 1470.39 521.27
  C 1469.76 525.89 1470.29 530.85 1469.62 535.34
  Q 1468.19 545.04 1468.12 553.06
  Q 1468.07 559.32 1467.34 564.53
  Q 1466.33 571.80 1466.25 579.17
  Q 1466.20 584.26 1465.34 590.31
  Q 1464.17 598.60 1464.35 607.75
  C 1464.44 612.12 1463.29 617.20 1463.03 621.82
  Q 1462.19 636.38 1460.80 652.21
  C 1460.41 656.62 1460.80 661.14 1460.16 665.51
  C 1459.46 670.25 1458.75 675.06 1458.76 679.82
  Q 1458.77 685.60 1458.02 691.23
  C 1457.09 698.20 1456.87 704.71 1456.60 711.54
  C 1456.33 718.33 1455.06 724.92 1455.01 731.71
  C 1454.97 737.10 1454.25 742.04 1453.58 747.36
  Q 1453.18 750.54 1453.20 753.66
  Q 1453.23 762.22 1452.05 769.94
  C 1450.91 777.48 1451.79 785.06 1450.39 792.55
  C 1448.98 800.07 1449.61 807.96 1448.93 815.21
  Q 1447.73 828.04 1447.61 830.37
  C 1446.77 846.96 1444.79 862.65 1441.05 878.72
  C 1433.18 912.59 1416.86 944.62 1395.14 971.32
  Q 1386.54 981.89 1377.06 991.70
  Q 1372.41 996.51 1367.31 1000.72
  C 1362.71 1004.51 1358.51 1008.57 1353.77 1012.10
  Q 1329.79 1029.97 1307.05 1040.47
  C 1284.51 1050.89 1260.20 1058.17 1235.44 1060.63
  Q 1226.50 1061.52 1216.16 1061.52
  Q 966.74 1061.52 718.32 1061.48
  Q 706.52 1061.47 692.46 1058.89
  Q 634.00 1048.17 586.66 1010.95
  C 558.11 988.52 534.64 959.71 518.45 926.96
  Q 520.10 927.06 520.58 927.75
  Q 521.67 929.32 522.80 930.43
  C 529.70 937.21 536.74 944.09 544.31 950.18
  Q 560.40 963.15 575.40 972.17
  Q 620.29 999.19 673.48 1004.55
  Q 678.92 1005.10 684.75 1005.10
  Q 933.12 1005.13 1178.00 1005.12
  Q 1189.80 1005.12 1198.51 1004.16
  Q 1223.27 1001.42 1247.66 992.83
  Q 1295.45 975.99 1332.80 941.58
  C 1374.60 903.07 1402.85 850.37 1408.61 793.67
  Q 1409.56 784.34 1410.36 773.57
  Q 1430.38 502.65 1449.34 245.71
  Q 1450.55 229.29 1450.69 225.77
  Q 1452.50 180.57 1435.96 137.77
  Q 1435.39 136.28 1435.94 135.62
  Z"
/>
<path fill="#ffffff" d="
  M 976.17 660.43
  C 988.32 637.80 979.42 609.58 956.51 597.62
  A 1.32 1.32 0.0 0 1 955.80 596.45
  L 955.82 433.49
  Q 955.82 432.41 956.59 433.17
  L 1017.81 494.26
  Q 1018.57 495.02 1018.20 496.04
  C 1007.28 525.38 1027.19 557.14 1058.78 558.88
  C 1091.88 560.69 1115.96 528.51 1105.00 497.10
  C 1101.57 487.28 1094.10 477.98 1084.98 472.76
  Q 1067.14 462.54 1047.23 468.57
  Q 1046.75 468.72 1046.32 468.46
  Q 1045.09 467.72 1044.00 466.63
  Q 1011.13 433.63 979.62 402.19
  A 1.30 1.30 0.0 0 1 979.30 400.85
  C 988.87 371.56 967.92 341.86 937.42 340.30
  Q 929.50 339.90 921.57 342.43
  A 1.61 1.61 0.0 0 1 919.93 342.04
  L 851.09 273.19
  A 0.42 0.42 0.0 0 1 851.09 272.59
  Q 875.11 248.83 902.51 221.24
  Q 908.90 214.80 914.13 211.79
  Q 926.00 204.96 940.48 207.40
  C 950.72 209.14 957.48 214.61 964.92 222.05
  Q 1090.81 347.91 1219.30 476.33
  Q 1228.69 485.71 1231.22 490.08
  Q 1238.61 502.81 1235.89 517.78
  C 1234.04 527.98 1228.40 534.82 1221.06 542.14
  Q 1094.65 668.29 968.88 794.32
  Q 959.62 803.60 955.28 806.27
  C 939.20 816.17 919.58 813.55 906.18 800.15
  Q 774.47 668.43 643.16 537.11
  C 627.48 521.43 626.98 496.90 642.81 481.05
  Q 734.11 389.60 823.66 300.19
  Q 823.86 299.99 824.05 300.19
  L 891.82 367.92
  A 1.78 1.77 33.5 0 1 892.22 369.83
  C 887.73 381.30 887.93 393.56 892.76 404.81
  Q 899.83 421.27 917.02 429.07
  A 1.25 1.23 -77.8 0 1 917.74 430.20
  L 917.75 595.03
  A 1.39 1.38 -12.3 0 1 916.94 596.29
  Q 896.04 606.05 890.44 627.67
  C 885.48 646.82 893.68 666.43 909.83 677.38
  C 920.90 684.89 935.59 687.04 948.34 683.16
  Q 967.01 677.49 976.17 660.43
  Z"
/>
</svg>
