<?xml version="1.0" encoding="UTF-8" standalone="no"?>
<!DOCTYPE svg PUBLIC "-//W3C//DTD SVG 1.1//EN" "http://www.w3.org/Graphics/SVG/1.1/DTD/svg11.dtd">
<svg xmlns="http://www.w3.org/2000/svg" version="1.1" viewBox="0.00 0.00 1920.00 1080.00">
<g stroke-width="2.00" fill="none" stroke-linecap="butt">
<path stroke="#7d3dec" vector-effect="non-scaling-stroke" d="
  M 1435.24 135.01
  Q 1436.93 140.90 1438.80 146.40
  Q 1441.80 155.16 1442.53 157.70
  Q 1453.11 194.70 1450.24 233.65
  Q 1429.83 510.42 1409.49 785.35
  Q 1405.73 836.14 1380.85 880.70
  Q 1362.78 913.06 1336.49 938.22
  C 1298.75 974.35 1249.44 998.77 1196.99 1004.24
  Q 1187.95 1005.18 1177.18 1005.17
  Q 937.41 1005.01 693.72 1005.21
  Q 683.06 1005.22 675.43 1004.68
  Q 665.96 1004.01 656.47 1002.39
  C 605.48 993.68 559.94 968.06 523.35 930.97
  Q 521.02 928.60 519.46 925.94
  Q 519.26 925.59 518.88 925.45
  Q 518.54 925.32 518.55 924.97
  Q 518.55 924.57 518.33 924.23
  Q 517.34 922.69 515.78 921.95"
/>
<path stroke="#c6a9ff" vector-effect="non-scaling-stroke" d="
  M 1218.74 511.49
  A 281.76 281.76 0.0 0 0 936.98 229.73
  A 281.76 281.76 0.0 0 0 655.22 511.49
  A 281.76 281.76 0.0 0 0 936.98 793.25
  A 281.76 281.76 0.0 0 0 1218.74 511.49"
/>
<path stroke="#c6a9ff" vector-effect="non-scaling-stroke" d="
  M 779.88 647.75
  Q 779.59 647.23 780.05 646.84
  C 782.54 644.75 785.30 645.04 788.29 644.95
  Q 798.73 644.65 807.17 649.67
  C 811.72 652.37 816.07 656.99 819.38 661.15
  C 824.74 667.90 829.44 675.74 835.83 681.46
  Q 858.28 701.54 889.07 693.39
  Q 894.38 691.98 894.80 686.79
  C 895.59 677.04 898.12 667.00 903.90 658.79
  A 0.66 0.66 0.0 0 0 903.53 657.78
  Q 885.53 652.75 871.57 647.82
  Q 862.12 644.48 853.94 639.63
  C 827.10 623.71 814.70 598.04 813.49 566.96
  Q 812.66 545.61 816.60 521.95
  C 818.84 508.46 823.80 495.85 833.51 485.99
  C 834.90 484.58 835.93 482.72 835.38 480.69
  C 834.32 476.69 832.86 472.85 832.17 468.68
  Q 829.18 450.45 834.23 432.69
  C 835.60 427.87 836.52 424.08 842.50 426.07
  Q 859.86 431.85 871.76 445.74
  Q 877.11 451.97 882.55 458.75
  A 1.00 0.99 -35.8 0 0 883.86 458.96
  Q 888.50 455.99 893.54 454.43
  Q 908.19 449.89 923.64 448.65
  C 945.00 446.94 966.44 448.07 986.84 454.02
  Q 992.67 455.72 997.71 458.77
  A 0.93 0.93 0.0 0 0 998.89 458.58
  Q 1005.67 450.60 1013.14 442.36
  Q 1023.63 430.78 1040.24 425.61
  Q 1044.75 424.21 1046.25 428.41
  C 1051.21 442.36 1053.14 458.45 1048.49 472.87
  C 1047.40 476.24 1044.61 481.79 1047.10 485.00
  C 1049.40 487.96 1052.20 490.56 1054.39 493.70
  Q 1060.48 502.45 1063.15 513.85
  Q 1069.44 540.71 1067.73 570.54
  Q 1067.11 581.39 1064.75 590.38
  C 1055.92 624.09 1027.81 644.88 995.40 652.77
  Q 986.01 655.05 977.02 656.61
  Q 976.48 656.70 976.72 657.19
  C 978.83 661.50 981.28 665.50 982.85 670.11
  C 986.62 681.20 987.02 692.16 986.94 703.64
  Q 986.79 725.75 986.83 748.10
  Q 986.83 751.04 987.02 753.96
  A 0.34 0.33 -6.8 0 0 987.42 754.27
  C 1013.98 749.19 1039.29 739.32 1062.22 725.52
  Q 1109.86 696.84 1141.49 650.72
  Q 1143.76 647.40 1150.83 635.79
  C 1154.04 630.52 1156.52 625.18 1159.24 619.80
  C 1181.56 575.61 1188.19 524.17 1181.37 474.84
  Q 1179.96 464.63 1177.68 454.89
  Q 1162.30 389.05 1116.03 340.00
  Q 1082.98 304.95 1038.64 284.69
  C 971.35 253.93 893.22 255.59 826.99 288.66
  C 819.79 292.25 812.96 296.57 806.01 300.69
  C 799.10 304.80 792.36 310.05 785.69 314.97
  C 780.40 318.86 775.51 323.45 770.53 327.82
  C 764.13 333.43 758.27 339.96 752.47 346.15
  C 747.21 351.78 742.63 358.12 737.85 364.35
  Q 731.82 372.21 726.64 380.66
  Q 694.06 433.82 690.27 496.20
  C 688.91 518.58 690.48 542.10 695.57 564.52
  Q 697.29 572.11 699.04 578.52
  Q 711.03 622.32 737.73 658.52
  Q 773.63 707.21 827.75 734.63
  Q 848.73 745.25 872.66 751.38
  C 879.50 753.13 886.37 754.22 893.28 755.43
  A 0.42 0.41 -85.3 0 0 893.76 755.02
  L 893.79 727.22
  Q 893.79 726.40 892.98 726.54
  C 882.97 728.29 871.94 729.39 861.81 727.87
  C 839.69 724.55 823.27 711.09 813.15 691.06
  Q 809.32 683.47 804.87 675.88
  Q 795.95 660.69 783.49 651.76
  Q 781.27 650.17 779.88 647.75"
/>
</g>
<path fill="#8c52ff" d="
  M 1435.24 135.01
  Q 1436.93 140.90 1438.80 146.40
  Q 1441.80 155.16 1442.53 157.70
  Q 1453.11 194.70 1450.24 233.65
  Q 1429.83 510.42 1409.49 785.35
  Q 1405.73 836.14 1380.85 880.70
  Q 1362.78 913.06 1336.49 938.22
  C 1298.75 974.35 1249.44 998.77 1196.99 1004.24
  Q 1187.95 1005.18 1177.18 1005.17
  Q 937.41 1005.01 693.72 1005.21
  Q 683.06 1005.22 675.43 1004.68
  Q 665.96 1004.01 656.47 1002.39
  C 605.48 993.68 559.94 968.06 523.35 930.97
  Q 521.02 928.60 519.46 925.94
  Q 519.26 925.59 518.88 925.45
  Q 518.54 925.32 518.55 924.97
  Q 518.55 924.57 518.33 924.23
  Q 517.34 922.69 515.78 921.95
  Q 510.06 914.88 504.48 907.55
  Q 483.11 879.47 471.76 847.72
  Q 465.68 830.71 463.79 821.06
  Q 462.30 813.40 460.71 806.85
  Q 459.61 802.28 459.42 798.22
  C 459.14 792.04 457.87 786.26 457.79 780.08
  Q 457.68 771.57 456.46 764.98
  C 455.27 758.56 455.72 751.86 455.45 745.22
  Q 455.26 740.51 454.69 735.81
  Q 453.76 728.19 453.52 720.07
  C 453.38 715.03 451.89 710.03 451.90 705.00
  Q 451.92 696.39 451.32 689.23
  Q 450.37 677.84 449.28 666.68
  C 447.73 650.67 447.81 632.97 445.75 618.15
  Q 444.22 607.14 444.39 598.75
  Q 444.49 593.85 443.73 588.26
  C 442.55 579.68 443.10 570.89 441.61 562.59
  Q 440.86 558.42 440.78 554.25
  C 440.65 547.57 440.58 540.70 439.94 534.26
  Q 439.57 530.50 439.18 526.67
  C 438.63 521.17 438.68 515.48 437.77 509.98
  C 436.71 503.50 436.86 497.23 436.60 490.89
  Q 436.40 485.98 435.93 480.87
  C 434.69 467.49 433.42 454.49 432.86 440.78
  Q 432.22 425.08 430.24 410.79
  C 429.15 402.98 429.82 395.47 428.87 387.82
  Q 427.64 378.04 427.53 368.32
  C 427.49 364.59 426.84 360.97 426.18 357.31
  Q 425.77 355.05 425.74 352.84
  C 425.64 344.87 425.66 336.98 424.53 329.08
  Q 423.87 324.45 423.79 320.00
  Q 423.67 312.55 422.54 305.72
  C 421.65 300.36 421.99 294.82 421.66 289.30
  Q 420.91 276.69 419.18 260.92
  Q 418.21 252.03 418.05 244.54
  C 417.90 237.15 417.09 229.83 416.85 222.45
  Q 416.43 209.84 417.11 201.96
  Q 417.55 196.72 417.93 191.38
  Q 418.34 185.69 419.36 180.97
  C 420.57 175.36 421.52 169.62 422.98 164.14
  Q 441.96 92.72 501.31 50.36
  Q 534.14 26.93 574.73 18.11
  Q 583.94 16.11 597.51 14.24
  Q 605.21 13.18 613.06 13.18
  Q 928.63 13.23 1256.70 13.18
  Q 1263.22 13.18 1269.25 14.17
  C 1277.35 15.49 1285.46 16.42 1293.27 18.23
  Q 1343.17 29.81 1379.96 61.30
  Q 1388.42 68.54 1398.31 79.07
  C 1412.57 94.26 1424.11 112.49 1432.88 131.37
  Q 1433.74 133.23 1435.24 135.01
  Z
  M 1218.74 511.49
  A 281.76 281.76 0.0 0 0 936.98 229.73
  A 281.76 281.76 0.0 0 0 655.22 511.49
  A 281.76 281.76 0.0 0 0 936.98 793.25
  A 281.76 281.76 0.0 0 0 1218.74 511.49
  Z"
/>
<path fill="#6d27d9" d="
  M 1435.24 135.01
  Q 1445.75 146.80 1454.09 159.21
  Q 1480.40 198.35 1486.49 245.26
  C 1487.00 249.18 1487.05 253.53 1487.48 257.58
  Q 1488.90 270.87 1487.90 282.71
  Q 1486.98 293.69 1486.72 303.02
  C 1486.53 309.70 1485.30 315.91 1485.14 322.37
  Q 1484.95 329.51 1484.26 335.37
  Q 1483.26 343.81 1483.20 346.17
  C 1483.09 351.01 1483.19 355.86 1482.44 360.64
  Q 1481.21 368.45 1481.26 376.40
  C 1481.30 382.71 1479.52 388.68 1479.51 394.94
  Q 1479.49 405.10 1478.96 409.15
  Q 1477.73 418.45 1477.30 428.90
  Q 1477.03 435.35 1476.20 442.08
  Q 1475.42 448.36 1475.50 455.32
  C 1475.58 462.11 1473.79 468.47 1473.73 475.19
  Q 1473.66 482.84 1472.93 487.95
  Q 1471.90 495.17 1471.70 505.52
  C 1471.53 513.83 1470.07 521.38 1469.87 530.13
  Q 1469.75 535.41 1468.69 542.75
  C 1467.72 549.45 1468.40 556.57 1467.40 563.59
  Q 1466.20 571.98 1466.23 580.12
  C 1466.25 586.07 1464.51 592.29 1464.55 598.11
  Q 1464.61 605.71 1463.94 611.86
  Q 1463.13 619.24 1462.76 625.69
  C 1462.41 631.81 1462.09 637.99 1461.40 644.11
  Q 1460.60 651.23 1460.57 657.15
  Q 1460.55 663.10 1459.65 668.78
  C 1458.38 676.90 1458.89 685.10 1457.71 693.46
  Q 1456.83 699.65 1456.75 707.15
  C 1456.66 715.38 1455.09 723.44 1454.99 731.84
  Q 1454.92 737.29 1454.09 742.79
  Q 1453.08 749.55 1453.11 756.87
  C 1453.13 761.70 1452.55 766.12 1451.87 770.83
  C 1450.86 777.84 1451.69 784.81 1450.42 791.83
  Q 1449.56 796.56 1449.58 799.64
  Q 1449.65 808.60 1448.73 817.02
  Q 1447.87 824.90 1447.49 832.43
  Q 1446.26 857.14 1440.58 880.72
  C 1433.33 910.79 1419.14 939.48 1400.66 964.25
  Q 1387.22 982.28 1372.19 996.40
  Q 1355.59 1011.99 1333.24 1026.17
  Q 1302.40 1045.74 1265.39 1055.30
  Q 1243.87 1060.87 1221.76 1061.40
  Q 1213.83 1061.59 1201.50 1061.59
  Q 942.32 1061.55 717.13 1061.24
  C 712.84 1061.23 708.79 1061.28 704.35 1060.52
  C 698.94 1059.58 693.36 1059.02 688.05 1057.94
  Q 644.23 1048.97 607.39 1025.56
  Q 580.36 1008.37 557.29 983.73
  Q 553.55 979.74 544.69 968.54
  Q 532.72 953.41 526.09 941.17
  Q 520.92 931.64 515.78 921.95
  Q 517.34 922.69 518.33 924.23
  Q 518.55 924.57 518.55 924.97
  Q 518.54 925.32 518.88 925.45
  Q 519.26 925.59 519.46 925.94
  Q 521.02 928.60 523.35 930.97
  C 559.94 968.06 605.48 993.68 656.47 1002.39
  Q 665.96 1004.01 675.43 1004.68
  Q 683.06 1005.22 693.72 1005.21
  Q 937.41 1005.01 1177.18 1005.17
  Q 1187.95 1005.18 1196.99 1004.24
  C 1249.44 998.77 1298.75 974.35 1336.49 938.22
  Q 1362.78 913.06 1380.85 880.70
  Q 1405.73 836.14 1409.49 785.35
  Q 1429.83 510.42 1450.24 233.65
  Q 1453.11 194.70 1442.53 157.70
  Q 1441.80 155.16 1438.80 146.40
  Q 1436.93 140.90 1435.24 135.01
  Z"
/>
<path fill="#ffffff" d="
  M 1218.74 511.49
  A 281.76 281.76 0.0 0 1 936.98 793.25
  A 281.76 281.76 0.0 0 1 655.22 511.49
  A 281.76 281.76 0.0 0 1 936.98 229.73
  A 281.76 281.76 0.0 0 1 1218.74 511.49
  Z
  M 779.88 647.75
  Q 779.59 647.23 780.05 646.84
  C 782.54 644.75 785.30 645.04 788.29 644.95
  Q 798.73 644.65 807.17 649.67
  C 811.72 652.37 816.07 656.99 819.38 661.15
  C 824.74 667.90 829.44 675.74 835.83 681.46
  Q 858.28 701.54 889.07 693.39
  Q 894.38 691.98 894.80 686.79
  C 895.59 677.04 898.12 667.00 903.90 658.79
  A 0.66 0.66 0.0 0 0 903.53 657.78
  Q 885.53 652.75 871.57 647.82
  Q 862.12 644.48 853.94 639.63
  C 827.10 623.71 814.70 598.04 813.49 566.96
  Q 812.66 545.61 816.60 521.95
  C 818.84 508.46 823.80 495.85 833.51 485.99
  C 834.90 484.58 835.93 482.72 835.38 480.69
  C 834.32 476.69 832.86 472.85 832.17 468.68
  Q 829.18 450.45 834.23 432.69
  C 835.60 427.87 836.52 424.08 842.50 426.07
  Q 859.86 431.85 871.76 445.74
  Q 877.11 451.97 882.55 458.75
  A 1.00 0.99 -35.8 0 0 883.86 458.96
  Q 888.50 455.99 893.54 454.43
  Q 908.19 449.89 923.64 448.65
  C 945.00 446.94 966.44 448.07 986.84 454.02
  Q 992.67 455.72 997.71 458.77
  A 0.93 0.93 0.0 0 0 998.89 458.58
  Q 1005.67 450.60 1013.14 442.36
  Q 1023.63 430.78 1040.24 425.61
  Q 1044.75 424.21 1046.25 428.41
  C 1051.21 442.36 1053.14 458.45 1048.49 472.87
  C 1047.40 476.24 1044.61 481.79 1047.10 485.00
  C 1049.40 487.96 1052.20 490.56 1054.39 493.70
  Q 1060.48 502.45 1063.15 513.85
  Q 1069.44 540.71 1067.73 570.54
  Q 1067.11 581.39 1064.75 590.38
  C 1055.92 624.09 1027.81 644.88 995.40 652.77
  Q 986.01 655.05 977.02 656.61
  Q 976.48 656.70 976.72 657.19
  C 978.83 661.50 981.28 665.50 982.85 670.11
  C 986.62 681.20 987.02 692.16 986.94 703.64
  Q 986.79 725.75 986.83 748.10
  Q 986.83 751.04 987.02 753.96
  A 0.34 0.33 -6.8 0 0 987.42 754.27
  C 1013.98 749.19 1039.29 739.32 1062.22 725.52
  Q 1109.86 696.84 1141.49 650.72
  Q 1143.76 647.40 1150.83 635.79
  C 1154.04 630.52 1156.52 625.18 1159.24 619.80
  C 1181.56 575.61 1188.19 524.17 1181.37 474.84
  Q 1179.96 464.63 1177.68 454.89
  Q 1162.30 389.05 1116.03 340.00
  Q 1082.98 304.95 1038.64 284.69
  C 971.35 253.93 893.22 255.59 826.99 288.66
  C 819.79 292.25 812.96 296.57 806.01 300.69
  C 799.10 304.80 792.36 310.05 785.69 314.97
  C 780.40 318.86 775.51 323.45 770.53 327.82
  C 764.13 333.43 758.27 339.96 752.47 346.15
  C 747.21 351.78 742.63 358.12 737.85 364.35
  Q 731.82 372.21 726.64 380.66
  Q 694.06 433.82 690.27 496.20
  C 688.91 518.58 690.48 542.10 695.57 564.52
  Q 697.29 572.11 699.04 578.52
  Q 711.03 622.32 737.73 658.52
  Q 773.63 707.21 827.75 734.63
  Q 848.73 745.25 872.66 751.38
  C 879.50 753.13 886.37 754.22 893.28 755.43
  A 0.42 0.41 -85.3 0 0 893.76 755.02
  L 893.79 727.22
  Q 893.79 726.40 892.98 726.54
  C 882.97 728.29 871.94 729.39 861.81 727.87
  C 839.69 724.55 823.27 711.09 813.15 691.06
  Q 809.32 683.47 804.87 675.88
  Q 795.95 660.69 783.49 651.76
  Q 781.27 650.17 779.88 647.75
  Z"
/>
<path fill="#8c52ff" d="
  M 779.88 647.75
  Q 781.27 650.17 783.49 651.76
  Q 795.95 660.69 804.87 675.88
  Q 809.32 683.47 813.15 691.06
  C 823.27 711.09 839.69 724.55 861.81 727.87
  C 871.94 729.39 882.97 728.29 892.98 726.54
  Q 893.79 726.40 893.79 727.22
  L 893.76 755.02
  A 0.42 0.41 -85.3 0 1 893.28 755.43
  C 886.37 754.22 879.50 753.13 872.66 751.38
  Q 848.73 745.25 827.75 734.63
  Q 773.63 707.21 737.73 658.52
  Q 711.03 622.32 699.04 578.52
  Q 697.29 572.11 695.57 564.52
  C 690.48 542.10 688.91 518.58 690.27 496.20
  Q 694.06 433.82 726.64 380.66
  Q 731.82 372.21 737.85 364.35
  C 742.63 358.12 747.21 351.78 752.47 346.15
  C 758.27 339.96 764.13 333.43 770.53 327.82
  C 775.51 323.45 780.40 318.86 785.69 314.97
  C 792.36 310.05 799.10 304.80 806.01 300.69
  C 812.96 296.57 819.79 292.25 826.99 288.66
  C 893.22 255.59 971.35 253.93 1038.64 284.69
  Q 1082.98 304.95 1116.03 340.00
  Q 1162.30 389.05 1177.68 454.89
  Q 1179.96 464.63 1181.37 474.84
  C 1188.19 524.17 1181.56 575.61 1159.24 619.80
  C 1156.52 625.18 1154.04 630.52 1150.83 635.79
  Q 1143.76 647.40 1141.49 650.72
  Q 1109.86 696.84 1062.22 725.52
  C 1039.29 739.32 1013.98 749.19 987.42 754.27
  A 0.34 0.33 -6.8 0 1 987.02 753.96
  Q 986.83 751.04 986.83 748.10
  Q 986.79 725.75 986.94 703.64
  C 987.02 692.16 986.62 681.20 982.85 670.11
  C 981.28 665.50 978.83 661.50 976.72 657.19
  Q 976.48 656.70 977.02 656.61
  Q 986.01 655.05 995.40 652.77
  C 1027.81 644.88 1055.92 624.09 1064.75 590.38
  Q 1067.11 581.39 1067.73 570.54
  Q 1069.44 540.71 1063.15 513.85
  Q 1060.48 502.45 1054.39 493.70
  C 1052.20 490.56 1049.40 487.96 1047.10 485.00
  C 1044.61 481.79 1047.40 476.24 1048.49 472.87
  C 1053.14 458.45 1051.21 442.36 1046.25 428.41
  Q 1044.75 424.21 1040.24 425.61
  Q 1023.63 430.78 1013.14 442.36
  Q 1005.67 450.60 998.89 458.58
  A 0.93 0.93 0.0 0 1 997.71 458.77
  Q 992.67 455.72 986.84 454.02
  C 966.44 448.07 945.00 446.94 923.64 448.65
  Q 908.19 449.89 893.54 454.43
  Q 888.50 455.99 883.86 458.96
  A 1.00 0.99 -35.8 0 1 882.55 458.75
  Q 877.11 451.97 871.76 445.74
  Q 859.86 431.85 842.50 426.07
  C 836.52 424.08 835.60 427.87 834.23 432.69
  Q 829.18 450.45 832.17 468.68
  C 832.86 472.85 834.32 476.69 835.38 480.69
  C 835.93 482.72 834.90 484.58 833.51 485.99
  C 823.80 495.85 818.84 508.46 816.60 521.95
  Q 812.66 545.61 813.49 566.96
  C 814.70 598.04 827.10 623.71 853.94 639.63
  Q 862.12 644.48 871.57 647.82
  Q 885.53 652.75 903.53 657.78
  A 0.66 0.66 0.0 0 1 903.90 658.79
  C 898.12 667.00 895.59 677.04 894.80 686.79
  Q 894.38 691.98 889.07 693.39
  Q 858.28 701.54 835.83 681.46
  C 829.44 675.74 824.74 667.90 819.38 661.15
  C 816.07 656.99 811.72 652.37 807.17 649.67
  Q 798.73 644.65 788.29 644.95
  C 785.30 645.04 782.54 644.75 780.05 646.84
  Q 779.59 647.23 779.88 647.75
  Z"
/>
</svg>
