<?xml version="1.0" encoding="UTF-8" standalone="no"?>
<!DOCTYPE svg PUBLIC "-//W3C//DTD SVG 1.1//EN" "http://www.w3.org/Graphics/SVG/1.1/DTD/svg11.dtd">
<svg xmlns="http://www.w3.org/2000/svg" version="1.1" viewBox="0.00 0.00 1920.00 1080.00">
<g stroke-width="2.00" fill="none" stroke-linecap="butt">
<path stroke="#7d3dec" vector-effect="non-scaling-stroke" d="
  M 1435.80 135.69
  Q 1435.52 136.56 1435.98 137.74
  Q 1452.48 180.37 1450.69 225.78
  Q 1450.55 229.45 1449.34 245.72
  Q 1429.98 508.00 1410.61 770.28
  Q 1409.19 789.48 1409.12 790.23
  C 1402.85 856.09 1368.05 915.62 1315.61 955.98
  C 1276.78 985.87 1227.39 1005.20 1177.96 1005.18
  Q 933.88 1005.07 684.51 1005.14
  Q 678.79 1005.15 673.14 1004.56
  Q 619.89 998.99 575.35 972.13
  Q 558.60 962.04 541.87 948.13
  C 535.07 942.47 529.08 936.48 522.81 930.52
  C 521.90 929.65 521.18 928.51 520.38 927.54
  Q 520.26 927.38 520.06 927.36
  Q 520.01 927.35 519.97 927.39
  Q 519.71 927.72 519.52 927.32
  Q 519.21 926.68 518.46 926.97"
/>
<path stroke="#c6a9ff" vector-effect="non-scaling-stroke" d="
  M 1048.04 683.64
  Q 1047.57 683.93 1047.03 684.08
  Q 1004.85 696.40 961.96 707.57
  C 953.57 709.75 946.00 710.98 938.62 709.07
  Q 897.55 698.39 859.68 687.95
  Q 854.66 686.57 848.70 684.71
  A 2.60 2.58 -84.1 0 1 846.89 682.47
  L 840.92 616.02
  A 2.79 2.79 0.0 0 0 838.94 613.60
  Q 833.98 612.12 828.37 612.00
  Q 791.38 611.17 751.62 611.86
  C 750.16 611.88 748.76 613.02 749.12 614.53
  C 751.76 625.42 752.79 635.34 752.86 647.90
  Q 752.92 657.64 754.74 668.48
  C 756.87 681.18 755.92 694.08 758.13 706.75
  C 760.09 718.01 760.85 729.37 761.65 741.12
  C 762.22 749.59 762.24 754.23 771.01 756.72
  Q 845.84 777.91 915.48 797.22
  Q 928.97 800.96 934.93 801.80
  Q 954.66 804.59 974.22 798.96
  Q 1033.05 782.05 1110.55 760.52
  Q 1118.40 758.33 1126.58 755.94
  C 1130.31 754.85 1132.82 753.14 1133.41 749.23
  Q 1133.90 746.00 1134.13 742.59
  Q 1135.10 728.10 1136.14 715.25
  Q 1136.67 708.61 1138.98 695.26
  Q 1139.61 691.67 1139.62 679.22
  Q 1139.62 672.57 1142.01 653.44
  Q 1142.70 647.86 1143.01 638.52
  Q 1143.28 630.04 1144.71 620.89
  C 1146.70 608.10 1147.39 599.38 1147.58 588.82
  Q 1147.71 580.82 1149.61 568.06
  Q 1151.09 558.18 1151.31 544.86
  Q 1151.38 540.83 1154.38 518.81
  C 1154.84 515.43 1155.04 511.92 1155.03 508.43
  Q 1154.99 494.78 1158.18 481.22
  Q 1159.19 476.93 1154.77 476.92
  Q 993.55 476.42 829.80 476.11
  C 828.28 476.11 827.13 475.07 827.21 473.51
  Q 828.02 455.57 825.87 444.47
  Q 823.67 433.19 823.60 422.86
  C 823.51 410.84 822.28 399.28 819.11 387.91
  A 1.91 1.90 -7.7 0 1 820.95 385.50
  L 1162.81 385.50
  Q 1165.89 385.50 1166.15 382.43
  L 1173.43 296.54
  A 1.80 1.78 2.5 0 0 1171.64 294.60
  Q 951.59 294.78 724.06 294.69
  C 721.70 294.69 720.99 296.68 721.39 298.73
  Q 725.49 319.75 725.42 341.60
  C 725.38 350.97 727.82 360.18 728.48 369.59
  C 729.05 377.69 728.96 385.98 730.17 393.91
  C 731.65 403.74 732.77 413.34 732.80 423.39
  C 732.81 428.23 733.25 433.35 733.97 438.11
  C 735.55 448.62 736.85 458.91 736.84 469.57
  Q 736.84 478.43 738.39 486.60
  Q 740.37 497.01 740.42 502.98
  Q 740.54 517.01 741.90 526.24
  C 743.81 539.18 744.84 552.00 744.95 565.22
  A 1.57 1.57 0.0 0 0 746.52 566.77
  Q 879.97 566.66 1016.50 566.85
  Q 1029.13 566.87 1041.25 567.03
  Q 1047.53 567.12 1053.65 568.11
  Q 1056.40 568.56 1056.51 571.33
  Q 1057.36 593.20 1054.34 612.90
  C 1053.03 621.40 1052.85 629.86 1052.33 638.48
  Q 1052.03 643.44 1050.55 652.43
  Q 1048.11 667.20 1048.86 682.07
  A 1.77 1.75 -17.7 0 1 1048.04 683.64"
/>
</g>
<path fill="#8c52ff" d="
  M 1435.80 135.69
  Q 1435.52 136.56 1435.98 137.74
  Q 1452.48 180.37 1450.69 225.78
  Q 1450.55 229.45 1449.34 245.72
  Q 1429.98 508.00 1410.61 770.28
  Q 1409.19 789.48 1409.12 790.23
  C 1402.85 856.09 1368.05 915.62 1315.61 955.98
  C 1276.78 985.87 1227.39 1005.20 1177.96 1005.18
  Q 933.88 1005.07 684.51 1005.14
  Q 678.79 1005.15 673.14 1004.56
  Q 619.89 998.99 575.35 972.13
  Q 558.60 962.04 541.87 948.13
  C 535.07 942.47 529.08 936.48 522.81 930.52
  C 521.90 929.65 521.18 928.51 520.38 927.54
  Q 520.26 927.38 520.06 927.36
  Q 520.01 927.35 519.97 927.39
  Q 519.71 927.72 519.52 927.32
  Q 519.21 926.68 518.46 926.97
  C 516.78 924.06 515.28 921.12 513.08 918.55
  Q 478.40 877.94 464.59 824.86
  C 462.90 818.37 462.13 811.93 460.38 805.40
  C 459.07 800.51 459.54 795.44 458.68 790.40
  C 457.63 784.24 457.73 778.13 457.36 771.98
  C 457.08 767.33 455.72 762.88 455.68 758.14
  C 455.62 750.52 455.67 742.85 454.56 735.34
  C 453.47 728.00 453.90 720.46 452.72 713.33
  Q 451.85 708.08 451.83 702.37
  Q 451.80 692.93 450.70 682.68
  Q 450.12 677.30 449.80 671.61
  C 449.51 666.68 448.58 661.97 448.39 656.96
  C 447.83 642.87 447.24 628.75 445.33 614.99
  Q 444.44 608.63 444.49 603.66
  Q 444.56 595.84 443.79 589.40
  Q 443.00 582.82 442.87 576.39
  Q 442.73 569.20 441.67 563.22
  C 439.85 552.90 440.96 542.26 439.65 531.77
  C 438.67 523.91 438.80 515.65 437.36 507.63
  Q 436.98 505.47 436.94 503.33
  Q 436.76 492.43 436.32 486.62
  Q 435.59 477.04 434.30 463.58
  C 432.65 446.42 432.61 428.62 430.39 412.39
  Q 429.46 405.59 429.47 399.77
  Q 429.50 391.49 428.46 384.41
  C 427.31 376.48 428.05 368.55 426.70 360.80
  C 425.40 353.36 425.62 345.84 425.42 338.57
  C 425.26 332.97 423.89 327.31 423.85 321.75
  Q 423.80 314.54 422.75 307.82
  Q 421.89 302.26 421.82 296.67
  C 421.77 291.81 421.70 286.92 421.13 282.05
  Q 420.32 275.14 419.97 268.75
  C 419.67 263.25 418.32 257.80 418.28 252.30
  Q 418.22 244.33 417.59 236.49
  C 416.68 225.04 416.01 212.56 416.95 201.71
  Q 417.39 196.61 417.89 190.88
  Q 418.41 184.90 419.49 180.03
  C 420.68 174.63 421.53 169.20 422.93 163.93
  Q 437.18 110.37 475.24 72.35
  Q 517.63 29.99 577.01 17.49
  Q 582.52 16.34 597.22 14.23
  Q 604.47 13.19 611.67 13.19
  Q 942.06 13.22 1258.91 13.20
  Q 1263.38 13.20 1267.98 13.90
  Q 1271.22 14.40 1276.49 15.14
  Q 1334.85 23.41 1380.17 61.34
  Q 1386.94 67.00 1397.61 78.25
  C 1412.16 93.58 1423.86 111.67 1432.71 130.88
  C 1433.54 132.70 1434.63 134.16 1435.80 135.69
  Z
  M 1048.04 683.64
  Q 1047.57 683.93 1047.03 684.08
  Q 1004.85 696.40 961.96 707.57
  C 953.57 709.75 946.00 710.98 938.62 709.07
  Q 897.55 698.39 859.68 687.95
  Q 854.66 686.57 848.70 684.71
  A 2.60 2.58 -84.1 0 1 846.89 682.47
  L 840.92 616.02
  A 2.79 2.79 0.0 0 0 838.94 613.60
  Q 833.98 612.12 828.37 612.00
  Q 791.38 611.17 751.62 611.86
  C 750.16 611.88 748.76 613.02 749.12 614.53
  C 751.76 625.42 752.79 635.34 752.86 647.90
  Q 752.92 657.64 754.74 668.48
  C 756.87 681.18 755.92 694.08 758.13 706.75
  C 760.09 718.01 760.85 729.37 761.65 741.12
  C 762.22 749.59 762.24 754.23 771.01 756.72
  Q 845.84 777.91 915.48 797.22
  Q 928.97 800.96 934.93 801.80
  Q 954.66 804.59 974.22 798.96
  Q 1033.05 782.05 1110.55 760.52
  Q 1118.40 758.33 1126.58 755.94
  C 1130.31 754.85 1132.82 753.14 1133.41 749.23
  Q 1133.90 746.00 1134.13 742.59
  Q 1135.10 728.10 1136.14 715.25
  Q 1136.67 708.61 1138.98 695.26
  Q 1139.61 691.67 1139.62 679.22
  Q 1139.62 672.57 1142.01 653.44
  Q 1142.70 647.86 1143.01 638.52
  Q 1143.28 630.04 1144.71 620.89
  C 1146.70 608.10 1147.39 599.38 1147.58 588.82
  Q 1147.71 580.82 1149.61 568.06
  Q 1151.09 558.18 1151.31 544.86
  Q 1151.38 540.83 1154.38 518.81
  C 1154.84 515.43 1155.04 511.92 1155.03 508.43
  Q 1154.99 494.78 1158.18 481.22
  Q 1159.19 476.93 1154.77 476.92
  Q 993.55 476.42 829.80 476.11
  C 828.28 476.11 827.13 475.07 827.21 473.51
  Q 828.02 455.57 825.87 444.47
  Q 823.67 433.19 823.60 422.86
  C 823.51 410.84 822.28 399.28 819.11 387.91
  A 1.91 1.90 -7.7 0 1 820.95 385.50
  L 1162.81 385.50
  Q 1165.89 385.50 1166.15 382.43
  L 1173.43 296.54
  A 1.80 1.78 2.5 0 0 1171.64 294.60
  Q 951.59 294.78 724.06 294.69
  C 721.70 294.69 720.99 296.68 721.39 298.73
  Q 725.49 319.75 725.42 341.60
  C 725.38 350.97 727.82 360.18 728.48 369.59
  C 729.05 377.69 728.96 385.98 730.17 393.91
  C 731.65 403.74 732.77 413.34 732.80 423.39
  C 732.81 428.23 733.25 433.35 733.97 438.11
  C 735.55 448.62 736.85 458.91 736.84 469.57
  Q 736.84 478.43 738.39 486.60
  Q 740.37 497.01 740.42 502.98
  Q 740.54 517.01 741.90 526.24
  C 743.81 539.18 744.84 552.00 744.95 565.22
  A 1.57 1.57 0.0 0 0 746.52 566.77
  Q 879.97 566.66 1016.50 566.85
  Q 1029.13 566.87 1041.25 567.03
  Q 1047.53 567.12 1053.65 568.11
  Q 1056.40 568.56 1056.51 571.33
  Q 1057.36 593.20 1054.34 612.90
  C 1053.03 621.40 1052.85 629.86 1052.33 638.48
  Q 1052.03 643.44 1050.55 652.43
  Q 1048.11 667.20 1048.86 682.07
  A 1.77 1.75 -17.7 0 1 1048.04 683.64
  Z"
/>
<path fill="#6d27d9" d="
  M 1435.80 135.69
  Q 1476.77 181.34 1485.87 241.80
  C 1486.97 249.09 1487.08 256.26 1487.80 263.53
  C 1488.63 271.98 1488.35 280.76 1487.44 289.34
  C 1486.75 295.83 1486.93 302.50 1486.34 309.12
  C 1485.85 314.50 1485.11 319.72 1485.01 325.19
  Q 1484.91 330.66 1484.63 332.56
  Q 1483.27 341.94 1483.16 350.30
  Q 1483.09 356.59 1482.35 361.56
  Q 1481.20 369.38 1481.23 377.90
  C 1481.25 383.26 1479.62 388.22 1479.59 393.33
  Q 1479.54 404.36 1478.96 409.25
  Q 1477.76 419.49 1477.28 429.53
  Q 1476.96 436.16 1476.21 442.42
  Q 1475.47 448.65 1475.52 455.41
  C 1475.56 460.06 1474.88 464.46 1474.19 469.03
  Q 1473.77 471.77 1473.76 474.45
  Q 1473.72 482.32 1472.70 490.25
  Q 1471.96 496.01 1471.82 502.53
  Q 1471.63 510.78 1470.75 518.48
  Q 1470.13 523.97 1469.84 531.00
  Q 1469.61 536.74 1468.66 543.41
  C 1467.70 550.10 1468.36 557.18 1467.35 564.39
  Q 1466.36 571.47 1466.26 578.94
  Q 1466.19 584.63 1465.31 590.42
  C 1464.06 598.57 1464.79 607.48 1463.61 615.98
  C 1462.67 622.79 1462.73 629.73 1462.06 636.59
  Q 1460.91 648.26 1460.57 658.19
  Q 1460.37 664.07 1459.55 669.85
  C 1458.43 677.78 1458.90 685.73 1457.70 693.78
  C 1456.60 701.20 1456.96 709.04 1456.17 716.75
  C 1455.67 721.69 1455.02 726.49 1454.96 731.53
  Q 1454.89 738.35 1453.71 746.45
  C 1452.74 753.06 1453.40 760.45 1452.36 767.43
  Q 1451.15 775.60 1451.19 783.94
  C 1451.21 789.26 1449.45 795.29 1449.49 799.85
  Q 1449.56 808.15 1448.92 815.06
  Q 1447.77 827.39 1447.63 830.42
  Q 1446.91 845.32 1444.77 859.96
  Q 1443.24 870.46 1439.35 885.47
  C 1432.10 913.37 1418.39 940.37 1401.28 963.47
  C 1396.03 970.55 1388.66 979.79 1381.53 987.09
  C 1377.35 991.38 1373.41 995.77 1368.82 999.48
  C 1363.19 1004.03 1358.19 1008.89 1352.44 1013.18
  C 1319.58 1037.73 1282.01 1054.24 1241.67 1059.94
  C 1232.94 1061.17 1224.08 1061.50 1215.33 1061.50
  Q 970.04 1061.51 724.22 1061.50
  Q 706.33 1061.50 692.01 1058.83
  Q 634.78 1048.15 588.47 1012.38
  C 559.09 989.70 534.99 960.43 518.46 926.97
  Q 519.21 926.68 519.52 927.32
  Q 519.71 927.72 519.97 927.39
  Q 520.01 927.35 520.06 927.36
  Q 520.26 927.38 520.38 927.54
  C 521.18 928.51 521.90 929.65 522.81 930.52
  C 529.08 936.48 535.07 942.47 541.87 948.13
  Q 558.60 962.04 575.35 972.13
  Q 619.89 998.99 673.14 1004.56
  Q 678.79 1005.15 684.51 1005.14
  Q 933.88 1005.07 1177.96 1005.18
  C 1227.39 1005.20 1276.78 985.87 1315.61 955.98
  C 1368.05 915.62 1402.85 856.09 1409.12 790.23
  Q 1409.19 789.48 1410.61 770.28
  Q 1429.98 508.00 1449.34 245.72
  Q 1450.55 229.45 1450.69 225.78
  Q 1452.48 180.37 1435.98 137.74
  Q 1435.52 136.56 1435.80 135.69
  Z"
/>
<path fill="#ffffff" d="
  M 1048.04 683.64
  A 1.77 1.75 -17.7 0 0 1048.86 682.07
  Q 1048.11 667.20 1050.55 652.43
  Q 1052.03 643.44 1052.33 638.48
  C 1052.85 629.86 1053.03 621.40 1054.34 612.90
  Q 1057.36 593.20 1056.51 571.33
  Q 1056.40 568.56 1053.65 568.11
  Q 1047.53 567.12 1041.25 567.03
  Q 1029.13 566.87 1016.50 566.85
  Q 879.97 566.66 746.52 566.77
  A 1.57 1.57 0.0 0 1 744.95 565.22
  C 744.84 552.00 743.81 539.18 741.90 526.24
  Q 740.54 517.01 740.42 502.98
  Q 740.37 497.01 738.39 486.60
  Q 736.84 478.43 736.84 469.57
  C 736.85 458.91 735.55 448.62 733.97 438.11
  C 733.25 433.35 732.81 428.23 732.80 423.39
  C 732.77 413.34 731.65 403.74 730.17 393.91
  C 728.96 385.98 729.05 377.69 728.48 369.59
  C 727.82 360.18 725.38 350.97 725.42 341.60
  Q 725.49 319.75 721.39 298.73
  C 720.99 296.68 721.70 294.69 724.06 294.69
  Q 951.59 294.78 1171.64 294.60
  A 1.80 1.78 2.5 0 1 1173.43 296.54
  L 1166.15 382.43
  Q 1165.89 385.50 1162.81 385.50
  L 820.95 385.50
  A 1.91 1.90 -7.7 0 0 819.11 387.91
  C 822.28 399.28 823.51 410.84 823.60 422.86
  Q 823.67 433.19 825.87 444.47
  Q 828.02 455.57 827.21 473.51
  C 827.13 475.07 828.28 476.11 829.80 476.11
  Q 993.55 476.42 1154.77 476.92
  Q 1159.19 476.93 1158.18 481.22
  Q 1154.99 494.78 1155.03 508.43
  C 1155.04 511.92 1154.84 515.43 1154.38 518.81
  Q 1151.38 540.83 1151.31 544.86
  Q 1151.09 558.18 1149.61 568.06
  Q 1147.71 580.82 1147.58 588.82
  C 1147.39 599.38 1146.70 608.10 1144.71 620.89
  Q 1143.28 630.04 1143.01 638.52
  Q 1142.70 647.86 1142.01 653.44
  Q 1139.62 672.57 1139.62 679.22
  Q 1139.61 691.67 1138.98 695.26
  Q 1136.67 708.61 1136.14 715.25
  Q 1135.10 728.10 1134.13 742.59
  Q 1133.90 746.00 1133.41 749.23
  C 1132.82 753.14 1130.31 754.85 1126.58 755.94
  Q 1118.40 758.33 1110.55 760.52
  Q 1033.05 782.05 974.22 798.96
  Q 954.66 804.59 934.93 801.80
  Q 928.97 800.96 915.48 797.22
  Q 845.84 777.91 771.01 756.72
  C 762.24 754.23 762.22 749.59 761.65 741.12
  C 760.85 729.37 760.09 718.01 758.13 706.75
  C 755.92 694.08 756.87 681.18 754.74 668.48
  Q 752.92 657.64 752.86 647.90
  C 752.79 635.34 751.76 625.42 749.12 614.53
  C 748.76 613.02 750.16 611.88 751.62 611.86
  Q 791.38 611.17 828.37 612.00
  Q 833.98 612.12 838.94 613.60
  A 2.79 2.79 0.0 0 1 840.92 616.02
  L 846.89 682.47
  A 2.60 2.58 -84.1 0 0 848.70 684.71
  Q 854.66 686.57 859.68 687.95
  Q 897.55 698.39 938.62 709.07
  C 946.00 710.98 953.57 709.75 961.96 707.57
  Q 1004.85 696.40 1047.03 684.08
  Q 1047.57 683.93 1048.04 683.64
  Z"
/>
</svg>
