<?xml version="1.0" encoding="UTF-8" standalone="no"?>
<!DOCTYPE svg PUBLIC "-//W3C//DTD SVG 1.1//EN" "http://www.w3.org/Graphics/SVG/1.1/DTD/svg11.dtd">
<svg xmlns="http://www.w3.org/2000/svg" version="1.1" viewBox="0.00 0.00 1920.00 1080.00">
<g stroke-width="2.00" fill="none" stroke-linecap="butt">
<path stroke="#7d3dec" vector-effect="non-scaling-stroke" d="
  M 1435.33 134.95
  C 1435.32 135.67 1435.22 136.51 1435.49 137.19
  Q 1452.73 180.48 1450.68 226.78
  Q 1450.57 229.28 1449.28 246.73
  Q 1429.95 508.25 1410.65 769.78
  Q 1409.33 787.74 1409.13 789.72
  Q 1402.33 858.97 1358.56 913.97
  Q 1335.41 943.07 1304.65 964.03
  C 1272.73 985.80 1235.62 1000.23 1197.02 1004.26
  Q 1188.09 1005.19 1177.02 1005.18
  Q 937.56 1005.01 694.51 1005.21
  Q 682.87 1005.22 674.97 1004.66
  Q 665.32 1003.98 655.21 1002.18
  Q 604.97 993.23 561.71 963.33
  Q 540.96 948.99 523.46 930.97
  Q 521.50 928.96 519.67 926.75
  A 5.48 5.47 -70.1 0 1 518.51 924.27
  Q 518.49 924.16 516.64 923.04"
/>
<path stroke="#c6a9ff" vector-effect="non-scaling-stroke" d="
  M 1059.33 423.28
  Q 1051.96 427.22 1049.67 428.65
  Q 1036.50 436.87 1023.17 452.62
  Q 1008.15 470.34 1002.91 494.75
  Q 999.63 510.02 1000.70 525.70
  C 1003.47 566.38 1035.92 596.60 1070.60 613.65
  Q 1088.76 622.58 1109.00 631.88
  Q 1127.07 640.19 1140.90 650.86
  Q 1154.56 661.41 1152.66 678.67
  C 1150.42 699.00 1133.83 706.58 1115.46 709.05
  Q 1096.74 711.55 1079.57 706.81
  Q 1070.36 704.26 1060.76 699.77
  Q 1043.85 691.85 1030.67 683.85
  Q 1023.52 679.50 1013.02 670.85
  C 1012.32 670.27 1011.37 669.97 1010.91 669.13
  Q 1010.50 668.39 1010.02 669.09
  Q 1008.76 670.89 1007.67 672.72
  Q 988.26 705.28 968.78 738.18
  Q 968.55 738.56 968.79 738.94
  Q 969.14 739.50 969.84 739.41
  Q 970.24 739.36 970.16 738.97
  Q 969.95 737.94 970.54 737.10
  Q 971.03 736.39 971.04 737.25
  L 971.08 740.58
  Q 971.09 740.99 971.37 741.29
  Q 972.72 742.67 974.22 743.84
  Q 982.71 750.39 992.61 755.87
  Q 1007.68 764.22 1021.18 770.50
  Q 1033.98 776.45 1050.19 780.28
  Q 1077.05 786.64 1103.24 787.18
  Q 1131.10 787.76 1157.98 780.76
  Q 1183.07 774.23 1204.38 759.23
  C 1224.06 745.38 1236.96 722.00 1241.61 698.77
  Q 1245.65 678.58 1244.11 661.44
  C 1242.28 641.12 1232.62 623.66 1218.33 609.22
  Q 1195.79 586.44 1167.28 573.01
  C 1145.59 562.79 1121.73 553.61 1100.07 540.27
  Q 1093.72 536.36 1088.94 531.48
  C 1083.72 526.13 1081.58 519.73 1082.52 512.16
  Q 1083.62 503.38 1088.43 497.21
  C 1094.82 489.03 1106.41 484.83 1116.72 483.77
  C 1138.43 481.54 1159.25 488.15 1180.48 497.42
  Q 1190.67 501.88 1199.68 508.33
  A 0.35 0.35 0.0 0 0 1200.19 508.20
  L 1232.85 443.09"
/>
<path stroke="#c6a9ff" vector-effect="non-scaling-stroke" d="
  M 1231.74 441.04
  Q 1231.86 440.45 1231.69 440.32
  Q 1214.16 427.15 1193.14 421.14"
/>
<path stroke="#c6a9ff" vector-effect="non-scaling-stroke" d="
  M 875.60 431.03
  Q 874.62 433.36 874.75 435.88
  Q 874.98 440.23 874.95 440.66
  C 874.76 443.37 874.51 446.13 874.51 448.82
  C 874.52 481.11 874.23 513.45 874.62 545.75
  Q 874.99 576.50 874.61 607.24
  C 874.39 625.20 874.68 644.98 874.32 660.88
  C 873.94 677.84 868.09 694.85 852.28 702.62
  Q 835.29 710.97 817.15 704.32
  Q 811.95 702.41 804.64 698.58
  Q 804.17 698.34 802.89 698.66"
/>
<path stroke="#7d3dec" vector-effect="non-scaling-stroke" d="
  M 802.89 698.66
  Q 803.32 698.59 803.53 698.22
  Q 803.73 697.85 803.38 697.63
  Q 803.25 697.55 803.06 697.56"
/>
<path stroke="#c6a9ff" vector-effect="non-scaling-stroke" d="
  M 773.76 718.78
  Q 770.50 719.50 769.50 722.23
  Q 768.48 724.99 767.40 730.62"
/>
<path stroke="#c6a9ff" vector-effect="non-scaling-stroke" d="
  M 774.07 764.69
  Q 780.84 769.42 784.16 771.10
  C 790.08 774.09 795.83 777.19 801.87 779.53
  Q 815.68 784.86 830.14 786.49
  Q 844.97 788.15 863.66 786.05
  Q 874.53 784.84 883.72 782.61
  C 900.23 778.62 916.17 770.72 928.56 758.80
  C 950.77 737.42 958.11 707.54 958.11 677.38
  Q 958.13 545.93 958.13 414.36
  Q 958.13 413.86 957.63 413.85
  Q 926.21 413.24 895.58 414.35"
/>
<path stroke="#b693ec" vector-effect="non-scaling-stroke" d="
  M 775.95 715.32
  Q 778.40 713.05 779.85 712.10
  Q 780.91 711.40 781.06 710.31
  Q 781.12 709.82 781.50 709.51
  Q 782.08 709.03 781.93 708.31
  A 0.96 0.95 75.0 0 1 782.55 707.22
  Q 784.88 706.42 787.22 705.29
  C 789.20 704.34 791.24 704.20 793.37 703.99
  Q 794.36 703.89 793.44 703.52
  Q 792.43 703.11 790.64 703.69
  Q 790.56 703.72 790.57 703.81
  Q 790.58 703.86 790.56 703.70
  Q 790.55 703.59 790.65 703.58
  Q 792.01 703.43 793.42 703.21
  Q 794.75 703.02 796.17 702.95
  Q 800.51 702.76 802.89 698.66"
/>
</g>
<path fill="#8c52ff" d="
  M 1435.33 134.95
  C 1435.32 135.67 1435.22 136.51 1435.49 137.19
  Q 1452.73 180.48 1450.68 226.78
  Q 1450.57 229.28 1449.28 246.73
  Q 1429.95 508.25 1410.65 769.78
  Q 1409.33 787.74 1409.13 789.72
  Q 1402.33 858.97 1358.56 913.97
  Q 1335.41 943.07 1304.65 964.03
  C 1272.73 985.80 1235.62 1000.23 1197.02 1004.26
  Q 1188.09 1005.19 1177.02 1005.18
  Q 937.56 1005.01 694.51 1005.21
  Q 682.87 1005.22 674.97 1004.66
  Q 665.32 1003.98 655.21 1002.18
  Q 604.97 993.23 561.71 963.33
  Q 540.96 948.99 523.46 930.97
  Q 521.50 928.96 519.67 926.75
  A 5.48 5.47 -70.1 0 1 518.51 924.27
  Q 518.49 924.16 516.64 923.04
  Q 486.88 889.29 471.30 846.98
  Q 468.62 839.68 465.22 827.68
  Q 463.53 821.70 462.63 816.18
  Q 461.64 810.15 460.11 804.72
  C 459.08 801.07 459.56 797.07 458.98 793.29
  Q 457.49 783.61 457.45 773.95
  C 457.43 768.68 455.72 763.84 455.69 758.58
  C 455.65 750.99 455.59 743.41 454.55 735.93
  C 453.55 728.74 453.90 721.35 452.79 714.56
  C 451.27 705.28 452.02 695.79 450.94 686.45
  Q 450.39 681.64 450.18 677.67
  C 449.88 672.18 449.29 667.03 448.67 661.63
  Q 448.30 658.51 448.25 655.61
  Q 447.85 634.02 445.29 615.24
  Q 444.42 608.87 444.46 603.55
  Q 444.54 595.08 443.59 588.27
  C 442.47 580.12 443.15 571.70 441.65 563.69
  C 439.76 553.57 441.26 543.32 439.67 533.15
  C 438.56 526.07 438.80 518.83 437.86 511.80
  Q 437.07 505.91 436.83 499.45
  Q 436.40 488.10 435.63 478.98
  Q 435.02 471.87 434.33 465.40
  Q 433.56 458.30 433.28 451.68
  Q 432.74 439.54 431.84 426.77
  Q 431.27 418.74 430.28 412.13
  C 429.03 403.69 429.96 395.56 428.72 387.29
  Q 427.45 378.85 427.50 369.94
  C 427.53 366.03 426.95 362.28 426.22 358.46
  Q 425.78 356.14 425.72 353.82
  C 425.56 347.36 425.75 340.59 424.92 334.27
  Q 423.78 325.58 423.57 316.54
  C 423.48 312.83 422.92 309.26 422.31 305.63
  Q 421.96 303.57 421.94 301.47
  C 421.87 294.88 421.75 288.14 420.93 281.64
  C 420.15 275.46 420.30 269.30 419.36 263.20
  C 418.86 259.96 418.29 256.71 418.26 253.43
  C 418.22 248.14 418.16 242.96 417.63 237.69
  Q 416.03 221.72 416.59 205.32
  Q 416.76 200.21 417.46 195.65
  C 418.16 191.09 418.11 186.66 418.99 181.99
  Q 421.31 169.67 422.91 163.74
  Q 442.35 91.44 503.09 48.96
  Q 533.17 27.93 571.54 18.67
  C 580.32 16.55 589.63 15.41 598.77 13.92
  Q 603.28 13.18 608.66 13.19
  Q 934.25 13.21 1259.35 13.20
  Q 1264.10 13.20 1269.15 14.02
  Q 1274.06 14.82 1278.96 15.56
  Q 1332.39 23.65 1374.84 56.87
  C 1380.57 61.34 1386.18 66.97 1391.75 72.19
  Q 1396.98 77.10 1405.11 86.83
  Q 1421.56 106.53 1433.07 131.67
  Q 1433.74 133.12 1435.33 134.95
  Z
  M 1059.33 423.28
  Q 1051.96 427.22 1049.67 428.65
  Q 1036.50 436.87 1023.17 452.62
  Q 1008.15 470.34 1002.91 494.75
  Q 999.63 510.02 1000.70 525.70
  C 1003.47 566.38 1035.92 596.60 1070.60 613.65
  Q 1088.76 622.58 1109.00 631.88
  Q 1127.07 640.19 1140.90 650.86
  Q 1154.56 661.41 1152.66 678.67
  C 1150.42 699.00 1133.83 706.58 1115.46 709.05
  Q 1096.74 711.55 1079.57 706.81
  Q 1070.36 704.26 1060.76 699.77
  Q 1043.85 691.85 1030.67 683.85
  Q 1023.52 679.50 1013.02 670.85
  C 1012.32 670.27 1011.37 669.97 1010.91 669.13
  Q 1010.50 668.39 1010.02 669.09
  Q 1008.76 670.89 1007.67 672.72
  Q 988.26 705.28 968.78 738.18
  Q 968.55 738.56 968.79 738.94
  Q 969.14 739.50 969.84 739.41
  Q 970.24 739.36 970.16 738.97
  Q 969.95 737.94 970.54 737.10
  Q 971.03 736.39 971.04 737.25
  L 971.08 740.58
  Q 971.09 740.99 971.37 741.29
  Q 972.72 742.67 974.22 743.84
  Q 982.71 750.39 992.61 755.87
  Q 1007.68 764.22 1021.18 770.50
  Q 1033.98 776.45 1050.19 780.28
  Q 1077.05 786.64 1103.24 787.18
  Q 1131.10 787.76 1157.98 780.76
  Q 1183.07 774.23 1204.38 759.23
  C 1224.06 745.38 1236.96 722.00 1241.61 698.77
  Q 1245.65 678.58 1244.11 661.44
  C 1242.28 641.12 1232.62 623.66 1218.33 609.22
  Q 1195.79 586.44 1167.28 573.01
  C 1145.59 562.79 1121.73 553.61 1100.07 540.27
  Q 1093.72 536.36 1088.94 531.48
  C 1083.72 526.13 1081.58 519.73 1082.52 512.16
  Q 1083.62 503.38 1088.43 497.21
  C 1094.82 489.03 1106.41 484.83 1116.72 483.77
  C 1138.43 481.54 1159.25 488.15 1180.48 497.42
  Q 1190.67 501.88 1199.68 508.33
  A 0.35 0.35 0.0 0 0 1200.19 508.20
  L 1232.85 443.09
  L 1233.34 441.39
  Q 1233.49 440.89 1232.98 440.81
  Q 1232.44 440.72 1231.74 441.04
  Q 1231.86 440.45 1231.69 440.32
  Q 1214.16 427.15 1193.14 421.14
  Q 1182.90 417.60 1172.76 414.22
  Q 1169.01 412.97 1149.55 409.64
  C 1142.73 408.47 1135.46 408.10 1128.33 407.36
  C 1121.72 406.68 1114.76 407.01 1107.76 407.95
  Q 1103.23 408.55 1098.84 409.19
  Q 1091.69 410.22 1080.94 413.39
  Q 1071.68 416.12 1059.33 423.28
  Z
  M 895.58 414.35
  L 875.61 414.30
  Q 874.20 414.29 874.32 415.70
  L 875.60 431.03
  Q 874.62 433.36 874.75 435.88
  Q 874.98 440.23 874.95 440.66
  C 874.76 443.37 874.51 446.13 874.51 448.82
  C 874.52 481.11 874.23 513.45 874.62 545.75
  Q 874.99 576.50 874.61 607.24
  C 874.39 625.20 874.68 644.98 874.32 660.88
  C 873.94 677.84 868.09 694.85 852.28 702.62
  Q 835.29 710.97 817.15 704.32
  Q 811.95 702.41 804.64 698.58
  Q 804.17 698.34 802.89 698.66
  Q 803.32 698.59 803.53 698.22
  Q 803.73 697.85 803.38 697.63
  Q 803.25 697.55 803.06 697.56
  L 785.14 682.94
  Q 784.50 682.41 784.24 683.20
  C 782.58 688.29 781.16 693.59 779.14 698.46
  Q 775.07 708.28 772.21 717.93
  A 0.74 0.74 0.0 0 0 773.01 718.87
  L 773.76 718.78
  Q 770.50 719.50 769.50 722.23
  Q 768.48 724.99 767.40 730.62
  Q 766.16 733.39 764.95 736.53
  C 763.37 740.63 761.28 744.34 759.66 748.57
  Q 758.53 751.49 760.05 753.35
  C 761.78 755.48 763.92 757.33 766.24 758.86
  Q 770.21 761.48 774.07 764.69
  Q 780.84 769.42 784.16 771.10
  C 790.08 774.09 795.83 777.19 801.87 779.53
  Q 815.68 784.86 830.14 786.49
  Q 844.97 788.15 863.66 786.05
  Q 874.53 784.84 883.72 782.61
  C 900.23 778.62 916.17 770.72 928.56 758.80
  C 950.77 737.42 958.11 707.54 958.11 677.38
  Q 958.13 545.93 958.13 414.36
  Q 958.13 413.86 957.63 413.85
  Q 926.21 413.24 895.58 414.35
  Z"
/>
<path fill="#6d27d9" d="
  M 1435.33 134.95
  Q 1439.77 139.80 1446.78 148.97
  Q 1479.23 191.41 1486.51 244.53
  C 1487.10 248.82 1487.07 253.17 1487.60 257.58
  Q 1489.34 272.12 1487.84 285.78
  Q 1487.17 291.90 1486.95 297.50
  C 1486.74 302.98 1486.72 308.25 1486.00 313.59
  C 1484.85 322.15 1485.23 330.25 1484.00 338.65
  C 1482.86 346.49 1483.49 354.71 1482.32 362.58
  Q 1481.16 370.42 1481.22 378.51
  C 1481.26 383.97 1479.55 389.58 1479.56 395.05
  Q 1479.58 403.22 1478.87 410.10
  Q 1478.03 418.31 1477.58 425.03
  Q 1476.92 434.88 1476.11 444.67
  Q 1475.57 451.18 1475.40 458.40
  Q 1475.30 462.96 1474.48 467.79
  Q 1473.83 471.55 1473.66 477.24
  Q 1473.37 486.74 1472.38 493.99
  C 1471.48 500.64 1472.14 508.93 1471.05 516.34
  C 1470.48 520.19 1470.13 523.85 1470.03 527.80
  Q 1469.81 535.98 1468.70 543.75
  Q 1468.03 548.35 1468.06 554.78
  Q 1468.08 560.10 1467.26 565.92
  Q 1466.29 572.76 1466.20 580.47
  Q 1466.15 585.23 1465.25 591.54
  Q 1464.18 598.98 1464.31 608.09
  C 1464.35 611.19 1463.76 614.46 1463.52 617.53
  Q 1462.13 635.58 1460.66 654.32
  C 1460.41 657.58 1460.63 660.81 1460.31 664.03
  C 1459.75 669.64 1458.73 674.92 1458.73 680.73
  C 1458.73 688.63 1457.18 696.18 1456.94 703.67
  C 1456.77 708.93 1456.60 714.01 1455.96 719.43
  Q 1454.97 727.82 1454.86 736.73
  C 1454.80 741.12 1453.46 746.55 1453.26 751.50
  C 1453.06 756.56 1453.16 761.58 1452.54 766.56
  C 1452.06 770.46 1451.37 774.30 1451.39 778.23
  Q 1451.42 786.98 1450.28 793.59
  C 1448.93 801.40 1449.56 809.55 1448.76 817.33
  Q 1448.01 824.56 1447.61 831.59
  Q 1446.69 847.57 1444.49 861.57
  C 1437.34 907.29 1416.28 948.56 1385.32 983.13
  Q 1376.63 992.84 1368.02 1000.32
  Q 1360.84 1006.56 1352.58 1012.90
  Q 1314.06 1042.47 1267.07 1054.94
  Q 1250.73 1059.28 1233.93 1060.76
  Q 1225.42 1061.51 1213.81 1061.52
  Q 963.21 1061.69 718.09 1061.29
  C 713.73 1061.28 709.24 1061.22 704.72 1060.64
  Q 644.49 1052.92 595.21 1017.36
  Q 575.16 1002.90 558.15 984.70
  Q 555.22 981.55 551.79 977.33
  Q 548.64 973.46 545.71 969.83
  Q 528.40 948.32 516.64 923.04
  Q 518.49 924.16 518.51 924.27
  A 5.48 5.47 -70.1 0 0 519.67 926.75
  Q 521.50 928.96 523.46 930.97
  Q 540.96 948.99 561.71 963.33
  Q 604.97 993.23 655.21 1002.18
  Q 665.32 1003.98 674.97 1004.66
  Q 682.87 1005.22 694.51 1005.21
  Q 937.56 1005.01 1177.02 1005.18
  Q 1188.09 1005.19 1197.02 1004.26
  C 1235.62 1000.23 1272.73 985.80 1304.65 964.03
  Q 1335.41 943.07 1358.56 913.97
  Q 1402.33 858.97 1409.13 789.72
  Q 1409.33 787.74 1410.65 769.78
  Q 1429.95 508.25 1449.28 246.73
  Q 1450.57 229.28 1450.68 226.78
  Q 1452.73 180.48 1435.49 137.19
  C 1435.22 136.51 1435.32 135.67 1435.33 134.95
  Z"
/>
<path fill="#ffffff" d="
  M 1193.14 421.14
  Q 1214.16 427.15 1231.69 440.32
  Q 1231.86 440.45 1231.74 441.04
  L 1232.85 443.09
  L 1200.19 508.20
  A 0.35 0.35 0.0 0 1 1199.68 508.33
  Q 1190.67 501.88 1180.48 497.42
  C 1159.25 488.15 1138.43 481.54 1116.72 483.77
  C 1106.41 484.83 1094.82 489.03 1088.43 497.21
  Q 1083.62 503.38 1082.52 512.16
  C 1081.58 519.73 1083.72 526.13 1088.94 531.48
  Q 1093.72 536.36 1100.07 540.27
  C 1121.73 553.61 1145.59 562.79 1167.28 573.01
  Q 1195.79 586.44 1218.33 609.22
  C 1232.62 623.66 1242.28 641.12 1244.11 661.44
  Q 1245.65 678.58 1241.61 698.77
  C 1236.96 722.00 1224.06 745.38 1204.38 759.23
  Q 1183.07 774.23 1157.98 780.76
  Q 1131.10 787.76 1103.24 787.18
  Q 1077.05 786.64 1050.19 780.28
  Q 1033.98 776.45 1021.18 770.50
  Q 1007.68 764.22 992.61 755.87
  Q 982.71 750.39 974.22 743.84
  Q 972.72 742.67 971.37 741.29
  Q 971.09 740.99 971.08 740.58
  L 971.04 737.25
  Q 971.03 736.39 970.54 737.10
  Q 969.95 737.94 970.16 738.97
  Q 970.24 739.36 969.84 739.41
  Q 969.14 739.50 968.79 738.94
  Q 968.55 738.56 968.78 738.18
  Q 988.26 705.28 1007.67 672.72
  Q 1008.76 670.89 1010.02 669.09
  Q 1010.50 668.39 1010.91 669.13
  C 1011.37 669.97 1012.32 670.27 1013.02 670.85
  Q 1023.52 679.50 1030.67 683.85
  Q 1043.85 691.85 1060.76 699.77
  Q 1070.36 704.26 1079.57 706.81
  Q 1096.74 711.55 1115.46 709.05
  C 1133.83 706.58 1150.42 699.00 1152.66 678.67
  Q 1154.56 661.41 1140.90 650.86
  Q 1127.07 640.19 1109.00 631.88
  Q 1088.76 622.58 1070.60 613.65
  C 1035.92 596.60 1003.47 566.38 1000.70 525.70
  Q 999.63 510.02 1002.91 494.75
  Q 1008.15 470.34 1023.17 452.62
  Q 1036.50 436.87 1049.67 428.65
  Q 1051.96 427.22 1059.33 423.28
  Q 1065.96 421.53 1072.22 418.99
  Q 1076.86 417.11 1080.46 416.40
  Q 1094.25 413.64 1107.64 410.85
  C 1109.32 410.50 1111.04 410.43 1112.76 410.44
  Q 1122.79 410.50 1131.41 410.36
  Q 1136.67 410.28 1146.79 412.78
  Q 1155.57 414.96 1168.47 416.05
  C 1173.48 416.47 1178.30 417.97 1183.25 418.85
  Q 1184.98 419.16 1188.13 420.12
  Q 1190.57 420.86 1193.14 421.14
  Z"
/>
<path fill="#ffffff" d="
  M 774.07 764.69
  L 768.67 756.44
  Q 768.37 755.98 768.39 755.42
  C 768.49 752.95 767.40 749.84 766.58 747.55
  C 765.78 745.31 766.18 742.95 766.75 740.72
  Q 767.93 736.09 769.49 730.96
  Q 769.73 730.19 769.48 729.47
  Q 769.28 728.92 768.85 729.31
  L 767.40 730.62
  Q 768.48 724.99 769.50 722.23
  Q 770.50 719.50 773.76 718.78
  L 775.95 715.32
  Q 778.40 713.05 779.85 712.10
  Q 780.91 711.40 781.06 710.31
  Q 781.12 709.82 781.50 709.51
  Q 782.08 709.03 781.93 708.31
  A 0.96 0.95 75.0 0 1 782.55 707.22
  Q 784.88 706.42 787.22 705.29
  C 789.20 704.34 791.24 704.20 793.37 703.99
  Q 794.36 703.89 793.44 703.52
  Q 792.43 703.11 790.64 703.69
  Q 790.56 703.72 790.57 703.81
  Q 790.58 703.86 790.56 703.70
  Q 790.55 703.59 790.65 703.58
  Q 792.01 703.43 793.42 703.21
  Q 794.75 703.02 796.17 702.95
  Q 800.51 702.76 802.89 698.66
  Q 804.17 698.34 804.64 698.58
  Q 811.95 702.41 817.15 704.32
  Q 835.29 710.97 852.28 702.62
  C 868.09 694.85 873.94 677.84 874.32 660.88
  C 874.68 644.98 874.39 625.20 874.61 607.24
  Q 874.99 576.50 874.62 545.75
  C 874.23 513.45 874.52 481.11 874.51 448.82
  C 874.51 446.13 874.76 443.37 874.95 440.66
  Q 874.98 440.23 874.75 435.88
  Q 874.62 433.36 875.60 431.03
  L 875.82 437.09
  A 0.23 0.22 4.5 0 0 876.01 437.31
  L 876.29 437.35
  Q 876.31 437.35 876.31 437.34
  Q 877.26 432.18 879.31 429.03
  Q 881.01 426.42 882.53 423.50
  Q 883.75 421.18 886.09 419.43
  Q 890.03 416.48 895.58 414.35
  Q 926.21 413.24 957.63 413.85
  Q 958.13 413.86 958.13 414.36
  Q 958.13 545.93 958.11 677.38
  C 958.11 707.54 950.77 737.42 928.56 758.80
  C 916.17 770.72 900.23 778.62 883.72 782.61
  Q 874.53 784.84 863.66 786.05
  Q 844.97 788.15 830.14 786.49
  Q 815.68 784.86 801.87 779.53
  C 795.83 777.19 790.08 774.09 784.16 771.10
  Q 780.84 769.42 774.07 764.69
  Z"
/>
<path fill="#6d27d9" d="
  M 803.06 697.56
  Q 803.25 697.55 803.38 697.63
  Q 803.73 697.85 803.53 698.22
  Q 803.32 698.59 802.89 698.66
  Q 800.51 702.76 796.17 702.95
  Q 794.75 703.02 793.42 703.21
  Q 792.01 703.43 790.65 703.58
  Q 790.55 703.59 790.56 703.70
  Q 790.58 703.86 790.57 703.81
  Q 790.56 703.72 790.64 703.69
  Q 792.43 703.11 793.44 703.52
  Q 794.36 703.89 793.37 703.99
  C 791.24 704.20 789.20 704.34 787.22 705.29
  Q 784.88 706.42 782.55 707.22
  A 0.96 0.95 75.0 0 0 781.93 708.31
  Q 782.08 709.03 781.50 709.51
  Q 781.12 709.82 781.06 710.31
  Q 780.91 711.40 779.85 712.10
  Q 778.40 713.05 775.95 715.32
  L 779.97 706.07
  A 4.34 4.33 89.6 0 1 782.19 703.82
  Q 785.99 702.12 790.46 698.86
  Q 790.86 698.57 791.36 698.57
  Q 796.06 698.63 800.42 697.86
  Q 801.49 697.67 802.43 698.08
  Q 802.77 698.23 803.03 697.97
  Q 803.18 697.81 803.06 697.56
  Z"
/>
</svg>
