<?xml version="1.0" encoding="UTF-8" standalone="no"?>
<!DOCTYPE svg PUBLIC "-//W3C//DTD SVG 1.1//EN" "http://www.w3.org/Graphics/SVG/1.1/DTD/svg11.dtd">
<svg xmlns="http://www.w3.org/2000/svg" version="1.1" viewBox="0.00 0.00 1920.00 1080.00">
<g stroke-width="2.00" fill="none" stroke-linecap="butt">
<path stroke="#7d3dec" vector-effect="non-scaling-stroke" d="
  M 1435.09 134.91
  Q 1435.70 137.21 1436.01 138.00
  Q 1453.89 184.08 1450.09 235.50
  Q 1430.37 502.64 1410.65 769.78
  Q 1409.29 788.20 1409.15 789.72
  Q 1403.35 849.05 1369.74 898.65
  Q 1347.59 931.32 1315.87 955.78
  C 1281.71 982.13 1240.20 999.85 1196.96 1004.27
  Q 1188.28 1005.16 1177.36 1005.15
  Q 932.49 1005.10 684.34 1005.12
  Q 678.50 1005.12 672.57 1004.49
  Q 608.40 997.72 556.07 959.31
  Q 541.91 948.91 536.81 943.94
  Q 531.58 938.84 526.35 933.75
  Q 526.10 933.51 522.18 929.24
  Q 519.98 926.86 517.50 925.19"
/>
<path stroke="#c6a9ff" vector-effect="non-scaling-stroke" d="
  M 950.35 700.98
  C 950.96 695.50 957.54 692.84 961.94 695.63
  Q 965.12 697.64 965.67 701.78
  C 967.64 716.31 969.86 729.95 974.47 744.02
  C 976.42 749.99 979.67 753.35 984.52 756.71
  C 985.58 757.45 986.30 758.64 986.91 759.76
  Q 987.41 760.67 988.19 759.99
  C 1036.45 717.98 1073.25 661.91 1088.52 599.65
  Q 1093.69 578.54 1095.62 556.08
  Q 1096.02 551.53 1096.15 546.57
  C 1096.37 538.24 1096.63 530.18 1096.25 521.93
  Q 1093.79 468.92 1075.26 419.76
  Q 1050.31 353.60 1001.40 298.14
  Q 992.26 287.79 977.25 272.80
  Q 963.00 258.59 957.75 239.70
  Q 957.19 237.67 956.76 239.73
  C 955.25 246.89 950.75 253.00 945.94 257.90
  Q 926.03 278.16 906.71 299.18
  Q 869.64 339.49 850.16 390.35
  C 844.96 403.92 840.58 419.13 837.32 432.62
  Q 827.44 473.50 824.26 522.34
  Q 823.61 532.25 824.41 541.94
  Q 827.56 580.19 837.35 615.33
  C 839.97 624.75 843.62 635.15 847.18 644.48
  C 856.26 668.33 871.33 691.66 888.16 711.92
  Q 910.82 739.20 938.74 762.53
  A 0.39 0.39 0.0 0 0 939.36 762.34
  Q 943.02 749.58 945.52 736.50
  Q 947.62 725.56 950.35 700.98"
/>
<path stroke="#c6a9ff" vector-effect="non-scaling-stroke" d="
  M 973.44 780.59
  C 974.08 774.30 976.07 768.47 979.40 763.08
  A 0.52 0.51 -58.2 0 0 979.24 762.37
  Q 970.64 756.93 966.95 745.84
  C 962.67 733.00 959.66 717.89 958.38 703.77
  Q 958.35 703.44 958.04 703.55
  Q 957.86 703.61 957.83 703.80
  C 956.08 718.60 954.44 733.38 951.07 747.53
  Q 948.56 758.10 945.77 768.13
  Q 945.53 768.97 945.86 769.78
  Q 949.98 780.07 951.54 791.76
  Q 954.36 812.73 954.71 837.85
  Q 954.72 838.47 955.32 838.65
  L 969.47 842.89
  A 0.71 0.70 -81.5 0 0 970.38 842.21
  Q 970.40 810.76 973.44 780.59"
/>
<path stroke="#c6a9ff" vector-effect="non-scaling-stroke" d="
  M 878.10 638.56
  C 880.48 643.64 882.58 648.89 885.32 653.67
  Q 891.46 664.39 893.43 667.43
  Q 908.11 690.09 927.89 710.84
  A 0.52 0.52 0.0 0 0 928.79 710.50
  Q 929.29 700.50 931.20 691.56
  C 931.79 688.77 933.20 686.36 934.35 683.77
  Q 935.00 682.32 935.00 680.73
  Q 934.99 495.98 935.02 311.26
  Q 935.02 310.80 935.07 310.35
  Q 935.28 308.70 934.15 309.91
  Q 921.38 323.55 910.01 339.14
  C 906.19 344.38 903.02 349.72 899.60 355.07
  Q 895.83 360.96 892.61 367.32
  C 888.40 375.64 884.20 383.58 880.66 392.17
  C 876.52 402.19 873.52 412.17 870.50 422.53
  Q 868.16 430.57 866.53 437.65
  Q 856.76 480.07 854.43 523.58
  C 854.14 529.12 854.32 534.61 854.80 540.20
  Q 857.62 573.34 866.30 605.01
  Q 868.15 611.76 870.41 618.42
  C 872.72 625.24 875.05 632.03 878.10 638.56"
/>
</g>
<path fill="#8c52ff" d="
  M 1435.09 134.91
  Q 1435.70 137.21 1436.01 138.00
  Q 1453.89 184.08 1450.09 235.50
  Q 1430.37 502.64 1410.65 769.78
  Q 1409.29 788.20 1409.15 789.72
  Q 1403.35 849.05 1369.74 898.65
  Q 1347.59 931.32 1315.87 955.78
  C 1281.71 982.13 1240.20 999.85 1196.96 1004.27
  Q 1188.28 1005.16 1177.36 1005.15
  Q 932.49 1005.10 684.34 1005.12
  Q 678.50 1005.12 672.57 1004.49
  Q 608.40 997.72 556.07 959.31
  Q 541.91 948.91 536.81 943.94
  Q 531.58 938.84 526.35 933.75
  Q 526.10 933.51 522.18 929.24
  Q 519.98 926.86 517.50 925.19
  C 516.37 923.47 515.45 921.67 514.12 920.06
  Q 508.49 913.26 503.27 906.26
  Q 482.78 878.79 471.29 846.76
  Q 468.26 838.29 464.86 826.28
  Q 463.38 821.06 462.69 816.49
  C 461.78 810.55 459.56 804.90 459.39 799.03
  C 459.23 793.14 457.90 787.58 457.69 781.76
  C 457.49 776.06 457.34 770.57 456.30 764.90
  Q 455.55 760.78 455.60 756.75
  Q 455.72 746.85 454.87 739.46
  Q 453.89 731.00 453.44 720.28
  C 453.23 715.24 451.91 710.62 451.89 705.51
  Q 451.83 694.99 450.65 683.16
  Q 450.15 678.08 449.85 672.53
  C 449.58 667.68 448.51 663.01 448.38 658.29
  Q 447.98 643.96 446.97 629.75
  Q 446.45 622.44 445.28 614.96
  C 443.87 605.92 444.92 596.96 443.59 588.00
  C 442.48 580.58 443.02 572.35 441.96 565.81
  Q 440.16 554.70 440.48 543.87
  Q 440.60 539.93 439.75 533.52
  C 438.76 525.95 438.85 518.40 437.81 511.26
  Q 437.09 506.30 436.91 502.00
  C 436.66 495.80 436.75 489.64 436.02 483.51
  C 435.22 476.75 435.01 469.98 434.19 463.31
  C 433.16 454.99 433.07 446.68 432.63 438.09
  Q 431.89 423.79 430.30 411.95
  Q 429.54 406.33 429.47 402.29
  C 429.38 397.48 429.46 392.77 428.80 388.02
  Q 427.54 379.07 427.46 370.09
  Q 427.42 365.14 426.49 359.70
  C 425.09 351.50 426.07 342.89 424.98 334.43
  Q 423.83 325.59 423.54 316.43
  C 423.37 311.24 422.05 306.19 421.95 301.02
  C 421.83 294.46 421.72 287.93 420.94 281.63
  Q 420.26 276.08 420.07 270.56
  C 419.86 264.65 418.34 259.05 418.29 253.14
  Q 418.20 242.80 417.89 240.00
  Q 415.95 222.05 416.64 204.51
  Q 416.83 199.77 417.44 195.57
  C 418.03 191.50 418.02 187.28 418.73 183.19
  Q 432.72 103.57 494.98 54.87
  Q 524.49 31.79 564.76 20.37
  C 576.86 16.94 590.07 15.07 602.85 13.49
  C 608.95 12.73 616.57 13.20 623.30 13.20
  Q 936.05 13.25 1250.01 13.16
  Q 1256.17 13.15 1262.31 13.25
  C 1265.30 13.30 1268.27 14.05 1271.33 14.43
  Q 1333.31 22.24 1379.12 60.42
  Q 1387.34 67.27 1397.81 78.37
  Q 1404.65 85.62 1410.59 93.69
  Q 1424.86 113.10 1435.09 134.91
  Z
  M 950.35 700.98
  C 950.96 695.50 957.54 692.84 961.94 695.63
  Q 965.12 697.64 965.67 701.78
  C 967.64 716.31 969.86 729.95 974.47 744.02
  C 976.42 749.99 979.67 753.35 984.52 756.71
  C 985.58 757.45 986.30 758.64 986.91 759.76
  Q 987.41 760.67 988.19 759.99
  C 1036.45 717.98 1073.25 661.91 1088.52 599.65
  Q 1093.69 578.54 1095.62 556.08
  Q 1096.02 551.53 1096.15 546.57
  C 1096.37 538.24 1096.63 530.18 1096.25 521.93
  Q 1093.79 468.92 1075.26 419.76
  Q 1050.31 353.60 1001.40 298.14
  Q 992.26 287.79 977.25 272.80
  Q 963.00 258.59 957.75 239.70
  Q 957.19 237.67 956.76 239.73
  C 955.25 246.89 950.75 253.00 945.94 257.90
  Q 926.03 278.16 906.71 299.18
  Q 869.64 339.49 850.16 390.35
  C 844.96 403.92 840.58 419.13 837.32 432.62
  Q 827.44 473.50 824.26 522.34
  Q 823.61 532.25 824.41 541.94
  Q 827.56 580.19 837.35 615.33
  C 839.97 624.75 843.62 635.15 847.18 644.48
  C 856.26 668.33 871.33 691.66 888.16 711.92
  Q 910.82 739.20 938.74 762.53
  A 0.39 0.39 0.0 0 0 939.36 762.34
  Q 943.02 749.58 945.52 736.50
  Q 947.62 725.56 950.35 700.98
  Z
  M 973.44 780.59
  C 974.08 774.30 976.07 768.47 979.40 763.08
  A 0.52 0.51 -58.2 0 0 979.24 762.37
  Q 970.64 756.93 966.95 745.84
  C 962.67 733.00 959.66 717.89 958.38 703.77
  Q 958.35 703.44 958.04 703.55
  Q 957.86 703.61 957.83 703.80
  C 956.08 718.60 954.44 733.38 951.07 747.53
  Q 948.56 758.10 945.77 768.13
  Q 945.53 768.97 945.86 769.78
  Q 949.98 780.07 951.54 791.76
  Q 954.36 812.73 954.71 837.85
  Q 954.72 838.47 955.32 838.65
  L 969.47 842.89
  A 0.71 0.70 -81.5 0 0 970.38 842.21
  Q 970.40 810.76 973.44 780.59
  Z"
/>
<path fill="#6d27d9" d="
  M 1435.09 134.91
  Q 1476.99 180.98 1486.03 242.41
  C 1486.92 248.45 1486.98 254.41 1487.69 260.43
  Q 1489.16 272.99 1487.99 284.83
  Q 1487.09 293.96 1486.94 299.67
  Q 1486.71 308.36 1485.62 317.13
  C 1484.94 322.58 1485.25 328.01 1484.56 333.41
  Q 1483.43 342.42 1483.24 349.47
  Q 1483.05 356.47 1482.26 363.02
  Q 1481.38 370.35 1481.18 378.30
  Q 1481.08 382.51 1480.48 386.16
  C 1478.99 395.33 1480.06 404.56 1478.54 413.73
  C 1477.44 420.39 1477.56 425.57 1477.39 431.58
  C 1477.20 438.00 1475.50 444.35 1475.63 450.67
  Q 1475.80 458.59 1474.73 465.72
  C 1473.41 474.52 1473.81 482.68 1472.66 491.30
  C 1471.61 499.09 1472.10 506.86 1471.18 514.46
  Q 1470.22 522.45 1470.03 528.56
  Q 1469.85 534.69 1468.95 541.41
  C 1467.86 549.54 1468.33 557.90 1467.23 565.98
  C 1466.11 574.22 1466.59 582.40 1465.33 590.76
  C 1464.10 598.87 1464.84 607.62 1463.64 616.08
  C 1462.37 625.07 1462.67 634.65 1461.56 643.76
  Q 1460.81 649.90 1460.58 656.60
  Q 1460.33 663.69 1459.48 671.54
  Q 1458.69 678.84 1458.48 686.96
  C 1458.36 691.39 1457.25 695.73 1457.16 700.15
  Q 1456.95 710.43 1455.84 720.90
  Q 1455.17 727.21 1455.02 732.67
  C 1454.84 739.81 1453.52 746.65 1453.25 753.75
  C 1453.08 758.15 1453.08 762.62 1452.47 766.96
  Q 1451.39 774.65 1451.29 782.04
  Q 1451.21 787.72 1450.32 793.35
  C 1449.04 801.52 1449.91 810.46 1448.63 819.01
  C 1447.26 828.14 1447.75 837.39 1446.42 846.88
  C 1445.60 852.71 1445.17 858.66 1444.12 864.52
  Q 1434.60 917.58 1403.06 961.06
  C 1395.54 971.43 1386.99 981.86 1377.93 990.88
  C 1341.27 1027.35 1293.13 1052.87 1241.99 1059.94
  C 1232.85 1061.20 1222.19 1061.54 1212.40 1061.54
  Q 978.59 1061.66 721.50 1061.50
  Q 707.13 1061.49 692.03 1058.70
  Q 633.22 1047.84 586.43 1010.82
  Q 542.29 975.89 517.50 925.19
  Q 519.98 926.86 522.18 929.24
  Q 526.10 933.51 526.35 933.75
  Q 531.58 938.84 536.81 943.94
  Q 541.91 948.91 556.07 959.31
  Q 608.40 997.72 672.57 1004.49
  Q 678.50 1005.12 684.34 1005.12
  Q 932.49 1005.10 1177.36 1005.15
  Q 1188.28 1005.16 1196.96 1004.27
  C 1240.20 999.85 1281.71 982.13 1315.87 955.78
  Q 1347.59 931.32 1369.74 898.65
  Q 1403.35 849.05 1409.15 789.72
  Q 1409.29 788.20 1410.65 769.78
  Q 1430.37 502.64 1450.09 235.50
  Q 1453.89 184.08 1436.01 138.00
  Q 1435.70 137.21 1435.09 134.91
  Z"
/>
<path fill="#ffffff" d="
  M 961.94 695.63
  C 957.54 692.84 950.96 695.50 950.35 700.98
  Q 947.62 725.56 945.52 736.50
  Q 943.02 749.58 939.36 762.34
  A 0.39 0.39 0.0 0 1 938.74 762.53
  Q 910.82 739.20 888.16 711.92
  C 871.33 691.66 856.26 668.33 847.18 644.48
  C 843.62 635.15 839.97 624.75 837.35 615.33
  Q 827.56 580.19 824.41 541.94
  Q 823.61 532.25 824.26 522.34
  Q 827.44 473.50 837.32 432.62
  C 840.58 419.13 844.96 403.92 850.16 390.35
  Q 869.64 339.49 906.71 299.18
  Q 926.03 278.16 945.94 257.90
  C 950.75 253.00 955.25 246.89 956.76 239.73
  Q 957.19 237.67 957.75 239.70
  Q 963.00 258.59 977.25 272.80
  Q 992.26 287.79 1001.40 298.14
  Q 1050.31 353.60 1075.26 419.76
  Q 1093.79 468.92 1096.25 521.93
  C 1096.63 530.18 1096.37 538.24 1096.15 546.57
  Q 1096.02 551.53 1095.62 556.08
  Q 1093.69 578.54 1088.52 599.65
  C 1073.25 661.91 1036.45 717.98 988.19 759.99
  Q 987.41 760.67 986.91 759.76
  C 986.30 758.64 985.58 757.45 984.52 756.71
  C 979.67 753.35 976.42 749.99 974.47 744.02
  C 969.86 729.95 967.64 716.31 965.67 701.78
  Q 965.12 697.64 961.94 695.63
  Z
  M 878.10 638.56
  C 880.48 643.64 882.58 648.89 885.32 653.67
  Q 891.46 664.39 893.43 667.43
  Q 908.11 690.09 927.89 710.84
  A 0.52 0.52 0.0 0 0 928.79 710.50
  Q 929.29 700.50 931.20 691.56
  C 931.79 688.77 933.20 686.36 934.35 683.77
  Q 935.00 682.32 935.00 680.73
  Q 934.99 495.98 935.02 311.26
  Q 935.02 310.80 935.07 310.35
  Q 935.28 308.70 934.15 309.91
  Q 921.38 323.55 910.01 339.14
  C 906.19 344.38 903.02 349.72 899.60 355.07
  Q 895.83 360.96 892.61 367.32
  C 888.40 375.64 884.20 383.58 880.66 392.17
  C 876.52 402.19 873.52 412.17 870.50 422.53
  Q 868.16 430.57 866.53 437.65
  Q 856.76 480.07 854.43 523.58
  C 854.14 529.12 854.32 534.61 854.80 540.20
  Q 857.62 573.34 866.30 605.01
  Q 868.15 611.76 870.41 618.42
  C 872.72 625.24 875.05 632.03 878.10 638.56
  Z"
/>
<path fill="#8c52ff" d="
  M 878.10 638.56
  C 875.05 632.03 872.72 625.24 870.41 618.42
  Q 868.15 611.76 866.30 605.01
  Q 857.62 573.34 854.80 540.20
  C 854.32 534.61 854.14 529.12 854.43 523.58
  Q 856.76 480.07 866.53 437.65
  Q 868.16 430.57 870.50 422.53
  C 873.52 412.17 876.52 402.19 880.66 392.17
  C 884.20 383.58 888.40 375.64 892.61 367.32
  Q 895.83 360.96 899.60 355.07
  C 903.02 349.72 906.19 344.38 910.01 339.14
  Q 921.38 323.55 934.15 309.91
  Q 935.28 308.70 935.07 310.35
  Q 935.02 310.80 935.02 311.26
  Q 934.99 495.98 935.00 680.73
  Q 935.00 682.32 934.35 683.77
  C 933.20 686.36 931.79 688.77 931.20 691.56
  Q 929.29 700.50 928.79 710.50
  A 0.52 0.52 0.0 0 1 927.89 710.84
  Q 908.11 690.09 893.43 667.43
  Q 891.46 664.39 885.32 653.67
  C 882.58 648.89 880.48 643.64 878.10 638.56
  Z"
/>
<path fill="#ffffff" d="
  M 979.40 763.08
  C 976.07 768.47 974.08 774.30 973.44 780.59
  Q 970.40 810.76 970.38 842.21
  A 0.71 0.70 -81.5 0 1 969.47 842.89
  L 955.32 838.65
  Q 954.72 838.47 954.71 837.85
  Q 954.36 812.73 951.54 791.76
  Q 949.98 780.07 945.86 769.78
  Q 945.53 768.97 945.77 768.13
  Q 948.56 758.10 951.07 747.53
  C 954.44 733.38 956.08 718.60 957.83 703.80
  Q 957.86 703.61 958.04 703.55
  Q 958.35 703.44 958.38 703.77
  C 959.66 717.89 962.67 733.00 966.95 745.84
  Q 970.64 756.93 979.24 762.37
  A 0.52 0.51 -58.2 0 1 979.40 763.08
  Z"
/>
</svg>
