<?xml version="1.0" encoding="UTF-8" standalone="no"?>
<!DOCTYPE svg PUBLIC "-//W3C//DTD SVG 1.1//EN" "http://www.w3.org/Graphics/SVG/1.1/DTD/svg11.dtd">
<svg xmlns="http://www.w3.org/2000/svg" version="1.1" viewBox="0.00 0.00 1920.00 1080.00">
<g stroke-width="2.00" fill="none" stroke-linecap="butt">
<path stroke="#7d3dec" vector-effect="non-scaling-stroke" d="
  M 1435.95 135.72
  L 1435.70 136.80
  Q 1435.58 137.28 1435.76 137.74
  Q 1453.90 184.31 1450.19 234.41
  Q 1429.81 509.68 1409.66 783.64
  Q 1408.91 793.81 1407.73 801.67
  Q 1399.33 857.93 1366.03 904.00
  Q 1320.74 966.70 1247.44 992.92
  Q 1223.90 1001.35 1198.52 1004.07
  Q 1188.45 1005.14 1177.55 1005.14
  Q 931.00 1005.10 684.57 1005.13
  Q 679.02 1005.14 673.58 1004.58
  Q 618.72 999.02 572.86 970.61
  Q 560.87 963.19 548.81 953.88
  Q 539.07 946.36 532.60 939.90
  Q 522.59 929.90 517.48 925.18"
/>
<path stroke="#c6a9ff" vector-effect="non-scaling-stroke" d="
  M 869.77 512.35
  Q 869.95 511.95 870.20 512.30
  L 1037.57 742.44
  A 0.42 0.42 0.0 0 1 1037.40 743.07
  Q 976.50 769.98 909.01 763.95
  Q 899.20 763.07 889.36 761.29
  Q 813.81 747.66 757.95 695.45
  Q 750.65 688.63 743.95 681.18
  Q 691.55 622.82 680.04 544.66
  C 676.07 517.71 677.05 489.13 681.82 463.28
  Q 692.12 407.58 725.41 360.38
  Q 731.48 351.78 737.95 344.25
  Q 781.52 293.59 841.53 270.61
  Q 909.19 244.72 981.92 258.08
  Q 991.96 259.92 1001.43 262.62
  Q 1082.47 285.69 1134.57 351.15
  Q 1140.82 359.01 1146.31 367.32
  Q 1184.27 424.92 1188.78 493.38
  C 1192.90 555.88 1172.88 620.06 1133.35 668.87
  C 1125.76 678.24 1123.27 689.96 1127.61 701.42
  C 1132.10 713.28 1143.23 721.41 1155.84 721.85
  C 1166.88 722.24 1176.03 717.96 1182.75 709.56
  Q 1232.19 647.72 1247.52 569.68
  Q 1249.50 559.61 1250.68 549.91
  Q 1257.58 493.33 1245.47 439.19
  C 1235.88 396.24 1216.97 354.76 1190.24 318.78
  Q 1137.83 248.25 1055.65 213.89
  Q 1040.92 207.74 1025.36 203.03
  Q 982.47 190.05 937.21 189.69
  Q 902.70 189.41 872.54 195.38
  C 757.53 218.12 665.36 300.08 629.07 411.27
  C 619.19 441.53 614.12 474.01 613.86 506.79
  Q 613.73 523.81 614.31 531.25
  Q 621.60 624.69 676.26 699.22
  C 705.20 738.67 743.06 770.71 786.57 793.29
  Q 840.95 821.50 902.22 827.47
  Q 946.04 831.74 989.94 824.03
  Q 995.17 823.11 1000.33 821.96
  Q 1005.79 820.74 1010.98 819.46
  Q 1058.83 807.72 1101.60 781.28
  C 1117.90 771.20 1122.27 750.27 1110.93 734.67
  Q 987.63 565.10 864.06 395.22
  C 856.79 385.22 845.70 380.00 833.72 381.55
  C 819.97 383.32 809.59 393.00 806.46 406.30
  Q 805.52 410.26 805.54 424.98
  Q 805.68 522.60 805.60 604.30
  Q 805.59 614.44 810.88 622.41
  Q 820.33 636.66 837.62 636.91
  C 856.04 637.18 869.61 622.09 869.68 604.21
  Q 869.85 559.94 869.67 514.87
  Q 869.67 514.24 869.60 513.62
  Q 869.51 512.92 869.77 512.35"
/>
<path stroke="#c6a9ff" vector-effect="non-scaling-stroke" d="
  M 1000.17 400.70
  Q 997.54 406.65 997.53 412.99
  Q 997.46 461.90 997.50 508.09
  Q 997.51 518.33 1002.43 526.01
  C 1017.08 548.90 1051.88 544.89 1060.09 518.43
  Q 1061.57 513.69 1061.56 507.57
  Q 1061.51 459.99 1061.56 415.06
  Q 1061.57 408.66 1060.18 404.16
  C 1051.24 375.37 1012.20 373.42 1000.17 400.70"
/>
<path stroke="#c6a9ff" vector-effect="non-scaling-stroke" d="
  M 1199.26 858.53
  Q 1190.10 854.66 1184.03 849.61
  Q 1183.54 849.21 1183.22 849.75
  L 1172.32 868.08
  A 0.68 0.67 -56.3 0 0 1172.49 868.96
  Q 1188.01 880.76 1206.40 881.72
  C 1222.77 882.58 1241.16 877.52 1246.31 860.54
  Q 1248.71 852.66 1247.54 845.32
  C 1246.01 835.72 1236.15 827.51 1227.88 823.54
  C 1220.71 820.09 1212.21 817.17 1205.99 812.29
  Q 1202.41 809.48 1203.68 804.97
  Q 1205.34 799.11 1213.12 798.37
  C 1220.63 797.66 1229.21 801.07 1235.39 804.93
  A 0.40 0.40 0.0 0 0 1235.96 804.77
  L 1244.81 787.32
  A 0.66 0.65 -60.2 0 0 1244.58 786.47
  C 1233.50 779.12 1215.71 774.69 1202.82 779.09
  C 1191.65 782.91 1182.82 791.70 1181.15 803.87
  C 1179.40 816.70 1186.84 827.27 1198.33 833.12
  Q 1204.74 836.38 1211.66 839.59
  C 1216.21 841.70 1222.86 845.11 1222.76 850.95
  C 1222.67 855.75 1219.60 858.73 1215.10 859.80
  Q 1206.89 861.74 1199.26 858.53"
/>
<path stroke="#c6a9ff" vector-effect="non-scaling-stroke" d="
  M 1121.40 853.36
  L 1114.37 871.76
  Q 1114.21 872.18 1114.55 872.49
  C 1124.86 881.78 1138.14 884.00 1150.85 879.94
  C 1164.13 875.69 1169.22 864.74 1169.22 850.83
  Q 1169.22 814.86 1169.23 779.87
  Q 1169.23 779.20 1168.55 779.20
  L 1146.80 779.20
  Q 1146.24 779.20 1146.24 779.76
  Q 1146.26 812.26 1146.23 846.34
  Q 1146.23 851.77 1143.72 855.38
  C 1140.00 860.71 1132.84 860.88 1127.48 857.59
  Q 1124.37 855.67 1121.83 853.26
  A 0.27 0.27 0.0 0 0 1121.40 853.36"
/>
</g>
<path fill="#8c52ff" d="
  M 1435.95 135.72
  L 1435.70 136.80
  Q 1435.58 137.28 1435.76 137.74
  Q 1453.90 184.31 1450.19 234.41
  Q 1429.81 509.68 1409.66 783.64
  Q 1408.91 793.81 1407.73 801.67
  Q 1399.33 857.93 1366.03 904.00
  Q 1320.74 966.70 1247.44 992.92
  Q 1223.90 1001.35 1198.52 1004.07
  Q 1188.45 1005.14 1177.55 1005.14
  Q 931.00 1005.10 684.57 1005.13
  Q 679.02 1005.14 673.58 1004.58
  Q 618.72 999.02 572.86 970.61
  Q 560.87 963.19 548.81 953.88
  Q 539.07 946.36 532.60 939.90
  Q 522.59 929.90 517.48 925.18
  Q 516.62 923.91 515.62 922.26
  Q 514.68 920.72 513.47 919.30
  Q 485.75 886.83 471.46 847.42
  Q 468.02 837.95 464.95 827.11
  Q 463.45 821.82 462.74 817.21
  Q 461.93 811.94 460.51 806.72
  Q 459.41 802.71 459.32 798.71
  C 459.20 793.04 457.71 787.51 457.62 781.90
  Q 457.50 774.42 456.65 768.00
  Q 455.89 762.29 455.71 757.74
  C 455.45 750.94 455.46 744.56 454.61 737.52
  Q 453.71 729.99 453.39 719.57
  C 453.28 716.03 452.09 711.32 451.97 707.11
  C 451.79 700.30 451.64 693.69 450.87 686.79
  C 450.18 680.62 450.10 674.44 449.38 668.37
  C 448.88 664.20 448.40 660.31 448.28 656.04
  Q 447.84 640.32 446.31 623.23
  Q 445.91 618.72 445.17 614.33
  C 443.81 606.33 444.91 597.68 443.62 589.00
  C 442.38 580.68 443.20 572.30 441.63 564.11
  C 439.77 554.43 440.99 544.44 439.79 534.72
  C 439.01 528.36 438.65 522.34 438.33 516.06
  C 438.13 512.15 437.05 508.19 436.94 504.14
  C 436.76 497.71 436.71 491.54 436.06 485.21
  Q 435.19 476.61 434.73 468.93
  C 434.48 464.74 433.49 460.31 433.37 456.23
  Q 432.80 436.16 430.91 416.50
  Q 430.76 415.00 430.04 410.34
  C 428.88 402.79 429.85 395.14 428.71 387.55
  Q 427.52 379.56 427.47 371.09
  Q 427.44 365.75 426.55 360.64
  C 425.09 352.25 426.09 343.22 424.94 334.51
  Q 423.77 325.72 423.54 316.96
  C 423.40 311.56 422.02 306.34 421.92 300.96
  C 421.81 294.63 421.64 288.24 420.93 281.72
  Q 420.13 274.40 419.87 267.93
  Q 419.71 264.05 418.90 259.54
  C 417.68 252.76 418.37 245.47 417.74 238.67
  Q 415.92 219.35 416.84 203.25
  Q 417.18 197.35 418.00 189.67
  Q 418.72 182.98 419.95 176.81
  Q 431.60 118.19 471.37 76.20
  Q 514.13 31.06 576.87 17.40
  C 584.37 15.77 592.63 14.96 600.57 13.66
  C 603.58 13.17 606.72 13.17 609.75 13.17
  Q 929.06 13.26 1260.25 13.17
  C 1265.43 13.17 1271.63 14.50 1275.24 14.96
  C 1307.20 19.02 1337.43 30.99 1364.25 49.00
  Q 1368.44 51.81 1372.49 55.13
  C 1376.06 58.05 1379.69 60.62 1383.03 63.87
  Q 1388.40 69.09 1393.79 74.36
  C 1409.89 90.09 1423.19 110.21 1432.68 130.97
  C 1433.48 132.71 1434.74 134.29 1435.95 135.72
  Z
  M 869.77 512.35
  Q 869.95 511.95 870.20 512.30
  L 1037.57 742.44
  A 0.42 0.42 0.0 0 1 1037.40 743.07
  Q 976.50 769.98 909.01 763.95
  Q 899.20 763.07 889.36 761.29
  Q 813.81 747.66 757.95 695.45
  Q 750.65 688.63 743.95 681.18
  Q 691.55 622.82 680.04 544.66
  C 676.07 517.71 677.05 489.13 681.82 463.28
  Q 692.12 407.58 725.41 360.38
  Q 731.48 351.78 737.95 344.25
  Q 781.52 293.59 841.53 270.61
  Q 909.19 244.72 981.92 258.08
  Q 991.96 259.92 1001.43 262.62
  Q 1082.47 285.69 1134.57 351.15
  Q 1140.82 359.01 1146.31 367.32
  Q 1184.27 424.92 1188.78 493.38
  C 1192.90 555.88 1172.88 620.06 1133.35 668.87
  C 1125.76 678.24 1123.27 689.96 1127.61 701.42
  C 1132.10 713.28 1143.23 721.41 1155.84 721.85
  C 1166.88 722.24 1176.03 717.96 1182.75 709.56
  Q 1232.19 647.72 1247.52 569.68
  Q 1249.50 559.61 1250.68 549.91
  Q 1257.58 493.33 1245.47 439.19
  C 1235.88 396.24 1216.97 354.76 1190.24 318.78
  Q 1137.83 248.25 1055.65 213.89
  Q 1040.92 207.74 1025.36 203.03
  Q 982.47 190.05 937.21 189.69
  Q 902.70 189.41 872.54 195.38
  C 757.53 218.12 665.36 300.08 629.07 411.27
  C 619.19 441.53 614.12 474.01 613.86 506.79
  Q 613.73 523.81 614.31 531.25
  Q 621.60 624.69 676.26 699.22
  C 705.20 738.67 743.06 770.71 786.57 793.29
  Q 840.95 821.50 902.22 827.47
  Q 946.04 831.74 989.94 824.03
  Q 995.17 823.11 1000.33 821.96
  Q 1005.79 820.74 1010.98 819.46
  Q 1058.83 807.72 1101.60 781.28
  C 1117.90 771.20 1122.27 750.27 1110.93 734.67
  Q 987.63 565.10 864.06 395.22
  C 856.79 385.22 845.70 380.00 833.72 381.55
  C 819.97 383.32 809.59 393.00 806.46 406.30
  Q 805.52 410.26 805.54 424.98
  Q 805.68 522.60 805.60 604.30
  Q 805.59 614.44 810.88 622.41
  Q 820.33 636.66 837.62 636.91
  C 856.04 637.18 869.61 622.09 869.68 604.21
  Q 869.85 559.94 869.67 514.87
  Q 869.67 514.24 869.60 513.62
  Q 869.51 512.92 869.77 512.35
  Z
  M 1000.17 400.70
  Q 997.54 406.65 997.53 412.99
  Q 997.46 461.90 997.50 508.09
  Q 997.51 518.33 1002.43 526.01
  C 1017.08 548.90 1051.88 544.89 1060.09 518.43
  Q 1061.57 513.69 1061.56 507.57
  Q 1061.51 459.99 1061.56 415.06
  Q 1061.57 408.66 1060.18 404.16
  C 1051.24 375.37 1012.20 373.42 1000.17 400.70
  Z
  M 1199.26 858.53
  Q 1190.10 854.66 1184.03 849.61
  Q 1183.54 849.21 1183.22 849.75
  L 1172.32 868.08
  A 0.68 0.67 -56.3 0 0 1172.49 868.96
  Q 1188.01 880.76 1206.40 881.72
  C 1222.77 882.58 1241.16 877.52 1246.31 860.54
  Q 1248.71 852.66 1247.54 845.32
  C 1246.01 835.72 1236.15 827.51 1227.88 823.54
  C 1220.71 820.09 1212.21 817.17 1205.99 812.29
  Q 1202.41 809.48 1203.68 804.97
  Q 1205.34 799.11 1213.12 798.37
  C 1220.63 797.66 1229.21 801.07 1235.39 804.93
  A 0.40 0.40 0.0 0 0 1235.96 804.77
  L 1244.81 787.32
  A 0.66 0.65 -60.2 0 0 1244.58 786.47
  C 1233.50 779.12 1215.71 774.69 1202.82 779.09
  C 1191.65 782.91 1182.82 791.70 1181.15 803.87
  C 1179.40 816.70 1186.84 827.27 1198.33 833.12
  Q 1204.74 836.38 1211.66 839.59
  C 1216.21 841.70 1222.86 845.11 1222.76 850.95
  C 1222.67 855.75 1219.60 858.73 1215.10 859.80
  Q 1206.89 861.74 1199.26 858.53
  Z
  M 1121.40 853.36
  L 1114.37 871.76
  Q 1114.21 872.18 1114.55 872.49
  C 1124.86 881.78 1138.14 884.00 1150.85 879.94
  C 1164.13 875.69 1169.22 864.74 1169.22 850.83
  Q 1169.22 814.86 1169.23 779.87
  Q 1169.23 779.20 1168.55 779.20
  L 1146.80 779.20
  Q 1146.24 779.20 1146.24 779.76
  Q 1146.26 812.26 1146.23 846.34
  Q 1146.23 851.77 1143.72 855.38
  C 1140.00 860.71 1132.84 860.88 1127.48 857.59
  Q 1124.37 855.67 1121.83 853.26
  A 0.27 0.27 0.0 0 0 1121.40 853.36
  Z"
/>
<path fill="#6d27d9" d="
  M 1435.95 135.72
  Q 1438.16 137.92 1440.03 140.22
  Q 1449.55 151.94 1455.56 161.26
  Q 1480.81 200.42 1486.49 246.01
  Q 1487.17 251.41 1487.77 256.50
  Q 1488.45 262.24 1488.50 267.03
  C 1488.57 273.36 1488.80 279.95 1488.01 286.27
  C 1486.87 295.49 1487.01 304.60 1486.05 313.99
  Q 1485.46 319.87 1485.08 325.75
  Q 1484.55 334.00 1483.76 341.48
  C 1483.03 348.48 1483.34 355.49 1482.41 362.29
  Q 1481.32 370.26 1481.23 378.35
  Q 1481.19 382.46 1480.53 386.50
  C 1479.01 395.76 1479.81 405.06 1478.50 414.46
  C 1477.26 423.41 1477.63 432.33 1476.43 441.53
  Q 1475.38 449.48 1475.52 457.42
  C 1475.62 463.79 1473.67 469.93 1473.75 476.30
  Q 1473.83 483.51 1472.86 490.06
  C 1471.51 499.08 1472.09 508.12 1471.01 517.16
  C 1470.55 521.06 1470.03 524.90 1469.96 528.94
  C 1469.82 537.50 1468.06 545.87 1468.05 555.00
  C 1468.05 563.24 1466.32 571.50 1466.28 579.77
  Q 1466.26 585.31 1465.27 591.66
  C 1464.04 599.56 1464.68 608.39 1463.60 616.81
  Q 1462.80 623.06 1462.54 630.09
  C 1462.21 638.97 1461.08 647.76 1460.62 656.69
  Q 1460.26 663.59 1459.64 670.20
  Q 1458.74 679.68 1458.37 689.37
  C 1458.23 692.98 1457.24 696.48 1457.17 700.07
  Q 1456.96 709.94 1456.16 718.22
  Q 1455.44 725.66 1454.96 733.61
  Q 1454.52 741.04 1453.62 749.00
  C 1452.88 755.56 1453.26 762.34 1452.29 769.09
  C 1451.11 777.33 1451.68 785.41 1450.38 793.51
  C 1449.03 801.87 1449.86 810.57 1448.66 819.24
  C 1447.46 827.92 1447.52 836.73 1446.50 845.63
  C 1445.78 851.88 1445.17 858.68 1444.11 864.62
  Q 1434.67 917.46 1402.82 961.54
  C 1390.10 979.15 1375.73 994.52 1358.17 1008.70
  Q 1311.58 1046.32 1254.12 1057.93
  Q 1238.81 1061.02 1225.74 1061.30
  Q 1213.74 1061.55 1202.50 1061.56
  Q 974.97 1061.63 730.12 1061.58
  C 719.34 1061.57 708.68 1061.51 698.32 1059.83
  Q 672.94 1055.70 651.57 1047.61
  Q 609.06 1031.51 574.70 1001.10
  Q 568.92 995.98 560.09 986.83
  C 542.77 968.87 528.49 947.73 517.48 925.18
  Q 522.59 929.90 532.60 939.90
  Q 539.07 946.36 548.81 953.88
  Q 560.87 963.19 572.86 970.61
  Q 618.72 999.02 673.58 1004.58
  Q 679.02 1005.14 684.57 1005.13
  Q 931.00 1005.10 1177.55 1005.14
  Q 1188.45 1005.14 1198.52 1004.07
  Q 1223.90 1001.35 1247.44 992.92
  Q 1320.74 966.70 1366.03 904.00
  Q 1399.33 857.93 1407.73 801.67
  Q 1408.91 793.81 1409.66 783.64
  Q 1429.81 509.68 1450.19 234.41
  Q 1453.90 184.31 1435.76 137.74
  Q 1435.58 137.28 1435.70 136.80
  L 1435.95 135.72
  Z"
/>
<path fill="#ffffff" d="
  M 869.77 512.35
  Q 869.51 512.92 869.60 513.62
  Q 869.67 514.24 869.67 514.87
  Q 869.85 559.94 869.68 604.21
  C 869.61 622.09 856.04 637.18 837.62 636.91
  Q 820.33 636.66 810.88 622.41
  Q 805.59 614.44 805.60 604.30
  Q 805.68 522.60 805.54 424.98
  Q 805.52 410.26 806.46 406.30
  C 809.59 393.00 819.97 383.32 833.72 381.55
  C 845.70 380.00 856.79 385.22 864.06 395.22
  Q 987.63 565.10 1110.93 734.67
  C 1122.27 750.27 1117.90 771.20 1101.60 781.28
  Q 1058.83 807.72 1010.98 819.46
  Q 1005.79 820.74 1000.33 821.96
  Q 995.17 823.11 989.94 824.03
  Q 946.04 831.74 902.22 827.47
  Q 840.95 821.50 786.57 793.29
  C 743.06 770.71 705.20 738.67 676.26 699.22
  Q 621.60 624.69 614.31 531.25
  Q 613.73 523.81 613.86 506.79
  C 614.12 474.01 619.19 441.53 629.07 411.27
  C 665.36 300.08 757.53 218.12 872.54 195.38
  Q 902.70 189.41 937.21 189.69
  Q 982.47 190.05 1025.36 203.03
  Q 1040.92 207.74 1055.65 213.89
  Q 1137.83 248.25 1190.24 318.78
  C 1216.97 354.76 1235.88 396.24 1245.47 439.19
  Q 1257.58 493.33 1250.68 549.91
  Q 1249.50 559.61 1247.52 569.68
  Q 1232.19 647.72 1182.75 709.56
  C 1176.03 717.96 1166.88 722.24 1155.84 721.85
  C 1143.23 721.41 1132.10 713.28 1127.61 701.42
  C 1123.27 689.96 1125.76 678.24 1133.35 668.87
  C 1172.88 620.06 1192.90 555.88 1188.78 493.38
  Q 1184.27 424.92 1146.31 367.32
  Q 1140.82 359.01 1134.57 351.15
  Q 1082.47 285.69 1001.43 262.62
  Q 991.96 259.92 981.92 258.08
  Q 909.19 244.72 841.53 270.61
  Q 781.52 293.59 737.95 344.25
  Q 731.48 351.78 725.41 360.38
  Q 692.12 407.58 681.82 463.28
  C 677.05 489.13 676.07 517.71 680.04 544.66
  Q 691.55 622.82 743.95 681.18
  Q 750.65 688.63 757.95 695.45
  Q 813.81 747.66 889.36 761.29
  Q 899.20 763.07 909.01 763.95
  Q 976.50 769.98 1037.40 743.07
  A 0.42 0.42 0.0 0 0 1037.57 742.44
  L 870.20 512.30
  Q 869.95 511.95 869.77 512.35
  Z"
/>
<path fill="#ffffff" d="
  M 1000.17 400.70
  C 1012.20 373.42 1051.24 375.37 1060.18 404.16
  Q 1061.57 408.66 1061.56 415.06
  Q 1061.51 459.99 1061.56 507.57
  Q 1061.57 513.69 1060.09 518.43
  C 1051.88 544.89 1017.08 548.90 1002.43 526.01
  Q 997.51 518.33 997.50 508.09
  Q 997.46 461.90 997.53 412.99
  Q 997.54 406.65 1000.17 400.70
  Z"
/>
<path fill="#ffffff" d="
  M 1199.26 858.53
  Q 1206.89 861.74 1215.10 859.80
  C 1219.60 858.73 1222.67 855.75 1222.76 850.95
  C 1222.86 845.11 1216.21 841.70 1211.66 839.59
  Q 1204.74 836.38 1198.33 833.12
  C 1186.84 827.27 1179.40 816.70 1181.15 803.87
  C 1182.82 791.70 1191.65 782.91 1202.82 779.09
  C 1215.71 774.69 1233.50 779.12 1244.58 786.47
  A 0.66 0.65 -60.2 0 1 1244.81 787.32
  L 1235.96 804.77
  A 0.40 0.40 0.0 0 1 1235.39 804.93
  C 1229.21 801.07 1220.63 797.66 1213.12 798.37
  Q 1205.34 799.11 1203.68 804.97
  Q 1202.41 809.48 1205.99 812.29
  C 1212.21 817.17 1220.71 820.09 1227.88 823.54
  C 1236.15 827.51 1246.01 835.72 1247.54 845.32
  Q 1248.71 852.66 1246.31 860.54
  C 1241.16 877.52 1222.77 882.58 1206.40 881.72
  Q 1188.01 880.76 1172.49 868.96
  A 0.68 0.67 -56.3 0 1 1172.32 868.08
  L 1183.22 849.75
  Q 1183.54 849.21 1184.03 849.61
  Q 1190.10 854.66 1199.26 858.53
  Z"
/>
<path fill="#ffffff" d="
  M 1114.37 871.76
  L 1121.40 853.36
  A 0.27 0.27 0.0 0 1 1121.83 853.26
  Q 1124.37 855.67 1127.48 857.59
  C 1132.84 860.88 1140.00 860.71 1143.72 855.38
  Q 1146.23 851.77 1146.23 846.34
  Q 1146.26 812.26 1146.24 779.76
  Q 1146.24 779.20 1146.80 779.20
  L 1168.55 779.20
  Q 1169.23 779.20 1169.23 779.87
  Q 1169.22 814.86 1169.22 850.83
  C 1169.22 864.74 1164.13 875.69 1150.85 879.94
  C 1138.14 884.00 1124.86 881.78 1114.55 872.49
  Q 1114.21 872.18 1114.37 871.76
  Z"
/>
</svg>
