<?xml version="1.0" encoding="UTF-8" standalone="no"?>
<!DOCTYPE svg PUBLIC "-//W3C//DTD SVG 1.1//EN" "http://www.w3.org/Graphics/SVG/1.1/DTD/svg11.dtd">
<svg xmlns="http://www.w3.org/2000/svg" version="1.1" viewBox="0.00 0.00 1920.00 1080.00">
<g stroke-width="2.00" fill="none" stroke-linecap="butt">
<path stroke="#7d3dec" vector-effect="non-scaling-stroke" d="
  M 1435.22 135.01
  C 1435.50 136.00 1435.51 137.06 1435.87 137.98
  Q 1453.92 184.55 1450.17 234.96
  Q 1429.78 509.39 1409.73 782.77
  Q 1408.94 793.62 1407.73 801.67
  Q 1399.33 857.93 1366.03 904.00
  Q 1320.71 966.73 1247.46 992.90
  Q 1223.76 1001.37 1198.51 1004.06
  Q 1188.38 1005.14 1177.63 1005.14
  Q 931.17 1005.12 684.75 1005.12
  Q 679.05 1005.12 673.44 1004.55
  Q 620.33 999.17 575.48 972.22
  Q 558.09 961.76 541.17 947.64
  C 535.59 942.97 530.42 937.72 525.19 932.64
  Q 524.72 932.19 521.61 928.65
  Q 519.72 926.50 517.49 925.14"
/>
<path stroke="#c6a9ff" vector-effect="non-scaling-stroke" d="
  M 843.74 265.71
  Q 833.42 264.05 824.43 271.58
  C 816.53 278.20 814.44 289.27 817.97 298.80
  C 822.96 312.24 837.10 321.13 851.07 315.66
  C 858.12 312.91 863.53 307.43 865.15 299.84
  Q 865.41 298.62 866.07 299.67
  L 868.15 302.99
  Q 868.50 303.55 869.06 303.20
  L 882.23 294.92
  Q 882.76 294.58 882.43 294.05
  L 839.02 225.05
  Q 838.69 224.51 838.14 224.85
  L 824.74 233.26
  Q 824.27 233.56 824.56 234.03
  L 844.13 265.13
  Q 844.58 265.84 843.74 265.71"
/>
<path stroke="#c6a9ff" vector-effect="non-scaling-stroke" d="
  M 894.94 261.00
  Q 894.77 260.70 895.06 260.52
  L 924.70 241.88
  Q 925.03 241.68 924.84 241.34
  C 916.33 225.93 900.76 222.34 886.24 232.50
  C 873.40 241.48 870.80 258.95 880.62 271.05
  C 888.31 280.52 902.59 282.67 913.23 277.03
  C 923.08 271.80 930.25 263.14 930.15 251.70
  A 0.36 0.35 -2.3 0 0 929.76 251.35
  L 917.01 252.58
  Q 916.43 252.63 916.31 253.20
  C 915.91 255.02 915.46 257.11 914.46 258.66
  C 910.47 264.87 899.75 269.32 894.94 261.00"
/>
<path stroke="#c6a9ff" vector-effect="non-scaling-stroke" d="
  M 1141.43 432.71
  L 1141.43 649.75
  A 2.77 2.72 75.0 0 1 1140.09 652.12
  L 961.11 758.84
  A 1.91 1.89 -44.7 0 1 959.18 758.84
  Q 937.86 746.19 913.68 731.82
  C 910.28 729.80 906.68 729.87 903.36 731.91
  C 894.23 737.50 885.20 742.10 874.83 745.81
  Q 872.40 746.67 870.82 748.54
  C 866.47 753.66 871.35 758.67 875.71 761.33
  Q 907.15 780.45 936.42 798.61
  Q 955.78 810.61 976.34 802.60
  C 979.70 801.28 983.21 799.12 986.44 797.19
  Q 1070.61 746.68 1156.45 695.28
  C 1161.77 692.10 1167.50 688.92 1171.92 685.19
  C 1182.48 676.26 1187.81 663.60 1187.80 649.69
  Q 1187.72 546.36 1187.83 431.82
  C 1187.84 418.15 1183.95 406.92 1174.29 397.15
  Q 1170.74 393.55 1162.64 388.71
  Q 1074.19 335.74 983.56 281.32
  C 972.54 274.70 960.10 272.89 947.59 276.47
  Q 942.56 277.91 933.43 283.40
  Q 846.85 335.47 760.99 386.82
  Q 751.06 392.76 746.87 396.63
  Q 732.49 409.92 732.51 431.31
  Q 732.64 539.41 732.47 644.59
  Q 732.45 654.86 733.63 660.36
  Q 736.38 673.16 746.11 683.01
  Q 750.18 687.14 761.14 693.55
  Q 779.01 704.01 797.23 715.09
  C 804.30 719.38 812.24 723.22 820.09 726.14
  Q 845.10 735.45 870.92 727.05
  C 897.23 718.50 909.15 693.41 909.17 667.00
  Q 909.24 560.00 909.23 453.00
  C 909.23 444.70 903.11 442.04 895.41 442.14
  Q 884.75 442.27 874.08 442.21
  C 867.24 442.18 862.59 446.41 862.60 453.09
  Q 862.75 560.85 862.70 666.14
  Q 862.69 675.12 856.41 680.52
  C 848.37 687.43 834.07 684.21 826.21 679.52
  Q 802.79 665.54 780.06 651.79
  A 2.09 2.06 15.9 0 1 779.06 650.02
  L 779.06 433.51
  A 2.57 2.56 -15.7 0 1 780.29 431.32
  L 959.06 321.84
  A 2.28 2.28 0.0 0 1 961.44 321.84
  L 1140.85 431.68
  A 1.20 1.20 0.0 0 1 1141.43 432.71"
/>
<path stroke="#c6a9ff" vector-effect="non-scaling-stroke" d="
  M 768.04 289.48
  A 1.45 1.45 0.0 0 0 766.81 290.26
  L 749.81 322.51
  A 1.45 1.45 0.0 0 0 749.86 323.96
  L 769.65 355.55
  A 1.45 1.45 0.0 0 0 770.92 356.23
  L 807.35 355.02
  A 1.45 1.45 0.0 0 0 808.58 354.24
  L 825.54 322.05
  A 1.45 1.45 0.0 0 0 825.49 320.60
  L 805.69 288.96
  A 1.45 1.45 0.0 0 0 804.42 288.28
  L 768.04 289.48"
/>
<path stroke="#c6a9ff" vector-effect="non-scaling-stroke" d="
  M 715.59 346.86
  L 713.64 343.55
  A 0.61 0.60 58.5 0 0 712.80 343.34
  L 699.20 351.89
  A 0.41 0.41 0.0 0 0 699.07 352.46
  L 724.92 393.57
  A 0.43 0.42 -31.8 0 0 725.50 393.70
  L 739.29 385.04
  A 0.33 0.33 0.0 0 0 739.39 384.58
  Q 732.41 373.53 725.17 361.95
  C 718.42 351.16 733.35 339.49 740.84 351.29
  Q 748.23 362.94 755.26 374.22
  Q 755.60 374.76 756.14 374.42
  L 769.51 366.02
  Q 770.03 365.69 769.70 365.17
  Q 761.00 351.29 752.78 338.28
  C 746.84 328.88 737.19 328.28 727.55 332.63
  Q 718.71 336.61 716.37 346.74
  Q 716.13 347.79 715.59 346.86"
/>
<path stroke="#c6a9ff" vector-effect="non-scaling-stroke" d="
  M 972.36 495.64
  C 973.27 480.57 990.88 477.30 1003.19 476.47
  Q 1018.33 475.46 1034.26 476.97
  C 1049.62 478.42 1061.33 484.02 1065.42 499.86
  C 1066.69 504.78 1070.84 507.75 1075.94 507.70
  Q 1085.05 507.61 1094.31 507.81
  Q 1100.39 507.94 1103.31 506.21
  Q 1108.67 503.05 1108.24 496.59
  Q 1106.05 463.46 1080.53 447.60
  C 1070.39 441.29 1058.22 437.54 1046.64 435.59
  Q 1025.77 432.08 1003.08 433.46
  C 981.80 434.75 958.99 441.02 943.90 456.12
  C 927.52 472.51 923.82 496.92 929.93 518.73
  C 935.94 540.24 956.12 550.89 976.25 556.03
  C 992.12 560.08 1007.17 561.63 1023.31 563.43
  Q 1037.65 565.02 1052.70 568.78
  C 1057.80 570.05 1066.03 572.98 1069.21 577.53
  C 1071.76 581.19 1071.17 587.25 1070.37 591.49
  C 1067.69 605.68 1052.52 611.04 1040.04 612.55
  Q 1016.99 615.35 995.77 611.74
  Q 985.17 609.93 977.51 604.73
  C 970.05 599.66 966.77 591.30 965.44 582.26
  C 964.65 576.88 961.11 572.94 955.46 572.83
  Q 944.77 572.63 932.86 572.83
  Q 925.87 572.94 923.37 578.47
  Q 921.86 581.80 922.44 588.39
  C 926.03 629.01 956.20 649.13 993.60 654.66
  Q 1017.11 658.14 1040.66 655.61
  C 1077.09 651.70 1111.38 632.93 1116.13 592.84
  Q 1117.86 578.24 1114.53 564.91
  C 1109.51 544.76 1093.85 534.25 1074.62 528.08
  Q 1061.11 523.75 1046.03 521.32
  Q 1025.69 518.05 1007.88 515.41
  Q 995.98 513.65 983.97 510.22
  Q 979.83 509.05 976.28 506.83
  C 972.18 504.28 972.09 499.98 972.36 495.64"
/>
<path stroke="#c6a9ff" vector-effect="non-scaling-stroke" d="
  M 857.41 288.70
  A 11.62 11.62 0.0 0 0 845.79 277.08
  A 11.62 11.62 0.0 0 0 834.17 288.70
  A 11.62 11.62 0.0 0 0 845.79 300.32
  A 11.62 11.62 0.0 0 0 857.41 288.70"
/>
<path stroke="#c6a9ff" vector-effect="non-scaling-stroke" d="
  M 890.29 252.40
  L 905.74 242.67
  A 0.14 0.14 0.0 0 0 905.78 242.48
  L 905.74 242.42
  A 8.98 7.75 -32.2 0 0 894.01 240.65
  L 893.52 240.96
  A 8.98 7.75 -32.2 0 0 890.05 252.30
  L 890.09 252.36
  A 0.14 0.14 0.0 0 0 890.29 252.40"
/>
</g>
<path fill="#8c52ff" d="
  M 1435.22 135.01
  C 1435.50 136.00 1435.51 137.06 1435.87 137.98
  Q 1453.92 184.55 1450.17 234.96
  Q 1429.78 509.39 1409.73 782.77
  Q 1408.94 793.62 1407.73 801.67
  Q 1399.33 857.93 1366.03 904.00
  Q 1320.71 966.73 1247.46 992.90
  Q 1223.76 1001.37 1198.51 1004.06
  Q 1188.38 1005.14 1177.63 1005.14
  Q 931.17 1005.12 684.75 1005.12
  Q 679.05 1005.12 673.44 1004.55
  Q 620.33 999.17 575.48 972.22
  Q 558.09 961.76 541.17 947.64
  C 535.59 942.97 530.42 937.72 525.19 932.64
  Q 524.72 932.19 521.61 928.65
  Q 519.72 926.50 517.49 925.14
  Q 515.31 921.20 514.39 920.12
  Q 478.53 878.48 464.74 825.33
  Q 463.46 820.41 462.61 815.51
  C 461.56 809.46 459.49 803.66 459.33 797.50
  C 459.20 792.14 457.89 786.84 457.84 781.52
  Q 457.75 772.96 456.61 766.15
  Q 455.62 760.19 455.60 754.85
  Q 455.56 742.98 454.84 737.28
  Q 453.80 729.13 453.56 721.78
  Q 453.44 717.85 452.98 714.73
  C 452.54 711.63 452.00 708.69 451.95 705.49
  Q 451.83 696.81 451.30 689.50
  Q 450.58 679.33 449.58 670.14
  Q 448.44 659.62 448.12 650.52
  Q 447.43 631.09 445.59 616.98
  Q 444.30 607.07 444.38 599.12
  C 444.46 591.96 443.02 585.07 442.92 578.05
  Q 442.82 570.12 441.80 563.91
  Q 440.63 556.81 440.69 551.52
  Q 440.79 541.61 439.72 532.26
  C 438.88 524.94 438.83 517.84 437.80 510.69
  Q 436.93 504.62 436.82 498.27
  Q 436.70 491.53 436.27 485.87
  C 435.28 472.68 433.74 459.28 433.11 446.30
  C 432.55 434.51 432.11 422.71 430.28 411.49
  C 428.91 403.11 429.80 394.72 428.72 386.73
  C 427.48 377.58 428.04 368.51 426.55 359.78
  C 424.86 349.84 426.09 339.79 424.58 329.85
  Q 423.90 325.41 423.84 321.35
  Q 423.72 313.67 422.66 306.87
  Q 421.96 302.34 421.92 298.59
  C 421.84 291.88 421.63 285.06 420.83 278.52
  C 420.17 273.14 420.18 267.87 419.42 262.74
  C 417.97 252.93 418.27 243.46 417.45 233.65
  Q 416.48 222.09 416.71 208.24
  C 416.82 201.54 417.67 195.33 418.17 188.81
  Q 418.45 185.13 419.23 181.17
  Q 420.76 173.34 422.56 166.00
  Q 435.21 114.54 471.42 76.34
  Q 509.68 35.96 563.80 20.73
  C 576.83 17.07 590.84 14.94 603.98 13.50
  Q 607.56 13.11 613.24 13.11
  Q 930.98 13.28 1240.75 13.20
  Q 1249.37 13.20 1258.79 13.23
  Q 1264.01 13.25 1268.40 14.07
  C 1272.61 14.87 1276.94 15.14 1281.20 15.86
  Q 1326.85 23.57 1364.90 49.59
  Q 1369.18 52.51 1373.57 56.02
  Q 1377.79 59.39 1381.79 62.96
  C 1390.90 71.07 1400.82 80.97 1408.17 90.64
  Q 1421.09 107.62 1428.42 122.31
  Q 1433.27 132.05 1435.22 135.01
  Z
  M 843.74 265.71
  Q 833.42 264.05 824.43 271.58
  C 816.53 278.20 814.44 289.27 817.97 298.80
  C 822.96 312.24 837.10 321.13 851.07 315.66
  C 858.12 312.91 863.53 307.43 865.15 299.84
  Q 865.41 298.62 866.07 299.67
  L 868.15 302.99
  Q 868.50 303.55 869.06 303.20
  L 882.23 294.92
  Q 882.76 294.58 882.43 294.05
  L 839.02 225.05
  Q 838.69 224.51 838.14 224.85
  L 824.74 233.26
  Q 824.27 233.56 824.56 234.03
  L 844.13 265.13
  Q 844.58 265.84 843.74 265.71
  Z
  M 894.94 261.00
  Q 894.77 260.70 895.06 260.52
  L 924.70 241.88
  Q 925.03 241.68 924.84 241.34
  C 916.33 225.93 900.76 222.34 886.24 232.50
  C 873.40 241.48 870.80 258.95 880.62 271.05
  C 888.31 280.52 902.59 282.67 913.23 277.03
  C 923.08 271.80 930.25 263.14 930.15 251.70
  A 0.36 0.35 -2.3 0 0 929.76 251.35
  L 917.01 252.58
  Q 916.43 252.63 916.31 253.20
  C 915.91 255.02 915.46 257.11 914.46 258.66
  C 910.47 264.87 899.75 269.32 894.94 261.00
  Z
  M 1141.43 432.71
  L 1141.43 649.75
  A 2.77 2.72 75.0 0 1 1140.09 652.12
  L 961.11 758.84
  A 1.91 1.89 -44.7 0 1 959.18 758.84
  Q 937.86 746.19 913.68 731.82
  C 910.28 729.80 906.68 729.87 903.36 731.91
  C 894.23 737.50 885.20 742.10 874.83 745.81
  Q 872.40 746.67 870.82 748.54
  C 866.47 753.66 871.35 758.67 875.71 761.33
  Q 907.15 780.45 936.42 798.61
  Q 955.78 810.61 976.34 802.60
  C 979.70 801.28 983.21 799.12 986.44 797.19
  Q 1070.61 746.68 1156.45 695.28
  C 1161.77 692.10 1167.50 688.92 1171.92 685.19
  C 1182.48 676.26 1187.81 663.60 1187.80 649.69
  Q 1187.72 546.36 1187.83 431.82
  C 1187.84 418.15 1183.95 406.92 1174.29 397.15
  Q 1170.74 393.55 1162.64 388.71
  Q 1074.19 335.74 983.56 281.32
  C 972.54 274.70 960.10 272.89 947.59 276.47
  Q 942.56 277.91 933.43 283.40
  Q 846.85 335.47 760.99 386.82
  Q 751.06 392.76 746.87 396.63
  Q 732.49 409.92 732.51 431.31
  Q 732.64 539.41 732.47 644.59
  Q 732.45 654.86 733.63 660.36
  Q 736.38 673.16 746.11 683.01
  Q 750.18 687.14 761.14 693.55
  Q 779.01 704.01 797.23 715.09
  C 804.30 719.38 812.24 723.22 820.09 726.14
  Q 845.10 735.45 870.92 727.05
  C 897.23 718.50 909.15 693.41 909.17 667.00
  Q 909.24 560.00 909.23 453.00
  C 909.23 444.70 903.11 442.04 895.41 442.14
  Q 884.75 442.27 874.08 442.21
  C 867.24 442.18 862.59 446.41 862.60 453.09
  Q 862.75 560.85 862.70 666.14
  Q 862.69 675.12 856.41 680.52
  C 848.37 687.43 834.07 684.21 826.21 679.52
  Q 802.79 665.54 780.06 651.79
  A 2.09 2.06 15.9 0 1 779.06 650.02
  L 779.06 433.51
  A 2.57 2.56 -15.7 0 1 780.29 431.32
  L 959.06 321.84
  A 2.28 2.28 0.0 0 1 961.44 321.84
  L 1140.85 431.68
  A 1.20 1.20 0.0 0 1 1141.43 432.71
  Z
  M 768.04 289.48
  A 1.45 1.45 0.0 0 0 766.81 290.26
  L 749.81 322.51
  A 1.45 1.45 0.0 0 0 749.86 323.96
  L 769.65 355.55
  A 1.45 1.45 0.0 0 0 770.92 356.23
  L 807.35 355.02
  A 1.45 1.45 0.0 0 0 808.58 354.24
  L 825.54 322.05
  A 1.45 1.45 0.0 0 0 825.49 320.60
  L 805.69 288.96
  A 1.45 1.45 0.0 0 0 804.42 288.28
  L 768.04 289.48
  Z
  M 715.59 346.86
  L 713.64 343.55
  A 0.61 0.60 58.5 0 0 712.80 343.34
  L 699.20 351.89
  A 0.41 0.41 0.0 0 0 699.07 352.46
  L 724.92 393.57
  A 0.43 0.42 -31.8 0 0 725.50 393.70
  L 739.29 385.04
  A 0.33 0.33 0.0 0 0 739.39 384.58
  Q 732.41 373.53 725.17 361.95
  C 718.42 351.16 733.35 339.49 740.84 351.29
  Q 748.23 362.94 755.26 374.22
  Q 755.60 374.76 756.14 374.42
  L 769.51 366.02
  Q 770.03 365.69 769.70 365.17
  Q 761.00 351.29 752.78 338.28
  C 746.84 328.88 737.19 328.28 727.55 332.63
  Q 718.71 336.61 716.37 346.74
  Q 716.13 347.79 715.59 346.86
  Z
  M 972.36 495.64
  C 973.27 480.57 990.88 477.30 1003.19 476.47
  Q 1018.33 475.46 1034.26 476.97
  C 1049.62 478.42 1061.33 484.02 1065.42 499.86
  C 1066.69 504.78 1070.84 507.75 1075.94 507.70
  Q 1085.05 507.61 1094.31 507.81
  Q 1100.39 507.94 1103.31 506.21
  Q 1108.67 503.05 1108.24 496.59
  Q 1106.05 463.46 1080.53 447.60
  C 1070.39 441.29 1058.22 437.54 1046.64 435.59
  Q 1025.77 432.08 1003.08 433.46
  C 981.80 434.75 958.99 441.02 943.90 456.12
  C 927.52 472.51 923.82 496.92 929.93 518.73
  C 935.94 540.24 956.12 550.89 976.25 556.03
  C 992.12 560.08 1007.17 561.63 1023.31 563.43
  Q 1037.65 565.02 1052.70 568.78
  C 1057.80 570.05 1066.03 572.98 1069.21 577.53
  C 1071.76 581.19 1071.17 587.25 1070.37 591.49
  C 1067.69 605.68 1052.52 611.04 1040.04 612.55
  Q 1016.99 615.35 995.77 611.74
  Q 985.17 609.93 977.51 604.73
  C 970.05 599.66 966.77 591.30 965.44 582.26
  C 964.65 576.88 961.11 572.94 955.46 572.83
  Q 944.77 572.63 932.86 572.83
  Q 925.87 572.94 923.37 578.47
  Q 921.86 581.80 922.44 588.39
  C 926.03 629.01 956.20 649.13 993.60 654.66
  Q 1017.11 658.14 1040.66 655.61
  C 1077.09 651.70 1111.38 632.93 1116.13 592.84
  Q 1117.86 578.24 1114.53 564.91
  C 1109.51 544.76 1093.85 534.25 1074.62 528.08
  Q 1061.11 523.75 1046.03 521.32
  Q 1025.69 518.05 1007.88 515.41
  Q 995.98 513.65 983.97 510.22
  Q 979.83 509.05 976.28 506.83
  C 972.18 504.28 972.09 499.98 972.36 495.64
  Z"
/>
<path fill="#6d27d9" d="
  M 1435.22 135.01
  Q 1476.20 180.53 1485.73 240.77
  Q 1486.66 246.68 1487.01 251.83
  C 1487.34 256.74 1488.22 261.52 1488.28 266.41
  C 1488.37 273.01 1488.58 279.96 1487.70 286.59
  Q 1487.17 290.62 1487.10 294.26
  Q 1486.93 303.80 1485.88 313.58
  Q 1485.35 318.47 1485.14 322.93
  C 1484.93 327.19 1484.85 331.23 1484.29 335.37
  Q 1483.27 342.83 1483.16 350.10
  Q 1483.06 356.44 1482.29 361.91
  Q 1481.20 369.72 1481.21 377.86
  Q 1481.21 381.73 1480.49 385.50
  C 1478.72 394.61 1480.21 403.90 1478.51 413.08
  C 1477.38 419.22 1477.48 425.40 1477.36 431.56
  C 1477.25 437.34 1475.57 443.13 1475.64 448.82
  Q 1475.75 458.36 1474.67 465.44
  C 1473.44 473.48 1473.80 481.18 1472.81 488.99
  Q 1472.01 495.28 1471.85 501.57
  Q 1471.64 509.96 1470.65 519.01
  Q 1470.06 524.33 1469.81 531.01
  Q 1469.61 536.45 1468.71 542.96
  C 1467.77 549.81 1468.35 557.09 1467.33 564.22
  Q 1466.35 571.12 1466.29 578.74
  Q 1466.25 584.05 1465.28 590.40
  C 1464.05 598.33 1464.81 607.01 1463.65 615.54
  C 1462.37 624.94 1462.56 634.46 1461.49 643.93
  Q 1460.65 651.33 1460.49 658.52
  C 1460.35 664.62 1459.24 670.72 1458.99 676.35
  Q 1458.71 683.07 1458.07 689.99
  Q 1457.75 693.34 1457.48 696.51
  Q 1456.87 703.72 1456.57 711.15
  C 1456.32 717.39 1455.20 724.05 1455.06 730.55
  C 1454.89 738.58 1453.21 746.27 1453.20 754.18
  Q 1453.20 761.85 1452.05 769.99
  C 1451.03 777.25 1451.74 784.54 1450.44 791.73
  C 1448.84 800.64 1450.01 809.56 1448.61 818.49
  C 1447.21 827.42 1447.80 836.04 1446.57 844.96
  C 1445.63 851.76 1445.11 858.58 1443.84 865.47
  Q 1434.08 918.65 1402.43 961.86
  Q 1394.15 973.17 1385.57 982.64
  Q 1374.03 995.40 1360.51 1006.61
  Q 1313.55 1045.55 1254.51 1057.81
  C 1233.94 1062.08 1213.09 1061.57 1190.75 1061.57
  Q 938.88 1061.62 723.51 1061.28
  Q 718.77 1061.27 713.16 1061.19
  Q 707.78 1061.11 702.88 1060.40
  Q 666.84 1055.20 636.99 1041.49
  Q 557.11 1004.77 517.49 925.14
  Q 519.72 926.50 521.61 928.65
  Q 524.72 932.19 525.19 932.64
  C 530.42 937.72 535.59 942.97 541.17 947.64
  Q 558.09 961.76 575.48 972.22
  Q 620.33 999.17 673.44 1004.55
  Q 679.05 1005.12 684.75 1005.12
  Q 931.17 1005.12 1177.63 1005.14
  Q 1188.38 1005.14 1198.51 1004.06
  Q 1223.76 1001.37 1247.46 992.90
  Q 1320.71 966.73 1366.03 904.00
  Q 1399.33 857.93 1407.73 801.67
  Q 1408.94 793.62 1409.73 782.77
  Q 1429.78 509.39 1450.17 234.96
  Q 1453.92 184.55 1435.87 137.98
  C 1435.51 137.06 1435.50 136.00 1435.22 135.01
  Z"
/>
<path fill="#ffffff" d="
  M 844.13 265.13
  L 824.56 234.03
  Q 824.27 233.56 824.74 233.26
  L 838.14 224.85
  Q 838.69 224.51 839.02 225.05
  L 882.43 294.05
  Q 882.76 294.58 882.23 294.92
  L 869.06 303.20
  Q 868.50 303.55 868.15 302.99
  L 866.07 299.67
  Q 865.41 298.62 865.15 299.84
  C 863.53 307.43 858.12 312.91 851.07 315.66
  C 837.10 321.13 822.96 312.24 817.97 298.80
  C 814.44 289.27 816.53 278.20 824.43 271.58
  Q 833.42 264.05 843.74 265.71
  Q 844.58 265.84 844.13 265.13
  Z
  M 857.41 288.70
  A 11.62 11.62 0.0 0 0 845.79 277.08
  A 11.62 11.62 0.0 0 0 834.17 288.70
  A 11.62 11.62 0.0 0 0 845.79 300.32
  A 11.62 11.62 0.0 0 0 857.41 288.70
  Z"
/>
<path fill="#ffffff" d="
  M 894.94 261.00
  C 899.75 269.32 910.47 264.87 914.46 258.66
  C 915.46 257.11 915.91 255.02 916.31 253.20
  Q 916.43 252.63 917.01 252.58
  L 929.76 251.35
  A 0.36 0.35 -2.3 0 1 930.15 251.70
  C 930.25 263.14 923.08 271.80 913.23 277.03
  C 902.59 282.67 888.31 280.52 880.62 271.05
  C 870.80 258.95 873.40 241.48 886.24 232.50
  C 900.76 222.34 916.33 225.93 924.84 241.34
  Q 925.03 241.68 924.70 241.88
  L 895.06 260.52
  Q 894.77 260.70 894.94 261.00
  Z
  M 890.29 252.40
  L 905.74 242.67
  A 0.14 0.14 0.0 0 0 905.78 242.48
  L 905.74 242.42
  A 8.98 7.75 -32.2 0 0 894.01 240.65
  L 893.52 240.96
  A 8.98 7.75 -32.2 0 0 890.05 252.30
  L 890.09 252.36
  A 0.14 0.14 0.0 0 0 890.29 252.40
  Z"
/>
<path fill="#8c52ff" d="
  M 890.29 252.40
  A 0.14 0.14 0.0 0 1 890.09 252.36
  L 890.05 252.30
  A 8.98 7.75 -32.2 0 1 893.52 240.96
  L 894.01 240.65
  A 8.98 7.75 -32.2 0 1 905.74 242.42
  L 905.78 242.48
  A 0.14 0.14 0.0 0 1 905.74 242.67
  L 890.29 252.40
  Z"
/>
<path fill="#ffffff" d="
  M 1141.43 432.71
  A 1.20 1.20 0.0 0 0 1140.85 431.68
  L 961.44 321.84
  A 2.28 2.28 0.0 0 0 959.06 321.84
  L 780.29 431.32
  A 2.57 2.56 -15.7 0 0 779.06 433.51
  L 779.06 650.02
  A 2.09 2.06 15.9 0 0 780.06 651.79
  Q 802.79 665.54 826.21 679.52
  C 834.07 684.21 848.37 687.43 856.41 680.52
  Q 862.69 675.12 862.70 666.14
  Q 862.75 560.85 862.60 453.09
  C 862.59 446.41 867.24 442.18 874.08 442.21
  Q 884.75 442.27 895.41 442.14
  C 903.11 442.04 909.23 444.70 909.23 453.00
  Q 909.24 560.00 909.17 667.00
  C 909.15 693.41 897.23 718.50 870.92 727.05
  Q 845.10 735.45 820.09 726.14
  C 812.24 723.22 804.30 719.38 797.23 715.09
  Q 779.01 704.01 761.14 693.55
  Q 750.18 687.14 746.11 683.01
  Q 736.38 673.16 733.63 660.36
  Q 732.45 654.86 732.47 644.59
  Q 732.64 539.41 732.51 431.31
  Q 732.49 409.92 746.87 396.63
  Q 751.06 392.76 760.99 386.82
  Q 846.85 335.47 933.43 283.40
  Q 942.56 277.91 947.59 276.47
  C 960.10 272.89 972.54 274.70 983.56 281.32
  Q 1074.19 335.74 1162.64 388.71
  Q 1170.74 393.55 1174.29 397.15
  C 1183.95 406.92 1187.84 418.15 1187.83 431.82
  Q 1187.72 546.36 1187.80 649.69
  C 1187.81 663.60 1182.48 676.26 1171.92 685.19
  C 1167.50 688.92 1161.77 692.10 1156.45 695.28
  Q 1070.61 746.68 986.44 797.19
  C 983.21 799.12 979.70 801.28 976.34 802.60
  Q 955.78 810.61 936.42 798.61
  Q 907.15 780.45 875.71 761.33
  C 871.35 758.67 866.47 753.66 870.82 748.54
  Q 872.40 746.67 874.83 745.81
  C 885.20 742.10 894.23 737.50 903.36 731.91
  C 906.68 729.87 910.28 729.80 913.68 731.82
  Q 937.86 746.19 959.18 758.84
  A 1.91 1.89 -44.7 0 0 961.11 758.84
  L 1140.09 652.12
  A 2.77 2.72 75.0 0 0 1141.43 649.75
  L 1141.43 432.71
  Z"
/>
<circle fill="#8c52ff" cx="845.79" cy="288.70" r="11.62"/>
<path fill="#ffffff" d="
  M 768.04 289.48
  L 804.42 288.28
  A 1.45 1.45 0.0 0 1 805.69 288.96
  L 825.49 320.60
  A 1.45 1.45 0.0 0 1 825.54 322.05
  L 808.58 354.24
  A 1.45 1.45 0.0 0 1 807.35 355.02
  L 770.92 356.23
  A 1.45 1.45 0.0 0 1 769.65 355.55
  L 749.86 323.96
  A 1.45 1.45 0.0 0 1 749.81 322.51
  L 766.81 290.26
  A 1.45 1.45 0.0 0 1 768.04 289.48
  Z"
/>
<path fill="#ffffff" d="
  M 716.37 346.74
  Q 718.71 336.61 727.55 332.63
  C 737.19 328.28 746.84 328.88 752.78 338.28
  Q 761.00 351.29 769.70 365.17
  Q 770.03 365.69 769.51 366.02
  L 756.14 374.42
  Q 755.60 374.76 755.26 374.22
  Q 748.23 362.94 740.84 351.29
  C 733.35 339.49 718.42 351.16 725.17 361.95
  Q 732.41 373.53 739.39 384.58
  A 0.33 0.33 0.0 0 1 739.29 385.04
  L 725.50 393.70
  A 0.43 0.42 -31.8 0 1 724.92 393.57
  L 699.07 352.46
  A 0.41 0.41 0.0 0 1 699.20 351.89
  L 712.80 343.34
  A 0.61 0.60 58.5 0 1 713.64 343.55
  L 715.59 346.86
  Q 716.13 347.79 716.37 346.74
  Z"
/>
<path fill="#ffffff" d="
  M 1003.19 476.47
  C 990.88 477.30 973.27 480.57 972.36 495.64
  C 972.09 499.98 972.18 504.28 976.28 506.83
  Q 979.83 509.05 983.97 510.22
  Q 995.98 513.65 1007.88 515.41
  Q 1025.69 518.05 1046.03 521.32
  Q 1061.11 523.75 1074.62 528.08
  C 1093.85 534.25 1109.51 544.76 1114.53 564.91
  Q 1117.86 578.24 1116.13 592.84
  C 1111.38 632.93 1077.09 651.70 1040.66 655.61
  Q 1017.11 658.14 993.60 654.66
  C 956.20 649.13 926.03 629.01 922.44 588.39
  Q 921.86 581.80 923.37 578.47
  Q 925.87 572.94 932.86 572.83
  Q 944.77 572.63 955.46 572.83
  C 961.11 572.94 964.65 576.88 965.44 582.26
  C 966.77 591.30 970.05 599.66 977.51 604.73
  Q 985.17 609.93 995.77 611.74
  Q 1016.99 615.35 1040.04 612.55
  C 1052.52 611.04 1067.69 605.68 1070.37 591.49
  C 1071.17 587.25 1071.76 581.19 1069.21 577.53
  C 1066.03 572.98 1057.80 570.05 1052.70 568.78
  Q 1037.65 565.02 1023.31 563.43
  C 1007.17 561.63 992.12 560.08 976.25 556.03
  C 956.12 550.89 935.94 540.24 929.93 518.73
  C 923.82 496.92 927.52 472.51 943.90 456.12
  C 958.99 441.02 981.80 434.75 1003.08 433.46
  Q 1025.77 432.08 1046.64 435.59
  C 1058.22 437.54 1070.39 441.29 1080.53 447.60
  Q 1106.05 463.46 1108.24 496.59
  Q 1108.67 503.05 1103.31 506.21
  Q 1100.39 507.94 1094.31 507.81
  Q 1085.05 507.61 1075.94 507.70
  C 1070.84 507.75 1066.69 504.78 1065.42 499.86
  C 1061.33 484.02 1049.62 478.42 1034.26 476.97
  Q 1018.33 475.46 1003.19 476.47
  Z"
/>
</svg>
