<?xml version="1.0" encoding="UTF-8" standalone="no"?>
<!DOCTYPE svg PUBLIC "-//W3C//DTD SVG 1.1//EN" "http://www.w3.org/Graphics/SVG/1.1/DTD/svg11.dtd">
<svg xmlns="http://www.w3.org/2000/svg" version="1.1" viewBox="0.00 0.00 1920.00 1080.00">
<g stroke-width="2.00" fill="none" stroke-linecap="butt">
<path stroke="#7d3dec" vector-effect="non-scaling-stroke" d="
  M 1434.93 134.87
  Q 1453.99 182.90 1450.05 236.25
  Q 1430.21 504.76 1410.39 773.27
  Q 1409.20 789.40 1408.79 793.20
  C 1403.22 844.44 1380.27 892.41 1344.76 929.67
  Q 1294.95 981.94 1225.53 999.43
  Q 1213.24 1002.52 1196.97 1004.20
  Q 1187.69 1005.15 1177.50 1005.15
  Q 928.82 1005.10 684.52 1005.13
  Q 678.80 1005.13 673.05 1004.54
  Q 608.42 997.86 555.88 959.12
  Q 542.04 948.91 536.59 943.67
  Q 527.64 935.06 518.21 926.17"
/>
<path stroke="#c6a9ff" vector-effect="non-scaling-stroke" d="
  M 1116.77 615.74
  Q 1116.57 614.89 1117.41 614.62
  Q 1141.62 606.96 1163.35 596.48
  C 1195.13 581.16 1234.70 554.79 1240.08 517.59
  C 1245.24 481.91 1217.03 454.09 1189.88 436.64
  C 1167.98 422.57 1142.89 411.80 1117.71 403.82
  Q 1116.59 403.47 1116.85 402.33
  Q 1121.84 380.01 1123.92 355.88
  Q 1125.78 334.31 1123.86 314.45
  C 1121.49 289.91 1113.63 262.31 1092.74 246.90
  C 1059.78 222.61 1014.76 240.36 984.00 259.38
  Q 957.72 275.62 934.53 297.08
  A 1.28 1.28 0.0 0 1 932.79 297.09
  Q 912.87 278.75 890.32 263.86
  C 852.47 238.86 793.17 215.15 760.38 261.60
  C 752.26 273.10 747.56 287.58 745.09 301.81
  Q 741.28 323.73 742.72 348.08
  Q 744.31 374.97 750.23 401.86
  Q 750.61 403.55 748.96 404.07
  Q 710.04 416.40 680.13 434.85
  C 657.31 448.93 633.19 470.30 627.67 497.57
  C 618.40 543.36 664.65 576.98 699.79 594.45
  Q 723.24 606.12 749.49 614.45
  A 1.31 1.30 -75.0 0 1 750.37 615.98
  Q 744.01 644.16 742.58 673.32
  C 740.44 717.09 750.70 778.65 806.72 783.05
  C 824.85 784.47 844.43 778.63 861.32 770.72
  C 887.19 758.61 911.36 740.88 932.52 721.45
  A 1.61 1.61 0.0 0 1 934.70 721.45
  Q 955.13 740.18 977.90 755.12
  Q 997.03 767.67 1016.51 775.18
  Q 1034.75 782.22 1050.34 783.08
  C 1093.82 785.49 1115.97 754.28 1122.30 715.20
  Q 1123.68 706.74 1123.97 703.37
  Q 1125.64 683.92 1124.01 663.88
  Q 1121.98 638.96 1116.77 615.74"
/>
<path stroke="#c6a9ff" vector-effect="non-scaling-stroke" d="
  M 861.33 297.33
  C 847.93 288.87 810.93 268.53 797.50 285.10
  Q 792.12 291.76 789.52 302.61
  C 785.32 320.15 785.45 338.72 787.36 356.69
  Q 789.20 373.95 792.87 391.51
  Q 793.02 392.20 793.71 392.05
  Q 825.43 385.13 857.31 381.71
  C 859.26 381.50 860.13 381.05 861.20 379.59
  Q 880.93 352.56 902.17 329.35
  A 0.55 0.54 -47.6 0 0 902.14 328.57
  Q 882.44 310.65 861.33 297.33"
/>
<path stroke="#c6a9ff" vector-effect="non-scaling-stroke" d="
  M 1049.76 279.12
  C 1033.88 281.54 1018.45 289.25 1005.07 297.84
  Q 983.93 311.42 965.30 328.38
  A 0.84 0.83 47.7 0 0 965.25 329.56
  Q 986.93 353.34 1006.65 380.41
  Q 1007.34 381.37 1008.51 381.49
  Q 1041.16 384.92 1073.58 392.03
  A 0.61 0.61 0.0 0 0 1074.31 391.56
  C 1079.45 366.93 1082.63 340.70 1080.12 316.58
  C 1079.10 306.76 1076.93 296.43 1071.78 287.97
  C 1066.78 279.74 1058.68 277.77 1049.76 279.12"
/>
<path stroke="#c6a9ff" vector-effect="non-scaling-stroke" d="
  M 918.81 376.89
  A 0.42 0.42 0.0 0 0 919.12 377.58
  L 948.08 377.58
  A 0.42 0.42 0.0 0 0 948.39 376.89
  L 933.92 360.16
  A 0.42 0.42 0.0 0 0 933.28 360.16
  L 918.81 376.89"
/>
<path stroke="#c6a9ff" vector-effect="non-scaling-stroke" d="
  M 983.66 594.40
  C 1001.99 567.37 1018.16 539.29 1032.31 510.16
  Q 1032.80 509.17 1032.31 508.17
  Q 1011.30 464.83 984.18 424.57
  Q 983.21 423.14 981.47 423.02
  Q 933.14 419.77 885.32 423.09
  Q 884.07 423.18 883.35 424.24
  Q 855.81 464.89 834.76 508.48
  A 1.63 1.61 -45.4 0 0 834.76 509.89
  Q 856.25 554.21 883.56 594.41
  A 1.76 1.74 74.6 0 0 884.88 595.17
  Q 934.46 598.55 982.35 595.16
  A 1.73 1.72 -75.1 0 0 983.66 594.40"
/>
<path stroke="#c6a9ff" vector-effect="non-scaling-stroke" d="
  M 811.73 455.97
  A 0.36 0.36 0.0 0 0 812.38 456.03
  L 827.00 430.71
  A 0.36 0.36 0.0 0 0 826.62 430.18
  L 804.66 434.38
  A 0.36 0.36 0.0 0 0 804.38 434.85
  L 811.73 455.97"
/>
<path stroke="#c6a9ff" vector-effect="non-scaling-stroke" d="
  M 1040.89 430.20
  A 0.49 0.49 0.0 0 0 1040.37 430.92
  L 1054.74 455.81
  A 0.49 0.49 0.0 0 0 1055.62 455.72
  L 1062.78 435.00
  A 0.49 0.49 0.0 0 0 1062.41 434.36
  L 1040.89 430.20"
/>
<path stroke="#c6a9ff" vector-effect="non-scaling-stroke" d="
  M 783.71 514.67
  Q 784.82 512.13 785.69 509.83
  A 2.22 2.20 -47.2 0 0 785.63 508.14
  Q 772.15 478.00 762.16 446.51
  A 0.55 0.54 -17.3 0 0 761.47 446.15
  Q 733.37 455.19 710.78 467.62
  C 696.74 475.36 680.65 486.40 673.08 499.85
  Q 668.42 508.15 672.01 516.22
  C 676.66 526.65 687.20 535.54 696.81 542.07
  Q 712.91 553.00 732.95 561.53
  Q 746.59 567.33 761.40 572.19
  Q 761.97 572.38 762.16 571.80
  Q 771.37 542.82 783.71 514.67"
/>
<path stroke="#c6a9ff" vector-effect="non-scaling-stroke" d="
  M 1106.63 571.96
  Q 1131.57 563.78 1152.04 553.09
  Q 1168.48 544.50 1180.65 534.23
  C 1187.06 528.83 1194.38 520.98 1196.31 512.71
  C 1199.57 498.68 1181.46 483.78 1170.73 476.46
  C 1151.30 463.20 1128.55 453.62 1105.98 446.10
  A 0.72 0.71 18.1 0 0 1105.07 446.56
  Q 1094.50 479.31 1081.79 507.55
  C 1081.31 508.61 1081.39 509.85 1081.85 510.89
  Q 1095.64 541.90 1104.75 570.99
  Q 1105.20 572.43 1106.63 571.96"
/>
<path stroke="#c6a9ff" vector-effect="non-scaling-stroke" d="
  M 826.44 588.17
  A 0.44 0.44 0.0 0 0 826.91 587.52
  L 812.48 562.43
  A 0.44 0.44 0.0 0 0 811.68 562.51
  L 804.46 583.36
  A 0.44 0.44 0.0 0 0 804.79 583.93
  L 826.44 588.17"
/>
<path stroke="#c6a9ff" vector-effect="non-scaling-stroke" d="
  M 1055.62 562.62
  A 0.50 0.50 0.0 0 0 1054.71 562.53
  L 1040.41 587.41
  A 0.50 0.50 0.0 0 0 1040.94 588.15
  L 1062.39 583.93
  A 0.50 0.50 0.0 0 0 1062.77 583.28
  L 1055.62 562.62"
/>
<path stroke="#c6a9ff" vector-effect="non-scaling-stroke" d="
  M 838.46 733.06
  C 861.77 722.89 882.99 707.05 902.18 689.79
  A 0.55 0.55 0.0 0 0 902.22 689.01
  Q 880.09 664.73 860.65 638.08
  Q 859.75 636.85 858.49 636.72
  Q 825.77 633.32 793.54 626.24
  A 0.50 0.49 -77.2 0 0 792.95 626.62
  Q 788.97 645.32 787.14 664.51
  C 785.63 680.40 785.53 696.56 788.74 712.32
  C 791.02 723.54 795.99 737.76 808.52 739.22
  C 818.51 740.38 829.26 737.08 838.46 733.06"
/>
<path stroke="#c6a9ff" vector-effect="non-scaling-stroke" d="
  M 1075.30 723.27
  Q 1079.76 711.15 1080.68 695.56
  Q 1081.80 676.60 1079.08 655.21
  Q 1076.78 637.19 1074.24 626.68
  Q 1074.13 626.24 1073.69 626.34
  Q 1040.69 633.45 1008.52 636.83
  A 2.67 2.65 14.6 0 0 1006.65 637.92
  Q 987.93 663.78 965.19 688.82
  A 0.76 0.76 0.0 0 0 965.24 689.90
  Q 985.26 708.04 1006.12 721.14
  Q 1023.61 732.12 1040.25 737.22
  Q 1048.19 739.64 1056.37 739.42
  C 1066.45 739.14 1072.01 732.21 1075.30 723.27"
/>
<path stroke="#c6a9ff" vector-effect="non-scaling-stroke" d="
  M 948.50 641.39
  A 0.44 0.44 0.0 0 0 948.17 640.66
  L 918.99 640.61
  A 0.44 0.44 0.0 0 0 918.66 641.34
  L 933.33 658.09
  A 0.44 0.44 0.0 0 0 933.99 658.09
  L 948.50 641.39"
/>
<path stroke="#c6a9ff" vector-effect="non-scaling-stroke" d="
  M 977.45 509.17
  A 43.85 43.85 0.0 0 0 933.60 465.32
  A 43.85 43.85 0.0 0 0 889.75 509.17
  A 43.85 43.85 0.0 0 0 933.60 553.02
  A 43.85 43.85 0.0 0 0 977.45 509.17"
/>
</g>
<path fill="#8c52ff" d="
  M 1434.93 134.87
  Q 1453.99 182.90 1450.05 236.25
  Q 1430.21 504.76 1410.39 773.27
  Q 1409.20 789.40 1408.79 793.20
  C 1403.22 844.44 1380.27 892.41 1344.76 929.67
  Q 1294.95 981.94 1225.53 999.43
  Q 1213.24 1002.52 1196.97 1004.20
  Q 1187.69 1005.15 1177.50 1005.15
  Q 928.82 1005.10 684.52 1005.13
  Q 678.80 1005.13 673.05 1004.54
  Q 608.42 997.86 555.88 959.12
  Q 542.04 948.91 536.59 943.67
  Q 527.64 935.06 518.21 926.17
  Q 515.69 921.73 509.99 914.75
  Q 484.90 884.02 471.77 847.54
  Q 465.63 830.48 463.65 820.14
  Q 462.39 813.56 460.71 806.62
  Q 459.56 801.90 459.40 797.68
  C 459.16 791.72 457.86 785.83 457.83 779.86
  Q 457.79 772.77 456.69 766.38
  C 454.95 756.18 456.14 745.96 454.71 735.75
  C 453.69 728.53 453.95 721.45 452.94 714.62
  Q 452.01 708.28 451.84 701.77
  C 451.69 696.02 451.54 690.36 450.98 684.63
  Q 449.78 672.22 448.79 660.02
  C 447.58 645.21 447.61 629.47 445.32 614.56
  Q 444.40 608.63 444.47 603.16
  Q 444.58 595.04 443.56 586.60
  C 442.67 579.26 443.17 571.80 441.92 564.67
  Q 440.82 558.37 440.76 552.79
  C 440.67 545.50 440.52 538.11 439.61 530.75
  C 438.80 524.19 438.83 517.33 437.90 510.93
  C 436.47 501.01 436.91 491.22 435.99 481.39
  Q 434.92 469.94 434.04 459.97
  Q 433.73 456.52 432.86 440.02
  Q 431.92 422.17 429.77 406.51
  Q 429.29 403.01 429.31 393.08
  C 429.31 387.43 427.83 381.24 427.82 375.29
  Q 427.80 366.12 426.40 358.37
  Q 425.57 353.79 425.63 349.06
  Q 425.76 338.79 424.83 331.61
  C 423.72 323.16 423.98 314.83 422.70 306.82
  C 421.37 298.53 422.05 290.03 421.16 281.63
  C 420.28 273.37 419.87 264.98 418.77 256.68
  Q 418.27 252.86 418.24 249.22
  C 418.17 241.37 417.47 233.37 417.05 225.77
  Q 416.18 210.17 417.80 192.29
  Q 418.44 185.18 419.71 179.43
  C 420.97 173.77 421.96 167.60 423.58 161.77
  Q 440.40 101.13 487.91 60.77
  Q 526.93 27.63 578.38 17.40
  Q 586.27 15.83 598.04 14.23
  Q 605.68 13.19 613.17 13.19
  Q 935.58 13.22 1257.74 13.19
  Q 1262.49 13.19 1267.08 13.86
  Q 1271.54 14.52 1276.24 15.20
  Q 1334.95 23.70 1379.02 60.48
  Q 1386.10 66.38 1395.92 76.52
  C 1411.07 92.16 1423.23 110.56 1432.35 130.25
  Q 1432.91 131.46 1433.62 132.61
  Q 1434.42 133.91 1434.93 134.87
  Z
  M 1116.77 615.74
  Q 1116.57 614.89 1117.41 614.62
  Q 1141.62 606.96 1163.35 596.48
  C 1195.13 581.16 1234.70 554.79 1240.08 517.59
  C 1245.24 481.91 1217.03 454.09 1189.88 436.64
  C 1167.98 422.57 1142.89 411.80 1117.71 403.82
  Q 1116.59 403.47 1116.85 402.33
  Q 1121.84 380.01 1123.92 355.88
  Q 1125.78 334.31 1123.86 314.45
  C 1121.49 289.91 1113.63 262.31 1092.74 246.90
  C 1059.78 222.61 1014.76 240.36 984.00 259.38
  Q 957.72 275.62 934.53 297.08
  A 1.28 1.28 0.0 0 1 932.79 297.09
  Q 912.87 278.75 890.32 263.86
  C 852.47 238.86 793.17 215.15 760.38 261.60
  C 752.26 273.10 747.56 287.58 745.09 301.81
  Q 741.28 323.73 742.72 348.08
  Q 744.31 374.97 750.23 401.86
  Q 750.61 403.55 748.96 404.07
  Q 710.04 416.40 680.13 434.85
  C 657.31 448.93 633.19 470.30 627.67 497.57
  C 618.40 543.36 664.65 576.98 699.79 594.45
  Q 723.24 606.12 749.49 614.45
  A 1.31 1.30 -75.0 0 1 750.37 615.98
  Q 744.01 644.16 742.58 673.32
  C 740.44 717.09 750.70 778.65 806.72 783.05
  C 824.85 784.47 844.43 778.63 861.32 770.72
  C 887.19 758.61 911.36 740.88 932.52 721.45
  A 1.61 1.61 0.0 0 1 934.70 721.45
  Q 955.13 740.18 977.90 755.12
  Q 997.03 767.67 1016.51 775.18
  Q 1034.75 782.22 1050.34 783.08
  C 1093.82 785.49 1115.97 754.28 1122.30 715.20
  Q 1123.68 706.74 1123.97 703.37
  Q 1125.64 683.92 1124.01 663.88
  Q 1121.98 638.96 1116.77 615.74
  Z"
/>
<path fill="#6d27d9" d="
  M 1434.93 134.87
  Q 1446.75 147.97 1454.84 160.23
  Q 1479.08 197.02 1485.80 241.68
  C 1486.99 249.59 1487.21 257.82 1487.83 265.86
  Q 1488.64 276.17 1487.53 287.60
  C 1486.79 295.26 1487.07 302.91 1486.13 310.54
  C 1484.96 319.96 1485.15 328.50 1483.94 337.80
  C 1483.02 344.89 1483.49 352.26 1482.57 359.46
  C 1482.10 363.14 1481.44 366.79 1481.43 370.49
  Q 1481.40 379.14 1480.24 387.13
  Q 1479.43 392.72 1479.42 397.35
  C 1479.42 401.95 1479.44 406.52 1478.76 411.11
  Q 1477.49 419.68 1477.28 429.39
  Q 1477.16 435.13 1476.29 441.09
  Q 1475.37 447.42 1475.50 455.02
  C 1475.62 461.75 1473.91 468.13 1473.73 474.83
  Q 1473.51 482.86 1472.97 487.03
  Q 1471.79 496.27 1471.64 506.33
  C 1471.53 513.35 1469.86 521.23 1469.95 528.85
  Q 1470.00 533.08 1469.29 537.59
  C 1468.30 543.80 1468.12 549.75 1468.03 555.87
  Q 1467.99 559.52 1467.44 563.06
  Q 1466.23 571.01 1466.29 578.88
  C 1466.33 585.32 1464.54 591.54 1464.56 597.70
  Q 1464.59 608.03 1463.24 619.13
  C 1462.31 626.78 1462.52 635.03 1461.53 642.90
  Q 1460.50 651.05 1460.53 659.18
  C 1460.55 664.95 1458.93 670.56 1458.88 676.09
  Q 1458.82 683.56 1457.96 690.57
  Q 1457.19 696.76 1456.96 701.99
  C 1456.74 706.97 1456.66 711.99 1456.05 716.98
  Q 1455.15 724.42 1455.01 731.30
  Q 1454.88 737.53 1453.98 743.55
  C 1452.94 750.59 1453.51 757.96 1452.60 765.17
  Q 1452.25 768.00 1451.85 770.78
  C 1451.22 775.30 1451.28 779.89 1451.19 784.49
  C 1451.07 790.02 1449.35 795.37 1449.47 800.94
  Q 1449.69 810.27 1448.50 818.97
  C 1447.30 827.68 1447.79 836.09 1446.57 844.59
  C 1445.64 851.09 1445.39 857.50 1444.11 864.06
  Q 1442.44 872.57 1440.53 880.63
  C 1430.44 923.02 1406.98 961.58 1375.86 992.86
  Q 1371.75 997.00 1367.19 1000.72
  C 1362.83 1004.28 1358.79 1008.21 1354.35 1011.60
  Q 1309.53 1045.79 1257.68 1057.10
  Q 1246.25 1059.60 1234.35 1060.68
  Q 1225.26 1061.51 1214.66 1061.51
  Q 967.54 1061.51 718.16 1061.43
  C 713.31 1061.43 708.28 1061.24 703.45 1060.45
  C 698.44 1059.62 693.42 1059.14 688.41 1058.12
  Q 632.48 1046.69 587.57 1011.61
  Q 571.95 999.40 557.61 983.90
  Q 533.82 958.20 518.21 926.17
  Q 527.64 935.06 536.59 943.67
  Q 542.04 948.91 555.88 959.12
  Q 608.42 997.86 673.05 1004.54
  Q 678.80 1005.13 684.52 1005.13
  Q 928.82 1005.10 1177.50 1005.15
  Q 1187.69 1005.15 1196.97 1004.20
  Q 1213.24 1002.52 1225.53 999.43
  Q 1294.95 981.94 1344.76 929.67
  C 1380.27 892.41 1403.22 844.44 1408.79 793.20
  Q 1409.20 789.40 1410.39 773.27
  Q 1430.21 504.76 1450.05 236.25
  Q 1453.99 182.90 1434.93 134.87
  Z"
/>
<path fill="#ffffff" d="
  M 1116.77 615.74
  Q 1121.98 638.96 1124.01 663.88
  Q 1125.64 683.92 1123.97 703.37
  Q 1123.68 706.74 1122.30 715.20
  C 1115.97 754.28 1093.82 785.49 1050.34 783.08
  Q 1034.75 782.22 1016.51 775.18
  Q 997.03 767.67 977.90 755.12
  Q 955.13 740.18 934.70 721.45
  A 1.61 1.61 0.0 0 0 932.52 721.45
  C 911.36 740.88 887.19 758.61 861.32 770.72
  C 844.43 778.63 824.85 784.47 806.72 783.05
  C 750.70 778.65 740.44 717.09 742.58 673.32
  Q 744.01 644.16 750.37 615.98
  A 1.31 1.30 -75.0 0 0 749.49 614.45
  Q 723.24 606.12 699.79 594.45
  C 664.65 576.98 618.40 543.36 627.67 497.57
  C 633.19 470.30 657.31 448.93 680.13 434.85
  Q 710.04 416.40 748.96 404.07
  Q 750.61 403.55 750.23 401.86
  Q 744.31 374.97 742.72 348.08
  Q 741.28 323.73 745.09 301.81
  C 747.56 287.58 752.26 273.10 760.38 261.60
  C 793.17 215.15 852.47 238.86 890.32 263.86
  Q 912.87 278.75 932.79 297.09
  A 1.28 1.28 0.0 0 0 934.53 297.08
  Q 957.72 275.62 984.00 259.38
  C 1014.76 240.36 1059.78 222.61 1092.74 246.90
  C 1113.63 262.31 1121.49 289.91 1123.86 314.45
  Q 1125.78 334.31 1123.92 355.88
  Q 1121.84 380.01 1116.85 402.33
  Q 1116.59 403.47 1117.71 403.82
  C 1142.89 411.80 1167.98 422.57 1189.88 436.64
  C 1217.03 454.09 1245.24 481.91 1240.08 517.59
  C 1234.70 554.79 1195.13 581.16 1163.35 596.48
  Q 1141.62 606.96 1117.41 614.62
  Q 1116.57 614.89 1116.77 615.74
  Z
  M 861.33 297.33
  C 847.93 288.87 810.93 268.53 797.50 285.10
  Q 792.12 291.76 789.52 302.61
  C 785.32 320.15 785.45 338.72 787.36 356.69
  Q 789.20 373.95 792.87 391.51
  Q 793.02 392.20 793.71 392.05
  Q 825.43 385.13 857.31 381.71
  C 859.26 381.50 860.13 381.05 861.20 379.59
  Q 880.93 352.56 902.17 329.35
  A 0.55 0.54 -47.6 0 0 902.14 328.57
  Q 882.44 310.65 861.33 297.33
  Z
  M 1049.76 279.12
  C 1033.88 281.54 1018.45 289.25 1005.07 297.84
  Q 983.93 311.42 965.30 328.38
  A 0.84 0.83 47.7 0 0 965.25 329.56
  Q 986.93 353.34 1006.65 380.41
  Q 1007.34 381.37 1008.51 381.49
  Q 1041.16 384.92 1073.58 392.03
  A 0.61 0.61 0.0 0 0 1074.31 391.56
  C 1079.45 366.93 1082.63 340.70 1080.12 316.58
  C 1079.10 306.76 1076.93 296.43 1071.78 287.97
  C 1066.78 279.74 1058.68 277.77 1049.76 279.12
  Z
  M 918.81 376.89
  A 0.42 0.42 0.0 0 0 919.12 377.58
  L 948.08 377.58
  A 0.42 0.42 0.0 0 0 948.39 376.89
  L 933.92 360.16
  A 0.42 0.42 0.0 0 0 933.28 360.16
  L 918.81 376.89
  Z
  M 983.66 594.40
  C 1001.99 567.37 1018.16 539.29 1032.31 510.16
  Q 1032.80 509.17 1032.31 508.17
  Q 1011.30 464.83 984.18 424.57
  Q 983.21 423.14 981.47 423.02
  Q 933.14 419.77 885.32 423.09
  Q 884.07 423.18 883.35 424.24
  Q 855.81 464.89 834.76 508.48
  A 1.63 1.61 -45.4 0 0 834.76 509.89
  Q 856.25 554.21 883.56 594.41
  A 1.76 1.74 74.6 0 0 884.88 595.17
  Q 934.46 598.55 982.35 595.16
  A 1.73 1.72 -75.1 0 0 983.66 594.40
  Z
  M 811.73 455.97
  A 0.36 0.36 0.0 0 0 812.38 456.03
  L 827.00 430.71
  A 0.36 0.36 0.0 0 0 826.62 430.18
  L 804.66 434.38
  A 0.36 0.36 0.0 0 0 804.38 434.85
  L 811.73 455.97
  Z
  M 1040.89 430.20
  A 0.49 0.49 0.0 0 0 1040.37 430.92
  L 1054.74 455.81
  A 0.49 0.49 0.0 0 0 1055.62 455.72
  L 1062.78 435.00
  A 0.49 0.49 0.0 0 0 1062.41 434.36
  L 1040.89 430.20
  Z
  M 783.71 514.67
  Q 784.82 512.13 785.69 509.83
  A 2.22 2.20 -47.2 0 0 785.63 508.14
  Q 772.15 478.00 762.16 446.51
  A 0.55 0.54 -17.3 0 0 761.47 446.15
  Q 733.37 455.19 710.78 467.62
  C 696.74 475.36 680.65 486.40 673.08 499.85
  Q 668.42 508.15 672.01 516.22
  C 676.66 526.65 687.20 535.54 696.81 542.07
  Q 712.91 553.00 732.95 561.53
  Q 746.59 567.33 761.40 572.19
  Q 761.97 572.38 762.16 571.80
  Q 771.37 542.82 783.71 514.67
  Z
  M 1106.63 571.96
  Q 1131.57 563.78 1152.04 553.09
  Q 1168.48 544.50 1180.65 534.23
  C 1187.06 528.83 1194.38 520.98 1196.31 512.71
  C 1199.57 498.68 1181.46 483.78 1170.73 476.46
  C 1151.30 463.20 1128.55 453.62 1105.98 446.10
  A 0.72 0.71 18.1 0 0 1105.07 446.56
  Q 1094.50 479.31 1081.79 507.55
  C 1081.31 508.61 1081.39 509.85 1081.85 510.89
  Q 1095.64 541.90 1104.75 570.99
  Q 1105.20 572.43 1106.63 571.96
  Z
  M 826.44 588.17
  A 0.44 0.44 0.0 0 0 826.91 587.52
  L 812.48 562.43
  A 0.44 0.44 0.0 0 0 811.68 562.51
  L 804.46 583.36
  A 0.44 0.44 0.0 0 0 804.79 583.93
  L 826.44 588.17
  Z
  M 1055.62 562.62
  A 0.50 0.50 0.0 0 0 1054.71 562.53
  L 1040.41 587.41
  A 0.50 0.50 0.0 0 0 1040.94 588.15
  L 1062.39 583.93
  A 0.50 0.50 0.0 0 0 1062.77 583.28
  L 1055.62 562.62
  Z
  M 838.46 733.06
  C 861.77 722.89 882.99 707.05 902.18 689.79
  A 0.55 0.55 0.0 0 0 902.22 689.01
  Q 880.09 664.73 860.65 638.08
  Q 859.75 636.85 858.49 636.72
  Q 825.77 633.32 793.54 626.24
  A 0.50 0.49 -77.2 0 0 792.95 626.62
  Q 788.97 645.32 787.14 664.51
  C 785.63 680.40 785.53 696.56 788.74 712.32
  C 791.02 723.54 795.99 737.76 808.52 739.22
  C 818.51 740.38 829.26 737.08 838.46 733.06
  Z
  M 1075.30 723.27
  Q 1079.76 711.15 1080.68 695.56
  Q 1081.80 676.60 1079.08 655.21
  Q 1076.78 637.19 1074.24 626.68
  Q 1074.13 626.24 1073.69 626.34
  Q 1040.69 633.45 1008.52 636.83
  A 2.67 2.65 14.6 0 0 1006.65 637.92
  Q 987.93 663.78 965.19 688.82
  A 0.76 0.76 0.0 0 0 965.24 689.90
  Q 985.26 708.04 1006.12 721.14
  Q 1023.61 732.12 1040.25 737.22
  Q 1048.19 739.64 1056.37 739.42
  C 1066.45 739.14 1072.01 732.21 1075.30 723.27
  Z
  M 948.50 641.39
  A 0.44 0.44 0.0 0 0 948.17 640.66
  L 918.99 640.61
  A 0.44 0.44 0.0 0 0 918.66 641.34
  L 933.33 658.09
  A 0.44 0.44 0.0 0 0 933.99 658.09
  L 948.50 641.39
  Z"
/>
<path fill="#8c52ff" d="
  M 797.50 285.10
  C 810.93 268.53 847.93 288.87 861.33 297.33
  Q 882.44 310.65 902.14 328.57
  A 0.55 0.54 -47.6 0 1 902.17 329.35
  Q 880.93 352.56 861.20 379.59
  C 860.13 381.05 859.26 381.50 857.31 381.71
  Q 825.43 385.13 793.71 392.05
  Q 793.02 392.20 792.87 391.51
  Q 789.20 373.95 787.36 356.69
  C 785.45 338.72 785.32 320.15 789.52 302.61
  Q 792.12 291.76 797.50 285.10
  Z"
/>
<path fill="#8c52ff" d="
  M 1005.07 297.84
  C 1018.45 289.25 1033.88 281.54 1049.76 279.12
  C 1058.68 277.77 1066.78 279.74 1071.78 287.97
  C 1076.93 296.43 1079.10 306.76 1080.12 316.58
  C 1082.63 340.70 1079.45 366.93 1074.31 391.56
  A 0.61 0.61 0.0 0 1 1073.58 392.03
  Q 1041.16 384.92 1008.51 381.49
  Q 1007.34 381.37 1006.65 380.41
  Q 986.93 353.34 965.25 329.56
  A 0.84 0.83 47.7 0 1 965.30 328.38
  Q 983.93 311.42 1005.07 297.84
  Z"
/>
<path fill="#8c52ff" d="
  M 918.81 376.89
  L 933.28 360.16
  A 0.42 0.42 0.0 0 1 933.92 360.16
  L 948.39 376.89
  A 0.42 0.42 0.0 0 1 948.08 377.58
  L 919.12 377.58
  A 0.42 0.42 0.0 0 1 918.81 376.89
  Z"
/>
<path fill="#8c52ff" d="
  M 1032.31 510.16
  C 1018.16 539.29 1001.99 567.37 983.66 594.40
  A 1.73 1.72 -75.1 0 1 982.35 595.16
  Q 934.46 598.55 884.88 595.17
  A 1.76 1.74 74.6 0 1 883.56 594.41
  Q 856.25 554.21 834.76 509.89
  A 1.63 1.61 -45.4 0 1 834.76 508.48
  Q 855.81 464.89 883.35 424.24
  Q 884.07 423.18 885.32 423.09
  Q 933.14 419.77 981.47 423.02
  Q 983.21 423.14 984.18 424.57
  Q 1011.30 464.83 1032.31 508.17
  Q 1032.80 509.17 1032.31 510.16
  Z
  M 977.45 509.17
  A 43.85 43.85 0.0 0 0 933.60 465.32
  A 43.85 43.85 0.0 0 0 889.75 509.17
  A 43.85 43.85 0.0 0 0 933.60 553.02
  A 43.85 43.85 0.0 0 0 977.45 509.17
  Z"
/>
<path fill="#8c52ff" d="
  M 811.73 455.97
  L 804.38 434.85
  A 0.36 0.36 0.0 0 1 804.66 434.38
  L 826.62 430.18
  A 0.36 0.36 0.0 0 1 827.00 430.71
  L 812.38 456.03
  A 0.36 0.36 0.0 0 1 811.73 455.97
  Z"
/>
<path fill="#8c52ff" d="
  M 1040.89 430.20
  L 1062.41 434.36
  A 0.49 0.49 0.0 0 1 1062.78 435.00
  L 1055.62 455.72
  A 0.49 0.49 0.0 0 1 1054.74 455.81
  L 1040.37 430.92
  A 0.49 0.49 0.0 0 1 1040.89 430.20
  Z"
/>
<path fill="#8c52ff" d="
  M 783.71 514.67
  Q 771.37 542.82 762.16 571.80
  Q 761.97 572.38 761.40 572.19
  Q 746.59 567.33 732.95 561.53
  Q 712.91 553.00 696.81 542.07
  C 687.20 535.54 676.66 526.65 672.01 516.22
  Q 668.42 508.15 673.08 499.85
  C 680.65 486.40 696.74 475.36 710.78 467.62
  Q 733.37 455.19 761.47 446.15
  A 0.55 0.54 -17.3 0 1 762.16 446.51
  Q 772.15 478.00 785.63 508.14
  A 2.22 2.20 -47.2 0 1 785.69 509.83
  Q 784.82 512.13 783.71 514.67
  Z"
/>
<path fill="#8c52ff" d="
  M 1106.63 571.96
  Q 1105.20 572.43 1104.75 570.99
  Q 1095.64 541.90 1081.85 510.89
  C 1081.39 509.85 1081.31 508.61 1081.79 507.55
  Q 1094.50 479.31 1105.07 446.56
  A 0.72 0.71 18.1 0 1 1105.98 446.10
  C 1128.55 453.62 1151.30 463.20 1170.73 476.46
  C 1181.46 483.78 1199.57 498.68 1196.31 512.71
  C 1194.38 520.98 1187.06 528.83 1180.65 534.23
  Q 1168.48 544.50 1152.04 553.09
  Q 1131.57 563.78 1106.63 571.96
  Z"
/>
<circle fill="#ffffff" cx="933.60" cy="509.17" r="43.85"/>
<path fill="#8c52ff" d="
  M 826.44 588.17
  L 804.79 583.93
  A 0.44 0.44 0.0 0 1 804.46 583.36
  L 811.68 562.51
  A 0.44 0.44 0.0 0 1 812.48 562.43
  L 826.91 587.52
  A 0.44 0.44 0.0 0 1 826.44 588.17
  Z"
/>
<path fill="#8c52ff" d="
  M 1055.62 562.62
  L 1062.77 583.28
  A 0.50 0.50 0.0 0 1 1062.39 583.93
  L 1040.94 588.15
  A 0.50 0.50 0.0 0 1 1040.41 587.41
  L 1054.71 562.53
  A 0.50 0.50 0.0 0 1 1055.62 562.62
  Z"
/>
<path fill="#8c52ff" d="
  M 838.46 733.06
  C 829.26 737.08 818.51 740.38 808.52 739.22
  C 795.99 737.76 791.02 723.54 788.74 712.32
  C 785.53 696.56 785.63 680.40 787.14 664.51
  Q 788.97 645.32 792.95 626.62
  A 0.50 0.49 -77.2 0 1 793.54 626.24
  Q 825.77 633.32 858.49 636.72
  Q 859.75 636.85 860.65 638.08
  Q 880.09 664.73 902.22 689.01
  A 0.55 0.55 0.0 0 1 902.18 689.79
  C 882.99 707.05 861.77 722.89 838.46 733.06
  Z"
/>
<path fill="#8c52ff" d="
  M 1075.30 723.27
  C 1072.01 732.21 1066.45 739.14 1056.37 739.42
  Q 1048.19 739.64 1040.25 737.22
  Q 1023.61 732.12 1006.12 721.14
  Q 985.26 708.04 965.24 689.90
  A 0.76 0.76 0.0 0 1 965.19 688.82
  Q 987.93 663.78 1006.65 637.92
  A 2.67 2.65 14.6 0 1 1008.52 636.83
  Q 1040.69 633.45 1073.69 626.34
  Q 1074.13 626.24 1074.24 626.68
  Q 1076.78 637.19 1079.08 655.21
  Q 1081.80 676.60 1080.68 695.56
  Q 1079.76 711.15 1075.30 723.27
  Z"
/>
<path fill="#8c52ff" d="
  M 948.50 641.39
  L 933.99 658.09
  A 0.44 0.44 0.0 0 1 933.33 658.09
  L 918.66 641.34
  A 0.44 0.44 0.0 0 1 918.99 640.61
  L 948.17 640.66
  A 0.44 0.44 0.0 0 1 948.50 641.39
  Z"
/>
</svg>
