<?xml version="1.0" encoding="UTF-8" standalone="no"?>
<!DOCTYPE svg PUBLIC "-//W3C//DTD SVG 1.1//EN" "http://www.w3.org/Graphics/SVG/1.1/DTD/svg11.dtd">
<svg xmlns="http://www.w3.org/2000/svg" version="1.1" viewBox="0.00 0.00 1920.00 1080.00">
<g stroke-width="2.00" fill="none" stroke-linecap="butt">
<path stroke="#7d3dec" vector-effect="non-scaling-stroke" d="
  M 1435.72 135.48
  Q 1435.09 136.14 1435.54 137.28
  Q 1452.86 181.56 1450.56 228.78
  Q 1450.49 230.15 1449.12 248.72
  Q 1429.64 512.80 1409.39 785.99
  C 1405.36 840.37 1381.80 890.91 1344.29 930.26
  Q 1303.58 972.96 1248.23 992.64
  C 1225.86 1000.60 1202.24 1005.13 1178.63 1005.13
  Q 932.81 1005.09 684.93 1005.12
  Q 678.50 1005.12 672.33 1004.47
  Q 607.28 997.54 554.52 958.12
  Q 544.15 950.37 536.85 943.79
  Q 530.68 938.21 523.41 931.02
  Q 521.72 929.36 520.42 927.50
  Q 520.22 927.20 519.88 927.07
  Q 519.55 926.95 519.60 926.62
  Q 519.66 926.21 519.34 925.95
  Q 519.28 925.90 519.20 925.91
  Q 518.65 925.99 518.36 925.29
  Q 518.09 924.65 517.10 924.49"
/>
<path stroke="#c6a9ff" vector-effect="non-scaling-stroke" d="
  M 1013.00 242.65
  C 1010.66 238.67 1009.12 234.64 1006.22 230.79
  Q 1003.65 227.40 999.43 227.39
  Q 919.23 227.32 832.46 227.33
  Q 828.44 227.33 824.08 227.63
  Q 821.85 227.78 820.94 229.87
  C 819.21 233.84 816.60 237.33 814.83 241.09
  Q 813.21 244.50 811.68 247.19
  C 798.67 270.13 786.06 293.16 772.95 315.92
  Q 756.93 343.71 740.48 373.23
  Q 734.75 383.50 733.36 387.10
  Q 732.15 390.25 733.57 392.86
  C 739.82 404.37 745.78 416.09 752.70 427.19
  C 755.68 431.96 758.14 437.09 760.92 441.98
  Q 781.00 477.23 800.68 512.53
  C 802.35 515.53 803.68 518.59 805.49 521.50
  Q 813.83 534.97 820.94 547.24
  A 0.94 0.94 0.0 0 0 822.50 547.35
  Q 828.72 539.41 832.80 531.56
  C 841.09 515.65 849.70 500.82 859.16 484.71
  C 860.77 481.97 861.87 478.81 863.51 476.14
  Q 873.12 460.50 880.78 446.36
  Q 891.59 426.43 899.16 413.99
  Q 903.63 406.65 907.72 398.73
  C 908.98 396.29 912.43 390.73 915.53 390.74
  Q 993.00 390.99 1076.51 390.68
  Q 1084.47 390.65 1092.72 389.92
  A 1.26 1.26 0.0 0 0 1093.85 388.43
  C 1093.15 384.78 1091.62 380.94 1089.79 377.75
  Q 1073.63 349.61 1056.03 318.74
  C 1054.70 316.40 1053.00 313.96 1051.80 311.61
  Q 1043.12 294.71 1032.99 277.82
  C 1025.94 266.06 1019.89 254.39 1013.00 242.65"
/>
<path stroke="#c6a9ff" vector-effect="non-scaling-stroke" d="
  M 1035.39 524.17
  C 1033.28 520.43 1031.65 516.47 1029.39 512.94
  C 1025.03 506.11 1021.24 498.82 1017.47 491.77
  C 1014.60 486.41 1011.43 481.71 1007.71 477.04
  A 1.86 1.85 -41.8 0 0 1004.95 476.89
  Q 1001.78 480.06 999.71 483.71
  C 989.33 502.02 978.89 520.74 968.32 539.22
  Q 959.85 554.01 950.23 571.97
  Q 945.69 580.45 939.60 590.47
  C 936.13 596.19 933.13 602.20 930.06 608.06
  C 926.28 615.30 921.54 622.19 917.77 629.58
  Q 916.24 632.57 912.75 632.56
  Q 833.50 632.52 750.27 632.51
  C 745.19 632.51 740.04 632.80 734.96 633.31
  A 1.18 1.17 75.9 0 0 733.99 634.94
  Q 735.59 638.71 737.36 641.84
  Q 751.80 667.39 763.63 688.17
  C 769.82 699.05 775.90 710.43 782.26 721.31
  Q 787.41 730.13 792.22 738.64
  Q 803.88 759.28 817.04 783.10
  C 819.45 787.47 821.52 793.67 826.83 795.01
  Q 829.19 795.60 834.24 795.61
  Q 915.44 795.68 998.02 795.56
  C 1002.29 795.55 1005.64 794.04 1007.82 790.29
  C 1014.02 779.56 1020.35 768.95 1026.34 758.18
  Q 1065.02 688.54 1095.66 635.29
  Q 1096.37 634.05 1095.95 632.75
  Q 1094.65 628.79 1093.31 626.41
  Q 1078.83 600.82 1061.81 570.89
  Q 1049.23 548.76 1035.39 524.17"
/>
</g>
<path fill="#8c52ff" d="
  M 1435.72 135.48
  Q 1435.09 136.14 1435.54 137.28
  Q 1452.86 181.56 1450.56 228.78
  Q 1450.49 230.15 1449.12 248.72
  Q 1429.64 512.80 1409.39 785.99
  C 1405.36 840.37 1381.80 890.91 1344.29 930.26
  Q 1303.58 972.96 1248.23 992.64
  C 1225.86 1000.60 1202.24 1005.13 1178.63 1005.13
  Q 932.81 1005.09 684.93 1005.12
  Q 678.50 1005.12 672.33 1004.47
  Q 607.28 997.54 554.52 958.12
  Q 544.15 950.37 536.85 943.79
  Q 530.68 938.21 523.41 931.02
  Q 521.72 929.36 520.42 927.50
  Q 520.22 927.20 519.88 927.07
  Q 519.55 926.95 519.60 926.62
  Q 519.66 926.21 519.34 925.95
  Q 519.28 925.90 519.20 925.91
  Q 518.65 925.99 518.36 925.29
  Q 518.09 924.65 517.10 924.49
  C 515.97 922.65 514.90 920.85 513.50 919.22
  Q 478.53 878.36 464.61 825.37
  Q 463.35 820.58 462.58 815.85
  C 461.63 810.00 459.49 804.45 459.39 798.58
  C 459.29 793.04 457.96 787.64 457.73 782.03
  C 457.54 777.16 457.60 772.36 456.77 767.51
  C 456.31 764.84 455.78 762.26 455.71 759.54
  C 455.54 753.18 455.75 746.63 455.01 740.39
  Q 453.84 730.48 453.43 719.78
  C 453.27 715.47 452.03 711.14 451.95 706.76
  C 451.82 699.71 451.66 692.74 450.90 685.79
  Q 450.18 679.26 449.79 672.01
  C 449.52 666.88 448.44 661.81 448.29 656.32
  Q 447.73 635.60 445.86 618.98
  C 445.42 615.07 444.46 611.18 444.49 607.24
  Q 444.55 600.57 444.25 594.66
  C 443.99 589.78 442.98 585.00 442.86 579.90
  Q 442.74 574.99 442.50 570.11
  C 442.26 565.37 440.79 560.65 440.74 556.04
  Q 440.57 540.03 439.81 534.17
  Q 438.71 525.61 438.40 516.05
  C 438.26 511.71 436.88 507.18 436.88 502.59
  Q 436.89 492.94 436.16 485.57
  Q 435.44 478.34 435.01 471.82
  C 434.60 465.52 433.63 459.58 433.37 453.33
  C 432.79 439.59 432.31 425.44 430.25 411.83
  C 429.01 403.63 429.81 395.67 428.77 387.54
  Q 427.43 377.10 427.44 366.78
  Q 427.44 364.79 426.43 359.50
  C 425.47 354.42 425.58 349.19 425.56 343.98
  C 425.53 338.36 424.80 332.81 424.17 327.18
  C 423.46 320.90 423.74 314.63 422.76 308.41
  C 421.35 299.44 422.14 290.46 420.97 281.49
  C 420.13 275.10 420.23 268.94 419.21 262.65
  Q 418.00 255.27 418.12 245.92
  Q 418.17 242.12 417.16 233.62
  Q 416.18 225.26 416.23 210.75
  Q 416.25 201.67 417.23 196.10
  C 417.99 191.74 418.00 187.36 418.82 183.00
  C 420.55 173.82 422.49 164.41 425.12 155.90
  Q 439.67 108.85 472.94 74.61
  Q 511.92 34.51 565.91 20.08
  C 577.91 16.88 590.58 15.13 602.36 13.51
  Q 605.30 13.10 608.68 13.11
  Q 922.98 13.31 1257.40 13.15
  Q 1264.21 13.15 1270.05 14.15
  Q 1275.35 15.06 1280.35 15.74
  Q 1285.47 16.44 1290.62 17.54
  Q 1329.76 25.93 1363.78 48.68
  Q 1368.39 51.76 1372.20 54.94
  C 1375.75 57.92 1379.56 60.56 1383.00 63.88
  Q 1388.34 69.03 1393.26 73.88
  C 1410.19 90.55 1423.01 110.27 1433.29 132.19
  Q 1433.69 133.05 1435.72 135.48
  Z
  M 1013.00 242.65
  C 1010.66 238.67 1009.12 234.64 1006.22 230.79
  Q 1003.65 227.40 999.43 227.39
  Q 919.23 227.32 832.46 227.33
  Q 828.44 227.33 824.08 227.63
  Q 821.85 227.78 820.94 229.87
  C 819.21 233.84 816.60 237.33 814.83 241.09
  Q 813.21 244.50 811.68 247.19
  C 798.67 270.13 786.06 293.16 772.95 315.92
  Q 756.93 343.71 740.48 373.23
  Q 734.75 383.50 733.36 387.10
  Q 732.15 390.25 733.57 392.86
  C 739.82 404.37 745.78 416.09 752.70 427.19
  C 755.68 431.96 758.14 437.09 760.92 441.98
  Q 781.00 477.23 800.68 512.53
  C 802.35 515.53 803.68 518.59 805.49 521.50
  Q 813.83 534.97 820.94 547.24
  A 0.94 0.94 0.0 0 0 822.50 547.35
  Q 828.72 539.41 832.80 531.56
  C 841.09 515.65 849.70 500.82 859.16 484.71
  C 860.77 481.97 861.87 478.81 863.51 476.14
  Q 873.12 460.50 880.78 446.36
  Q 891.59 426.43 899.16 413.99
  Q 903.63 406.65 907.72 398.73
  C 908.98 396.29 912.43 390.73 915.53 390.74
  Q 993.00 390.99 1076.51 390.68
  Q 1084.47 390.65 1092.72 389.92
  A 1.26 1.26 0.0 0 0 1093.85 388.43
  C 1093.15 384.78 1091.62 380.94 1089.79 377.75
  Q 1073.63 349.61 1056.03 318.74
  C 1054.70 316.40 1053.00 313.96 1051.80 311.61
  Q 1043.12 294.71 1032.99 277.82
  C 1025.94 266.06 1019.89 254.39 1013.00 242.65
  Z
  M 1035.39 524.17
  C 1033.28 520.43 1031.65 516.47 1029.39 512.94
  C 1025.03 506.11 1021.24 498.82 1017.47 491.77
  C 1014.60 486.41 1011.43 481.71 1007.71 477.04
  A 1.86 1.85 -41.8 0 0 1004.95 476.89
  Q 1001.78 480.06 999.71 483.71
  C 989.33 502.02 978.89 520.74 968.32 539.22
  Q 959.85 554.01 950.23 571.97
  Q 945.69 580.45 939.60 590.47
  C 936.13 596.19 933.13 602.20 930.06 608.06
  C 926.28 615.30 921.54 622.19 917.77 629.58
  Q 916.24 632.57 912.75 632.56
  Q 833.50 632.52 750.27 632.51
  C 745.19 632.51 740.04 632.80 734.96 633.31
  A 1.18 1.17 75.9 0 0 733.99 634.94
  Q 735.59 638.71 737.36 641.84
  Q 751.80 667.39 763.63 688.17
  C 769.82 699.05 775.90 710.43 782.26 721.31
  Q 787.41 730.13 792.22 738.64
  Q 803.88 759.28 817.04 783.10
  C 819.45 787.47 821.52 793.67 826.83 795.01
  Q 829.19 795.60 834.24 795.61
  Q 915.44 795.68 998.02 795.56
  C 1002.29 795.55 1005.64 794.04 1007.82 790.29
  C 1014.02 779.56 1020.35 768.95 1026.34 758.18
  Q 1065.02 688.54 1095.66 635.29
  Q 1096.37 634.05 1095.95 632.75
  Q 1094.65 628.79 1093.31 626.41
  Q 1078.83 600.82 1061.81 570.89
  Q 1049.23 548.76 1035.39 524.17
  Z"
/>
<path fill="#6d27d9" d="
  M 1435.72 135.48
  Q 1473.09 176.96 1483.93 231.73
  Q 1484.89 236.62 1485.74 241.06
  C 1486.89 247.08 1487.05 253.05 1487.77 259.00
  C 1488.90 268.35 1488.71 278.26 1487.68 287.46
  C 1486.60 297.17 1487.03 306.85 1485.71 316.25
  C 1484.78 322.80 1485.18 329.30 1484.33 335.82
  Q 1483.00 345.91 1482.98 356.23
  C 1482.96 361.00 1481.38 367.13 1481.39 372.64
  Q 1481.41 380.55 1480.35 387.17
  Q 1479.44 392.90 1479.41 399.03
  C 1479.39 403.85 1479.42 408.92 1478.54 413.51
  Q 1478.23 415.17 1478.12 416.94
  Q 1477.26 430.77 1476.12 444.57
  Q 1475.54 451.65 1475.43 458.21
  C 1475.34 464.48 1473.64 470.43 1473.68 476.86
  Q 1473.73 483.88 1472.74 490.51
  Q 1471.85 496.53 1471.83 502.12
  Q 1471.81 510.99 1470.49 521.04
  C 1469.86 525.89 1470.32 531.66 1469.66 535.87
  Q 1468.18 545.24 1468.12 553.13
  Q 1468.08 559.39 1467.36 564.92
  Q 1466.39 572.40 1466.27 579.34
  Q 1466.17 585.07 1465.29 591.31
  Q 1464.23 598.82 1464.27 608.60
  C 1464.28 611.53 1463.81 614.64 1463.56 617.53
  Q 1461.91 636.73 1460.72 655.12
  Q 1460.55 657.77 1460.48 660.96
  C 1460.35 667.27 1458.70 673.35 1458.75 679.68
  Q 1458.81 686.59 1457.79 693.50
  C 1456.65 701.25 1457.16 708.77 1456.27 716.16
  Q 1455.22 724.76 1455.00 732.55
  Q 1454.84 738.08 1454.02 744.48
  Q 1453.01 752.33 1452.93 761.21
  Q 1452.89 764.99 1452.08 770.27
  C 1451.29 775.35 1451.27 780.28 1451.18 785.35
  C 1451.10 789.97 1449.72 794.65 1449.65 799.07
  Q 1449.50 808.51 1448.78 816.49
  Q 1448.38 820.89 1448.10 825.53
  Q 1446.69 848.55 1443.96 864.53
  Q 1434.37 920.69 1398.18 967.52
  Q 1392.83 974.44 1385.59 982.70
  Q 1378.42 990.89 1371.57 997.10
  Q 1364.73 1003.30 1357.45 1009.17
  Q 1312.33 1045.51 1255.99 1057.51
  C 1241.48 1060.60 1227.64 1061.59 1212.06 1061.58
  Q 963.50 1061.47 724.14 1061.53
  Q 706.72 1061.53 691.45 1058.65
  Q 645.21 1049.91 605.98 1024.66
  Q 578.02 1006.66 556.68 982.89
  Q 552.49 978.21 548.20 973.16
  C 535.83 958.59 525.50 941.62 517.10 924.49
  Q 518.09 924.65 518.36 925.29
  Q 518.65 925.99 519.20 925.91
  Q 519.28 925.90 519.34 925.95
  Q 519.66 926.21 519.60 926.62
  Q 519.55 926.95 519.88 927.07
  Q 520.22 927.20 520.42 927.50
  Q 521.72 929.36 523.41 931.02
  Q 530.68 938.21 536.85 943.79
  Q 544.15 950.37 554.52 958.12
  Q 607.28 997.54 672.33 1004.47
  Q 678.50 1005.12 684.93 1005.12
  Q 932.81 1005.09 1178.63 1005.13
  C 1202.24 1005.13 1225.86 1000.60 1248.23 992.64
  Q 1303.58 972.96 1344.29 930.26
  C 1381.80 890.91 1405.36 840.37 1409.39 785.99
  Q 1429.64 512.80 1449.12 248.72
  Q 1450.49 230.15 1450.56 228.78
  Q 1452.86 181.56 1435.54 137.28
  Q 1435.09 136.14 1435.72 135.48
  Z"
/>
<path fill="#ffffff" d="
  M 1013.00 242.65
  C 1019.89 254.39 1025.94 266.06 1032.99 277.82
  Q 1043.12 294.71 1051.80 311.61
  C 1053.00 313.96 1054.70 316.40 1056.03 318.74
  Q 1073.63 349.61 1089.79 377.75
  C 1091.62 380.94 1093.15 384.78 1093.85 388.43
  A 1.26 1.26 0.0 0 1 1092.72 389.92
  Q 1084.47 390.65 1076.51 390.68
  Q 993.00 390.99 915.53 390.74
  C 912.43 390.73 908.98 396.29 907.72 398.73
  Q 903.63 406.65 899.16 413.99
  Q 891.59 426.43 880.78 446.36
  Q 873.12 460.50 863.51 476.14
  C 861.87 478.81 860.77 481.97 859.16 484.71
  C 849.70 500.82 841.09 515.65 832.80 531.56
  Q 828.72 539.41 822.50 547.35
  A 0.94 0.94 0.0 0 1 820.94 547.24
  Q 813.83 534.97 805.49 521.50
  C 803.68 518.59 802.35 515.53 800.68 512.53
  Q 781.00 477.23 760.92 441.98
  C 758.14 437.09 755.68 431.96 752.70 427.19
  C 745.78 416.09 739.82 404.37 733.57 392.86
  Q 732.15 390.25 733.36 387.10
  Q 734.75 383.50 740.48 373.23
  Q 756.93 343.71 772.95 315.92
  C 786.06 293.16 798.67 270.13 811.68 247.19
  Q 813.21 244.50 814.83 241.09
  C 816.60 237.33 819.21 233.84 820.94 229.87
  Q 821.85 227.78 824.08 227.63
  Q 828.44 227.33 832.46 227.33
  Q 919.23 227.32 999.43 227.39
  Q 1003.65 227.40 1006.22 230.79
  C 1009.12 234.64 1010.66 238.67 1013.00 242.65
  Z"
/>
<path fill="#ffffff" d="
  M 1035.39 524.17
  Q 1049.23 548.76 1061.81 570.89
  Q 1078.83 600.82 1093.31 626.41
  Q 1094.65 628.79 1095.95 632.75
  Q 1096.37 634.05 1095.66 635.29
  Q 1065.02 688.54 1026.34 758.18
  C 1020.35 768.95 1014.02 779.56 1007.82 790.29
  C 1005.64 794.04 1002.29 795.55 998.02 795.56
  Q 915.44 795.68 834.24 795.61
  Q 829.19 795.60 826.83 795.01
  C 821.52 793.67 819.45 787.47 817.04 783.10
  Q 803.88 759.28 792.22 738.64
  Q 787.41 730.13 782.26 721.31
  C 775.90 710.43 769.82 699.05 763.63 688.17
  Q 751.80 667.39 737.36 641.84
  Q 735.59 638.71 733.99 634.94
  A 1.18 1.17 75.9 0 1 734.96 633.31
  C 740.04 632.80 745.19 632.51 750.27 632.51
  Q 833.50 632.52 912.75 632.56
  Q 916.24 632.57 917.77 629.58
  C 921.54 622.19 926.28 615.30 930.06 608.06
  C 933.13 602.20 936.13 596.19 939.60 590.47
  Q 945.69 580.45 950.23 571.97
  Q 959.85 554.01 968.32 539.22
  C 978.89 520.74 989.33 502.02 999.71 483.71
  Q 1001.78 480.06 1004.95 476.89
  A 1.86 1.85 -41.8 0 1 1007.71 477.04
  C 1011.43 481.71 1014.60 486.41 1017.47 491.77
  C 1021.24 498.82 1025.03 506.11 1029.39 512.94
  C 1031.65 516.47 1033.28 520.43 1035.39 524.17
  Z"
/>
</svg>
