<?xml version="1.0" encoding="UTF-8" standalone="no"?>
<!DOCTYPE svg PUBLIC "-//W3C//DTD SVG 1.1//EN" "http://www.w3.org/Graphics/SVG/1.1/DTD/svg11.dtd">
<svg xmlns="http://www.w3.org/2000/svg" version="1.1" viewBox="0.00 0.00 1920.00 1080.00">
<g stroke-width="2.00" fill="none" stroke-linecap="butt">
<path stroke="#7d3dec" vector-effect="non-scaling-stroke" d="
  M 1435.29 135.21
  Q 1434.96 136.19 1435.28 136.98
  Q 1450.98 175.54 1450.94 216.94
  Q 1450.93 223.81 1449.97 236.92
  Q 1430.27 503.90 1410.65 769.29
  Q 1409.24 788.38 1409.16 789.21
  Q 1402.72 856.61 1361.40 910.22
  Q 1311.68 974.71 1232.37 997.64
  C 1222.09 1000.62 1210.70 1002.25 1200.03 1003.76
  Q 1191.08 1005.03 1182.74 1005.02
  Q 940.28 1004.97 689.51 1005.03
  Q 679.57 1005.04 670.53 1004.19
  Q 655.06 1002.75 639.23 998.75
  Q 589.73 986.26 547.77 953.03
  Q 532.40 940.87 518.71 925.51
  A 0.14 0.14 0.0 0 0 518.48 925.53
  Q 518.36 925.75 518.62 925.81
  A 0.04 0.04 0.0 0 1 518.62 925.88
  Q 518.38 925.92 517.95 925.63"
/>
<path stroke="#c6a9ff" vector-effect="non-scaling-stroke" d="
  M 779.61 341.81
  C 760.07 366.93 746.73 398.23 738.90 429.78
  Q 738.59 431.04 739.38 430.01
  C 749.34 416.96 760.39 405.07 773.00 395.07
  Q 813.63 362.87 863.03 370.18
  Q 873.79 371.77 882.60 374.84
  C 904.46 382.45 922.55 398.02 938.59 414.13
  C 953.71 429.32 968.55 445.05 985.29 459.30
  Q 1023.80 492.10 1070.51 502.79
  Q 1094.44 508.27 1121.53 509.04
  Q 1155.84 510.01 1188.20 502.30
  Q 1204.01 498.54 1217.46 492.80
  C 1252.82 477.72 1280.33 451.57 1298.84 418.15
  Q 1314.78 389.36 1323.39 354.58
  Q 1323.69 353.40 1322.88 354.30
  Q 1321.84 355.45 1320.86 356.75
  Q 1305.60 376.99 1286.34 391.45
  Q 1240.37 425.94 1184.39 410.80
  C 1169.29 406.71 1154.77 397.52 1142.89 387.40
  Q 1128.85 375.44 1111.03 357.10
  C 1085.42 330.77 1058.28 305.75 1023.75 291.63
  Q 1004.58 283.79 986.87 280.26
  Q 939.89 270.92 890.27 278.52
  C 874.37 280.95 858.03 285.69 843.42 292.09
  Q 805.32 308.78 779.61 341.81"
/>
<path stroke="#c6a9ff" vector-effect="non-scaling-stroke" d="
  M 575.72 588.03
  C 560.74 610.80 550.65 636.66 543.80 663.68
  Q 543.74 663.91 543.90 664.10
  A 0.28 0.27 -46.9 0 0 544.33 664.08
  C 560.38 642.32 581.59 622.44 606.57 611.76
  Q 643.12 596.12 683.24 607.52
  C 701.16 612.61 718.00 624.37 731.27 636.73
  Q 745.95 650.40 762.02 666.87
  C 771.52 676.61 780.98 685.50 791.11 694.08
  Q 835.96 732.04 893.55 740.21
  Q 930.48 745.45 970.06 740.75
  C 982.02 739.32 993.75 736.58 1005.26 733.04
  Q 1048.07 719.86 1077.93 687.83
  C 1094.00 670.60 1106.50 649.72 1115.41 627.98
  Q 1122.25 611.31 1128.40 589.03
  Q 1128.49 588.68 1128.41 588.32
  A 0.35 0.35 0.0 0 0 1127.79 588.20
  C 1106.53 616.85 1076.66 641.90 1041.05 647.76
  C 1017.03 651.71 989.77 648.24 968.33 635.87
  C 954.52 627.90 942.39 617.40 931.03 606.13
  Q 916.17 591.37 900.45 575.75
  C 872.19 547.66 839.55 525.80 801.28 516.52
  Q 785.55 512.70 773.97 511.24
  Q 743.31 507.38 710.36 510.43
  C 699.29 511.46 687.85 513.63 677.27 516.26
  Q 612.38 532.34 575.72 588.03"
/>
</g>
<path fill="#8c52ff" d="
  M 1435.29 135.21
  Q 1434.96 136.19 1435.28 136.98
  Q 1450.98 175.54 1450.94 216.94
  Q 1450.93 223.81 1449.97 236.92
  Q 1430.27 503.90 1410.65 769.29
  Q 1409.24 788.38 1409.16 789.21
  Q 1402.72 856.61 1361.40 910.22
  Q 1311.68 974.71 1232.37 997.64
  C 1222.09 1000.62 1210.70 1002.25 1200.03 1003.76
  Q 1191.08 1005.03 1182.74 1005.02
  Q 940.28 1004.97 689.51 1005.03
  Q 679.57 1005.04 670.53 1004.19
  Q 655.06 1002.75 639.23 998.75
  Q 589.73 986.26 547.77 953.03
  Q 532.40 940.87 518.71 925.51
  A 0.14 0.14 0.0 0 0 518.48 925.53
  Q 518.36 925.75 518.62 925.81
  A 0.04 0.04 0.0 0 1 518.62 925.88
  Q 518.38 925.92 517.95 925.63
  Q 514.58 920.37 510.49 915.40
  Q 503.69 907.13 502.57 905.58
  C 477.75 871.54 462.22 831.82 458.56 789.75
  Q 456.42 765.11 453.70 727.64
  Q 446.52 628.54 437.92 513.00
  Q 434.81 471.21 417.80 239.63
  Q 415.96 214.61 417.24 198.77
  Q 421.41 147.15 449.46 103.79
  Q 454.59 95.85 461.03 87.98
  Q 502.87 36.81 567.42 19.79
  Q 574.07 18.04 582.59 16.63
  Q 590.32 15.34 597.85 14.50
  C 606.41 13.53 616.54 13.21 625.62 13.21
  Q 935.94 13.24 1246.55 13.18
  C 1263.03 13.18 1279.44 15.23 1294.64 18.66
  C 1322.67 24.99 1350.05 37.61 1373.04 55.56
  Q 1412.49 86.37 1433.28 132.48
  Q 1433.88 133.80 1435.29 135.21
  Z
  M 779.61 341.81
  C 760.07 366.93 746.73 398.23 738.90 429.78
  Q 738.59 431.04 739.38 430.01
  C 749.34 416.96 760.39 405.07 773.00 395.07
  Q 813.63 362.87 863.03 370.18
  Q 873.79 371.77 882.60 374.84
  C 904.46 382.45 922.55 398.02 938.59 414.13
  C 953.71 429.32 968.55 445.05 985.29 459.30
  Q 1023.80 492.10 1070.51 502.79
  Q 1094.44 508.27 1121.53 509.04
  Q 1155.84 510.01 1188.20 502.30
  Q 1204.01 498.54 1217.46 492.80
  C 1252.82 477.72 1280.33 451.57 1298.84 418.15
  Q 1314.78 389.36 1323.39 354.58
  Q 1323.69 353.40 1322.88 354.30
  Q 1321.84 355.45 1320.86 356.75
  Q 1305.60 376.99 1286.34 391.45
  Q 1240.37 425.94 1184.39 410.80
  C 1169.29 406.71 1154.77 397.52 1142.89 387.40
  Q 1128.85 375.44 1111.03 357.10
  C 1085.42 330.77 1058.28 305.75 1023.75 291.63
  Q 1004.58 283.79 986.87 280.26
  Q 939.89 270.92 890.27 278.52
  C 874.37 280.95 858.03 285.69 843.42 292.09
  Q 805.32 308.78 779.61 341.81
  Z
  M 575.72 588.03
  C 560.74 610.80 550.65 636.66 543.80 663.68
  Q 543.74 663.91 543.90 664.10
  A 0.28 0.27 -46.9 0 0 544.33 664.08
  C 560.38 642.32 581.59 622.44 606.57 611.76
  Q 643.12 596.12 683.24 607.52
  C 701.16 612.61 718.00 624.37 731.27 636.73
  Q 745.95 650.40 762.02 666.87
  C 771.52 676.61 780.98 685.50 791.11 694.08
  Q 835.96 732.04 893.55 740.21
  Q 930.48 745.45 970.06 740.75
  C 982.02 739.32 993.75 736.58 1005.26 733.04
  Q 1048.07 719.86 1077.93 687.83
  C 1094.00 670.60 1106.50 649.72 1115.41 627.98
  Q 1122.25 611.31 1128.40 589.03
  Q 1128.49 588.68 1128.41 588.32
  A 0.35 0.35 0.0 0 0 1127.79 588.20
  C 1106.53 616.85 1076.66 641.90 1041.05 647.76
  C 1017.03 651.71 989.77 648.24 968.33 635.87
  C 954.52 627.90 942.39 617.40 931.03 606.13
  Q 916.17 591.37 900.45 575.75
  C 872.19 547.66 839.55 525.80 801.28 516.52
  Q 785.55 512.70 773.97 511.24
  Q 743.31 507.38 710.36 510.43
  C 699.29 511.46 687.85 513.63 677.27 516.26
  Q 612.38 532.34 575.72 588.03
  Z"
/>
<path fill="#6d27d8" d="
  M 1435.29 135.21
  Q 1465.88 168.95 1478.86 210.70
  Q 1490.77 249.03 1487.37 290.77
  Q 1486.64 299.64 1486.64 299.73
  Q 1483.70 340.59 1480.81 379.50
  Q 1470.23 521.67 1459.79 663.25
  Q 1455.42 722.63 1451.31 778.76
  Q 1449.00 810.34 1446.58 841.52
  Q 1445.63 853.67 1444.40 861.40
  Q 1438.09 900.91 1418.95 935.66
  Q 1393.28 982.27 1350.93 1014.05
  Q 1321.97 1035.79 1290.24 1047.44
  Q 1283.19 1050.03 1275.22 1052.49
  C 1254.79 1058.78 1233.23 1061.81 1211.77 1061.82
  Q 972.80 1061.93 729.50 1061.86
  Q 718.91 1061.86 709.67 1060.94
  Q 667.28 1056.73 630.20 1038.35
  Q 577.25 1012.09 541.49 964.54
  Q 527.81 946.34 517.95 925.63
  Q 518.38 925.92 518.62 925.88
  A 0.04 0.04 0.0 0 0 518.62 925.81
  Q 518.36 925.75 518.48 925.53
  A 0.14 0.14 0.0 0 1 518.71 925.51
  Q 532.40 940.87 547.77 953.03
  Q 589.73 986.26 639.23 998.75
  Q 655.06 1002.75 670.53 1004.19
  Q 679.57 1005.04 689.51 1005.03
  Q 940.28 1004.97 1182.74 1005.02
  Q 1191.08 1005.03 1200.03 1003.76
  C 1210.70 1002.25 1222.09 1000.62 1232.37 997.64
  Q 1311.68 974.71 1361.40 910.22
  Q 1402.72 856.61 1409.16 789.21
  Q 1409.24 788.38 1410.65 769.29
  Q 1430.27 503.90 1449.97 236.92
  Q 1450.93 223.81 1450.94 216.94
  Q 1450.98 175.54 1435.28 136.98
  Q 1434.96 136.19 1435.29 135.21
  Z"
/>
<path fill="#ffffff" d="
  M 738.90 429.78
  C 746.73 398.23 760.07 366.93 779.61 341.81
  Q 805.32 308.78 843.42 292.09
  C 858.03 285.69 874.37 280.95 890.27 278.52
  Q 939.89 270.92 986.87 280.26
  Q 1004.58 283.79 1023.75 291.63
  C 1058.28 305.75 1085.42 330.77 1111.03 357.10
  Q 1128.85 375.44 1142.89 387.40
  C 1154.77 397.52 1169.29 406.71 1184.39 410.80
  Q 1240.37 425.94 1286.34 391.45
  Q 1305.60 376.99 1320.86 356.75
  Q 1321.84 355.45 1322.88 354.30
  Q 1323.69 353.40 1323.39 354.58
  Q 1314.78 389.36 1298.84 418.15
  C 1280.33 451.57 1252.82 477.72 1217.46 492.80
  Q 1204.01 498.54 1188.20 502.30
  Q 1155.84 510.01 1121.53 509.04
  Q 1094.44 508.27 1070.51 502.79
  Q 1023.80 492.10 985.29 459.30
  C 968.55 445.05 953.71 429.32 938.59 414.13
  C 922.55 398.02 904.46 382.45 882.60 374.84
  Q 873.79 371.77 863.03 370.18
  Q 813.63 362.87 773.00 395.07
  C 760.39 405.07 749.34 416.96 739.38 430.01
  Q 738.59 431.04 738.90 429.78
  Z"
/>
<path fill="#ffffff" d="
  M 543.80 663.68
  C 550.65 636.66 560.74 610.80 575.72 588.03
  Q 612.38 532.34 677.27 516.26
  C 687.85 513.63 699.29 511.46 710.36 510.43
  Q 743.31 507.38 773.97 511.24
  Q 785.55 512.70 801.28 516.52
  C 839.55 525.80 872.19 547.66 900.45 575.75
  Q 916.17 591.37 931.03 606.13
  C 942.39 617.40 954.52 627.90 968.33 635.87
  C 989.77 648.24 1017.03 651.71 1041.05 647.76
  C 1076.66 641.90 1106.53 616.85 1127.79 588.20
  A 0.35 0.35 0.0 0 1 1128.41 588.32
  Q 1128.49 588.68 1128.40 589.03
  Q 1122.25 611.31 1115.41 627.98
  C 1106.50 649.72 1094.00 670.60 1077.93 687.83
  Q 1048.07 719.86 1005.26 733.04
  C 993.75 736.58 982.02 739.32 970.06 740.75
  Q 930.48 745.45 893.55 740.21
  Q 835.96 732.04 791.11 694.08
  C 780.98 685.50 771.52 676.61 762.02 666.87
  Q 745.95 650.40 731.27 636.73
  C 718.00 624.37 701.16 612.61 683.24 607.52
  Q 643.12 596.12 606.57 611.76
  C 581.59 622.44 560.38 642.32 544.33 664.08
  A 0.28 0.27 -46.9 0 1 543.90 664.10
  Q 543.74 663.91 543.80 663.68
  Z"
/>
</svg>
