<?xml version="1.0" encoding="UTF-8" standalone="no"?>
<!DOCTYPE svg PUBLIC "-//W3C//DTD SVG 1.1//EN" "http://www.w3.org/Graphics/SVG/1.1/DTD/svg11.dtd">
<svg xmlns="http://www.w3.org/2000/svg" version="1.1" viewBox="0.00 0.00 1920.00 1080.00">
<g stroke-width="2.00" fill="none" stroke-linecap="butt">
<path stroke="#7d3dec" vector-effect="non-scaling-stroke" d="
  M 1435.20 135.43
  Q 1452.82 181.21 1450.55 228.78
  Q 1450.47 230.41 1449.12 248.73
  Q 1429.46 515.25 1409.76 781.78
  Q 1408.82 794.42 1407.74 801.68
  Q 1399.25 858.40 1365.50 904.75
  Q 1320.34 966.77 1247.60 992.88
  Q 1224.52 1001.17 1198.78 1004.03
  Q 1188.93 1005.13 1178.09 1005.13
  Q 931.31 1005.12 684.96 1005.12
  Q 679.09 1005.12 673.14 1004.51
  Q 620.29 999.17 575.31 972.10
  Q 558.68 962.10 543.29 949.41
  Q 538.08 945.12 530.52 937.75
  Q 524.46 931.83 518.01 925.76"
/>
<path stroke="#c6a9ff" vector-effect="non-scaling-stroke" d="
  M 1216.18 560.95
  C 1200.74 596.94 1173.05 623.56 1136.57 636.99
  C 1081.02 657.44 1018.36 647.40 964.72 625.17
  Q 934.89 612.81 905.47 594.40
  Q 896.92 589.06 889.07 583.04
  C 851.98 554.62 819.63 518.36 801.27 475.02
  C 788.02 443.75 783.00 409.95 789.22 376.97
  C 794.27 350.17 807.10 325.49 825.78 305.83
  C 845.90 284.65 871.73 270.12 900.78 261.44
  Q 943.60 248.66 986.04 255.32
  Q 1035.28 263.05 1076.77 290.08
  C 1106.24 309.28 1134.32 337.50 1144.34 372.03
  C 1150.28 392.51 1148.36 414.68 1137.13 432.62
  C 1118.24 462.80 1083.97 473.06 1049.97 468.32
  Q 1012.43 463.10 981.06 439.81
  C 962.44 425.99 946.88 406.95 940.29 384.50
  Q 935.50 368.17 938.41 350.21
  C 940.16 339.47 946.66 325.01 956.80 320.02
  C 960.34 318.28 963.78 319.39 964.00 323.60
  Q 964.28 328.83 962.76 333.65
  Q 957.32 351.02 963.14 366.76
  C 974.68 397.96 1010.71 416.88 1042.04 419.42
  C 1059.92 420.87 1078.81 416.17 1090.88 402.53
  Q 1103.50 388.28 1102.02 369.49
  C 1100.42 349.08 1084.12 332.41 1067.62 321.56
  C 1046.61 307.75 1021.29 299.09 996.37 295.84
  C 978.01 293.44 959.10 293.85 941.87 299.75
  C 931.93 303.15 924.10 307.98 916.98 315.67
  Q 906.32 327.17 900.08 338.61
  C 868.65 396.19 912.58 451.59 958.89 481.79
  Q 1001.05 509.28 1048.72 517.34
  C 1089.50 524.23 1134.71 517.72 1162.73 484.53
  C 1178.83 465.46 1184.86 440.53 1181.98 415.48
  C 1179.26 391.77 1169.50 369.20 1156.11 349.15
  C 1127.20 305.86 1083.09 272.82 1034.81 254.27
  Q 992.37 237.97 948.72 238.03
  C 916.89 238.08 885.57 242.00 856.10 251.05
  C 796.56 269.34 745.97 307.30 713.06 359.99
  Q 684.17 406.23 676.59 460.22
  C 665.15 541.71 694.10 621.89 753.50 678.65
  C 783.24 707.07 815.78 731.52 851.47 751.01
  C 864.52 758.14 878.11 764.55 891.55 771.15
  Q 896.67 773.65 900.69 776.87
  C 904.10 779.60 903.99 784.39 899.42 785.92
  C 893.34 787.95 884.76 786.62 878.65 785.33
  Q 858.76 781.11 836.23 772.38
  Q 804.62 760.12 775.36 743.94
  Q 750.15 730.01 729.19 713.45
  Q 729.18 713.44 729.17 713.46
  L 728.98 713.66
  Q 728.89 713.76 728.98 713.87
  Q 754.82 742.47 786.00 763.50
  Q 829.87 793.07 882.43 804.34
  Q 892.15 806.42 902.10 807.66
  Q 949.05 813.46 991.96 804.67
  Q 1084.79 785.65 1149.82 716.35
  Q 1155.99 709.78 1162.69 701.32
  C 1196.69 658.36 1217.22 606.93 1220.66 552.75
  Q 1220.77 551.00 1220.60 549.28
  Q 1220.51 548.45 1220.29 549.26
  Q 1218.69 555.10 1216.18 560.95"
/>
</g>
<path fill="#8c52ff" d="
  M 1435.20 135.43
  Q 1452.82 181.21 1450.55 228.78
  Q 1450.47 230.41 1449.12 248.73
  Q 1429.46 515.25 1409.76 781.78
  Q 1408.82 794.42 1407.74 801.68
  Q 1399.25 858.40 1365.50 904.75
  Q 1320.34 966.77 1247.60 992.88
  Q 1224.52 1001.17 1198.78 1004.03
  Q 1188.93 1005.13 1178.09 1005.13
  Q 931.31 1005.12 684.96 1005.12
  Q 679.09 1005.12 673.14 1004.51
  Q 620.29 999.17 575.31 972.10
  Q 558.68 962.10 543.29 949.41
  Q 538.08 945.12 530.52 937.75
  Q 524.46 931.83 518.01 925.76
  Q 517.08 924.63 516.06 922.82
  Q 515.17 921.24 514.07 919.89
  Q 508.76 913.39 504.33 907.60
  Q 483.47 880.40 471.13 846.03
  Q 465.10 829.22 463.31 819.23
  Q 462.01 811.91 460.47 805.86
  Q 459.45 801.87 459.35 797.98
  C 459.20 792.38 457.82 786.81 457.76 781.27
  Q 457.66 772.24 456.43 765.11
  Q 455.55 760.01 455.61 754.95
  Q 455.71 746.02 454.81 737.92
  Q 453.92 729.90 453.68 723.11
  C 453.44 716.32 451.89 710.00 451.87 703.26
  Q 451.83 694.04 450.96 685.67
  Q 450.30 679.44 449.95 673.29
  C 449.63 667.80 448.54 662.22 448.38 656.72
  C 447.96 642.48 447.38 627.87 445.20 613.83
  C 443.90 605.44 444.96 597.22 443.73 588.65
  C 442.56 580.52 443.20 572.18 441.88 564.56
  C 440.34 555.61 440.58 546.44 440.25 537.25
  C 440.09 532.83 439.01 528.20 438.90 523.68
  Q 438.74 517.04 437.80 510.80
  C 436.55 502.54 436.96 494.58 436.33 486.61
  Q 435.42 475.23 434.30 463.70
  Q 433.29 453.43 432.95 443.66
  Q 432.31 425.53 430.33 412.11
  Q 429.39 405.77 429.46 400.00
  Q 429.54 392.95 428.72 386.91
  C 427.49 377.97 428.06 368.64 426.59 360.06
  C 424.85 349.92 426.08 339.69 424.55 329.50
  Q 423.87 324.99 423.80 320.46
  Q 423.70 313.25 422.53 305.85
  Q 421.89 301.79 421.87 298.08
  C 421.83 291.68 421.67 285.35 420.81 278.78
  C 420.13 273.52 420.17 268.16 419.44 263.00
  C 417.99 252.90 418.15 242.65 417.38 232.60
  C 416.49 221.04 416.14 208.56 417.37 196.77
  Q 417.90 191.69 418.46 186.16
  Q 419.25 178.39 423.34 162.85
  C 432.09 129.58 448.89 99.53 472.61 75.01
  Q 513.25 33.02 570.33 19.04
  Q 584.49 15.57 605.01 13.30
  Q 606.39 13.15 611.75 13.15
  Q 952.90 13.24 1257.25 13.14
  C 1260.91 13.14 1264.47 13.28 1268.12 13.99
  C 1272.40 14.82 1276.75 15.14 1281.04 15.84
  Q 1326.12 23.19 1365.12 49.71
  Q 1368.74 52.17 1372.96 55.52
  Q 1376.86 58.62 1380.60 61.90
  C 1390.40 70.50 1401.01 81.05 1408.82 91.44
  Q 1421.68 108.56 1428.36 122.13
  Q 1433.36 132.28 1435.20 135.43
  Z
  M 1216.18 560.95
  C 1200.74 596.94 1173.05 623.56 1136.57 636.99
  C 1081.02 657.44 1018.36 647.40 964.72 625.17
  Q 934.89 612.81 905.47 594.40
  Q 896.92 589.06 889.07 583.04
  C 851.98 554.62 819.63 518.36 801.27 475.02
  C 788.02 443.75 783.00 409.95 789.22 376.97
  C 794.27 350.17 807.10 325.49 825.78 305.83
  C 845.90 284.65 871.73 270.12 900.78 261.44
  Q 943.60 248.66 986.04 255.32
  Q 1035.28 263.05 1076.77 290.08
  C 1106.24 309.28 1134.32 337.50 1144.34 372.03
  C 1150.28 392.51 1148.36 414.68 1137.13 432.62
  C 1118.24 462.80 1083.97 473.06 1049.97 468.32
  Q 1012.43 463.10 981.06 439.81
  C 962.44 425.99 946.88 406.95 940.29 384.50
  Q 935.50 368.17 938.41 350.21
  C 940.16 339.47 946.66 325.01 956.80 320.02
  C 960.34 318.28 963.78 319.39 964.00 323.60
  Q 964.28 328.83 962.76 333.65
  Q 957.32 351.02 963.14 366.76
  C 974.68 397.96 1010.71 416.88 1042.04 419.42
  C 1059.92 420.87 1078.81 416.17 1090.88 402.53
  Q 1103.50 388.28 1102.02 369.49
  C 1100.42 349.08 1084.12 332.41 1067.62 321.56
  C 1046.61 307.75 1021.29 299.09 996.37 295.84
  C 978.01 293.44 959.10 293.85 941.87 299.75
  C 931.93 303.15 924.10 307.98 916.98 315.67
  Q 906.32 327.17 900.08 338.61
  C 868.65 396.19 912.58 451.59 958.89 481.79
  Q 1001.05 509.28 1048.72 517.34
  C 1089.50 524.23 1134.71 517.72 1162.73 484.53
  C 1178.83 465.46 1184.86 440.53 1181.98 415.48
  C 1179.26 391.77 1169.50 369.20 1156.11 349.15
  C 1127.20 305.86 1083.09 272.82 1034.81 254.27
  Q 992.37 237.97 948.72 238.03
  C 916.89 238.08 885.57 242.00 856.10 251.05
  C 796.56 269.34 745.97 307.30 713.06 359.99
  Q 684.17 406.23 676.59 460.22
  C 665.15 541.71 694.10 621.89 753.50 678.65
  C 783.24 707.07 815.78 731.52 851.47 751.01
  C 864.52 758.14 878.11 764.55 891.55 771.15
  Q 896.67 773.65 900.69 776.87
  C 904.10 779.60 903.99 784.39 899.42 785.92
  C 893.34 787.95 884.76 786.62 878.65 785.33
  Q 858.76 781.11 836.23 772.38
  Q 804.62 760.12 775.36 743.94
  Q 750.15 730.01 729.19 713.45
  Q 729.18 713.44 729.17 713.46
  L 728.98 713.66
  Q 728.89 713.76 728.98 713.87
  Q 754.82 742.47 786.00 763.50
  Q 829.87 793.07 882.43 804.34
  Q 892.15 806.42 902.10 807.66
  Q 949.05 813.46 991.96 804.67
  Q 1084.79 785.65 1149.82 716.35
  Q 1155.99 709.78 1162.69 701.32
  C 1196.69 658.36 1217.22 606.93 1220.66 552.75
  Q 1220.77 551.00 1220.60 549.28
  Q 1220.51 548.45 1220.29 549.26
  Q 1218.69 555.10 1216.18 560.95
  Z"
/>
<path fill="#6d27d9" d="
  M 1435.20 135.43
  Q 1447.33 148.32 1456.05 162.01
  Q 1479.36 198.59 1485.75 240.99
  C 1486.80 247.99 1487.43 255.18 1488.03 262.00
  Q 1488.92 272.11 1487.97 283.31
  Q 1487.18 292.65 1486.88 300.33
  Q 1486.55 308.73 1485.60 317.38
  C 1484.85 324.10 1485.02 330.73 1484.10 337.54
  C 1482.94 346.07 1483.42 354.42 1482.22 363.09
  Q 1481.21 370.42 1481.18 378.86
  Q 1481.17 382.27 1480.48 385.98
  C 1479.30 392.26 1479.47 398.50 1479.33 404.80
  C 1479.20 410.65 1477.52 417.20 1477.60 422.57
  Q 1477.73 431.69 1476.71 438.32
  Q 1475.90 443.68 1475.70 448.40
  C 1475.46 454.04 1475.87 459.90 1474.72 465.43
  Q 1473.95 469.16 1473.90 472.49
  Q 1473.76 481.31 1472.80 489.48
  C 1471.55 500.02 1471.85 510.38 1470.49 520.71
  C 1469.73 526.47 1470.17 532.40 1469.26 538.31
  Q 1468.43 543.73 1468.23 548.91
  C 1468.05 553.59 1468.18 558.32 1467.52 562.97
  Q 1466.40 570.84 1466.27 578.90
  Q 1466.18 584.46 1465.25 590.75
  C 1464.07 598.72 1464.82 607.49 1463.63 615.94
  C 1462.36 624.88 1462.64 633.99 1461.60 643.17
  Q 1460.90 649.35 1460.60 655.98
  Q 1460.23 664.23 1459.39 672.12
  Q 1458.59 679.69 1458.41 688.39
  C 1458.35 691.27 1457.39 694.16 1457.30 696.95
  Q 1456.93 708.72 1456.15 716.70
  Q 1455.43 724.00 1455.10 730.72
  Q 1454.78 737.38 1453.92 744.72
  C 1452.98 752.72 1453.38 760.65 1452.26 768.48
  Q 1451.23 775.73 1451.21 784.10
  C 1451.20 790.16 1449.44 795.84 1449.51 801.91
  Q 1449.62 812.07 1448.41 820.30
  C 1447.36 827.41 1447.80 834.09 1447.00 840.98
  C 1445.90 850.46 1444.96 859.97 1443.12 869.36
  Q 1433.25 919.70 1402.05 962.30
  Q 1389.29 979.71 1373.77 994.99
  C 1368.78 999.90 1363.14 1004.41 1357.65 1008.87
  Q 1312.45 1045.54 1255.19 1057.68
  C 1236.02 1061.75 1217.70 1061.61 1195.93 1061.60
  Q 951.76 1061.45 729.10 1061.50
  C 723.32 1061.50 717.32 1061.28 711.50 1061.13
  Q 707.98 1061.04 704.37 1060.57
  C 649.22 1053.47 599.35 1027.46 560.58 987.14
  Q 556.72 983.12 553.16 978.85
  C 549.87 974.90 546.38 971.09 543.30 967.07
  Q 528.79 948.10 518.01 925.76
  Q 524.46 931.83 530.52 937.75
  Q 538.08 945.12 543.29 949.41
  Q 558.68 962.10 575.31 972.10
  Q 620.29 999.17 673.14 1004.51
  Q 679.09 1005.12 684.96 1005.12
  Q 931.31 1005.12 1178.09 1005.13
  Q 1188.93 1005.13 1198.78 1004.03
  Q 1224.52 1001.17 1247.60 992.88
  Q 1320.34 966.77 1365.50 904.75
  Q 1399.25 858.40 1407.74 801.68
  Q 1408.82 794.42 1409.76 781.78
  Q 1429.46 515.25 1449.12 248.73
  Q 1450.47 230.41 1450.55 228.78
  Q 1452.82 181.21 1435.20 135.43
  Z"
/>
<path fill="#ffffff" d="
  M 1216.18 560.95
  Q 1218.69 555.10 1220.29 549.26
  Q 1220.51 548.45 1220.60 549.28
  Q 1220.77 551.00 1220.66 552.75
  C 1217.22 606.93 1196.69 658.36 1162.69 701.32
  Q 1155.99 709.78 1149.82 716.35
  Q 1084.79 785.65 991.96 804.67
  Q 949.05 813.46 902.10 807.66
  Q 892.15 806.42 882.43 804.34
  Q 829.87 793.07 786.00 763.50
  Q 754.82 742.47 728.98 713.87
  Q 728.89 713.76 728.98 713.66
  L 729.17 713.46
  Q 729.18 713.44 729.19 713.45
  Q 750.15 730.01 775.36 743.94
  Q 804.62 760.12 836.23 772.38
  Q 858.76 781.11 878.65 785.33
  C 884.76 786.62 893.34 787.95 899.42 785.92
  C 903.99 784.39 904.10 779.60 900.69 776.87
  Q 896.67 773.65 891.55 771.15
  C 878.11 764.55 864.52 758.14 851.47 751.01
  C 815.78 731.52 783.24 707.07 753.50 678.65
  C 694.10 621.89 665.15 541.71 676.59 460.22
  Q 684.17 406.23 713.06 359.99
  C 745.97 307.30 796.56 269.34 856.10 251.05
  C 885.57 242.00 916.89 238.08 948.72 238.03
  Q 992.37 237.97 1034.81 254.27
  C 1083.09 272.82 1127.20 305.86 1156.11 349.15
  C 1169.50 369.20 1179.26 391.77 1181.98 415.48
  C 1184.86 440.53 1178.83 465.46 1162.73 484.53
  C 1134.71 517.72 1089.50 524.23 1048.72 517.34
  Q 1001.05 509.28 958.89 481.79
  C 912.58 451.59 868.65 396.19 900.08 338.61
  Q 906.32 327.17 916.98 315.67
  C 924.10 307.98 931.93 303.15 941.87 299.75
  C 959.10 293.85 978.01 293.44 996.37 295.84
  C 1021.29 299.09 1046.61 307.75 1067.62 321.56
  C 1084.12 332.41 1100.42 349.08 1102.02 369.49
  Q 1103.50 388.28 1090.88 402.53
  C 1078.81 416.17 1059.92 420.87 1042.04 419.42
  C 1010.71 416.88 974.68 397.96 963.14 366.76
  Q 957.32 351.02 962.76 333.65
  Q 964.28 328.83 964.00 323.60
  C 963.78 319.39 960.34 318.28 956.80 320.02
  C 946.66 325.01 940.16 339.47 938.41 350.21
  Q 935.50 368.17 940.29 384.50
  C 946.88 406.95 962.44 425.99 981.06 439.81
  Q 1012.43 463.10 1049.97 468.32
  C 1083.97 473.06 1118.24 462.80 1137.13 432.62
  C 1148.36 414.68 1150.28 392.51 1144.34 372.03
  C 1134.32 337.50 1106.24 309.28 1076.77 290.08
  Q 1035.28 263.05 986.04 255.32
  Q 943.60 248.66 900.78 261.44
  C 871.73 270.12 845.90 284.65 825.78 305.83
  C 807.10 325.49 794.27 350.17 789.22 376.97
  C 783.00 409.95 788.02 443.75 801.27 475.02
  C 819.63 518.36 851.98 554.62 889.07 583.04
  Q 896.92 589.06 905.47 594.40
  Q 934.89 612.81 964.72 625.17
  C 1018.36 647.40 1081.02 657.44 1136.57 636.99
  C 1173.05 623.56 1200.74 596.94 1216.18 560.95
  Z"
/>
</svg>
