<?xml version="1.0" encoding="UTF-8" standalone="no"?>
<!DOCTYPE svg PUBLIC "-//W3C//DTD SVG 1.1//EN" "http://www.w3.org/Graphics/SVG/1.1/DTD/svg11.dtd">
<svg xmlns="http://www.w3.org/2000/svg" version="1.1" viewBox="0.00 0.00 1920.00 1080.00">
<g stroke-width="2.00" fill="none" stroke-linecap="butt">
<path stroke="#7d3dec" vector-effect="non-scaling-stroke" d="
  M 1435.30 135.51
  Q 1453.94 183.37 1450.06 236.00
  Q 1430.40 502.43 1410.56 770.78
  Q 1409.81 780.90 1408.92 790.73
  C 1403.66 848.76 1375.27 902.61 1332.63 941.74
  Q 1295.13 976.14 1247.70 992.82
  Q 1223.19 1001.43 1198.51 1004.15
  Q 1189.76 1005.12 1177.75 1005.12
  Q 931.25 1005.13 684.75 1005.10
  Q 678.79 1005.10 673.12 1004.52
  Q 619.77 999.04 574.82 971.82
  Q 558.11 961.70 540.55 947.08
  C 535.34 942.74 529.97 937.31 524.62 932.30
  Q 524.60 932.28 521.93 929.19
  Q 520.33 927.33 518.40 926.87"
/>
<path stroke="#c6a9ff" vector-effect="non-scaling-stroke" d="
  M 1147.95 513.88
  C 1150.87 502.85 1160.74 495.86 1171.06 492.91
  C 1184.88 488.96 1200.97 490.30 1214.80 494.26
  C 1231.38 499.00 1247.60 505.25 1262.11 514.97
  A 0.50 0.50 0.0 0 0 1262.83 514.78
  L 1295.68 450.17
  Q 1295.86 449.80 1295.52 449.56
  C 1286.89 443.60 1279.00 438.22 1269.66 434.41
  Q 1246.89 425.12 1225.71 420.23
  Q 1204.46 415.33 1182.18 415.61
  Q 1159.06 415.90 1138.51 424.05
  C 1121.70 430.72 1106.89 441.05 1094.34 453.95
  Q 1073.96 474.89 1068.33 503.90
  Q 1065.41 518.91 1066.57 533.34
  C 1069.72 572.59 1100.96 602.29 1135.63 618.96
  Q 1155.77 628.65 1175.38 637.88
  C 1184.75 642.28 1192.86 647.17 1200.93 652.84
  C 1209.39 658.81 1215.87 666.27 1216.13 677.09
  C 1216.91 709.89 1183.25 714.66 1158.95 713.22
  C 1154.41 712.95 1148.94 711.84 1145.16 710.76
  C 1130.02 706.41 1115.92 699.06 1102.00 691.40
  C 1092.59 686.22 1084.39 679.80 1076.14 673.02
  A 0.36 0.36 0.0 0 0 1075.60 673.11
  L 1034.89 741.67
  A 0.37 0.37 0.0 0 0 1034.96 742.12
  Q 1040.60 747.33 1046.98 751.56
  C 1057.61 758.63 1069.81 764.82 1081.36 770.58
  Q 1091.30 775.54 1102.23 778.98
  C 1136.41 789.74 1173.78 792.70 1209.27 785.98
  Q 1233.42 781.40 1254.19 769.96
  Q 1264.01 764.56 1271.01 758.76
  C 1285.29 746.96 1295.56 730.27 1300.88 712.13
  Q 1306.58 692.69 1306.15 671.87
  Q 1305.56 642.88 1286.09 620.64
  C 1268.25 600.25 1246.11 585.11 1221.53 574.68
  C 1203.41 566.98 1185.94 559.64 1169.31 549.84
  Q 1161.00 544.95 1155.08 539.67
  C 1147.01 532.48 1145.27 523.99 1147.95 513.88"
/>
<path stroke="#c6a9ff" vector-effect="non-scaling-stroke" d="
  M 874.77 494.51
  A 0.37 0.37 0.0 0 1 875.14 494.88
  L 875.14 782.63
  A 0.37 0.37 0.0 0 0 875.51 783.00
  L 956.96 783.00
  A 0.37 0.37 0.0 0 0 957.33 782.63
  L 957.33 494.87
  A 0.37 0.37 0.0 0 1 957.70 494.50
  L 1042.63 494.50
  A 0.37 0.37 0.0 0 0 1043.00 494.13
  L 1043.00 422.62
  A 0.37 0.37 0.0 0 0 1042.63 422.25
  L 789.76 422.25
  A 0.37 0.37 0.0 0 0 789.39 422.62
  L 789.37 494.13
  A 0.37 0.37 0.0 0 0 789.74 494.50
  L 874.77 494.51"
/>
</g>
<path fill="#8c52ff" d="
  M 1435.30 135.51
  Q 1453.94 183.37 1450.06 236.00
  Q 1430.40 502.43 1410.56 770.78
  Q 1409.81 780.90 1408.92 790.73
  C 1403.66 848.76 1375.27 902.61 1332.63 941.74
  Q 1295.13 976.14 1247.70 992.82
  Q 1223.19 1001.43 1198.51 1004.15
  Q 1189.76 1005.12 1177.75 1005.12
  Q 931.25 1005.13 684.75 1005.10
  Q 678.79 1005.10 673.12 1004.52
  Q 619.77 999.04 574.82 971.82
  Q 558.11 961.70 540.55 947.08
  C 535.34 942.74 529.97 937.31 524.62 932.30
  Q 524.60 932.28 521.93 929.19
  Q 520.33 927.33 518.40 926.87
  C 516.82 924.14 515.43 921.40 513.35 918.96
  Q 478.33 877.83 464.61 824.94
  C 462.91 818.39 462.13 811.84 460.40 805.32
  C 459.09 800.41 459.55 795.41 458.70 790.44
  C 457.24 782.00 458.08 773.49 456.40 765.08
  C 455.12 758.65 455.62 751.46 455.40 744.96
  C 455.20 739.15 453.99 733.31 453.88 727.67
  Q 453.74 720.52 452.75 713.84
  Q 451.88 708.02 451.80 702.48
  C 451.72 697.45 451.68 692.17 451.09 687.20
  C 450.16 679.46 450.00 671.17 448.89 663.16
  Q 448.32 659.08 448.20 653.56
  Q 447.76 634.22 445.31 615.05
  Q 444.56 609.16 444.51 605.41
  Q 444.45 600.76 444.30 596.09
  C 444.12 590.71 443.04 585.28 442.88 579.79
  Q 442.75 575.09 442.52 570.08
  C 442.31 565.52 440.91 561.05 440.79 556.54
  Q 440.65 550.68 440.46 543.83
  C 440.23 535.31 438.82 526.45 438.54 517.77
  Q 438.42 514.03 437.70 509.98
  C 436.64 503.95 436.80 497.58 436.59 491.57
  C 436.36 485.02 435.48 478.17 434.98 471.35
  C 434.34 462.72 433.23 454.22 432.99 445.71
  Q 432.48 428.33 430.18 410.61
  C 429.14 402.60 429.80 394.89 428.73 387.04
  Q 427.48 377.91 427.43 366.86
  Q 427.41 363.80 426.51 359.52
  C 424.73 351.14 426.05 342.24 424.96 333.67
  Q 423.68 323.65 423.43 313.66
  C 423.32 309.38 422.02 304.90 421.95 300.44
  Q 421.86 294.94 421.67 289.81
  C 421.44 283.54 420.43 277.71 420.13 271.54
  C 419.91 266.79 419.34 262.50 418.67 257.90
  Q 418.27 255.10 418.25 252.36
  C 418.23 247.25 418.11 242.24 417.61 237.11
  C 416.34 224.02 415.69 209.76 417.43 196.56
  C 418.09 191.56 418.03 186.75 419.09 181.89
  Q 420.74 174.32 422.62 166.54
  Q 435.14 114.63 470.65 76.82
  Q 477.57 69.46 484.93 63.08
  Q 524.82 28.51 576.01 17.78
  Q 584.08 16.09 597.08 14.19
  Q 604.05 13.18 611.16 13.18
  Q 927.19 13.23 1256.69 13.18
  Q 1263.37 13.18 1270.02 14.20
  C 1276.96 15.26 1283.96 16.16 1290.77 17.62
  Q 1341.42 28.50 1380.32 61.55
  Q 1387.63 67.75 1398.18 78.92
  C 1410.92 92.41 1421.14 108.15 1429.69 124.78
  Q 1432.74 130.74 1435.30 135.51
  Z
  M 1147.95 513.88
  C 1150.87 502.85 1160.74 495.86 1171.06 492.91
  C 1184.88 488.96 1200.97 490.30 1214.80 494.26
  C 1231.38 499.00 1247.60 505.25 1262.11 514.97
  A 0.50 0.50 0.0 0 0 1262.83 514.78
  L 1295.68 450.17
  Q 1295.86 449.80 1295.52 449.56
  C 1286.89 443.60 1279.00 438.22 1269.66 434.41
  Q 1246.89 425.12 1225.71 420.23
  Q 1204.46 415.33 1182.18 415.61
  Q 1159.06 415.90 1138.51 424.05
  C 1121.70 430.72 1106.89 441.05 1094.34 453.95
  Q 1073.96 474.89 1068.33 503.90
  Q 1065.41 518.91 1066.57 533.34
  C 1069.72 572.59 1100.96 602.29 1135.63 618.96
  Q 1155.77 628.65 1175.38 637.88
  C 1184.75 642.28 1192.86 647.17 1200.93 652.84
  C 1209.39 658.81 1215.87 666.27 1216.13 677.09
  C 1216.91 709.89 1183.25 714.66 1158.95 713.22
  C 1154.41 712.95 1148.94 711.84 1145.16 710.76
  C 1130.02 706.41 1115.92 699.06 1102.00 691.40
  C 1092.59 686.22 1084.39 679.80 1076.14 673.02
  A 0.36 0.36 0.0 0 0 1075.60 673.11
  L 1034.89 741.67
  A 0.37 0.37 0.0 0 0 1034.96 742.12
  Q 1040.60 747.33 1046.98 751.56
  C 1057.61 758.63 1069.81 764.82 1081.36 770.58
  Q 1091.30 775.54 1102.23 778.98
  C 1136.41 789.74 1173.78 792.70 1209.27 785.98
  Q 1233.42 781.40 1254.19 769.96
  Q 1264.01 764.56 1271.01 758.76
  C 1285.29 746.96 1295.56 730.27 1300.88 712.13
  Q 1306.58 692.69 1306.15 671.87
  Q 1305.56 642.88 1286.09 620.64
  C 1268.25 600.25 1246.11 585.11 1221.53 574.68
  C 1203.41 566.98 1185.94 559.64 1169.31 549.84
  Q 1161.00 544.95 1155.08 539.67
  C 1147.01 532.48 1145.27 523.99 1147.95 513.88
  Z
  M 874.77 494.51
  A 0.37 0.37 0.0 0 1 875.14 494.88
  L 875.14 782.63
  A 0.37 0.37 0.0 0 0 875.51 783.00
  L 956.96 783.00
  A 0.37 0.37 0.0 0 0 957.33 782.63
  L 957.33 494.87
  A 0.37 0.37 0.0 0 1 957.70 494.50
  L 1042.63 494.50
  A 0.37 0.37 0.0 0 0 1043.00 494.13
  L 1043.00 422.62
  A 0.37 0.37 0.0 0 0 1042.63 422.25
  L 789.76 422.25
  A 0.37 0.37 0.0 0 0 789.39 422.62
  L 789.37 494.13
  A 0.37 0.37 0.0 0 0 789.74 494.50
  L 874.77 494.51
  Z"
/>
<path fill="#6d27d9" d="
  M 1435.30 135.51
  Q 1440.80 140.66 1447.31 149.44
  Q 1477.30 189.83 1485.19 236.74
  Q 1486.46 244.28 1486.98 251.18
  Q 1487.55 258.64 1488.06 265.73
  Q 1488.81 276.12 1487.70 287.19
  Q 1487.06 293.64 1486.91 297.83
  C 1486.74 302.70 1486.67 307.62 1486.05 312.40
  C 1484.92 321.00 1485.19 329.56 1483.99 338.13
  C 1482.87 346.13 1483.51 354.48 1482.26 362.63
  Q 1481.19 369.66 1481.24 377.06
  C 1481.29 383.57 1479.36 389.66 1479.49 396.07
  Q 1479.67 404.45 1478.68 411.71
  C 1477.26 422.08 1477.55 432.08 1476.23 442.13
  Q 1475.37 448.73 1475.50 456.10
  C 1475.61 462.30 1473.77 468.27 1473.74 474.47
  Q 1473.72 482.16 1472.76 489.49
  C 1471.61 498.33 1472.08 506.99 1471.00 515.43
  Q 1470.22 521.56 1470.06 527.46
  Q 1469.92 532.70 1469.37 537.25
  C 1468.85 541.63 1468.21 545.92 1468.19 550.34
  Q 1468.16 559.12 1467.00 567.38
  C 1466.35 572.02 1466.34 576.68 1466.20 581.36
  C 1466.04 586.73 1464.55 592.69 1464.59 598.01
  Q 1464.64 604.99 1463.99 611.27
  Q 1463.34 617.69 1462.96 623.61
  Q 1462.12 637.03 1460.90 650.51
  C 1460.38 656.20 1460.81 662.08 1459.86 667.65
  Q 1458.99 672.79 1458.81 677.95
  C 1458.64 682.62 1458.62 687.25 1457.96 691.83
  C 1456.75 700.21 1457.04 708.63 1456.15 717.01
  C 1455.64 721.77 1454.99 726.69 1455.02 731.57
  Q 1455.05 736.50 1454.26 741.80
  C 1453.36 747.79 1453.09 753.58 1453.05 759.51
  Q 1453.03 762.99 1452.49 766.43
  Q 1451.17 774.69 1451.21 784.07
  C 1451.23 789.15 1449.56 794.73 1449.62 799.33
  Q 1449.71 807.92 1448.79 816.33
  Q 1447.96 823.98 1447.61 831.10
  Q 1446.45 854.81 1441.13 878.45
  C 1434.28 908.89 1419.87 938.47 1401.48 963.17
  Q 1390.97 977.28 1377.38 991.36
  C 1372.08 996.86 1366.34 1001.42 1360.67 1006.44
  Q 1357.20 1009.50 1353.46 1012.33
  Q 1340.33 1022.24 1325.68 1030.74
  Q 1292.13 1050.19 1253.88 1057.90
  Q 1238.78 1060.95 1223.28 1061.39
  Q 1215.39 1061.62 1203.59 1061.61
  Q 963.61 1061.42 718.24 1061.47
  Q 713.62 1061.48 708.28 1060.98
  Q 690.79 1059.37 673.74 1054.75
  C 627.21 1042.15 586.66 1016.61 554.72 980.79
  Q 532.99 956.41 518.40 926.87
  Q 520.33 927.33 521.93 929.19
  Q 524.60 932.28 524.62 932.30
  C 529.97 937.31 535.34 942.74 540.55 947.08
  Q 558.11 961.70 574.82 971.82
  Q 619.77 999.04 673.12 1004.52
  Q 678.79 1005.10 684.75 1005.10
  Q 931.25 1005.13 1177.75 1005.12
  Q 1189.76 1005.12 1198.51 1004.15
  Q 1223.19 1001.43 1247.70 992.82
  Q 1295.13 976.14 1332.63 941.74
  C 1375.27 902.61 1403.66 848.76 1408.92 790.73
  Q 1409.81 780.90 1410.56 770.78
  Q 1430.40 502.43 1450.06 236.00
  Q 1453.94 183.37 1435.30 135.51
  Z"
/>
<path fill="#ffffff" d="
  M 1147.95 513.88
  C 1145.27 523.99 1147.01 532.48 1155.08 539.67
  Q 1161.00 544.95 1169.31 549.84
  C 1185.94 559.64 1203.41 566.98 1221.53 574.68
  C 1246.11 585.11 1268.25 600.25 1286.09 620.64
  Q 1305.56 642.88 1306.15 671.87
  Q 1306.58 692.69 1300.88 712.13
  C 1295.56 730.27 1285.29 746.96 1271.01 758.76
  Q 1264.01 764.56 1254.19 769.96
  Q 1233.42 781.40 1209.27 785.98
  C 1173.78 792.70 1136.41 789.74 1102.23 778.98
  Q 1091.30 775.54 1081.36 770.58
  C 1069.81 764.82 1057.61 758.63 1046.98 751.56
  Q 1040.60 747.33 1034.96 742.12
  A 0.37 0.37 0.0 0 1 1034.89 741.67
  L 1075.60 673.11
  A 0.36 0.36 0.0 0 1 1076.14 673.02
  C 1084.39 679.80 1092.59 686.22 1102.00 691.40
  C 1115.92 699.06 1130.02 706.41 1145.16 710.76
  C 1148.94 711.84 1154.41 712.95 1158.95 713.22
  C 1183.25 714.66 1216.91 709.89 1216.13 677.09
  C 1215.87 666.27 1209.39 658.81 1200.93 652.84
  C 1192.86 647.17 1184.75 642.28 1175.38 637.88
  Q 1155.77 628.65 1135.63 618.96
  C 1100.96 602.29 1069.72 572.59 1066.57 533.34
  Q 1065.41 518.91 1068.33 503.90
  Q 1073.96 474.89 1094.34 453.95
  C 1106.89 441.05 1121.70 430.72 1138.51 424.05
  Q 1159.06 415.90 1182.18 415.61
  Q 1204.46 415.33 1225.71 420.23
  Q 1246.89 425.12 1269.66 434.41
  C 1279.00 438.22 1286.89 443.60 1295.52 449.56
  Q 1295.86 449.80 1295.68 450.17
  L 1262.83 514.78
  A 0.50 0.50 0.0 0 1 1262.11 514.97
  C 1247.60 505.25 1231.38 499.00 1214.80 494.26
  C 1200.97 490.30 1184.88 488.96 1171.06 492.91
  C 1160.74 495.86 1150.87 502.85 1147.95 513.88
  Z"
/>
<path fill="#ffffff" d="
  M 874.77 494.51
  L 789.74 494.50
  A 0.37 0.37 0.0 0 1 789.37 494.13
  L 789.39 422.62
  A 0.37 0.37 0.0 0 1 789.76 422.25
  L 1042.63 422.25
  A 0.37 0.37 0.0 0 1 1043.00 422.62
  L 1043.00 494.13
  A 0.37 0.37 0.0 0 1 1042.63 494.50
  L 957.70 494.50
  A 0.37 0.37 0.0 0 0 957.33 494.87
  L 957.33 782.63
  A 0.37 0.37 0.0 0 1 956.96 783.00
  L 875.51 783.00
  A 0.37 0.37 0.0 0 1 875.14 782.63
  L 875.14 494.88
  A 0.37 0.37 0.0 0 0 874.77 494.51
  Z"
/>
</svg>
