<svg xmlns="http://www.w3.org/2000/svg" viewBox="0 0 1535 1366">
  <g fill="none" strokeWidth="2">
    <path stroke="#840450" d="M438.38 32.79q-5.23 4.66-10.29 9.8-1.43 1.45-3.13 2.4a.48.48 0 00.09.87c1.08.35 2.16.98 2.91 1.86q4.21 4.96 8.72 9.05c3.21 2.91 2.48 7.58 1.27 11.17a1.33 1.33 0 01-1.5.88q-1.32-.26-2.4-1.09-11.03-8.54-18.58-18.43c-1.46-1.91-2.41-4.18-1.07-6.34q3.33-5.36 4.51-8.28M660.75 289.23q2.39-4.09 5.03-7.66c2.1-2.86-.43-5.95-2.25-8.09-4.59-5.39-14.57-15.6-21.31-14.58a1.66 1.64 86.5 00-1.4 1.6c-.15 8.58 6.34 12.37 12.3 17.05a2.26 2.25-47.9 01.17 3.4l-8.65 8.33M618.02 289.63q4.99-11.84 10.31-24.37 1.71-4.01-2.38-5.51c-2.9-1.07-4.85-.46-6.31 2.28q-6.64 12.49-11.58 24.94-.41 1.05-1.49 1.98" vectorEffect="non-scaling-stroke"></path>
    <path stroke="#8d839b" d="M606.57 288.95q-.41.17-.55.14" vectorEffect="non-scaling-stroke"></path>
    <path stroke="#323961" d="M384.19 268.72l-.35-121.68" vectorEffect="non-scaling-stroke"></path>
    <path stroke="#f680b4" d="M605.23 299.22l1.34-10.27" vectorEffect="non-scaling-stroke"></path>
    <path stroke="#15839e" d="M1089.38 139.89q.29-.1-.02.33-.2.26-.52.32l-113.87 19.72" vectorEffect="non-scaling-stroke"></path>
    <path stroke="#82fef3" d="M974.97 160.26q-.09-.11-.12-.24-.09-.38-.46-.48-8.67-2.32-17.02-5.28c-13.54-4.81-27.14-6.63-41.32-5.85-16.19.88-31.63 6.34-45.63 14.3-9.91 5.63-18.21 13.82-25.8 22.66-12.36 14.39-18.82 31.35-22.37 49.9-2.27 11.82-1.7 23.76.54 35 .97 4.82 2.97 9.43 4.14 14.35q.46 1.96 1.38 4.65.92 2.69 1.95 6.98.96 4.07 4.94 6.4" vectorEffect="non-scaling-stroke"></path>
    <path stroke="#15839e" d="M835.2 302.65q6.29 11.21 14.86 19.54 20.48 19.9 48.91 27.34.39.1.99.7" vectorEffect="non-scaling-stroke"></path>
    <path stroke="#7db3ba" d="M899.96 350.23q1.1 3.64 1.31 6.02 2.99 32.83 7.15 65.75c1.9 15.04 4.77 31.16 10.87 45.17q5.51 12.68 12.97 25.22c9.33 15.67 25 31.53 39.81 42.63q.34.26.61.6l.49.64" vectorEffect="non-scaling-stroke"></path>
    <path stroke="#2cbac0" d="M973.17 536.26q-1.67 2.45-2.32 4.57-1.54 5.04-6.32 21.73" vectorEffect="non-scaling-stroke"></path>
    <path stroke="#27b4b9" d="M964.53 562.56l-26.75 90.45" vectorEffect="non-scaling-stroke"></path>
    <path stroke="#2cbac0" d="M937.78 653.01q-7.05 23.65-9.57 31.74-3.1 9.96-5.53 19.56-2.77 10.96-5.35 19.25-3.57 11.48-6.51 22.74-.88 3.35-2.68 7.71-1.53 3.73-2.76 7.71" vectorEffect="non-scaling-stroke"></path>
    <path stroke="#82fef3" d="M905.38 761.72q-16.2 23.69-31.32 39.33-9.34 9.67-19.17 20.08-11.31 12-35.1 32.66-23.31 20.24-43.43 35.31c-25.58 19.16-52.13 38.06-79.53 55.24q-2.17 1.36-4.71 3.47c-2.34 1.95-5.82.89-8.6 1.5" vectorEffect="non-scaling-stroke"></path>
    <path stroke="#669dba" d="M683.52 949.31q-17.74-6.69-36.78-7.58-14.93-.7-31.24 3.36-15.15 3.78-26.28 9.4" vectorEffect="non-scaling-stroke"></path>
    <path stroke="#257eaf" d="M589.22 954.49l-10.2-29.28" vectorEffect="non-scaling-stroke"></path>
    <path stroke="#27b4b9" d="M579.02 925.21q-.25-2.15-1.4-4.21" vectorEffect="non-scaling-stroke"></path>
    <path stroke="#257eaf" d="M577.62 921l-4.47-13.01" vectorEffect="non-scaling-stroke"></path>
    <path stroke="#27b4b9" d="M573.15 907.99q-.11-1.86-1.15-3.45" vectorEffect="non-scaling-stroke"></path>
    <path stroke="#257eaf" d="M572 904.54l-28.18-84.59" vectorEffect="non-scaling-stroke"></path>
    <path stroke="#27b4b9" d="M543.82 819.95q-.31-2.36-1.49-4.44" vectorEffect="non-scaling-stroke"></path>
    <path stroke="#257eaf" d="M542.33 815.51q-2.63-6.73-5.21-13.51-3.43-9.03-10.83-14.48" vectorEffect="non-scaling-stroke"></path>
    <path stroke="#27b4b9" d="M526.29 787.52q-1.14-1.52-2.99-1.58" vectorEffect="non-scaling-stroke"></path>
    <path stroke="#257eaf" d="M523.3 785.94q-11.08-4.9-23.54-3.25" vectorEffect="non-scaling-stroke"></path>
    <path stroke="#82fef3" d="M499.76 782.69c-37.16.12-74.34.53-111.52.49l-215.23-.2q-7.98-.01-16.12 5.35-.44.29-.42.81.02.69.78 1.41" vectorEffect="non-scaling-stroke"></path>
    <path stroke="#257eaf" d="M157.25 790.55q-6.75 4.09-9.24 13.22-2.91 10.69-.13 19.5.99 3.12 4.96 15.22 40.52 123.41 81.28 246.78" vectorEffect="non-scaling-stroke"></path>
    <path stroke="#82fef3" d="M234.12 1085.27q-2.49.41-3.62.42-22.79.25-45.53-.73" vectorEffect="non-scaling-stroke"></path>
    <path stroke="#27b4b9" d="M184.97 1084.96q-.55-.5-.26-.53" vectorEffect="non-scaling-stroke"></path>
    <path stroke="#82fef3" d="M184.71 1084.43q.06-2.18-2.05-3.16" vectorEffect="non-scaling-stroke"></path>
    <path stroke="#10818f" d="M53.68 704.56q2.88-.74 7.57-.77 21.25-.11 42.43.02" vectorEffect="non-scaling-stroke"></path>
    <path stroke="#82fef3" d="M103.68 703.81q-3.14.44-4.55 4.49" vectorEffect="non-scaling-stroke"></path>
    <path stroke="#797fa8" d="M99.13 708.3q-2.79 5.79-2.04 12.48.21 1.89 1.83 3.29 1.85 1.6 5.07 1.67 43.22.93 84.51.18 4.54-.08 6.01-1.9 1.12-1.38 1.53-3.76 1.21-6.98-2.69-11.83" vectorEffect="non-scaling-stroke"></path>
    <path stroke="#82fef3" d="M193.35 708.43c0-2.22-2.4-2.3-3.89-2.82a1.32 1.26 82.8 01-.7-.57l-.97-1.6" vectorEffect="non-scaling-stroke"></path>
    <path stroke="#10818f" d="M187.79 703.44q52.85.06 105.71.25 9.31.03 15.75-2.6 9.58-3.9 13.99-14.47 2.74-6.56 2.62-11.88-2.01-89.34-.28-177.25.21-10.52.03-20c-.73-39.98-.27-80 .45-120.44q.2-10.98-1.33-16.24-2.48-8.48-10.04-14.46-3.08-2.43-7.22-3.93-4.92-1.78-9.62-1.74-48.46.42-120.85.27-6.09-.02-10.43-.6-.37-.05-.55-.38-.17-.32.03-.38M383.44 117.49l.4 29.55" vectorEffect="non-scaling-stroke"></path>
    <path stroke="#27b4b9" d="M383.84 147.04l.35 121.68" vectorEffect="non-scaling-stroke"></path>
    <path stroke="#10818f" d="M384.19 268.72c.9 9.24 6.26 14.69 14.44 18.76q2.7 1.35 6.47 1.5 11.62.48 17.9.44 97.4-.5 178.99-.13c1.17 0 2.66-.31 4.03-.2" vectorEffect="non-scaling-stroke"></path>
    <path stroke="#82fef3" d="M606.02 289.09q.29.63-.11 1.08-3.5 3.93-1.28 8.76.14.31.6.29" vectorEffect="non-scaling-stroke"></path>
    <path stroke="#797fa8" d="M605.23 299.22q.15 1.03.77 1.22 4.16 1.3 7.82-.89a1.49 1.45-5.5 00.61-.72l3.59-9.2" vectorEffect="non-scaling-stroke"></path>
    <path stroke="#10818f" d="M618.02 289.63l26.62-.35" vectorEffect="non-scaling-stroke"></path>
    <path stroke="#797fa8" d="M644.64 289.28q-1.59 3.13-3.26 8.23c-1.76 5.38 3.9 5.51 6.59 3.46q5.63-4.26 12.78-11.74" vectorEffect="non-scaling-stroke"></path>
    <path stroke="#10818f" d="M660.75 289.23q16.41-.76 32.34-.3c8.97.26 17.18.34 25.88-.27q3.8-.26 6.61-1.87 13.67-7.82 13.33-24.03-.2-9.29-.25-18.76-.46-85.54.07-181.5.04-7.02-1.7-11.24c-3.67-8.89-11.62-14.33-21.26-15.19q-5.41-.49-9.02-.44-40.97.49-81.95-.04-.09 0-8.08.33-5.13.21-10.07-1.02" vectorEffect="non-scaling-stroke"></path>
    <path stroke="#de548e" d="M691.6 951.99q1.93 1.35 3.5 1.62" vectorEffect="non-scaling-stroke"></path>
    <path stroke="#9b90d0" d="M1013.89 556.8q-12.21 6.89-22.14 16.2-1.45 1.35-4.48 5.36" vectorEffect="non-scaling-stroke"></path>
    <path stroke="#acb6e0" d="M987.27 578.36q-1.86 1.26-1.4 1.91" vectorEffect="non-scaling-stroke"></path>
    <path stroke="#9b90d0" d="M985.87 580.27q-.79 1.19-1.78 2.37-.98 1.17-1.66 2.4-1.55 2.77-3.26 5.49-1.69 2.69-2.89 5.68-2.06 5.11-3.79 10.33" vectorEffect="non-scaling-stroke"></path>
    <path stroke="#acb6e0" d="M972.49 606.54l-1.28 4.69" vectorEffect="non-scaling-stroke"></path>
    <path stroke="#9b90d0" d="M971.21 611.23Q968.53 623.99 968 630q-.6 6.81-1.54 13.52" vectorEffect="non-scaling-stroke"></path>
    <path stroke="#acb6e0" d="M966.46 643.52l-1.61 9.46" vectorEffect="non-scaling-stroke"></path>
    <path stroke="#a19dd2" d="M964.85 652.98q-1.82 7.44-4.49 13.37-4.8 10.67-11.84 21.94" vectorEffect="non-scaling-stroke"></path>
    <path stroke="#acb6e0" d="M948.52 688.29q-1.73 1.58-2.49 3.95" vectorEffect="non-scaling-stroke"></path>
    <path stroke="#a19dd2" d="M946.03 692.24q-3.46 4.62-6.7 9.43-.82 1.21-6.74 9.39-6.03 8.33-9.4 17.68-5.67 15.75-7.02 33.64" vectorEffect="non-scaling-stroke"></path>
    <path stroke="#fab5c7" d="M916.17 762.38c-.09 2.95-4.85 6.17-6.73 8.41q-10.9 13.02-22.74 24.97-20.89 21.09-38.86 38.68-9.91 9.71-22.38 20.52-31.65 27.42-65.29 52.46-5.03 3.75-15.79 10.71" vectorEffect="non-scaling-stroke"></path>
    <path stroke="#fcc5db" d="M744.38 918.13l-39.07 24.2" vectorEffect="non-scaling-stroke"></path>
    <path stroke="#fab5c7" d="M705.31 942.33q-7.54 4.07-13.71 9.66" vectorEffect="non-scaling-stroke"></path>
    <path stroke="#e39ec7" d="M691.6 951.99l-8.08-2.68" vectorEffect="non-scaling-stroke"></path>
    <path stroke="#acb6e0" d="M940.59 684.22q1.71-1.93 2.12-4.44M955.49 647.2l2.21-8.67M970.19 589.21q1.74-1.8 2.45-4.31M974.12 582.66q2.64-2.47 4.1-5.29" vectorEffect="non-scaling-stroke"></path>
    <path stroke="#a47194" d="M1215.86 530.3q-1.9 14.01-1.6 28.69.03 1.69-1.46 2.81-5.7 4.29-9.66 6.99c-3.31 2.26-5.82 4.73-8 7.65q-.48.64.71 1.14" vectorEffect="non-scaling-stroke"></path>
    <path stroke="#a76ca7" d="M1193.38 580.14q-2.19 1.08-3.69 3.58" vectorEffect="non-scaling-stroke"></path>
    <path stroke="#fab5c7" d="M1189.69 583.72l-7.72 7.91" vectorEffect="non-scaling-stroke"></path>
    <path stroke="#a76ca7" d="M1181.97 591.63l-.3.4q-.46.61.29.43 1.32-.32 2.41.24.49.25.38.78-.28 1.37-.91 2.4-.36.59-.31-.1l.16-2.32q.04-.64-.6-.63-.81.03-1.55.05-.41.01 0 .08c.27.04.47-.02.99.14" vectorEffect="non-scaling-stroke"></path>
    <path stroke="#a47194" d="M1182.53 593.1q.2 2.62-2.19 5.23a.08.08 0 01-.14-.09q.73-1.64 1.88-3.17.28-.37.34-.85.06-.45-.22-.73-.35-.36-.75-.07-1.57 1.14-1.88 1.65-1.22 2.01-2.73 3.45" vectorEffect="non-scaling-stroke"></path>
    <path stroke="#a76ca7" d="M1176.84 598.52l-1.18 1.46" vectorEffect="non-scaling-stroke"></path>
    <path stroke="#fab5c7" d="M1175.66 599.98l-7.19 11.75" vectorEffect="non-scaling-stroke"></path>
    <path stroke="#f77ba2" d="M1168.47 611.73q-3.38 4.74-4.77 10.23" vectorEffect="non-scaling-stroke"></path>
    <path stroke="#fab5c7" d="M1163.7 621.96l-5.58 16.86" vectorEffect="non-scaling-stroke"></path>
    <path stroke="#ad6399" d="M1158.12 638.82q.12-.59-.53-.46a.45.44-80.9 00-.3.22c-2.52 4.88-8.89 5.07-13.17 2.71" vectorEffect="non-scaling-stroke"></path>
    <path stroke="#883863" d="M1144.12 641.29q1.04-45.77-.37-91.19" vectorEffect="non-scaling-stroke"></path>
    <path stroke="#de548e" d="M1143.75 550.1q34.17-24.01 52.22-61.8.08-.16-.05-.3l-.2-.2q-.19-.2-.33.04-18.56 34.83-52.13 55.38" vectorEffect="non-scaling-stroke"></path>
    <path stroke="#883863" d="M1143.26 543.22c-1.68-29.33-2.92-58.5-6.32-87.23q-1.58-13.42-.98-21.92.41-5.76 2.45-10.12 3.52-7.53 4.71-12.88c1.87-8.4-2.61-18.41-11.01-21.81-4.19-1.69-11.14-.48-13.64 3.7a2.45 2.44 45.2 000 2.51q1.49 2.48 3 5.23.79 1.44.64 3.01-.12 1.26-.71 2.77-1.3 3.32-2.73 6.22c-1.28 2.62-2.1 6.43-.63 8.85q5.5 9.04 7.35 13.57 2.33 5.72 2.94 11.88 4.59 46.31 6.75 92.79" vectorEffect="non-scaling-stroke"></path>
    <path stroke="#de548e" d="M1135.08 539.79l-.11 5.81q-.03 1.61-1.52 2.22-17.2 7.02-34.99 11.2c-9.86 2.31-21.31 3.87-32.07 5.47" vectorEffect="non-scaling-stroke"></path>
    <path stroke="#ad6399" d="M1066.39 564.49l-17.53-1.55" vectorEffect="non-scaling-stroke"></path>
    <path stroke="#964597" d="M1048.86 562.94l-34.97-6.14" vectorEffect="non-scaling-stroke"></path>
    <path stroke="#fab5c7" d="M1013.89 556.8q-.4-1.2-2.35-1.32" vectorEffect="non-scaling-stroke"></path>
    <path stroke="#a47194" d="M1011.54 555.48q-2.27-1.52-4.77-2.33-4.7-1.54-4.98-1.66-14.59-6.22-27.8-15.01-.52-.35-.82-.22" vectorEffect="non-scaling-stroke"></path>
    <path stroke="#acb6e0" d="M677.4 1098.61q-4.64.28-9.1.13-7.9-.27-9.09-.27-290.45.09-575.92-.24c-4.38-.01-8.77.27-13.15.45-15.78.65-29.22 8.07-37.85 21.21q-1.6 2.42-4.73 8.98-2.13 4.47-4.59 9.07M22.32 1131.21q1.32-12.04 7.38-23.18" vectorEffect="non-scaling-stroke"></path>
    <path stroke="#a4b6c5" d="M184.97 1084.96q-42.48 1.1-84.94.22" vectorEffect="non-scaling-stroke"></path>
    <path stroke="#323961" d="M100.03 1085.18l11.08-.86" vectorEffect="non-scaling-stroke"></path>
    <path stroke="#a4b6c5" d="M184.71 1084.43q-1.66.04-3.09-.25-.29-.06-.42-.23-.13-.19-.18-.44" vectorEffect="non-scaling-stroke"></path>
    <path stroke="#8d839b" d="M187.79 703.44l-84.11.37" vectorEffect="non-scaling-stroke"></path>
    <path stroke="#a9bccd" d="M1011.54 555.48q-11.81 4.2-20.8 10.49-6.75 4.73-12.52 11.4" vectorEffect="non-scaling-stroke"></path>
    <path stroke="#5673ad" d="M978.22 577.37q-.8.27-1.23.86-1.52 2.07-2.87 4.43" vectorEffect="non-scaling-stroke"></path>
    <path stroke="#a9bccd" d="M974.12 582.66l-1.48 2.24" vectorEffect="non-scaling-stroke"></path>
    <path stroke="#5673ad" d="M972.64 584.9q-1.85 1.74-2.45 4.31" vectorEffect="non-scaling-stroke"></path>
    <path stroke="#a9bccd" d="M970.19 589.21q-5.33 10.44-7.38 20.8c-1.19 6.02-1.9 14.01-3.38 20.84q-.83 3.86-1.73 7.68" vectorEffect="non-scaling-stroke"></path>
    <path stroke="#5673ad" d="M957.7 638.53l-2.21 8.67" vectorEffect="non-scaling-stroke"></path>
    <path stroke="#a9bccd" d="M955.49 647.2q-4.88 16.89-12.78 32.58" vectorEffect="non-scaling-stroke"></path>
    <path stroke="#5673ad" d="M942.71 679.78q-1.59 1.88-2.12 4.44" vectorEffect="non-scaling-stroke"></path>
    <path stroke="#a9bccd" d="M940.59 684.22q-6.82 14.02-14.41 27.66-4.12 7.42-5.69 11.18c-2.82 6.77-4.6 13.78-5.8 21.27q-.54 3.43-2.23 6.53-3.03 5.58-7.08 10.86" vectorEffect="non-scaling-stroke"></path>
    <path stroke="#4d7293" d="M937.78 653.01q1.07.78 1.17.79a2.47 2.46-81.9 002.58-1.95q.87-4.05 2.12-7.68 7.85-22.86 13.34-44.4.55-2.15 1.22-4.07c1.21-3.45 1.84-6.93 3.11-10.45q1.34-3.71 2.26-7.22 1.06-4.07 2.65-9.02 1.24-3.86-1.7-6.45" vectorEffect="non-scaling-stroke"></path>
    <path stroke="#f680b4" d="M193.35 708.43c-3.4-.45-6.67-.86-10.14-.93q-42.08-.83-79.71-.37-1.99.02-4.37 1.17" vectorEffect="non-scaling-stroke"></path>
    <path stroke="#15839e" d="M1177.59 211.99q-.52-.56-1.07.08-.34.4-.21.9.41 1.52 1.07 3c3.13 6.98 7 13.65 10.08 20.63 8.17 18.5 14.15 38.75 18.31 58.94" vectorEffect="non-scaling-stroke"></path>
    <path stroke="#373b71" d="M1205.77 295.54q-.02 2.98 1.16 5.65" vectorEffect="non-scaling-stroke"></path>
    <path stroke="#15839e" d="M1206.93 301.19q1.33 6.78 2.38 13.59 7.13 46.48 9.07 93.47.69 16.48 0 32.98v.17" vectorEffect="non-scaling-stroke"></path>
    <path stroke="#8d3a72" d="M1218.38 441.4q-6.76.2-13.18-1.11c-5.35-1.09-10.91-2.43-16.18-4.1q-16.13-5.11-29.31-12.67c-1.66-.95-3.65-1.18-5.38-.18q-7.32 4.23-15.74 6.59-.25.07-.32-.18l-.07-.25a.36.36 0 01.2-.43c4.95-2.2 10.38-3.38 14.72-6.62q8.21-6.1 12.58-15.28 3.39-7.1 4.3-11.57 5.55-27.32-16.32-44.74c-13.05-10.4-29.34-10.7-44.93-4.58a.92.92 0 01-1.18-.5c-5.23-12.35-15.63-19.55-28.6-22.07q-10.77-2.09-18.99-.96-31.29 4.28-70.38 11.31c-4.94.89-11.13 1.82-14.94 3.84q-15.83 8.38-33.86 12.29-20.2 4.38-40.52-.45-.26-.06-.32.2-.05.24 0 .29" vectorEffect="non-scaling-stroke"></path>
    <path stroke="#9284ab" d="M835.2 302.65q-3.97-12.07-6.47-21.4c-3.38-12.61-4.13-25.59-2.17-38.69q5.54-37.16 34.08-63.17 3.66-3.33 7.48-6.11.82-.6.43.34-1.19 2.84-2.15 6.08c-2.66 8.99 5.04 15.67 12.6 18.37q11.81 4.2 24.4 3.25c15.57-1.17 33.93-6.14 43.91-18.46 4.63-5.72 6.37-12.04 1.23-18.35-7.73-9.51-23.18-10.28-34.36-11.37q-.06-.01-.06.06-.01.08 0-.12 0-.08.07-.08 20.48.04 25.77.66 13.98 1.64 30.9 7.55 1.77.61 4.11-.95" vectorEffect="non-scaling-stroke"></path>
    <path stroke="#473681" d="M523.3 785.94q1.27 1.26 2.99 1.58M542.33 815.51q.11 2.44 1.49 4.44M572 904.54q.12 2.04 1.15 3.45M577.62 921q.12 2.54 1.4 4.21" vectorEffect="non-scaling-stroke"></path>
    <path stroke="#861f83" d="M589.22 954.49q2.95 10.19 4.43 14.59 11.59 34.56 20.4 60.47 2.32 6.82 4.7 13.45a1.91 1.9-9.9 001.81 1.27l64.83-.63" vectorEffect="non-scaling-stroke"></path>
    <path stroke="#a280bb" d="M711.37 1085.91l-45.28-.48" vectorEffect="non-scaling-stroke"></path>
    <path stroke="#300357" d="M666.09 1085.43q-5.56-.67-8.73-5.22-5.06-7.24-6.58-15.49-.41-2.19-2.58-1.67l-3.44.82q-2.11.5-1.36 2.54 3.33 8.98 8.71 17.29c.39.61.3 1.05.44 1.77" vectorEffect="non-scaling-stroke"></path>
    <path stroke="#a280bb" d="M652.55 1085.47h-36.17" vectorEffect="non-scaling-stroke"></path>
    <path stroke="#441e8e" d="M616.38 1085.47q-.55-4.44-1.37-6.99-5.02-15.56-10.36-32.06-1.66-5.13-2.99-10.32c-.7-2.76-2.73-5.15-3.48-8.1-.78-3.11-2.59-5.57-3.58-8.7q-5.48-17.25-11.69-35.35c-1.05-3.06-1.06-6.52-2.5-9.09q-1.13-2.01-1.72-4.44-.64-2.66-1.84-5.13-1.75-3.56-2.4-8.01c-.27-1.84-1.16-3.1-1.61-4.76-1.32-4.83-3.31-9.06-4.67-13.79q-.77-2.71-2.14-5.92-2.08-4.89-4.02-11.24c-1.39-4.56-3.51-8.77-4.4-13.3-.66-3.38-3.11-5.07-3.06-8.68.05-3.63-1.87-7.44-3.03-10.8-.3-.89-.16-1.78-.45-2.69q-2.54-7.79-5.63-15.39c-.57-1.39-.36-2.85-1.06-4.01q-.78-1.31-1.22-2.77c-.69-2.29-1.75-4.38-2.29-6.74-.84-3.66-2.37-6.88-3.27-10.48q-1.06-4.26-2.83-8.52c-1.22-2.93-1.04-5.89-2.32-8.86q-1.25-2.88-2.13-5.76-1.78-5.79-4.21-11.89-1.87-4.67-3.68-9.48-1.77-4.68-5.64-9.97-.35-.47-.71-.02-.6.74-.29 1.7 2.3 7 4.58 12.94 2.06 5.34 3.64 10.84c2.04 7.11 4.47 14.01 6.83 20.89 1.26 3.7 1.95 8.27 3.31 11.79q4.14 10.67 7.7 21.53c8.12 24.79 16.93 50.44 22.87 68.61.46 1.42.25 2.87 1.06 4.22 2.03 3.34 1.97 7.08 3.63 10.55q1.91 4 2.95 8.63c.4 1.81 1.31 3.38 1.84 5.17 2.44 8.18 4.22 16.33 7.27 24.42q3.18 8.45 5.47 16.63c1.9 6.79 4.28 13.39 6.28 19.98q2.29 7.56 4.89 14.77 3.97 11.05 7.49 22.35.01.05 2.76 7.89 1.77 5.06 2.51 10.39" vectorEffect="non-scaling-stroke"></path>
    <path stroke="#a280bb" d="M610.87 1085.51l-376.75-.24M157.25 790.55q10.72-3.67 22.25-3.68 150.62-.12 301.25.06 7.35.01 16.27.51 2.82.16 5.82 1.31 5.4 2.07 10.49 2.99 2.88.52 1.28-1.93l-1.6-2.44q-1.61-2.47-4.51-3.02l-8.74-1.66" vectorEffect="non-scaling-stroke"></path>
    <path stroke="#df6bb6" d="M1200.29 867.99q-.27 1.28-.88 1.92-42.35 44.79-93.87 78.65-11.88 7.8-23.8 15.04" vectorEffect="non-scaling-stroke"></path>
    <path stroke="#9f4697" d="M1081.74 963.6q-9.47-8.46-21.14-11.13-1.93-.45-1.69-2.48c1.33-11.18.16-26.59-12.7-30.63q-3.14-.99-9.38-.95-46.02.26-92.88.05-5.66-.03-9.52 1.47-8.75 3.38-11.32 15.26-.93 4.31-.89 7.31.5 39.36.15 78.71" vectorEffect="non-scaling-stroke"></path>
    <path stroke="#df6bb6" d="M922.37 1021.21l-.17 12.35a.97.96-7.2 01-.72.92l-54.67 15.11q-.51.14-.78.6c-1.54 2.64-2.73 5.41-4.45 7.97q-4.84 7.22-9.44 13.88" vectorEffect="non-scaling-stroke"></path>
    <path stroke="#8a4977" d="M852.14 1072.04q-8.29.58-15.83 1.17c-8.36.66-16.07 2.02-24.05 3.65q-19.05 3.89-37.96 8.37" vectorEffect="non-scaling-stroke"></path>
    <path stroke="#fcc5db" d="M774.3 1085.23q.01-1.95-1.56-1.53-3.96 1.05-6.36 1.15-14.57.64-29.13 1.41-13.86.73-25.88-.35" vectorEffect="non-scaling-stroke"></path>
    <path stroke="#9f4697" d="M711.37 1085.91q-11.11-13.84-14.13-18.15-6.8-9.72-11.85-24.12" vectorEffect="non-scaling-stroke"></path>
    <path stroke="#e064a2" d="M685.39 1043.64q-3.96-13.29-4.62-24.13-.59-9.42 1.42-21.89c2.26-14.09 8.57-28.73 15.52-41.13a1.32 1.32 0 00-.86-1.94q-.5-.11-1.75-.94" vectorEffect="non-scaling-stroke"></path>
    <path stroke="#f77ba2" d="M695.1 953.61q3.86-1.1 6.06-3.2 3.53-3.37 4.3-4.65 1.83-3.04-.15-3.43" vectorEffect="non-scaling-stroke"></path>
    <path stroke="#e064a2" d="M810.07 909.8q6.58 1.12 13.16 2.61 9.19 2.08 13.19 2.35 7.78.52 15.58-.78 44.15-7.4 87.1-19.72" vectorEffect="non-scaling-stroke"></path>
    <path stroke="#9c5399" d="M921.67 783.42q-4.52-9.68-5.5-21.04" vectorEffect="non-scaling-stroke"></path>
    <path stroke="#4e54b2" d="M946.03 692.24q1.94-1.82 2.49-3.95M965.41 651.26q-.11 1.2-.56 1.72" vectorEffect="non-scaling-stroke"></path>
    <path stroke="#de548e" d="M922.05 784.72q.26 2.52-.95 3.86c-7.66 8.53-13.35 16.54-21.37 26.13q-40.9 48.89-88.7 92.06-1.5 1.35-.96 3.03" vectorEffect="non-scaling-stroke"></path>
    <path stroke="#f77ba2" d="M810.07 909.8q-25.35-1.14-41.57.46-9.91.97-22.56 8.47-.25.15-.55.15h-.37q-.37.01-.49-.35-.06-.18-.15-.4" vectorEffect="non-scaling-stroke"></path>
    <path stroke="#4e3ea2" d="M1048.86 562.94q-.42 2.08-1.29 4.09-.35.82-1.18 1.43-.95.71-1.48 1.22" vectorEffect="non-scaling-stroke"></path>
    <path stroke="#9b90d0" d="M1044.91 569.68q-3.34 1.1-5.58 3.16-28.73 26.54-42.59 63.17-11.62 30.72-10.57 65.83" vectorEffect="non-scaling-stroke"></path>
    <path stroke="#4e3ea2" d="M986.17 701.84q.26 1.08.32 2.28.08 1.64.37 3.23 2.23 12.19 6.05 25.18 1.99 6.77 1.33 12.22-3.92 32.67-13.67 66.95-3.27 11.5-6.2 22.07-.29 1.02-1.37.5" vectorEffect="non-scaling-stroke"></path>
    <path stroke="#7f2f97" d="M973 834.27q-10.63-4.92-18.16-9.62-19.64-12.27-30.15-33.57-1.82-3.7-2.64-6.36" vectorEffect="non-scaling-stroke"></path>
    <path stroke="#964597" d="M922.05 784.72l-.38-1.3" vectorEffect="non-scaling-stroke"></path>
    <path stroke="#3d2ea2" d="M921.67 783.42q6.3-4.27 10.91-10.55c13.91-18.96 25.78-38.55 37.08-58.84q2.01-3.62 2.63-6.4 1.4-6.28.09-12.44-2.43-11.42-3.91-24.51-.49-4.33-1.4-8-.98-3.94-1.5-7.79c-.18-1.26-.03-2.38-.16-3.63" vectorEffect="non-scaling-stroke"></path>
    <path stroke="#4847b0" d="M965.41 651.26c.29-2.2 1.29-4.88 1.05-7.74M971.21 611.23q1.29-2.1 1.28-4.69M985.87 580.27q.96-.46 1.4-1.91" vectorEffect="non-scaling-stroke"></path>
    <path stroke="#712263" d="M1143.26 543.22l.49 6.88" vectorEffect="non-scaling-stroke"></path>
    <path stroke="#40316d" d="M1144.12 641.29q-1.2 16.79-1.46 21.45-1.48 26.54-7.64 49.73-2.87 10.78-6.02 21.49-3.37 11.46-5.93 22.28-1 4.24-1.97 8.49-.91 3.96-2.23 8.44-1.59 5.38-3.17 10.7a.64.64 0 00.67.82l.83-.07a.47.47 0 01.45.7l-1.91 3.32" vectorEffect="non-scaling-stroke"></path>
    <path stroke="#8d839b" d="M1115.74 788.64q-4.48 6.09-10.83 11.63" vectorEffect="non-scaling-stroke"></path>
    <path stroke="#40316d" d="M1104.91 800.27q-.21-1.84.62-3.97.99-2.56 1.22-3.73 2.2-11.15 5.22-22.11.16-.59.32-1.2 3.58-14.07 7.61-28.18 1.4-4.93 3.1-11.89 1.52-6.2 3.11-11.94 3.38-12.23 5.88-24 4.56-21.5 4.74-49.75" vectorEffect="non-scaling-stroke"></path>
    <path stroke="#883863" d="M1136.73 643.5q-.02-4.39.14-8.24.75-19.13.18-38.26-.33-10.87-.48-21.75-.09-6.65-.36-13.29" vectorEffect="non-scaling-stroke"></path>
    <path stroke="#712263" d="M1136.21 561.96l-1.13-22.17" vectorEffect="non-scaling-stroke"></path>
    <path stroke="#5673ad" d="M1195.77 580.26l2.36 1.82M1194.1 593.5q-.5-.32-.73.21" vectorEffect="non-scaling-stroke"></path>
    <path stroke="#acb6e0" d="M1193.37 593.71q-.16.64-.42.16a.32.3 48.9 01.01-.32q1.3-1.86 2.28-3.73.57-1.09 1.23-2.14c1.27-2.04 1.42-5.38-1.16-6.43q-.5-.21-.97.06l-2.19 1.25q-.41.23-.87.32-.76.16-1.59.84" vectorEffect="non-scaling-stroke"></path>
    <path stroke="#5f64b2" d="M1162.93 715.25q-3.14 5.04-4.69 10.78M1157.49 727.27q-2.48 2.99-3.19 6.5M1153.22 735.52q-.12.05-.24.11-.26.1-.41.34l-13.49 22.48" vectorEffect="non-scaling-stroke"></path>
    <path stroke="#de548e" d="M1136.21 561.96q-.31-1.29-.16-2.39a.99.99 0 00-1.44-1.01q-31.53 16.76-66.79 18.53" vectorEffect="non-scaling-stroke"></path>
    <path stroke="#964c99" d="M1067.82 577.09q.36-7.12-1.43-12.6" vectorEffect="non-scaling-stroke"></path>
    <path stroke="#b2add1" d="M1104.91 800.27q-3.33 2.99-7.03 6.86-4.04 4.22-17.36 15.05" vectorEffect="non-scaling-stroke"></path>
    <path stroke="#544ba4" d="M1080.52 822.18q-17.56-9.31-31.66-22.16-7.12-6.5-13.43-14.76-10-13.08-17.36-27.84-1.42-2.85-1.43.33-.03 4.25 1.69 8.42c2.49 6.04 2.97 12.62 2.13 18.9-1.84 13.63-4.48 27.36-7.26 40.19q-4.58 21.11-12.18 41.65a2.6 2.59-4.7 01-1.17 1.37q-3.59 1.99-4.67 5.03" vectorEffect="non-scaling-stroke"></path>
    <path stroke="#b2add1" d="M995.18 873.31q-21.4 9.8-44.57 17.16" vectorEffect="non-scaling-stroke"></path>
    <path stroke="#964c99" d="M950.61 890.47q-.18-2 1.32-3.82 1.85-2.25 2.3-3.11c1.36-2.61 2.77-5.06 3.93-7.72q8.81-20.19 15.04-38.37.49-1.42-.2-3.18" vectorEffect="non-scaling-stroke"></path>
    <path stroke="#b2add1" d="M986.17 701.84q.77-.01.81-.33 3.22-26.85 10.44-51.09 12.1-40.67 39.42-71.51 1.96-2.21 4.27-4.53 2.12-2.14 3.8-4.7" vectorEffect="non-scaling-stroke"></path>
    <path stroke="#a9bccd" d="M1193.37 593.71l.06.85q.04.52-.46.66-1.15.32-1.74 1.24" vectorEffect="non-scaling-stroke"></path>
    <path stroke="#acb6e0" d="M1191.15 596.03q-1.71.09-1.85 1.55-.08.76.66 1.91.62.97 1.03 1.95M1165.92 735.51q-1.24 1.12-1.59 2.5M1157.81 747.06q-2.38 2.2-3.4 4.71M1150.97 756.25q-1.47.29-2.14 2.71M1148.49 759.32l-1.19.87q-.41.3-.65.74-.41.8-1.05 1.42-.33.32-.49.75l-.41 1.07" vectorEffect="non-scaling-stroke"></path>
    <path stroke="#fcc5db" d="M1143.23 766.52q-8 8.34-27.58 29.87c-18.51 20.35-41.26 38.25-65.16 53.41q-7.58 4.8-16.41 9.55-43.72 23.52-90.83 37.42-3.18.93-4.15-2.51" vectorEffect="non-scaling-stroke"></path>
    <path stroke="#e39ec7" d="M939.1 894.26l11.51-3.79" vectorEffect="non-scaling-stroke"></path>
    <path stroke="#a19dd2" d="M995.18 873.31q45.29-19.37 85.34-51.13" vectorEffect="non-scaling-stroke"></path>
    <path stroke="#b2add1" d="M1115.74 788.64q7.02-8.54 14.2-16.99c1.61-1.9 2.78-4 4.3-5.97q1.28-1.65 2.4-3.61 1.13-1.95 2.44-3.62" vectorEffect="non-scaling-stroke"></path>
    <path stroke="#acb6e0" d="M1139.08 758.45q4.5-5.51 7.86-11.56.74-1.34 1.58-2.62 2.39-3.65 4.43-7.51.13-.24.16-.6.02-.33.11-.64" vectorEffect="non-scaling-stroke"></path>
    <path stroke="#b2add1" d="M1153.22 735.52l1.08-1.75" vectorEffect="non-scaling-stroke"></path>
    <path stroke="#acb6e0" d="M1154.3 733.77q2.4-2.76 3.19-6.5" vectorEffect="non-scaling-stroke"></path>
    <path stroke="#b2add1" d="M1157.49 727.27l.75-1.24" vectorEffect="non-scaling-stroke"></path>
    <path stroke="#acb6e0" d="M1158.24 726.03q1.9-3.25 3.43-6.51.97-2.06 1.26-4.27" vectorEffect="non-scaling-stroke"></path>
    <path stroke="#b2add1" d="M1162.93 715.25q1.58-2.43 1.83-5.2.18-1.99-1.05-5.19-6.95-18.09-7.97-35.35-.82-13.95 2.38-30.69" vectorEffect="non-scaling-stroke"></path>
    <path stroke="#fcc5db" d="M1163.7 621.96l4.77-10.23" vectorEffect="non-scaling-stroke"></path>
    <path stroke="#acb6e0" d="M1175.66 599.98q1.46.72 3.32 0M1178.98 599.98q2.39 1.19 3.82-1.03 1.85-2.84 2.36-6.18a.95.94 80.5 00-1.37-.98q-.85.45-1.82-.16" vectorEffect="non-scaling-stroke"></path>
    <path stroke="#2cbac0" d="M1364.11 541.65q-.14.99-1.81 1.23-2.09.3-5.05.04-11.06-1-22.12-1.95-44.6-3.83-105.31-9.55-.12-.01-6.11-.75-3.95-.49-7.85-.37" vectorEffect="non-scaling-stroke"></path>
    <path stroke="#7db3ba" d="M1215.86 530.3c.21-5.22.91-10.93 1.14-15.4q1.87-36.75 1.38-73.5" vectorEffect="non-scaling-stroke"></path>
    <path stroke="#27b4b9" d="M1206.93 301.19q.03-2.99-1.16-5.65" vectorEffect="non-scaling-stroke"></path>
    <path stroke="#4d7293" d="M1409.24 548.14q1.91 2.59 5.31 2.3.27-.02.1.19-.04.05-.03.11.05.28.29.42 10.47 5.8 19.96 13.37 1.52 1.21 2.6 2.74 2.41 3.4 5.07 6.84a7.58 7.55-68.2 011.51 3.54c.63 4.31.9 8.32.24 12.77q-1.08 7.21-1.59 14.64-.22 3.35-.92 5.87-.8 2.84-1.4 5.73-.88 4.22-2.16 8.62-6.32 21.88-10.19 32.27-7.25 19.53-10.79 31.42-3.74 12.58-8.18 26.04c-4.68 14.15-8.67 27.13-13.12 40.99-1.11 3.46-1.69 7.13-2.78 10.55q-8.77 27.46-16.41 53.34-2.95 10.01-5.94 19.1-8.14 24.71-16.1 49.48-2.76 8.59-5.62 18.37-6.19 21.13-13.1 42.71-3.16 9.87-5.73 19.23-5.83 21.19-12.02 41.74-1.75 5.83-6.38 18.49-6.64 18.16-12.42 40c-1.22 4.6-3.86 12.88-9.48 13.71q-.64.09-1.03.59-1.14 1.44.02 2.47" vectorEffect="non-scaling-stroke"></path>
    <path stroke="#a9bccd" d="M1288.95 1085.78l-83.64-.17" vectorEffect="non-scaling-stroke"></path>
    <path stroke="#4b5a9f" d="M1205.31 1085.61q-1.77-2.56-.79-4.84c5.03-11.75 10.78-24.17 15.32-35.21q21.99-53.4 41.08-108.33 1.15-3.32.81-7.02" vectorEffect="non-scaling-stroke"></path>
    <path stroke="#8c62a8" d="M1261.73 930.21q21.71-24.38 27.47-31.5 12.72-15.72 30.65-44.09c4.1-6.48 7.36-13.44 11.48-19.96q5.86-9.27 8.84-15.41 1.07-2.22-.26-3.57" vectorEffect="non-scaling-stroke"></path>
    <path stroke="#444c9d" d="M1339.91 815.68q23.18-43.64 33.06-93.95 3.7-18.82 5.91-30.38 2.38-12.48 2.87-19.78 3.4-50.44-31.18-87.88-8.28-8.97-19.57-14.77" vectorEffect="non-scaling-stroke"></path>
    <path stroke="#a9bccd" d="M1331 568.92q-39.54-24.08-85.48-15.79-16.4 2.96-30.15 10.24-1.45.76-2.91 1.72-.57.38-.04.82 1.16.94.46 2.25-.41.77-.59 1.68-.46 2.45-.26 4.71.01.14.13.2l.08.04q.34.27.18-.14-.81-2.08.14-4.39.3-.71.44.05.22 1.19.04 2.46-.17 1.23.81 1.76.4.21.08-.11l-.43-.43q-.42-.42.17-.38.42.03.65.4a.77.75 75.6 00.61.37q1.04.05 2.11.46" vectorEffect="non-scaling-stroke"></path>
    <path stroke="#5673ad" d="M1217.04 574.84q.27.68-.18 1.45" vectorEffect="non-scaling-stroke"></path>
    <path stroke="#4b5a9f" d="M1216.86 576.29l-2.19 1.47q-.53.36-.67-.27-.06-.26-.04-.52.03-.68-.64-.83-.9-.21-1.54-.83" vectorEffect="non-scaling-stroke"></path>
    <path stroke="#4d7293" d="M1209.93 567.04q1.32-1.11.46-1.45a.34.33 36.2 00-.33.05l-2.07 1.7" vectorEffect="non-scaling-stroke"></path>
    <path stroke="#596dc0" d="M1178.98 599.98q2.07.35 3.04-.81.35-.42-.2-.36-.6.07-.76.52-.16.46-.64.43l-1.95-.13" vectorEffect="non-scaling-stroke"></path>
    <path stroke="#5673ad" d="M1178.47 599.63q4.26-1.31 4.98-5.5.08-.44-.06-.75-.27-.6-.86-.28M1178.47 599.63q-.66.44-1.22.19-.45-.19-.38-.67.06-.36-.03-.63" vectorEffect="non-scaling-stroke"></path>
    <path stroke="#8d839b" d="M100.03 1085.18l-30.81-.4" vectorEffect="non-scaling-stroke"></path>
    <path stroke="#a19dd2" d="M616.38 1085.47l-5.51.04" vectorEffect="non-scaling-stroke"></path>
    <path stroke="#8d839b" d="M666.09 1085.43q.82.53 4.1 2 11.44 5.1 22.83 6.23 13.59 1.35 27.21.35 27.42-2.03 54.07-8.78M930.76 1085.99l-16.81-.57" vectorEffect="non-scaling-stroke"></path>
    <path stroke="#712977" d="M913.95 1085.42q-4.84-.75-9.55-2.12-5.97-1.73-9.47-2.24c-10.88-1.59-21.81-3.07-33.37-2.43q-9.61.52-20.06 1.33-6.06.46-18.24 3.75" vectorEffect="non-scaling-stroke"></path>
    <path stroke="#8d839b" d="M823.26 1083.71q-15.8 1.47-34.28 6.45-17.22 4.65-40.98 8.48" vectorEffect="non-scaling-stroke"></path>
    <path stroke="#3a3a7c" d="M748 1098.64q-14.43 2.11-32.25 2.76-20.37.75-38.35-2.79" vectorEffect="non-scaling-stroke"></path>
    <path stroke="#8d839b" d="M677.4 1098.61q-13.81-3.89-23.98-13.02-.28-.24-.87-.12" vectorEffect="non-scaling-stroke"></path>
    <path stroke="#8543ad" d="M1261.73 930.21q-6.05 5.58-26.91 26.36-39.26 39.09-90.23 67.65-1.95 1.09-2.45 1.4" vectorEffect="non-scaling-stroke"></path>
    <path stroke="#712977" d="M1142.14 1025.62q-3.57 1.17-4.94 2.64" vectorEffect="non-scaling-stroke"></path>
    <path stroke="#8543ad" d="M1137.2 1028.26q-1.77 1.38-3.63 2.49-30.62 18.31-63.5 32.18-5.47 2.31-11.03 4.34" vectorEffect="non-scaling-stroke"></path>
    <path stroke="#862697" d="M1059.04 1067.27l.13-22.93q.01-1.01.99-1.24 4.29-1 8.56-2.71 4.26-1.71 7.82-4.24c13.58-9.64 21.12-24.96 19.87-41.62q-1.35-17.99-14.67-30.93" vectorEffect="non-scaling-stroke"></path>
    <path stroke="#3d2ea2" d="M1300.08 559.84q-2.38 3.09 1.42 4.64c6.55 2.68 13.92 7.17 17.72 13.25q4.8 7.66 10.02 14.87 7.89 10.87 12.38 23.93 3.3 9.58 3.9 19.87 1.83 31.06-13.95 57.56-8.77 14.71-21.81 26.61c-7.24 6.62-15.37 12.31-20.55 20.93q-12.18 20.31-24.68 43.24-2.23 4.08-5.18 8.53-9.44 14.19-19.16 27.45-8.89 12.12-29.08 36.09-.93 1.1-5.2 5.46-2.65 2.71-4.79 5.88" vectorEffect="non-scaling-stroke"></path>
    <path stroke="#8543ad" d="M1201.12 868.15l-.83-.16" vectorEffect="non-scaling-stroke"></path>
    <path stroke="#9e63ad" d="M1200.29 867.99c-6.44-3.79-13.23-7.58-18.92-11.99q-24.37-18.9-33.89-49.68-4.87-15.75-4.62-34.07.04-2.84.37-5.73" vectorEffect="non-scaling-stroke"></path>
    <path stroke="#a19dd2" d="M1143.23 766.52l1.47-2.35" vectorEffect="non-scaling-stroke"></path>
    <path stroke="#4e54b2" d="M1144.7 764.17q2.44-2.22 3.79-4.85" vectorEffect="non-scaling-stroke"></path>
    <path stroke="#a19dd2" d="M1148.49 759.32q-.16-.08.34-.36" vectorEffect="non-scaling-stroke"></path>
    <path stroke="#4e54b2" d="M1148.83 758.96q1.67-1.09 2.14-2.71" vectorEffect="non-scaling-stroke"></path>
    <path stroke="#a19dd2" d="M1150.97 756.25l3.44-4.48" vectorEffect="non-scaling-stroke"></path>
    <path stroke="#4e54b2" d="M1154.41 751.77q1.28-.75 1.88-2.04.36-.78.76-1.32.51-.67.76-1.35" vectorEffect="non-scaling-stroke"></path>
    <path stroke="#a19dd2" d="M1157.81 747.06l6.52-9.05" vectorEffect="non-scaling-stroke"></path>
    <path stroke="#4e54b2" d="M1164.33 738.01q1.57-.97 1.59-2.5" vectorEffect="non-scaling-stroke"></path>
    <path stroke="#a19dd2" d="M1165.92 735.51q7.86-11.67 9.21-15.14 1.01-2.61.25-4.88-2.38-7.08-4.03-12.78-1.95-6.78-2.77-13.05c-2.28-17.28-.49-34.01 4.1-51.12.6-2.27 1.62-4.33 2.18-6.59q.61-2.44 1.67-4.81 4.03-9.06 8.65-17.36 1.19-2.13 5.81-8.34" vectorEffect="non-scaling-stroke"></path>
    <path stroke="#4e54b2" d="M1190.99 601.44q.23-.11.42-.45.15-.29.11-.61-.07-.5-.6-.35a.26.26 0 01-.33-.19q-.34-1.59.56-3.81" vectorEffect="non-scaling-stroke"></path>
    <path stroke="#a19dd2" d="M1191.15 596.03l.08.43" vectorEffect="non-scaling-stroke"></path>
    <path stroke="#4b5a9f" d="M1191.23 596.46l-.64 2.08a1 .98 26.4 00.38 1.11l.33.24a.59.58 28.3 00.88-.26q.81-2.1 2.91-4.04" vectorEffect="non-scaling-stroke"></path>
    <path stroke="#4e54b2" d="M1195.09 595.59q1.13-.92 1.87-2.1" vectorEffect="non-scaling-stroke"></path>
    <path stroke="#544ba4" d="M1196.96 593.49q2.44-1.17 2.18-2.78" vectorEffect="non-scaling-stroke"></path>
    <path stroke="#4e54b2" d="M1216.86 576.29q1.48-.35 1.59-1.09" vectorEffect="non-scaling-stroke"></path>
    <path stroke="#712977" d="M914.56 1076.21q-31.77-4.65-62.42-4.17" vectorEffect="non-scaling-stroke"></path>
    <path stroke="#441e8e" d="M1059.04 1067.27q-.6 9.74 1.19 18.76" vectorEffect="non-scaling-stroke"></path>
    <path stroke="#a280bb" d="M1060.23 1086.03q-64.43.99-129.47-.04" vectorEffect="non-scaling-stroke"></path>
    <path stroke="#300357" d="M930.76 1085.99l.93-1.38a.96.96 0 00-.8-1.5c-6.51-.01-10.7-2.82-16.33-6.9" vectorEffect="non-scaling-stroke"></path>
    <path stroke="#862697" d="M914.56 1076.21l6.48 1.21a.97.97 0 001.15-.95l.18-55.26" vectorEffect="non-scaling-stroke"></path>
    <path stroke="#ad6399" d="M1136.73 643.5q-4.05.06-8.11-.89c-11.45-2.66-23.36-7.37-32.47-14.31q-18.36-14.01-24.64-37.33-2.04-7.6-3.69-13.88" vectorEffect="non-scaling-stroke"></path>
    <path stroke="#5f64b2" d="M1196.96 593.49q-.26-.15-1.37.24" vectorEffect="non-scaling-stroke"></path>
    <path stroke="#5673ad" d="M1195.09 595.59q-.33-.25-.72-.24-.42.01-.26-.37.09-.22.46-.23" vectorEffect="non-scaling-stroke"></path>
    <path stroke="#a4b6c5" d="M1493.11 1088.75q12.52 6.47 20.46 17.21 2.37 3.2 7.63 12.76" vectorEffect="non-scaling-stroke"></path>
    <path stroke="#a2a7d5" d="M1521.26 1134.71q-.83-.59-.99-.97c-5.29-12.2-11.36-22.51-23.21-29.05q-11.84-6.54-25.81-6.54-103.7-.06-207.75.25-18.99.05-37.54-.09" vectorEffect="non-scaling-stroke"></path>
    <path stroke="#acb6e0" d="M1225.96 1098.31q-230.44.08-460.46-.04-7.11 0-15.74 1.2-1.14.16-1.76-.83" vectorEffect="non-scaling-stroke"></path>
    <path stroke="#9b90d0" d="M1331 568.92q-10.13-2.48-19.73-6.21-3.02-1.17-5.51-1.72-2.73-.6-5.68-1.15" vectorEffect="non-scaling-stroke"></path>
    <path stroke="#a19dd2" d="M1300.08 559.84q-14.63-3.18-30.08-1.99-28.08 2.16-51.55 17.35" vectorEffect="non-scaling-stroke"></path>
    <path stroke="#acb6e0" d="M1218.45 575.2q-.71.15-1.41-.36" vectorEffect="non-scaling-stroke"></path>
    <path stroke="#7e36ab" d="M1339.91 815.68q-5.85 10.55-10.94 18.05-16.02 23.65-42.56 35.42c-27.43 12.17-57.47 10.79-85.29-1" vectorEffect="non-scaling-stroke"></path>
    <path stroke="#a4b6c5" d="M1478.98 1085.34l-190.03.44" vectorEffect="non-scaling-stroke"></path>
    <path stroke="#a19dd2" d="M1205.31 1085.61l-47.28.25" vectorEffect="non-scaling-stroke"></path>
    <path stroke="#2f216e" d="M1158.03 1085.86q-1.88-6.11-3.18-12.62-1.11-5.51-2.2-9.77-1.27-4.95-2.42-9.75-1.11-4.64-2.53-9.04-1.28-3.94-2.49-9.03-1.24-5.16-3.07-10.03" vectorEffect="non-scaling-stroke"></path>
    <path stroke="#25a5c8" d="M1067.62 1250.85q-4.25-1.81-8.87-1.9-11-.23-22-.25-333.81-.3-667.63-.14-2.57 0-4.6 1.98" vectorEffect="non-scaling-stroke"></path>
    <path stroke="#4f5eb5" d="M227.42 1184.58q1.93-1.23 5.08-1.26c92.69-1 182.43-.88 302.24-.59q9.77.03 20.02 0c157.91-.39 316.16-.3 473.75-.27q10.09 0 20 .06 82.26.46 198.47.3.79 0 1.65.05 3.05.2.28-1.09-3.66-1.69-7.23-3.45c-10.25-5.06-20.42-14.4-24.22-25.5q-6.98-20.32.99-39.17.49-1.16 4.14-7.44 2.25-3.87 3.37-7.91" vectorEffect="non-scaling-stroke"></path>
    <path stroke="#e3a5db" d="M913.95 1085.42q-8.92-.25-24.45.08-31.39.65-66.24-1.79" vectorEffect="non-scaling-stroke"></path>
    <path stroke="#a19dd2" d="M1149.93 1085.84l-89.7.19" vectorEffect="non-scaling-stroke"></path>
    <path stroke="#8d839b" d="M1158.03 1085.86q-3.02 2.57-8.1-.02" vectorEffect="non-scaling-stroke"></path>
    <path stroke="#2f216e" d="M1149.93 1085.84q-.39-10.03-3.46-19.83c-.75-2.37-1.11-4.85-1.81-7.25q-1.19-4.05-2.09-7.83-1.08-4.52-2.14-7.82-1.92-5.96-3.89-11.85-.55-1.64.66-3" vectorEffect="non-scaling-stroke"></path>
    <path stroke="#27b4b9" d="M383.81 395.79l.36 184.81" vectorEffect="non-scaling-stroke"></path>
    <path stroke="#10818f" d="M384.17 580.6q3.41 13.59 18.33 14.36c4.89.25 9.78.56 14.68.55q111.58-.2 215.05-.42 5.41-.01 11.78-.41c11.2-.7 16.72-12.76 16.55-22.88q-1.6-94.02.15-189.09.14-7.84-.98-11.52c-1.73-5.68-5.93-12.4-11.94-13.97q-3.57-.94-7.05-.95-91.79-.44-237.66.13c-3.08.01-6.84.21-9.5 1.79-4.41 2.61-9.82 9.09-9.82 14.3q-.01 11.66.05 23.3" vectorEffect="non-scaling-stroke"></path>
    <path stroke="#323961" d="M384.17 580.6l-.36-184.81" vectorEffect="non-scaling-stroke"></path>
    <path stroke="#840450" d="M528.35 96.79q2.52-5.93 3.39-12.42.19-1.42-1.2-1.73-3.22-.72-5.73-.08-.76.2-1.14.89-8.9 16.49-14.04 31.89c-.77 2.3-1.96 8.59 2.12 8.8q4.64.25 6.67-4.39 5.01-11.43 9.93-22.96M456.15 104.45a1.36 1.36 0 01.22-1.97q5.98-4.44 12.36-11.86c1.85-2.14 1.14-4.74-.78-6.73q-1.37-1.4-2.89-1.05-4.24.99-7.42 4.12c-4.04 3.98-8.1 7.61-11.42 11.68q-3.58 4.38-1.94 9.7.17.54.63.88 3.76 2.78 6.36 5.83c3.91 4.59 8.68 8.61 14.01 11.57a1.83 1.82 34.1 002.29-.44c1.94-2.35 3.46-5.94.9-8.47q-6.77-6.7-12.32-13.26M537.47 118.25q-2.44 3.57-.33 7.08a2.42 2.42 0 002.6 1.11c1.81-.41 3.72-1.34 5.19-2.46q8.14-6.24 16.43-16.28 2.39-2.9.14-6.1-6.2-8.79-14.58-15.33c-2.99-2.34-6.67-3.05-10.39-2.67a.79.78-8.9 00-.69.94q.63 2.98 2.02 5.57 1.03 1.9 3.2 4.93 3.47 4.85 8.24 8.24a.97.97 0 01.08 1.52q-6.86 6.05-11.91 13.45M505.48 177.4c.05 3.69 2.95 5.4 6.33 5.49q24.96.67 50.46.06 1.92-.05 2.07-1.97l.32-3.94q.14-1.82-1.68-1.97-6.71-.58-15.38-.58-19.03-.01-34.08.14-2.81.03-6.04.46a2.3 2.29 85.9 00-2 2.31" vectorEffect="non-scaling-stroke"></path>
    <path stroke="#712263" d="M125.82 390.46q-9.57-.84-19.05.04" vectorEffect="non-scaling-stroke"></path>
    <path stroke="#840450" d="M101.09 391.12q-.45-.91-1.8-.2c-3.69 1.95-1.88 11.35-.84 14.86 1.08 3.65 6.18 3.15 8.99 3.17q37.46.3 77.48.34c3.21 0 6.32-.52 9.4-1.43a2.15 2.15 0 001.55-1.94q.33-5.55.31-11.03c-.01-3.48-4.14-4.43-6.96-4.51q-21.73-.61-43.47-.62-5.22 0-19.93.7" vectorEffect="non-scaling-stroke"></path>
    <path stroke="#da1f7c" d="M125.53 390.75l.29-.29" vectorEffect="non-scaling-stroke"></path>
    <path stroke="#840450" d="M262.02 406.03c1.5-3.55 1.81-7.16.78-10.88q-1.29-4.63-6.23-4.77-19.49-.57-38.31-.25-2.68.05-3.49 2.44c-1.19 3.48-1.88 8.8-1.2 12.67q.62 3.51 5.63 3.64 18.66.51 36.8-.03c2.11-.07 5.04-.51 6.02-2.82M196.52 446.8a4.07 3.97-30.6 00.45-1.67q.1-2.61.18-5.54c.12-4.53-3.09-7.55-7.62-7.59q-19.9-.2-37.38-.29a4.38 4.37-88.8 00-4.39 4.21q-.16 4.21-.22 9.46c-.04 3 1.64 5.38 4.68 5.4q18.91.09 37.38.21c2.94.01 5.56-1.57 6.92-4.19M215.36 436.19l-.02 10.22a4.32 4.32 0 004.31 4.33l62.99.11a7.45 6.27.1 007.46-6.25l.02-6.32a7.45 6.27.1 00-7.44-6.29l-62.99-.11a4.32 4.32 0 00-4.33 4.31M321.58 489.99c4-2.82 2.68-10.57.88-14.3-.79-1.64-2.88-1.95-4.48-2.15q-12.22-1.56-25.25-.17-2.34.25-2.86 2.47-1.02 4.3-.65 9.98c.24 3.77 2.3 6.09 6.2 6.28q9.9.51 19.34-.1 4.37-.28 6.82-2.01M208.86 492.15a6.97 6.97 0 006.93-7.87l-.63-4.85a6.97 6.97 0 00-6.76-6.07l-21.62-.45a6.97 6.97 0 00-7.11 7.04l.05 5.24a6.97 6.97 0 006.95 6.9l22.19.06M234.91 477.54l-.12 9.66a4.57 4.57 0 004.52 4.63l22.73.27a8.53 8.28.7 008.63-8.17l.03-2.24a8.53 8.28.7 00-8.43-8.38l-22.73-.28a4.57 4.57 0 00-4.63 4.51M148.21 516.6q-.47.67-.5 1.48-.17 4.25-.14 8.85.04 6.3 6.21 6.3 19.16-.01 37.48.1c3.47.03 5.48-2.68 5.48-5.98q0-4.69-.05-8.76a3.58 3.58 0 00-3.54-3.54q-20.14-.2-41.4-.35-2.18-.02-3.54 1.9M97.37 560.68v9.92a4.69 4.69 0 004.69 4.69h85.7a8.71 7.83 0 008.71-7.83v-3.64a8.71 7.83 0 00-8.71-7.83h-85.7a4.69 4.69 0 00-4.69 4.69M164.39 612.11l.08-10.04a4.55 4.55 0 00-4.51-4.59l-23.6-.21a8.23 8.02.5 00-8.3 7.95l-.02 3.1a8.23 8.02.5 008.16 8.09l23.6.21a4.55 4.55 0 004.59-4.51M157.79 632.3c-5 2.36-4.92 9.47-3.17 14.1q1.75 4.64 7.04 4.63 29.27-.07 55.75.06c3.32.01 8.45-.14 9.76-3.78 1.39-3.86 3.54-14.76-3.53-15.26q-1.86-.14-3.41-.17-32.74-.72-58.62-.3-2.35.03-3.82.72M164.02 681.33q1.41-4.48.41-11.11c-.35-2.27-1.86-3.52-4.15-3.81q-12.86-1.65-24.28-.75-6.09.48-7.43 6.24c-.75 3.23-.75 9.59 2.6 11.62q1.88 1.14 4.79 1.44 11.04 1.13 23.51-.26 3.61-.4 4.55-3.37M444.22 401.72q1.19-2.99 1.82-6.95.18-1.1-.86-1.49c-2.5-.94-6.91-1.54-8.59 1.07q-1.32 2.04-2.48 4.61-6.03 13.34-10.07 24.54-1.67 4.62-.27 9.78.19.72.91.93l2.48.69a1.6 1.58-63.9 001.73-.6q2.07-2.85 3.67-6.18 6.73-13.98 11.66-26.4M468.21 397.11q.96-2.23-.29-3.52c-1.15-1.17-3.29-.92-4.82-.96-1.67-.04-3.4.57-4.18 2.12q-6.33 12.49-10.96 26.39-1.61 4.83-2.26 9.19c-.5 3.39 2.01 5.4 5.02 3.87q1.8-.91 2.47-2.11 8.16-14.65 15.15-34.26.07-.18-.07-.32-.16-.17-.06-.4" vectorEffect="non-scaling-stroke"></path>
    <path stroke="#a9bccd" d="M1213.51 566.23q-.53 3.37-.25 6.76.02.2.22.18h0q.2-.01.19-.21-.16-1.83.04-3.67" vectorEffect="non-scaling-stroke"></path>
    <path stroke="#acb6e0" d="M1213.71 569.29q.48 1.68.29 3.62-.01.04.02.06.04.04.04-.01.01-.04.01-.07.24-2.93.31-5.63.01-.49-.33-.87-1.46-1.63-.54-.16" vectorEffect="non-scaling-stroke"></path>
    <path stroke="#5673ad" d="M1213.71 569.29q.54-2.14-.2-3.06" vectorEffect="non-scaling-stroke"></path>
    <path stroke="#5f2c83" d="M424.97 956.78a41.95 41.95 0 00-41.95-41.95 41.95 41.95 0 00-41.95 41.95 41.95 41.95 0 0041.95 41.95 41.95 41.95 0 0041.95-41.95" vectorEffect="non-scaling-stroke"></path>
    <path stroke="#862697" d="M1064.52 978.63q-2.22-2.03-4.28-3.64a.46.46 0 00-.75.36q-.35 19.72-.66 40.24-.04 2.22.66 4.02a.77.77 0 001.1.39q12.13-7.11 13.58-21.1 1-9.69-6.29-17.05-1.65-1.66-3.36-3.22" vectorEffect="non-scaling-stroke"></path>
  </g>
  <path fill="#ed0169" d="M438.38 32.79q-5.23 4.66-10.29 9.8-1.43 1.45-3.13 2.4a.48.48 0 00.09.87c1.08.35 2.16.98 2.91 1.86q4.21 4.96 8.72 9.05c3.21 2.91 2.48 7.58 1.27 11.17a1.33 1.33 0 01-1.5.88q-1.32-.26-2.4-1.09-11.03-8.54-18.58-18.43c-1.46-1.91-2.41-4.18-1.07-6.34q3.33-5.36 4.51-8.28 4.67-5.06 9.69-10.1.97-.97 3.42-1.19c3.49-.31 6.83-.65 7.73 3.83q.1.49-.12.95-1.17 2.45-1.25 4.62z"></path>
  <path fill="#05fce6" d="M1089.38 139.89q.29-.1-.02.33-.2.26-.52.32l-113.87 19.72q-.09-.11-.12-.24-.09-.38-.46-.48-8.67-2.32-17.02-5.28c-13.54-4.81-27.14-6.63-41.32-5.85-16.19.88-31.63 6.34-45.63 14.3-9.91 5.63-18.21 13.82-25.8 22.66-12.36 14.39-18.82 31.35-22.37 49.9-2.27 11.82-1.7 23.76.54 35 .97 4.82 2.97 9.43 4.14 14.35q.46 1.96 1.38 4.65.92 2.69 1.95 6.98.96 4.07 4.94 6.4 6.29 11.21 14.86 19.54 20.48 19.9 48.91 27.34.39.1.99.7 1.1 3.64 1.31 6.02 2.99 32.83 7.15 65.75c1.9 15.04 4.77 31.16 10.87 45.17q5.51 12.68 12.97 25.22c9.33 15.67 25 31.53 39.81 42.63q.34.26.61.6l.49.64q-1.67 2.45-2.32 4.57-1.54 5.04-6.32 21.73l-26.75 90.45q-7.05 23.65-9.57 31.74-3.1 9.96-5.53 19.56-2.77 10.96-5.35 19.25-3.57 11.48-6.51 22.74-.88 3.35-2.68 7.71-1.53 3.73-2.76 7.71-16.2 23.69-31.32 39.33-9.34 9.67-19.17 20.08-11.31 12-35.1 32.66-23.31 20.24-43.43 35.31c-25.58 19.16-52.13 38.06-79.53 55.24q-2.17 1.36-4.71 3.47c-2.34 1.95-5.82.89-8.6 1.5q-17.74-6.69-36.78-7.58-14.93-.7-31.24 3.36-15.15 3.78-26.28 9.4l-10.2-29.28q-.25-2.15-1.4-4.21l-4.47-13.01q-.11-1.86-1.15-3.45l-28.18-84.59q-.31-2.36-1.49-4.44-2.63-6.73-5.21-13.51-3.43-9.03-10.83-14.48-1.14-1.52-2.99-1.58-11.08-4.9-23.54-3.25c-37.16.12-74.34.53-111.52.49l-215.23-.2q-7.98-.01-16.12 5.35-.44.29-.42.81.02.69.78 1.41-6.75 4.09-9.24 13.22-2.91 10.69-.13 19.5.99 3.12 4.96 15.22 40.52 123.41 81.28 246.78-2.49.41-3.62.42-22.79.25-45.53-.73-.55-.5-.26-.53.06-2.18-2.05-3.16.2-.38-.02-.72c-1.54-2.37-2.99-4.62-4.87-6.77q-4.78-5.45-7.7-9.84-13.92-20.92-26.55-42.81-4.9-8.48-9.6-17.55-15.49-29.9-28.61-59.33c-7.56-16.96-14.41-37.27-20.68-56.73q-3.54-10.97-5.85-19.21-11.93-42.51-17.99-88.24c-1.89-14.24-3.7-28.56-4.71-42.88q-.01-.21-1.33-14.59-.71-7.77-.56-15.61.02-1.03-.51-2.43 2.88-.74 7.57-.77 21.25-.11 42.43.02-3.14.44-4.55 4.49-2.79 5.79-2.04 12.48.21 1.89 1.83 3.29 1.85 1.6 5.07 1.67 43.22.93 84.51.18 4.54-.08 6.01-1.9 1.12-1.38 1.53-3.76 1.21-6.98-2.69-11.83c0-2.22-2.4-2.3-3.89-2.82a1.32 1.26 82.8 01-.7-.57l-.97-1.6q52.85.06 105.71.25 9.31.03 15.75-2.6 9.58-3.9 13.99-14.47 2.74-6.56 2.62-11.88-2.01-89.34-.28-177.25.21-10.52.03-20c-.73-39.98-.27-80 .45-120.44q.2-10.98-1.33-16.24-2.48-8.48-10.04-14.46-3.08-2.43-7.22-3.93-4.92-1.78-9.62-1.74-48.46.42-120.85.27-6.09-.02-10.43-.6-.37-.05-.55-.38-.17-.32.03-.38.78-.79 1.16-2.01.42-1.3 1.27-2.49 20.75-28.96 40.11-52.53 6.25-7.61 26.19-28.4c2.63-2.74 4.77-5.84 7.31-8.57 7.49-8.04 15.85-16.59 24.58-23.85 4.09-3.42 7.85-7.18 11.99-10.75q14.7-12.72 29.02-24.29 4.9-3.96 24.48-18.27 19.83-14.5 39.95-26.66 4.36-2.63 7.38-3.73.87-.31 3.95-.55l.4 29.55.35 121.68c.9 9.24 6.26 14.69 14.44 18.76q2.7 1.35 6.47 1.5 11.62.48 17.9.44 97.4-.5 178.99-.13c1.17 0 2.66-.31 4.03-.2q.29.63-.11 1.08-3.5 3.93-1.28 8.76.14.31.6.29.15 1.03.77 1.22 4.16 1.3 7.82-.89a1.49 1.45-5.5 00.61-.72l3.59-9.2 26.62-.35q-1.59 3.13-3.26 8.23c-1.76 5.38 3.9 5.51 6.59 3.46q5.63-4.26 12.78-11.74 16.41-.76 32.34-.3c8.97.26 17.18.34 25.88-.27q3.8-.26 6.61-1.87 13.67-7.82 13.33-24.03-.2-9.29-.25-18.76-.46-85.54.07-181.5.04-7.02-1.7-11.24c-3.67-8.89-11.62-14.33-21.26-15.19q-5.41-.49-9.02-.44-40.97.49-81.95-.04-.09 0-8.08.33-5.13.21-10.07-1.02 6.42-.19 12.42-1.52 4.06-.91 7.64-1.33c6.07-.73 12.26-1.79 18.18-1.97 4.94-.16 9.8-1 14.45-1.14q7.11-.22 14.04-1.23 6.18-.9 12.55-.9c24.38.02 46.5-.28 69.82.17q5.95.12 12.45.88c5.53.65 11 1.38 16.58 1.85q43.58 3.6 86.02 13.93c27.16 6.61 53.66 14.44 79.74 24.57 15.22 5.91 31.35 11.9 46.21 19.06q30.04 14.48 60.95 32.4 13.17 7.63 24.47 15.05.97.64 3.44 2.76 1.79 1.54 3.77 2.41zm-705.57 255.9l.36 184.81q3.41 13.59 18.33 14.36c4.89.25 9.78.56 14.68.55q111.58-.2 215.05-.42 5.41-.01 11.78-.41c11.2-.7 16.72-12.76 16.55-22.88q-1.6-94.02.15-189.09.14-7.84-.98-11.52c-1.73-5.68-5.93-12.4-11.94-13.97q-3.57-.94-7.05-.95-91.79-.44-237.66.13c-3.08.01-6.84.21-9.5 1.79-4.41 2.61-9.82 9.09-9.82 14.3q-.01 11.66.05 23.3z"></path>
  <path fill="#1b0637" d="M438.38 32.79q2.19 1.71 3.37 1.71 81.5.14 163 .1 1.27 0 1.9.3 4.94 1.23 10.07 1.02 7.99-.33 8.08-.33 40.98.53 81.95.04 3.61-.05 9.02.44c9.64.86 17.59 6.3 21.26 15.19q1.74 4.22 1.7 11.24-.53 95.96-.07 181.5.05 9.47.25 18.76.34 16.21-13.33 24.03-2.81 1.61-6.61 1.87c-8.7.61-16.91.53-25.88.27q-15.93-.46-32.34.3 2.39-4.09 5.03-7.66c2.1-2.86-.43-5.95-2.25-8.09-4.59-5.39-14.57-15.6-21.31-14.58a1.66 1.64 86.5 00-1.4 1.6c-.15 8.58 6.34 12.37 12.3 17.05a2.26 2.25-47.9 01.17 3.4l-8.65 8.33-26.62.35q4.99-11.84 10.31-24.37 1.71-4.01-2.38-5.51c-2.9-1.07-4.85-.46-6.31 2.28q-6.64 12.49-11.58 24.94-.41 1.05-1.49 1.98-.41.17-.55.14c-1.37-.11-2.86.2-4.03.2q-81.59-.37-178.99.13-6.28.04-17.9-.44-3.77-.15-6.47-1.5c-8.18-4.07-13.54-9.52-14.44-18.76l-.35-121.68-.4-29.55q.26-42.13.07-59.49-.08-7.49 2.62-12.36.89-1.59 3.37-3.77c2.9-2.55 6.3-3.96 9.63-5.76q3.34-1.79 6.87-1.7 6.25.16 12.91.27-1.18 2.92-4.51 8.28c-1.34 2.16-.39 4.43 1.07 6.34q7.55 9.89 18.58 18.43 1.08.83 2.4 1.09a1.33 1.33 0 001.5-.88c1.21-3.59 1.94-8.26-1.27-11.17q-4.51-4.09-8.72-9.05c-.75-.88-1.83-1.51-2.91-1.86a.48.48 0 01-.09-.87q1.7-.95 3.13-2.4 5.06-5.14 10.29-9.8zm89.97 64q2.52-5.93 3.39-12.42.19-1.42-1.2-1.73-3.22-.72-5.73-.08-.76.2-1.14.89-8.9 16.49-14.04 31.89c-.77 2.3-1.96 8.59 2.12 8.8q4.64.25 6.67-4.39 5.01-11.43 9.93-22.96zm-72.2 7.66a1.36 1.36 0 01.22-1.97q5.98-4.44 12.36-11.86c1.85-2.14 1.14-4.74-.78-6.73q-1.37-1.4-2.89-1.05-4.24.99-7.42 4.12c-4.04 3.98-8.1 7.61-11.42 11.68q-3.58 4.38-1.94 9.7.17.54.63.88 3.76 2.78 6.36 5.83c3.91 4.59 8.68 8.61 14.01 11.57a1.83 1.82 34.1 002.29-.44c1.94-2.35 3.46-5.94.9-8.47q-6.77-6.7-12.32-13.26zm81.32 13.8q-2.44 3.57-.33 7.08a2.42 2.42 0 002.6 1.11c1.81-.41 3.72-1.34 5.19-2.46q8.14-6.24 16.43-16.28 2.39-2.9.14-6.1-6.2-8.79-14.58-15.33c-2.99-2.34-6.67-3.05-10.39-2.67a.79.78-8.9 00-.69.94q.63 2.98 2.02 5.57 1.03 1.9 3.2 4.93 3.47 4.85 8.24 8.24a.97.97 0 01.08 1.52q-6.86 6.05-11.91 13.45zm-31.99 59.15c.05 3.69 2.95 5.4 6.33 5.49q24.96.67 50.46.06 1.92-.05 2.07-1.97l.32-3.94q.14-1.82-1.68-1.97-6.71-.58-15.38-.58-19.03-.01-34.08.14-2.81.03-6.04.46a2.3 2.29 85.9 00-2 2.31z"></path>
  <path fill="#ed0169" d="M528.35 96.79q-4.92 11.53-9.93 22.96-2.03 4.64-6.67 4.39c-4.08-.21-2.89-6.5-2.12-8.8q5.14-15.4 14.04-31.89.38-.69 1.14-.89 2.51-.64 5.73.08 1.39.31 1.2 1.73-.87 6.49-3.39 12.42zM456.15 104.45q5.55 6.56 12.32 13.26c2.56 2.53 1.04 6.12-.9 8.47a1.83 1.82 34.1 01-2.29.44c-5.33-2.96-10.1-6.98-14.01-11.57q-2.6-3.05-6.36-5.83-.46-.34-.63-.88-1.64-5.32 1.94-9.7c3.32-4.07 7.38-7.7 11.42-11.68q3.18-3.13 7.42-4.12 1.52-.35 2.89 1.05c1.92 1.99 2.63 4.59.78 6.73q-6.38 7.42-12.36 11.86a1.36 1.36 0 00-.22 1.97zM537.47 118.25q5.05-7.4 11.91-13.45a.97.97 0 00-.08-1.52q-4.77-3.39-8.24-8.24-2.17-3.03-3.2-4.93-1.39-2.59-2.02-5.57a.79.78-8.9 01.69-.94c3.72-.38 7.4.33 10.39 2.67q8.38 6.54 14.58 15.33 2.25 3.2-.14 6.1-8.29 10.04-16.43 16.28c-1.47 1.12-3.38 2.05-5.19 2.46a2.42 2.42 0 01-2.6-1.11q-2.11-3.51.33-7.08z"></path>
  <path fill="#250956" d="M1177.59 211.99q-.52-.56-1.07.08-.34.4-.21.9.41 1.52 1.07 3c3.13 6.98 7 13.65 10.08 20.63 8.17 18.5 14.15 38.75 18.31 58.94q-.02 2.98 1.16 5.65 1.33 6.78 2.38 13.59 7.13 46.48 9.07 93.47.69 16.48 0 32.98v.17q-6.76.2-13.18-1.11c-5.35-1.09-10.91-2.43-16.18-4.1q-16.13-5.11-29.31-12.67c-1.66-.95-3.65-1.18-5.38-.18q-7.32 4.23-15.74 6.59-.25.07-.32-.18l-.07-.25a.36.36 0 01.2-.43c4.95-2.2 10.38-3.38 14.72-6.62q8.21-6.1 12.58-15.28 3.39-7.1 4.3-11.57 5.55-27.32-16.32-44.74c-13.05-10.4-29.34-10.7-44.93-4.58a.92.92 0 01-1.18-.5c-5.23-12.35-15.63-19.55-28.6-22.07q-10.77-2.09-18.99-.96-31.29 4.28-70.38 11.31c-4.94.89-11.13 1.82-14.94 3.84q-15.83 8.38-33.86 12.29-20.2 4.38-40.52-.45-.26-.06-.32.2-.05.24 0 .29-.6-.6-.99-.7-28.43-7.44-48.91-27.34-8.57-8.33-14.86-19.54-3.97-12.07-6.47-21.4c-3.38-12.61-4.13-25.59-2.17-38.69q5.54-37.16 34.08-63.17 3.66-3.33 7.48-6.11.82-.6.43.34-1.19 2.84-2.15 6.08c-2.66 8.99 5.04 15.67 12.6 18.37q11.81 4.2 24.4 3.25c15.57-1.17 33.93-6.14 43.91-18.46 4.63-5.72 6.37-12.04 1.23-18.35-7.73-9.51-23.18-10.28-34.36-11.37q-.06-.01-.06.06-.01.08 0-.12 0-.08.07-.08 20.48.04 25.77.66 13.98 1.64 30.9 7.55 1.77.61 4.11-.95l113.87-19.72q.32-.06.52-.32.31-.43.02-.33c2.31-.46 4.51-1.35 6.78-.94 2.56.47 5.01 1.59 7.55 1.8q8.41.7 11.46 1.48 9.77 2.5 22.3 9.19c4.63 2.47 7.8 6 12.17 8.59 5.74 3.41 7.98 8.07 11.92 12.91q6.36 7.83 8.37 13.61 4 11.47 8.03 22.22.5 1.34-.37 3.24z"></path>
  <path fill="#486c8b" d="M383.84 147.04l.35 121.68-.35-121.68z"></path>
  <path fill="#fff" d="M974.97 160.26q-2.34 1.56-4.11.95-16.92-5.91-30.9-7.55-5.29-.62-25.77-.66-.07 0-.07.08-.01.2 0 .12 0-.07.06-.06c11.18 1.09 26.63 1.86 34.36 11.37 5.14 6.31 3.4 12.63-1.23 18.35-9.98 12.32-28.34 17.29-43.91 18.46q-12.59.95-24.4-3.25c-7.56-2.7-15.26-9.38-12.6-18.37q.96-3.24 2.15-6.08.39-.94-.43-.34-3.82 2.78-7.48 6.11-28.54 26.01-34.08 63.17c-1.96 13.1-1.21 26.08 2.17 38.69q2.5 9.33 6.47 21.4-3.98-2.33-4.94-6.4-1.03-4.29-1.95-6.98-.92-2.69-1.38-4.65c-1.17-4.92-3.17-9.53-4.14-14.35-2.24-11.24-2.81-23.18-.54-35 3.55-18.55 10.01-35.51 22.37-49.9 7.59-8.84 15.89-17.03 25.8-22.66 14-7.96 29.44-13.42 45.63-14.3 14.18-.78 27.78 1.04 41.32 5.85q8.35 2.96 17.02 5.28.37.1.46.48.03.13.12.24z"></path>
  <path fill="#ed0169" d="M511.81 182.89c-3.38-.09-6.28-1.8-6.33-5.49a2.3 2.29 85.9 012-2.31q3.23-.43 6.04-.46 15.05-.15 34.08-.14 8.67 0 15.38.58 1.82.15 1.68 1.97l-.32 3.94q-.15 1.92-2.07 1.97-25.5.61-50.46-.06z"></path>
  <path fill="#05fce6" d="M1177.59 211.99q14.04 14 28.09 28.17c5.5 5.55 10.13 11.72 15.51 17.17q1.92 1.95 3.64 4.35c2.31 3.22 5.21 5.9 7.53 9.16 1.64 2.3 3.53 4.23 5.23 6.44q25.11 32.76 45.39 65.78 4.77 7.76 9.98 17.27 18.63 34.03 31.94 63.77 16.3 36.4 27.16 74.89 5.46 19.36 10.3 38.89.25.97 1.75 3.77-.14.99-1.81 1.23-2.09.3-5.05.04-11.06-1-22.12-1.95-44.6-3.83-105.31-9.55-.12-.01-6.11-.75-3.95-.49-7.85-.37c.21-5.22.91-10.93 1.14-15.4q1.87-36.75 1.38-73.5v-.17q.69-16.5 0-32.98-1.94-46.99-9.07-93.47-1.05-6.81-2.38-13.59.03-2.99-1.16-5.65c-4.16-20.19-10.14-40.44-18.31-58.94-3.08-6.98-6.95-13.65-10.08-20.63q-.66-1.48-1.07-3-.13-.5.21-.9.55-.64 1.07-.08z"></path>
  <path fill="#ed0169" d="M660.75 289.23q-7.15 7.48-12.78 11.74c-2.69 2.05-8.35 1.92-6.59-3.46q1.67-5.1 3.26-8.23l8.65-8.33a2.26 2.25-47.9 00-.17-3.4c-5.96-4.68-12.45-8.47-12.3-17.05a1.66 1.64 86.5 011.4-1.6c6.74-1.02 16.72 9.19 21.31 14.58 1.82 2.14 4.35 5.23 2.25 8.09q-2.64 3.57-5.03 7.66zM618.02 289.63l-3.59 9.2a1.49 1.45-5.5 01-.61.72q-3.66 2.19-7.82.89-.62-.19-.77-1.22l1.34-10.27q1.08-.93 1.49-1.98 4.94-12.45 11.58-24.94c1.46-2.74 3.41-3.35 6.31-2.28q4.09 1.5 2.38 5.51-5.32 12.53-10.31 24.37z"></path>
  <path fill="#fff" d="M606.02 289.09q.14.03.55-.14l-1.34 10.27q-.46.02-.6-.29-2.22-4.83 1.28-8.76.4-.45.11-1.08z"></path>
  <path fill="#486c8b" d="M1205.77 295.54q1.19 2.66 1.16 5.65-1.18-2.67-1.16-5.65z"></path>
  <path fill="#1b0637" d="M166.05 319.59q-.2.06-.03.38.18.33.55.38 4.34.58 10.43.6 72.39.15 120.85-.27 4.7-.04 9.62 1.74 4.14 1.5 7.22 3.93 7.56 5.98 10.04 14.46 1.53 5.26 1.33 16.24c-.72 40.44-1.18 80.46-.45 120.44q.18 9.48-.03 20-1.73 87.91.28 177.25.12 5.32-2.62 11.88-4.41 10.57-13.99 14.47-6.44 2.63-15.75 2.6-52.86-.19-105.71-.25l-84.11.37q-21.18-.13-42.43-.02-4.69.03-7.57.77-5.73.52-7.19.54c-8.38.13-16.15-6.04-21.68-12.49q-2.43-2.84-3.47-6.72-2.86-10.6-2.86-17.02 0-151-.1-305.49-.01-11.95 1.26-17.65 2.03-9.12 8.17-17.08c2.89-3.75 9.9-8.63 15.61-8.68q2.11-.02 4.33-.03 52.78-.18 116.5-.21.78 0 1.8-.14zm-40.23 70.87q-9.57-.84-19.05.04-3.46-.39-5.68.62-.45-.91-1.8-.2c-3.69 1.95-1.88 11.35-.84 14.86 1.08 3.65 6.18 3.15 8.99 3.17q37.46.3 77.48.34c3.21 0 6.32-.52 9.4-1.43a2.15 2.15 0 001.55-1.94q.33-5.55.31-11.03c-.01-3.48-4.14-4.43-6.96-4.51q-21.73-.61-43.47-.62-5.22 0-19.93.7zm136.2 15.57c1.5-3.55 1.81-7.16.78-10.88q-1.29-4.63-6.23-4.77-19.49-.57-38.31-.25-2.68.05-3.49 2.44c-1.19 3.48-1.88 8.8-1.2 12.67q.62 3.51 5.63 3.64 18.66.51 36.8-.03c2.11-.07 5.04-.51 6.02-2.82zm-65.5 40.77a4.07 3.97-30.6 00.45-1.67q.1-2.61.18-5.54c.12-4.53-3.09-7.55-7.62-7.59q-19.9-.2-37.38-.29a4.38 4.37-88.8 00-4.39 4.21q-.16 4.21-.22 9.46c-.04 3 1.64 5.38 4.68 5.4q18.91.09 37.38.21c2.94.01 5.56-1.57 6.92-4.19zm18.84-10.61l-.02 10.22a4.32 4.32 0 004.31 4.33l62.99.11a7.45 6.27.1 007.46-6.25l.02-6.32a7.45 6.27.1 00-7.44-6.29l-62.99-.11a4.32 4.32 0 00-4.33 4.31zm106.22 53.8c4-2.82 2.68-10.57.88-14.3-.79-1.64-2.88-1.95-4.48-2.15q-12.22-1.56-25.25-.17-2.34.25-2.86 2.47-1.02 4.3-.65 9.98c.24 3.77 2.3 6.09 6.2 6.28q9.9.51 19.34-.1 4.37-.28 6.82-2.01zm-112.72 2.16a6.97 6.97 0 006.93-7.87l-.63-4.85a6.97 6.97 0 00-6.76-6.07l-21.62-.45a6.97 6.97 0 00-7.11 7.04l.05 5.24a6.97 6.97 0 006.95 6.9l22.19.06zm26.05-14.61l-.12 9.66a4.57 4.57 0 004.52 4.63l22.73.27a8.53 8.28.7 008.63-8.17l.03-2.24a8.53 8.28.7 00-8.43-8.38l-22.73-.28a4.57 4.57 0 00-4.63 4.51zm-86.7 39.06q-.47.67-.5 1.48-.17 4.25-.14 8.85.04 6.3 6.21 6.3 19.16-.01 37.48.1c3.47.03 5.48-2.68 5.48-5.98q0-4.69-.05-8.76a3.58 3.58 0 00-3.54-3.54q-20.14-.2-41.4-.35-2.18-.02-3.54 1.9zm-50.84 44.08v9.92a4.69 4.69 0 004.69 4.69h85.7a8.71 7.83 0 008.71-7.83v-3.64a8.71 7.83 0 00-8.71-7.83h-85.7a4.69 4.69 0 00-4.69 4.69zm67.02 51.43l.08-10.04a4.55 4.55 0 00-4.51-4.59l-23.6-.21a8.23 8.02.5 00-8.3 7.95l-.02 3.1a8.23 8.02.5 008.16 8.09l23.6.21a4.55 4.55 0 004.59-4.51zm-6.6 20.19c-5 2.36-4.92 9.47-3.17 14.1q1.75 4.64 7.04 4.63 29.27-.07 55.75.06c3.32.01 8.45-.14 9.76-3.78 1.39-3.86 3.54-14.76-3.53-15.26q-1.86-.14-3.41-.17-32.74-.72-58.62-.3-2.35.03-3.82.72zm6.23 49.03q1.41-4.48.41-11.11c-.35-2.27-1.86-3.52-4.15-3.81q-12.86-1.65-24.28-.75-6.09.48-7.43 6.24c-.75 3.23-.75 9.59 2.6 11.62q1.88 1.14 4.79 1.44 11.04 1.13 23.51-.26 3.61-.4 4.55-3.37z"></path>
  <path fill="#f56a8e" d="M1218.38 441.4q.49 36.75-1.38 73.5c-.23 4.47-.93 10.18-1.14 15.4q-1.9 14.01-1.6 28.69.03 1.69-1.46 2.81-5.7 4.29-9.66 6.99c-3.31 2.26-5.82 4.73-8 7.65q-.48.64.71 1.14l-2.47 2.56q-2.19 1.08-3.69 3.58l-7.72 7.91-.3.4q-.46.61.29.43 1.32-.32 2.41.24.49.25.38.78-.28 1.37-.91 2.4-.36.59-.31-.1l.16-2.32q.04-.64-.6-.63-.81.03-1.55.05-.41.01 0 .08c.27.04.47-.02.99.14q.2 2.62-2.19 5.23a.08.08 0 01-.14-.09q.73-1.64 1.88-3.17.28-.37.34-.85.06-.45-.22-.73-.35-.36-.75-.07-1.57 1.14-1.88 1.65-1.22 2.01-2.73 3.45l-1.18 1.46-7.19 11.75q-3.38 4.74-4.77 10.23l-5.58 16.86q.12-.59-.53-.46a.45.44-80.9 00-.3.22c-2.52 4.88-8.89 5.07-13.17 2.71q1.04-45.77-.37-91.19 34.17-24.01 52.22-61.8.08-.16-.05-.3l-.2-.2q-.19-.2-.33.04-18.56 34.83-52.13 55.38c-1.68-29.33-2.92-58.5-6.32-87.23q-1.58-13.42-.98-21.92.41-5.76 2.45-10.12 3.52-7.53 4.71-12.88c1.87-8.4-2.61-18.41-11.01-21.81-4.19-1.69-11.14-.48-13.64 3.7a2.45 2.44 45.2 000 2.51q1.49 2.48 3 5.23.79 1.44.64 3.01-.12 1.26-.71 2.77-1.3 3.32-2.73 6.22c-1.28 2.62-2.1 6.43-.63 8.85q5.5 9.04 7.35 13.57 2.33 5.72 2.94 11.88 4.59 46.31 6.75 92.79l-.11 5.81q-.03 1.61-1.52 2.22-17.2 7.02-34.99 11.2c-9.86 2.31-21.31 3.87-32.07 5.47l-17.53-1.55-34.97-6.14q-.4-1.2-2.35-1.32-2.27-1.52-4.77-2.33-4.7-1.54-4.98-1.66-14.59-6.22-27.8-15.01-.52-.35-.82-.22l-.49-.64q-.27-.34-.61-.6c-14.81-11.1-30.48-26.96-39.81-42.63q-7.46-12.54-12.97-25.22c-6.1-14.01-8.97-30.13-10.87-45.17q-4.16-32.92-7.15-65.75-.21-2.38-1.31-6.02-.05-.05 0-.29.06-.26.32-.2 20.32 4.83 40.52.45 18.03-3.91 33.86-12.29c3.81-2.02 10-2.95 14.94-3.84q39.09-7.03 70.38-11.31 8.22-1.13 18.99.96c12.97 2.52 23.37 9.72 28.6 22.07a.92.92 0 001.18.5c15.59-6.12 31.88-5.82 44.93 4.58q21.87 17.42 16.32 44.74-.91 4.47-4.3 11.57-4.37 9.18-12.58 15.28c-4.34 3.24-9.77 4.42-14.72 6.62a.36.36 0 00-.2.43l.07.25q.07.25.32.18 8.42-2.36 15.74-6.59c1.73-1 3.72-.77 5.38.18q13.18 7.56 29.31 12.67c5.27 1.67 10.83 3.01 16.18 4.1q6.42 1.31 13.18 1.11z"></path>
  <path fill="#1b0637" d="M384.17 580.6l-.36-184.81q-.06-11.64-.05-23.3c0-5.21 5.41-11.69 9.82-14.3 2.66-1.58 6.42-1.78 9.5-1.79q145.87-.57 237.66-.13 3.48.01 7.05.95c6.01 1.57 10.21 8.29 11.94 13.97q1.12 3.68.98 11.52-1.75 95.07-.15 189.09c.17 10.12-5.35 22.18-16.55 22.88q-6.37.4-11.78.41-103.47.22-215.05.42c-4.9.01-9.79-.3-14.68-.55q-14.92-.77-18.33-14.36zm60.05-178.88q1.19-2.99 1.82-6.95.18-1.1-.86-1.49c-2.5-.94-6.91-1.54-8.59 1.07q-1.32 2.04-2.48 4.61-6.03 13.34-10.07 24.54-1.67 4.62-.27 9.78.19.72.91.93l2.48.69a1.6 1.58-63.9 001.73-.6q2.07-2.85 3.67-6.18 6.73-13.98 11.66-26.4zm23.99-4.61q.96-2.23-.29-3.52c-1.15-1.17-3.29-.92-4.82-.96-1.67-.04-3.4.57-4.18 2.12q-6.33 12.49-10.96 26.39-1.61 4.83-2.26 9.19c-.5 3.39 2.01 5.4 5.02 3.87q1.8-.91 2.47-2.11 8.16-14.65 15.15-34.26.07-.18-.07-.32-.16-.17-.06-.4zM1143.26 543.22l.49 6.88q1.41 45.42.37 91.19-1.2 16.79-1.46 21.45-1.48 26.54-7.64 49.73-2.87 10.78-6.02 21.49-3.37 11.46-5.93 22.28-1 4.24-1.97 8.49-.91 3.96-2.23 8.44-1.59 5.38-3.17 10.7a.64.64 0 00.67.82l.83-.07a.47.47 0 01.45.7l-1.91 3.32q-4.48 6.09-10.83 11.63-.21-1.84.62-3.97.99-2.56 1.22-3.73 2.2-11.15 5.22-22.11.16-.59.32-1.2 3.58-14.07 7.61-28.18 1.4-4.93 3.1-11.89 1.52-6.2 3.11-11.94 3.38-12.23 5.88-24 4.56-21.5 4.74-49.75-.02-4.39.14-8.24.75-19.13.18-38.26-.33-10.87-.48-21.75-.09-6.65-.36-13.29l-1.13-22.17q-2.16-46.48-6.75-92.79-.61-6.16-2.94-11.88-1.85-4.53-7.35-13.57c-1.47-2.42-.65-6.23.63-8.85q1.43-2.9 2.73-6.22.59-1.51.71-2.77.15-1.57-.64-3.01-1.51-2.75-3-5.23a2.45 2.44 45.2 010-2.51c2.5-4.18 9.45-5.39 13.64-3.7 8.4 3.4 12.88 13.41 11.01 21.81q-1.19 5.35-4.71 12.88-2.04 4.36-2.45 10.12-.6 8.5.98 21.92c3.4 28.73 4.64 57.9 6.32 87.23z"></path>
  <path fill="#ed0169" d="M101.09 391.12q12.29.53 24.44-.37l.29-.29q14.71-.7 19.93-.7 21.74.01 43.47.62c2.82.08 6.95 1.03 6.96 4.51q.02 5.48-.31 11.03a2.15 2.15 0 01-1.55 1.94c-3.08.91-6.19 1.43-9.4 1.43q-40.02-.04-77.48-.34c-2.81-.02-7.91.48-8.99-3.17-1.04-3.51-2.85-12.91.84-14.86q1.35-.71 1.8.2z"></path>
  <path fill="#c73d8e" d="M125.82 390.46l-.29.29-18.76-.25q9.48-.88 19.05-.04z"></path>
  <path fill="#ed0169" d="M262.8 395.15c1.03 3.72.72 7.33-.78 10.88-.98 2.31-3.91 2.75-6.02 2.82q-18.14.54-36.8.03-5.01-.13-5.63-3.64c-.68-3.87.01-9.19 1.2-12.67q.81-2.39 3.49-2.44 18.82-.32 38.31.25 4.94.14 6.23 4.77zM444.22 401.72q-4.93 12.42-11.66 26.4-1.6 3.33-3.67 6.18a1.6 1.58-63.9 01-1.73.6l-2.48-.69q-.72-.21-.91-.93-1.4-5.16.27-9.78 4.04-11.2 10.07-24.54 1.16-2.57 2.48-4.61c1.68-2.61 6.09-2.01 8.59-1.07q1.04.39.86 1.49-.63 3.96-1.82 6.95zM468.21 397.11q-.1.23.06.4.14.14.07.32-6.99 19.61-15.15 34.26-.67 1.2-2.47 2.11c-3.01 1.53-5.52-.48-5.02-3.87q.65-4.36 2.26-9.19 4.63-13.9 10.96-26.39c.78-1.55 2.51-2.16 4.18-2.12 1.53.04 3.67-.21 4.82.96q1.25 1.29.29 3.52z"></path>
  <path fill="#486c8b" d="M383.81 395.79l.36 184.81-.36-184.81z"></path>
  <path fill="#ed0169" d="M196.52 446.8c-1.36 2.62-3.98 4.2-6.92 4.19q-18.47-.12-37.38-.21c-3.04-.02-4.72-2.4-4.68-5.4q.06-5.25.22-9.46a4.38 4.37-88.8 014.39-4.21q17.48.09 37.38.29c4.53.04 7.74 3.06 7.62 7.59q-.08 2.93-.18 5.54a4.07 3.97-30.6 01-.45 1.67zM215.36 436.19a4.32 4.32 0 014.33-4.31l62.99.11a7.45 6.27.1 017.44 6.29l-.02 6.32a7.45 6.27.1 01-7.46 6.25l-62.99-.11a4.32 4.32 0 01-4.31-4.33l.02-10.22zM322.46 475.69c1.8 3.73 3.12 11.48-.88 14.3q-2.45 1.73-6.82 2.01-9.44.61-19.34.1c-3.9-.19-5.96-2.51-6.2-6.28q-.37-5.68.65-9.98.52-2.22 2.86-2.47 13.03-1.39 25.25.17c1.6.2 3.69.51 4.48 2.15zM208.86 492.15l-22.19-.06a6.97 6.97 0 01-6.95-6.9l-.05-5.24a6.97 6.97 0 017.11-7.04l21.62.45a6.97 6.97 0 016.76 6.07l.63 4.85a6.97 6.97 0 01-6.93 7.87zM234.91 477.54a4.57 4.57 0 014.63-4.51l22.73.28a8.53 8.28.7 018.43 8.38l-.03 2.24a8.53 8.28.7 01-8.63 8.17l-22.73-.27a4.57 4.57 0 01-4.52-4.63l.12-9.66z"></path>
  <path fill="#c73d8e" d="M1143.75 550.1l-.49-6.88q33.57-20.55 52.13-55.38.14-.24.33-.04l.2.2q.13.14.05.3-18.05 37.79-52.22 61.8z"></path>
  <path fill="#ed0169" d="M148.21 516.6q1.36-1.92 3.54-1.9 21.26.15 41.4.35a3.58 3.58 0 013.54 3.54q.05 4.07.05 8.76c0 3.3-2.01 6.01-5.48 5.98q-18.32-.11-37.48-.1-6.17 0-6.21-6.3-.03-4.6.14-8.85.03-.81.5-1.48z"></path>
  <path fill="#52789a" d="M1215.86 530.3q3.9-.12 7.85.37 5.99.74 6.11.75 60.71 5.72 105.31 9.55 11.06.95 22.12 1.95 2.96.26 5.05-.04 1.67-.24 1.81-1.23 5.19.56 10.31 1.64 6.41 1.35 10.57 1.67 6.54.49 12.98.53 2.07.02 4.77.99 3.23 1.16 6.5 1.66 1.91 2.59 5.31 2.3.27-.02.1.19-.04.05-.03.11.05.28.29.42 10.47 5.8 19.96 13.37 1.52 1.21 2.6 2.74 2.41 3.4 5.07 6.84a7.58 7.55-68.2 011.51 3.54c.63 4.31.9 8.32.24 12.77q-1.08 7.21-1.59 14.64-.22 3.35-.92 5.87-.8 2.84-1.4 5.73-.88 4.22-2.16 8.62-6.32 21.88-10.19 32.27-7.25 19.53-10.79 31.42-3.74 12.58-8.18 26.04c-4.68 14.15-8.67 27.13-13.12 40.99-1.11 3.46-1.69 7.13-2.78 10.55q-8.77 27.46-16.41 53.34-2.95 10.01-5.94 19.1-8.14 24.71-16.1 49.48-2.76 8.59-5.62 18.37-6.19 21.13-13.1 42.71-3.16 9.87-5.73 19.23-5.83 21.19-12.02 41.74-1.75 5.83-6.38 18.49-6.64 18.16-12.42 40c-1.22 4.6-3.86 12.88-9.48 13.71q-.64.09-1.03.59-1.14 1.44.02 2.47l-83.64-.17q-1.77-2.56-.79-4.84c5.03-11.75 10.78-24.17 15.32-35.21q21.99-53.4 41.08-108.33 1.15-3.32.81-7.02 21.71-24.38 27.47-31.5 12.72-15.72 30.65-44.09c4.1-6.48 7.36-13.44 11.48-19.96q5.86-9.27 8.84-15.41 1.07-2.22-.26-3.57 23.18-43.64 33.06-93.95 3.7-18.82 5.91-30.38 2.38-12.48 2.87-19.78 3.4-50.44-31.18-87.88-8.28-8.97-19.57-14.77-39.54-24.08-85.48-15.79-16.4 2.96-30.15 10.24-1.45.76-2.91 1.72-.57.38-.04.82 1.16.94.46 2.25-.41.77-.59 1.68-.46 2.45-.26 4.71.01.14.13.2l.08.04q.34.27.18-.14-.81-2.08.14-4.39.3-.71.44.05.22 1.19.04 2.46-.17 1.23.81 1.76.4.21.08-.11l-.43-.43q-.42-.42.17-.38.42.03.65.4a.77.75 75.6 00.61.37q1.04.05 2.11.46.27.68-.18 1.45l-2.19 1.47q-.53.36-.67-.27-.06-.26-.04-.52.03-.68-.64-.83-.9-.21-1.54-.83-1.33-1.29-.83-3.79.44-2.18 1.18-4.18.54-1.46-.81-.69-.47.27-1.39.39 1.32-1.11.46-1.45a.34.33 36.2 00-.33.05l-2.07 1.7q-.72 1.77-3.78 2.77-.47.15-.81.51-1.85 1.98-3.89 3.79-.07.06-1.92 1.17-1.03.63-1.74 2-1.19-.5-.71-1.14c2.18-2.92 4.69-5.39 8-7.65q3.96-2.7 9.66-6.99 1.49-1.12 1.46-2.81-.3-14.68 1.6-28.69zM973.17 536.26q.3-.13.82.22 13.21 8.79 27.8 15.01.28.12 4.98 1.66 2.5.81 4.77 2.33-11.81 4.2-20.8 10.49-6.75 4.73-12.52 11.4-.8.27-1.23.86-1.52 2.07-2.87 4.43l-1.48 2.24q-1.85 1.74-2.45 4.31-5.33 10.44-7.38 20.8c-1.19 6.02-1.9 14.01-3.38 20.84q-.83 3.86-1.73 7.68l-2.21 8.67q-4.88 16.89-12.78 32.58-1.59 1.88-2.12 4.44-6.82 14.02-14.41 27.66-4.12 7.42-5.69 11.18c-2.82 6.77-4.6 13.78-5.8 21.27q-.54 3.43-2.23 6.53-3.03 5.58-7.08 10.86 1.23-3.98 2.76-7.71 1.8-4.36 2.68-7.71 2.94-11.26 6.51-22.74 2.58-8.29 5.35-19.25 2.43-9.6 5.53-19.56 2.52-8.09 9.57-31.74 1.07.78 1.17.79a2.47 2.46-81.9 002.58-1.95q.87-4.05 2.12-7.68 7.85-22.86 13.34-44.4.55-2.15 1.22-4.07c1.21-3.45 1.84-6.93 3.11-10.45q1.34-3.71 2.26-7.22 1.06-4.07 2.65-9.02 1.24-3.86-1.7-6.45 4.78-16.69 6.32-21.73.65-2.12 2.32-4.57z"></path>
  <path fill="#c73d8e" d="M1135.08 539.79l1.13 22.17q-.31-1.29-.16-2.39a.99.99 0 00-1.44-1.01q-31.53 16.76-66.79 18.53.36-7.12-1.43-12.6c10.76-1.6 22.21-3.16 32.07-5.47q17.79-4.18 34.99-11.2 1.49-.61 1.52-2.22l.11-5.81z"></path>
  <path fill="#486c8b" d="M1409.24 548.14q23.51 6.8 42.7 21.23c7.63 5.74 15.61 13.6 21.94 20.95 4.36 5.05 8.96 11.08 12.15 17.23q8.68 16.7 12.33 36.46 1.69 9.16 2.72 18.08.56 4.82-.42 13.69-1.17 10.73-3.97 22.41c-3.32 13.87-9.22 29.92-13.66 44.88q-6.19 20.81-12.71 41.23-2.1 6.55-4.32 13.68-28.49 91.53-56.79 182-2.77 8.83-5.86 19.12c-4.28 14.25-9.14 27.94-13.21 41.77q-5.97 20.24-12.98 41.02a1.64 1.64 0 001.5 2.17q.89.03 2.34.03 47.31.13 94.61.27 2.04.01 3.37.98l-190.03.44q-1.16-1.03-.02-2.47.39-.5 1.03-.59c5.62-.83 8.26-9.11 9.48-13.71q5.78-21.84 12.42-40 4.63-12.66 6.38-18.49 6.19-20.55 12.02-41.74 2.57-9.36 5.73-19.23 6.91-21.58 13.1-42.71 2.86-9.78 5.62-18.37 7.96-24.77 16.1-49.48 2.99-9.09 5.94-19.1 7.64-25.88 16.41-53.34c1.09-3.42 1.67-7.09 2.78-10.55 4.45-13.86 8.44-26.84 13.12-40.99q4.44-13.46 8.18-26.04 3.54-11.89 10.79-31.42 3.87-10.39 10.19-32.27 1.28-4.4 2.16-8.62.6-2.89 1.4-5.73.7-2.52.92-5.87.51-7.43 1.59-14.64c.66-4.45.39-8.46-.24-12.77a7.58 7.55-68.2 00-1.51-3.54q-2.66-3.44-5.07-6.84-1.08-1.53-2.6-2.74-9.49-7.57-19.96-13.37-.24-.14-.29-.42-.01-.06.03-.11.17-.21-.1-.19-3.4.29-5.31-2.3z"></path>
  <path fill="#fff" d="M1331 568.92q-10.13-2.48-19.73-6.21-3.02-1.17-5.51-1.72-2.73-.6-5.68-1.15-14.63-3.18-30.08-1.99-28.08 2.16-51.55 17.35-.71.15-1.41-.36-1.07-.41-2.11-.46a.77.75 75.6 01-.61-.37q-.23-.37-.65-.4-.59-.04-.17.38l.43.43q.32.32-.08.11-.98-.53-.81-1.76.18-1.27-.04-2.46-.14-.76-.44-.05-.95 2.31-.14 4.39.16.41-.18.14l-.08-.04q-.12-.06-.13-.2-.2-2.26.26-4.71.18-.91.59-1.68.7-1.31-.46-2.25-.53-.44.04-.82 1.46-.96 2.91-1.72 13.75-7.28 30.15-10.24 45.94-8.29 85.48 15.79zm-117.49-2.69q-.53 3.37-.25 6.76.02.2.22.18.2-.01.19-.21-.16-1.83.04-3.67.48 1.68.29 3.62-.01.04.02.06.04.04.04-.01.01-.04.01-.07.24-2.93.31-5.63.01-.49-.33-.87-1.46-1.63-.54-.16zM1011.54 555.48q1.95.12 2.35 1.32-12.21 6.89-22.14 16.2-1.45 1.35-4.48 5.36-1.86 1.26-1.4 1.91-.79 1.19-1.78 2.37-.98 1.17-1.66 2.4-1.55 2.77-3.26 5.49-1.69 2.69-2.89 5.68-2.06 5.11-3.79 10.33l-1.28 4.69Q968.53 623.99 968 630q-.6 6.81-1.54 13.52l-1.61 9.46q-1.82 7.44-4.49 13.37-4.8 10.67-11.84 21.94-1.73 1.58-2.49 3.95-3.46 4.62-6.7 9.43-.82 1.21-6.74 9.39-6.03 8.33-9.4 17.68-5.67 15.75-7.02 33.64c-.09 2.95-4.85 6.17-6.73 8.41q-10.9 13.02-22.74 24.97-20.89 21.09-38.86 38.68-9.91 9.71-22.38 20.52-31.65 27.42-65.29 52.46-5.03 3.75-15.79 10.71l-39.07 24.2q-7.54 4.07-13.71 9.66l-8.08-2.68c2.78-.61 6.26.45 8.6-1.5q2.54-2.11 4.71-3.47c27.4-17.18 53.95-36.08 79.53-55.24q20.12-15.07 43.43-35.31 23.79-20.66 35.1-32.66 9.83-10.41 19.17-20.08 15.12-15.64 31.32-39.33 4.05-5.28 7.08-10.86 1.69-3.1 2.23-6.53c1.2-7.49 2.98-14.5 5.8-21.27q1.57-3.76 5.69-11.18 7.59-13.64 14.41-27.66 1.71-1.93 2.12-4.44 7.9-15.69 12.78-32.58l2.21-8.67q.9-3.82 1.73-7.68c1.48-6.83 2.19-14.82 3.38-20.84q2.05-10.36 7.38-20.8 1.74-1.8 2.45-4.31l1.48-2.24q2.64-2.47 4.1-5.29 5.77-6.67 12.52-11.4 8.99-6.29 20.8-10.49z"></path>
  <path fill="#ed0169" d="M97.37 560.68a4.69 4.69 0 014.69-4.69h85.7a8.71 7.83 0 018.71 7.83v3.64a8.71 7.83 0 01-8.71 7.83h-85.7a4.69 4.69 0 01-4.69-4.69v-9.92z"></path>
  <path fill="#3620a0" d="M1013.89 556.8l34.97 6.14q-.42 2.08-1.29 4.09-.35.82-1.18 1.43-.95.71-1.48 1.22-3.34 1.1-5.58 3.16-28.73 26.54-42.59 63.17-11.62 30.72-10.57 65.83.26 1.08.32 2.28.08 1.64.37 3.23 2.23 12.19 6.05 25.18 1.99 6.77 1.33 12.22-3.92 32.67-13.67 66.95-3.27 11.5-6.2 22.07-.29 1.02-1.37.5-10.63-4.92-18.16-9.62-19.64-12.27-30.15-33.57-1.82-3.7-2.64-6.36l-.38-1.3q6.3-4.27 10.91-10.55c13.91-18.96 25.78-38.55 37.08-58.84q2.01-3.62 2.63-6.4 1.4-6.28.09-12.44-2.43-11.42-3.91-24.51-.49-4.33-1.4-8-.98-3.94-1.5-7.79c-.18-1.26-.03-2.38-.16-3.63.29-2.2 1.29-4.88 1.05-7.74q.94-6.71 1.54-13.52.53-6.01 3.21-18.77 1.29-2.1 1.28-4.69 1.73-5.22 3.79-10.33 1.2-2.99 2.89-5.68 1.71-2.72 3.26-5.49.68-1.23 1.66-2.4.99-1.18 1.78-2.37.96-.46 1.4-1.91 3.03-4.01 4.48-5.36 9.93-9.31 22.14-16.2z"></path>
  <path fill="#433ba4" d="M1300.08 559.84q-2.38 3.09 1.42 4.64c6.55 2.68 13.92 7.17 17.72 13.25q4.8 7.66 10.02 14.87 7.89 10.87 12.38 23.93 3.3 9.58 3.9 19.87 1.83 31.06-13.95 57.56-8.77 14.71-21.81 26.61c-7.24 6.62-15.37 12.31-20.55 20.93q-12.18 20.31-24.68 43.24-2.23 4.08-5.18 8.53-9.44 14.19-19.16 27.45-8.89 12.12-29.08 36.09-.93 1.1-5.2 5.46-2.65 2.71-4.79 5.88l-.83-.16c-6.44-3.79-13.23-7.58-18.92-11.99q-24.37-18.9-33.89-49.68-4.87-15.75-4.62-34.07.04-2.84.37-5.73l1.47-2.35q2.44-2.22 3.79-4.85-.16-.08.34-.36 1.67-1.09 2.14-2.71l3.44-4.48q1.28-.75 1.88-2.04.36-.78.76-1.32.51-.67.76-1.35l6.52-9.05q1.57-.97 1.59-2.5 7.86-11.67 9.21-15.14 1.01-2.61.25-4.88-2.38-7.08-4.03-12.78-1.95-6.78-2.77-13.05c-2.28-17.28-.49-34.01 4.1-51.12.6-2.27 1.62-4.33 2.18-6.59q.61-2.44 1.67-4.81 4.03-9.06 8.65-17.36 1.19-2.13 5.81-8.34.23-.11.42-.45.15-.29.11-.61-.07-.5-.6-.35a.26.26 0 01-.33-.19q-.34-1.59.56-3.81l.08.43-.64 2.08a1 .98 26.4 00.38 1.11l.33.24a.59.58 28.3 00.88-.26q.81-2.1 2.91-4.04 1.13-.92 1.87-2.1 2.44-1.17 2.18-2.78 5.38-5.87 12.28-10.34c1.06-.69 1.48-1.67 1.86-2.8q.16-.47-.29-.69-2.21-1.07-1.21-1.57.64.62 1.54.83.67.15.64.83-.02.26.04.52.14.63.67.27l2.19-1.47q1.48-.35 1.59-1.09 23.47-15.19 51.55-17.35 15.45-1.19 30.08 1.99z"></path>
  <path fill="#f56a8e" d="M1136.21 561.96q.27 6.64.36 13.29.15 10.88.48 21.75.57 19.13-.18 38.26-.16 3.85-.14 8.24-4.05.06-8.11-.89c-11.45-2.66-23.36-7.37-32.47-14.31q-18.36-14.01-24.64-37.33-2.04-7.6-3.69-13.88 35.26-1.77 66.79-18.53a.99.99 0 011.44 1.01q-.15 1.1.16 2.39z"></path>
  <path fill="#3620a0" d="M1300.08 559.84q2.95.55 5.68 1.15 2.49.55 5.51 1.72 9.6 3.73 19.73 6.21 11.29 5.8 19.57 14.77 34.58 37.44 31.18 87.88-.49 7.3-2.87 19.78-2.21 11.56-5.91 30.38-9.88 50.31-33.06 93.95-5.85 10.55-10.94 18.05-16.02 23.65-42.56 35.42c-27.43 12.17-57.47 10.79-85.29-1q2.14-3.17 4.79-5.88 4.27-4.36 5.2-5.46 20.19-23.97 29.08-36.09 9.72-13.26 19.16-27.45 2.95-4.45 5.18-8.53 12.5-22.93 24.68-43.24c5.18-8.62 13.31-14.31 20.55-20.93q13.04-11.9 21.81-26.61 15.78-26.5 13.95-57.56-.6-10.29-3.9-19.87-4.49-13.06-12.38-23.93-5.22-7.21-10.02-14.87c-3.8-6.08-11.17-10.57-17.72-13.25q-3.8-1.55-1.42-4.64z"></path>
  <path fill="#486c8b" d="M964.53 562.56q2.94 2.59 1.7 6.45-1.59 4.95-2.65 9.02-.92 3.51-2.26 7.22c-1.27 3.52-1.9 7-3.11 10.45q-.67 1.92-1.22 4.07-5.49 21.54-13.34 44.4-1.25 3.63-2.12 7.68a2.47 2.46-81.9 01-2.58 1.95q-.1-.01-1.17-.79l26.75-90.45z"></path>
  <path fill="#655ba3" d="M1048.86 562.94l17.53 1.55q1.79 5.48 1.43 12.6 1.65 6.28 3.69 13.88 6.28 23.32 24.64 37.33c9.11 6.94 21.02 11.65 32.47 14.31q4.06.95 8.11.89-.18 28.25-4.74 49.75-2.5 11.77-5.88 24-1.59 5.74-3.11 11.94-1.7 6.96-3.1 11.89-4.03 14.11-7.61 28.18-.16.61-.32 1.2-3.02 10.96-5.22 22.11-.23 1.17-1.22 3.73-.83 2.13-.62 3.97-3.33 2.99-7.03 6.86-4.04 4.22-17.36 15.05-17.56-9.31-31.66-22.16-7.12-6.5-13.43-14.76-10-13.08-17.36-27.84-1.42-2.85-1.43.33-.03 4.25 1.69 8.42c2.49 6.04 2.97 12.62 2.13 18.9-1.84 13.63-4.48 27.36-7.26 40.19q-4.58 21.11-12.18 41.65a2.6 2.59-4.7 01-1.17 1.37q-3.59 1.99-4.67 5.03-21.4 9.8-44.57 17.16-.18-2 1.32-3.82 1.85-2.25 2.3-3.11c1.36-2.61 2.77-5.06 3.93-7.72q8.81-20.19 15.04-38.37.49-1.42-.2-3.18 1.08.52 1.37-.5 2.93-10.57 6.2-22.07 9.75-34.28 13.67-66.95.66-5.45-1.33-12.22-3.82-12.99-6.05-25.18-.29-1.59-.37-3.23-.06-1.2-.32-2.28.77-.01.81-.33 3.22-26.85 10.44-51.09 12.1-40.67 39.42-71.51 1.96-2.21 4.27-4.53 2.12-2.14 3.8-4.7.53-.51 1.48-1.22.83-.61 1.18-1.43.87-2.01 1.29-4.09z"></path>
  <path fill="#486c8b" d="M1209.93 567.04l-1.94.3 2.07-1.7a.34.33 36.2 01.33-.05q.86.34-.46 1.45z"></path>
  <path fill="#596dc0" d="M1213.71 569.29q.54-2.14-.2-3.06-.92-1.47.54.16.34.38.33.87-.07 2.7-.31 5.63 0 .03-.01.07 0 .05-.04.01-.03-.02-.02-.06.19-1.94-.29-3.62z"></path>
  <path fill="#52789a" d="M1213.51 566.23q.74.92.2 3.06-.2 1.84-.04 3.67.01.2-.19.21-.2.02-.22-.18-.28-3.39.25-6.76z"></path>
  <path fill="#fff" d="M1044.91 569.68q-1.68 2.56-3.8 4.7-2.31 2.32-4.27 4.53-27.32 30.84-39.42 71.51-7.22 24.24-10.44 51.09-.04.32-.81.33-1.05-35.11 10.57-65.83 13.86-36.63 42.59-63.17 2.24-2.06 5.58-3.16z"></path>
  <path fill="#596dc0" d="M1217.04 574.84q.7.51 1.41.36-.11.74-1.59 1.09.45-.77.18-1.45zM978.22 577.37q-1.46 2.82-4.1 5.29 1.35-2.36 2.87-4.43.43-.59 1.23-.86zM987.27 578.36q-.44 1.45-1.4 1.91-.46-.65 1.4-1.91zM1193.38 580.14q.35.47 2.39.12l2.36 1.82q1.61 2.62.37 5.42-.97 2.19-4.4 6-.5-.32-.73.21-.16.64-.42.16a.32.3 48.9 01.01-.32q1.3-1.86 2.28-3.73.57-1.09 1.23-2.14c1.27-2.04 1.42-5.38-1.16-6.43q-.5-.21-.97.06l-2.19 1.25q-.41.23-.87.32-.76.16-1.59.84 1.5-2.5 3.69-3.58z"></path>
  <path fill="#52789a" d="M1198.13 582.08l-2.36-1.82q.38-.31 1.22.02 1.57.6 1.14 1.8z"></path>
  <path fill="#fff" d="M1193.37 593.71l.06.85q.04.52-.46.66-1.15.32-1.74 1.24l-.08-.43q-1.71.09-1.85 1.55-.08.76.66 1.91.62.97 1.03 1.95-4.62 6.21-5.81 8.34-4.62 8.3-8.65 17.36-1.06 2.37-1.67 4.81c-.56 2.26-1.58 4.32-2.18 6.59-4.59 17.11-6.38 33.84-4.1 51.12q.82 6.27 2.77 13.05 1.65 5.7 4.03 12.78.76 2.27-.25 4.88-1.35 3.47-9.21 15.14-1.24 1.12-1.59 2.5l-6.52 9.05q-2.38 2.2-3.4 4.71l-3.44 4.48q-1.47.29-2.14 2.71-.5.28-.34.36l-1.19.87q-.41.3-.65.74-.41.8-1.05 1.42-.33.32-.49.75l-.41 1.07-1.47 2.35q-8 8.34-27.58 29.87c-18.51 20.35-41.26 38.25-65.16 53.41q-7.58 4.8-16.41 9.55-43.72 23.52-90.83 37.42-3.18.93-4.15-2.51l11.51-3.79q23.17-7.36 44.57-17.16 45.29-19.37 85.34-51.13 13.32-10.83 17.36-15.05 3.7-3.87 7.03-6.86 6.35-5.54 10.83-11.63 7.02-8.54 14.2-16.99c1.61-1.9 2.78-4 4.3-5.97q1.28-1.65 2.4-3.61 1.13-1.95 2.44-3.62 4.5-5.51 7.86-11.56.74-1.34 1.58-2.62 2.39-3.65 4.43-7.51.13-.24.16-.6.02-.33.11-.64l1.08-1.75q2.4-2.76 3.19-6.5l.75-1.24q1.9-3.25 3.43-6.51.97-2.06 1.26-4.27 1.58-2.43 1.83-5.2.18-1.99-1.05-5.19-6.95-18.09-7.97-35.35-.82-13.95 2.38-30.69l5.58-16.86 4.77-10.23 7.19-11.75q1.46.72 3.32 0 2.39 1.19 3.82-1.03 1.85-2.84 2.36-6.18a.95.94 80.5 00-1.37-.98q-.85.45-1.82-.16l7.72-7.91q.83-.68 1.59-.84.46-.09.87-.32l2.19-1.25q.47-.27.97-.06c2.58 1.05 2.43 4.39 1.16 6.43q-.66 1.05-1.23 2.14-.98 1.87-2.28 3.73a.32.3 48.9 00-.01.32q.26.48.42-.16z"></path>
  <path fill="#596dc0" d="M972.64 584.9q-.71 2.51-2.45 4.31.6-2.57 2.45-4.31z"></path>
  <path fill="#655ba3" d="M1199.14 590.71q.26 1.61-2.18 2.78-.26-.15-1.37.24l3.55-3.02z"></path>
  <path fill="#596dc0" d="M1181.97 591.63q.97.61 1.82.16a.95.94 80.5 011.37.98q-.51 3.34-2.36 6.18-1.43 2.22-3.82 1.03 2.07.35 3.04-.81.35-.42-.2-.36-.6.07-.76.52-.16.46-.64.43l-1.95-.13q4.26-1.31 4.98-5.5.08-.44-.06-.75-.27-.6-.86-.28c-.52-.16-.72-.1-.99-.14q-.41-.07 0-.08.74-.02 1.55-.05.64-.01.6.63l-.16 2.32q-.05.69.31.1.63-1.03.91-2.4.11-.53-.38-.78-1.09-.56-2.41-.24-.75.18-.29-.43l.3-.4z"></path>
  <path fill="#52789a" d="M1182.53 593.1q.59-.32.86.28.14.31.06.75-.72 4.19-4.98 5.5-.66.44-1.22.19-.45-.19-.38-.67.06-.36-.03-.63 1.51-1.44 2.73-3.45.31-.51 1.88-1.65.4-.29.75.07.28.28.22.73-.06.48-.34.85-1.15 1.53-1.88 3.17a.08.08 0 00.14.09q2.39-2.61 2.19-5.23z"></path>
  <path fill="#596dc0" d="M1196.96 593.49q-.74 1.18-1.87 2.1-.33-.25-.72-.24-.42.01-.26-.37.09-.22.46-.23.54-.89 1.02-1.02 1.11-.39 1.37-.24z"></path>
  <path fill="#52789a" d="M1194.1 593.5q-.48 1.11.47 1.25-.37.01-.46.23-.16.38.26.37.39-.01.72.24-2.1 1.94-2.91 4.04a.59.58 28.3 01-.88.26l-.33-.24a1 .98 26.4 01-.38-1.11l.64-2.08q.59-.92 1.74-1.24.5-.14.46-.66l-.06-.85q.23-.53.73-.21z"></path>
  <path fill="#596dc0" d="M1191.15 596.03q-.9 2.22-.56 3.81a.26.26 0 00.33.19q.53-.15.6.35.04.32-.11.61-.19.34-.42.45-.41-.98-1.03-1.95-.74-1.15-.66-1.91.14-1.46 1.85-1.55z"></path>
  <path fill="#ed0169" d="M164.39 612.11a4.55 4.55 0 01-4.59 4.51l-23.6-.21a8.23 8.02.5 01-8.16-8.09l.02-3.1a8.23 8.02.5 018.3-7.95l23.6.21a4.55 4.55 0 014.51 4.59l-.08 10.04z"></path>
  <path fill="#596dc0" d="M1176.84 598.52q.09.27.03.63-.07.48.38.67.56.25 1.22-.19l1.95.13q.48.03.64-.43.16-.45.76-.52.55-.06.2.36-.97 1.16-3.04.81-1.86.72-3.32 0l1.18-1.46zM972.49 606.54q.01 2.59-1.28 4.69l1.28-4.69z"></path>
  <path fill="#f88bb6" d="M1168.47 611.73l-4.77 10.23q1.39-5.49 4.77-10.23z"></path>
  <path fill="#ed0169" d="M161.61 631.58q25.88-.42 58.62.3 1.55.03 3.41.17c7.07.5 4.92 11.4 3.53 15.26-1.31 3.64-6.44 3.79-9.76 3.78q-26.48-.13-55.75-.06-5.29.01-7.04-4.63c-1.75-4.63-1.83-11.74 3.17-14.1q1.47-.69 3.82-.72z"></path>
  <path fill="#655ba3" d="M1158.12 638.82q-3.2 16.74-2.38 30.69 1.02 17.26 7.97 35.35 1.23 3.2 1.05 5.19-.25 2.77-1.83 5.2-3.14 5.04-4.69 10.78l-.75 1.24q-2.48 2.99-3.19 6.5l-1.08 1.75q-.12.05-.24.11-.26.1-.41.34l-13.49 22.48q-1.31 1.67-2.44 3.62-1.12 1.96-2.4 3.61c-1.52 1.97-2.69 4.07-4.3 5.97q-7.18 8.45-14.2 16.99l1.91-3.32a.47.47 0 00-.45-.7l-.83.07a.64.64 0 01-.67-.82q1.58-5.32 3.17-10.7 1.32-4.48 2.23-8.44.97-4.25 1.97-8.49 2.56-10.82 5.93-22.28 3.15-10.71 6.02-21.49 6.16-23.19 7.64-49.73.26-4.66 1.46-21.45c4.28 2.36 10.65 2.17 13.17-2.71a.45.44-80.9 01.3-.22q.65-.13.53.46z"></path>
  <path fill="#596dc0" d="M957.7 638.53l-2.21 8.67 2.21-8.67zM966.46 643.52c.24 2.86-.76 5.54-1.05 7.74q-.11 1.2-.56 1.72l1.61-9.46z"></path>
  <path fill="#433ba4" d="M965.41 651.26c.13 1.25-.02 2.37.16 3.63q.52 3.85 1.5 7.79.91 3.67 1.4 8 1.48 13.09 3.91 24.51 1.31 6.16-.09 12.44-.62 2.78-2.63 6.4c-11.3 20.29-23.17 39.88-37.08 58.84q-4.61 6.28-10.91 10.55-4.52-9.68-5.5-21.04 1.35-17.89 7.02-33.64 3.37-9.35 9.4-17.68 5.92-8.18 6.74-9.39 3.24-4.81 6.7-9.43 1.94-1.82 2.49-3.95 7.04-11.27 11.84-21.94 2.67-5.93 4.49-13.37.45-.52.56-1.72z"></path>
  <path fill="#ed0169" d="M164.02 681.33q-.94 2.97-4.55 3.37-12.47 1.39-23.51.26-2.91-.3-4.79-1.44c-3.35-2.03-3.35-8.39-2.6-11.62q1.34-5.76 7.43-6.24 11.42-.9 24.28.75c2.29.29 3.8 1.54 4.15 3.81q1 6.63-.41 11.11z"></path>
  <path fill="#596dc0" d="M942.71 679.78q-.41 2.51-2.12 4.44.53-2.56 2.12-4.44zM948.52 688.29q-.55 2.13-2.49 3.95.76-2.37 2.49-3.95z"></path>
  <path fill="#fff" d="M187.79 703.44l.97 1.6a1.32 1.26 82.8 00.7.57c1.49.52 3.89.6 3.89 2.82-3.4-.45-6.67-.86-10.14-.93q-42.08-.83-79.71-.37-1.99.02-4.37 1.17 1.41-4.05 4.55-4.49l84.11-.37z"></path>
  <path fill="#ed0169" d="M193.35 708.43q3.9 4.85 2.69 11.83-.41 2.38-1.53 3.76-1.47 1.82-6.01 1.9-41.29.75-84.51-.18-3.22-.07-5.07-1.67-1.62-1.4-1.83-3.29-.75-6.69 2.04-12.48 2.38-1.15 4.37-1.17 37.63-.46 79.71.37c3.47.07 6.74.48 10.14.93z"></path>
  <path fill="#596dc0" d="M1162.93 715.25q-.29 2.21-1.26 4.27-1.53 3.26-3.43 6.51 1.55-5.74 4.69-10.78zM1157.49 727.27q-.79 3.74-3.19 6.5.71-3.51 3.19-6.5zM1153.22 735.52q-.09.31-.11.64-.03.36-.16.6-2.04 3.86-4.43 7.51-.84 1.28-1.58 2.62-3.36 6.05-7.86 11.56l13.49-22.48q.15-.24.41-.34.12-.06.24-.11zM1165.92 735.51q-.02 1.53-1.59 2.5.35-1.38 1.59-2.5zM1157.81 747.06q-.25.68-.76 1.35-.4.54-.76 1.32-.6 1.29-1.88 2.04 1.02-2.51 3.4-4.71z"></path>
  <path fill="#433ba4" d="M1080.52 822.18q-40.05 31.76-85.34 51.13 1.08-3.04 4.67-5.03a2.6 2.59-4.7 001.17-1.37q7.6-20.54 12.18-41.65c2.78-12.83 5.42-26.56 7.26-40.19.84-6.28.36-12.86-2.13-18.9q-1.72-4.17-1.69-8.42.01-3.18 1.43-.33 7.36 14.76 17.36 27.84 6.31 8.26 13.43 14.76 14.1 12.85 31.66 22.16z"></path>
  <path fill="#596dc0" d="M1150.97 756.25q-.47 1.62-2.14 2.71.67-2.42 2.14-2.71zM1148.49 759.32q-1.35 2.63-3.79 4.85l.41-1.07q.16-.43.49-.75.64-.62 1.05-1.42.24-.44.65-.74l1.19-.87z"></path>
  <path fill="#f56a8e" d="M916.17 762.38q.98 11.36 5.5 21.04l.38 1.3q.26 2.52-.95 3.86c-7.66 8.53-13.35 16.54-21.37 26.13q-40.9 48.89-88.7 92.06-1.5 1.35-.96 3.03-25.35-1.14-41.57.46-9.91.97-22.56 8.47-.25.15-.55.15h-.37q-.37.01-.49-.35-.06-.18-.15-.4 10.76-6.96 15.79-10.71 33.64-25.04 65.29-52.46 12.47-10.81 22.38-20.52 17.97-17.59 38.86-38.68 11.84-11.95 22.74-24.97c1.88-2.24 6.64-5.46 6.73-8.41z"></path>
  <path fill="#f88bb6" d="M1143.23 766.52q-.33 2.89-.37 5.73-.25 18.32 4.62 34.07 9.52 30.78 33.89 49.68c5.69 4.41 12.48 8.2 18.92 11.99q-.27 1.28-.88 1.92-42.35 44.79-93.87 78.65-11.88 7.8-23.8 15.04-9.47-8.46-21.14-11.13-1.93-.45-1.69-2.48c1.33-11.18.16-26.59-12.7-30.63q-3.14-.99-9.38-.95-46.02.26-92.88.05-5.66-.03-9.52 1.47-8.75 3.38-11.32 15.26-.93 4.31-.89 7.31.5 39.36.15 78.71l-.17 12.35a.97.96-7.2 01-.72.92l-54.67 15.11q-.51.14-.78.6c-1.54 2.64-2.73 5.41-4.45 7.97q-4.84 7.22-9.44 13.88-8.29.58-15.83 1.17c-8.36.66-16.07 2.02-24.05 3.65q-19.05 3.89-37.96 8.37.01-1.95-1.56-1.53-3.96 1.05-6.36 1.15-14.57.64-29.13 1.41-13.86.73-25.88-.35-11.11-13.84-14.13-18.15-6.8-9.72-11.85-24.12-3.96-13.29-4.62-24.13-.59-9.42 1.42-21.89c2.26-14.09 8.57-28.73 15.52-41.13a1.32 1.32 0 00-.86-1.94q-.5-.11-1.75-.94 3.86-1.1 6.06-3.2 3.53-3.37 4.3-4.65 1.83-3.04-.15-3.43l39.07-24.2q.09.22.15.4.12.36.49.35h.37q.3 0 .55-.15 12.65-7.5 22.56-8.47 16.22-1.6 41.57-.46 6.58 1.12 13.16 2.61 9.19 2.08 13.19 2.35 7.78.52 15.58-.78 44.15-7.4 87.1-19.72.97 3.44 4.15 2.51 47.11-13.9 90.83-37.42 8.83-4.75 16.41-9.55c23.9-15.16 46.65-33.06 65.16-53.41q19.58-21.53 27.58-29.87z"></path>
  <path fill="#450077" d="M523.3 785.94q1.27 1.26 2.99 1.58 7.4 5.45 10.83 14.48 2.58 6.78 5.21 13.51.11 2.44 1.49 4.44L572 904.54q.12 2.04 1.15 3.45l4.47 13.01q.12 2.54 1.4 4.21l10.2 29.28q2.95 10.19 4.43 14.59 11.59 34.56 20.4 60.47 2.32 6.82 4.7 13.45a1.91 1.9-9.9 001.81 1.27l64.83-.63q5.05 14.4 11.85 24.12 3.02 4.31 14.13 18.15l-45.28-.48q-5.56-.67-8.73-5.22-5.06-7.24-6.58-15.49-.41-2.19-2.58-1.67l-3.44.82q-2.11.5-1.36 2.54 3.33 8.98 8.71 17.29c.39.61.3 1.05.44 1.77h-36.17q-.55-4.44-1.37-6.99-5.02-15.56-10.36-32.06-1.66-5.13-2.99-10.32c-.7-2.76-2.73-5.15-3.48-8.1-.78-3.11-2.59-5.57-3.58-8.7q-5.48-17.25-11.69-35.35c-1.05-3.06-1.06-6.52-2.5-9.09q-1.13-2.01-1.72-4.44-.64-2.66-1.84-5.13-1.75-3.56-2.4-8.01c-.27-1.84-1.16-3.1-1.61-4.76-1.32-4.83-3.31-9.06-4.67-13.79q-.77-2.71-2.14-5.92-2.08-4.89-4.02-11.24c-1.39-4.56-3.51-8.77-4.4-13.3-.66-3.38-3.11-5.07-3.06-8.68.05-3.63-1.87-7.44-3.03-10.8-.3-.89-.16-1.78-.45-2.69q-2.54-7.79-5.63-15.39c-.57-1.39-.36-2.85-1.06-4.01q-.78-1.31-1.22-2.77c-.69-2.29-1.75-4.38-2.29-6.74-.84-3.66-2.37-6.88-3.27-10.48q-1.06-4.26-2.83-8.52c-1.22-2.93-1.04-5.89-2.32-8.86q-1.25-2.88-2.13-5.76-1.78-5.79-4.21-11.89-1.87-4.67-3.68-9.48-1.77-4.68-5.64-9.97-.35-.47-.71-.02-.6.74-.29 1.7 2.3 7 4.58 12.94 2.06 5.34 3.64 10.84c2.04 7.11 4.47 14.01 6.83 20.89 1.26 3.7 1.95 8.27 3.31 11.79q4.14 10.67 7.7 21.53c8.12 24.79 16.93 50.44 22.87 68.61.46 1.42.25 2.87 1.06 4.22 2.03 3.34 1.97 7.08 3.63 10.55q1.91 4 2.95 8.63c.4 1.81 1.31 3.38 1.84 5.17 2.44 8.18 4.22 16.33 7.27 24.42q3.18 8.45 5.47 16.63c1.9 6.79 4.28 13.39 6.28 19.98q2.29 7.56 4.89 14.77 3.97 11.05 7.49 22.35.01.05 2.76 7.89 1.77 5.06 2.51 10.39l-376.75-.24q-40.76-123.37-81.28-246.78-3.97-12.1-4.96-15.22-2.78-8.81.13-19.5 2.49-9.13 9.24-13.22 10.72-3.67 22.25-3.68 150.62-.12 301.25.06 7.35.01 16.27.51 2.82.16 5.82 1.31 5.4 2.07 10.49 2.99 2.88.52 1.28-1.93l-1.6-2.44q-1.61-2.47-4.51-3.02l-8.74-1.66q12.46-1.65 23.54 3.25zm-98.33 170.84a41.95 41.95 0 00-41.95-41.95 41.95 41.95 0 00-41.95 41.95 41.95 41.95 0 0041.95 41.95 41.95 41.95 0 0041.95-41.95z"></path>
  <path fill="#fff" d="M499.76 782.69l8.74 1.66q2.9.55 4.51 3.02l1.6 2.44q1.6 2.45-1.28 1.93-5.09-.92-10.49-2.99-3-1.15-5.82-1.31-8.92-.5-16.27-.51-150.63-.18-301.25-.06-11.53.01-22.25 3.68-.76-.72-.78-1.41-.02-.52.42-.81 8.14-5.36 16.12-5.35l215.23.2c37.18.04 74.36-.37 111.52-.49z"></path>
  <path fill="#c73d8e" d="M922.05 784.72q.82 2.66 2.64 6.36 10.51 21.3 30.15 33.57 7.53 4.7 18.16 9.62.69 1.76.2 3.18-6.23 18.18-15.04 38.37c-1.16 2.66-2.57 5.11-3.93 7.72q-.45.86-2.3 3.11-1.5 1.82-1.32 3.82l-11.51 3.79q-42.95 12.32-87.1 19.72-7.8 1.3-15.58.78-4-.27-13.19-2.35-6.58-1.49-13.16-2.61-.54-1.68.96-3.03 47.8-43.17 88.7-92.06c8.02-9.59 13.71-17.6 21.37-26.13q1.21-1.34.95-3.86z"></path>
  <path fill="#486c8b" d="M523.3 785.94q1.85.06 2.99 1.58-1.72-.32-2.99-1.58z"></path>
  <path fill="#433ba4" d="M616.38 1085.47l-5.51.04q-.74-5.33-2.51-10.39-2.75-7.84-2.76-7.89-3.52-11.3-7.49-22.35-2.6-7.21-4.89-14.77c-2-6.59-4.38-13.19-6.28-19.98q-2.29-8.18-5.47-16.63c-3.05-8.09-4.83-16.24-7.27-24.42-.53-1.79-1.44-3.36-1.84-5.17q-1.04-4.63-2.95-8.63c-1.66-3.47-1.6-7.21-3.63-10.55-.81-1.35-.6-2.8-1.06-4.22-5.94-18.17-14.75-43.82-22.87-68.61q-3.56-10.86-7.7-21.53c-1.36-3.52-2.05-8.09-3.31-11.79-2.36-6.88-4.79-13.78-6.83-20.89q-1.58-5.5-3.64-10.84-2.28-5.94-4.58-12.94-.31-.96.29-1.7.36-.45.71.02 3.87 5.29 5.64 9.97 1.81 4.81 3.68 9.48 2.43 6.1 4.21 11.89.88 2.88 2.13 5.76c1.28 2.97 1.1 5.93 2.32 8.86q1.77 4.26 2.83 8.52c.9 3.6 2.43 6.82 3.27 10.48.54 2.36 1.6 4.45 2.29 6.74q.44 1.46 1.22 2.77c.7 1.16.49 2.62 1.06 4.01q3.09 7.6 5.63 15.39c.29.91.15 1.8.45 2.69 1.16 3.36 3.08 7.17 3.03 10.8-.05 3.61 2.4 5.3 3.06 8.68.89 4.53 3.01 8.74 4.4 13.3q1.94 6.35 4.02 11.24 1.37 3.21 2.14 5.92c1.36 4.73 3.35 8.96 4.67 13.79.45 1.66 1.34 2.92 1.61 4.76q.65 4.45 2.4 8.01 1.2 2.47 1.84 5.13.59 2.43 1.72 4.44c1.44 2.57 1.45 6.03 2.5 9.09q6.21 18.1 11.69 35.35c.99 3.13 2.8 5.59 3.58 8.7.75 2.95 2.78 5.34 3.48 8.1q1.33 5.19 2.99 10.32 5.34 16.5 10.36 32.06.82 2.55 1.37 6.99z"></path>
  <path fill="#486c8b" d="M542.33 815.51q1.18 2.08 1.49 4.44-1.38-2-1.49-4.44z"></path>
  <path fill="#c64bb6" d="M1339.91 815.68q1.33 1.35.26 3.57-2.98 6.14-8.84 15.41c-4.12 6.52-7.38 13.48-11.48 19.96q-17.93 28.37-30.65 44.09-5.76 7.12-27.47 31.5-6.05 5.58-26.91 26.36-39.26 39.09-90.23 67.65-1.95 1.09-2.45 1.4-3.57 1.17-4.94 2.64-1.77 1.38-3.63 2.49-30.62 18.31-63.5 32.18-5.47 2.31-11.03 4.34l.13-22.93q.01-1.01.99-1.24 4.29-1 8.56-2.71 4.26-1.71 7.82-4.24c13.58-9.64 21.12-24.96 19.87-41.62q-1.35-17.99-14.67-30.93 11.92-7.24 23.8-15.04 51.52-33.86 93.87-78.65.61-.64.88-1.92l.83.16c27.82 11.79 57.86 13.17 85.29 1q26.54-11.77 42.56-35.42 5.09-7.5 10.94-18.05z"></path>
  <path fill="#486c8b" d="M572 904.54q1.04 1.59 1.15 3.45-1.03-1.41-1.15-3.45z"></path>
  <circle cx="383.02" cy="956.78" r="41.95" fill="#78578f"></circle>
  <path fill="#450077" d="M1081.74 963.6q13.32 12.94 14.67 30.93c1.25 16.66-6.29 31.98-19.87 41.62q-3.56 2.53-7.82 4.24-4.27 1.71-8.56 2.71-.98.23-.99 1.24l-.13 22.93q-.6 9.74 1.19 18.76-64.43.99-129.47-.04l.93-1.38a.96.96 0 00-.8-1.5c-6.51-.01-10.7-2.82-16.33-6.9l6.48 1.21a.97.97 0 001.15-.95l.18-55.26q.35-39.35-.15-78.71-.04-3 .89-7.31 2.57-11.88 11.32-15.26 3.86-1.5 9.52-1.47 46.86.21 92.88-.05 6.24-.04 9.38.95c12.86 4.04 14.03 19.45 12.7 30.63q-.24 2.03 1.69 2.48 11.67 2.67 21.14 11.13zm-17.22 15.03q-2.22-2.03-4.28-3.64a.46.46 0 00-.75.36q-.35 19.72-.66 40.24-.04 2.22.66 4.02a.77.77 0 001.1.39q12.13-7.11 13.58-21.1 1-9.69-6.29-17.05-1.65-1.66-3.36-3.22z"></path>
  <path fill="#486c8b" d="M577.62 921q1.15 2.06 1.4 4.21-1.28-1.67-1.4-4.21z"></path>
  <path fill="#433ba4" d="M1261.73 930.21q.34 3.7-.81 7.02-19.09 54.93-41.08 108.33c-4.54 11.04-10.29 23.46-15.32 35.21q-.98 2.28.79 4.84l-47.28.25q-1.88-6.11-3.18-12.62-1.11-5.51-2.2-9.77-1.27-4.95-2.42-9.75-1.11-4.64-2.53-9.04-1.28-3.94-2.49-9.03-1.24-5.16-3.07-10.03.5-.31 2.45-1.4 50.97-28.56 90.23-67.65 20.86-20.78 26.91-26.36z"></path>
  <path fill="#c73d8e" d="M683.52 949.31l8.08 2.68q1.93 1.35 3.5 1.62 1.25.83 1.75.94a1.32 1.32 0 01.86 1.94c-6.95 12.4-13.26 27.04-15.52 41.13q-2.01 12.47-1.42 21.89.66 10.84 4.62 24.13l-64.83.63a1.91 1.9-9.9 01-1.81-1.27q-2.38-6.63-4.7-13.45-8.81-25.91-20.4-60.47-1.48-4.4-4.43-14.59 11.13-5.62 26.28-9.4 16.31-4.06 31.24-3.36 19.04.89 36.78 7.58z"></path>
  <path fill="#f56a8e" d="M705.31 942.33q1.98.39.15 3.43-.77 1.28-4.3 4.65-2.2 2.1-6.06 3.2-1.57-.27-3.5-1.62 6.17-5.59 13.71-9.66z"></path>
  <path fill="#c64bb6" d="M1067.88 981.85q7.29 7.36 6.29 17.05-1.45 13.99-13.58 21.1a.77.77 0 01-1.1-.39q-.7-1.8-.66-4.02.31-20.52.66-40.24a.46.46 0 01.75-.36q2.06 1.61 4.28 3.64 1.71 1.56 3.36 3.22zM922.37 1021.21l-.18 55.26a.97.97 0 01-1.15.95l-6.48-1.21q-31.77-4.65-62.42-4.17 4.6-6.66 9.44-13.88c1.72-2.56 2.91-5.33 4.45-7.97q.27-.46.78-.6l54.67-15.11a.97.96-7.2 00.72-.92l.17-12.35z"></path>
  <path fill="#1b0637" d="M1142.14 1025.62q1.83 4.87 3.07 10.03 1.21 5.09 2.49 9.03 1.42 4.4 2.53 9.04 1.15 4.8 2.42 9.75 1.09 4.26 2.2 9.77 1.3 6.51 3.18 12.62-3.02 2.57-8.1-.02-.39-10.03-3.46-19.83c-.75-2.37-1.11-4.85-1.81-7.25q-1.19-4.05-2.09-7.83-1.08-4.52-2.14-7.82-1.92-5.96-3.89-11.85-.55-1.64.66-3 1.37-1.47 4.94-2.64z"></path>
  <path fill="#433ba4" d="M1137.2 1028.26q-1.21 1.36-.66 3 1.97 5.89 3.89 11.85 1.06 3.3 2.14 7.82.9 3.78 2.09 7.83c.7 2.4 1.06 4.88 1.81 7.25q3.07 9.8 3.46 19.83l-89.7.19q-1.79-9.02-1.19-18.76 5.56-2.03 11.03-4.34 32.88-13.87 63.5-32.18 1.86-1.11 3.63-2.49z"></path>
  <path fill="#1b0637" d="M666.09 1085.43q.82.53 4.1 2 11.44 5.1 22.83 6.23 13.59 1.35 27.21.35 27.42-2.03 54.07-8.78 18.91-4.48 37.96-8.37c7.98-1.63 15.69-2.99 24.05-3.65q7.54-.59 15.83-1.17 30.65-.48 62.42 4.17c5.63 4.08 9.82 6.89 16.33 6.9a.96.96 0 01.8 1.5l-.93 1.38-16.81-.57q-4.84-.75-9.55-2.12-5.97-1.73-9.47-2.24c-10.88-1.59-21.81-3.07-33.37-2.43q-9.61.52-20.06 1.33-6.06.46-18.24 3.75-15.8 1.47-34.28 6.45-17.22 4.65-40.98 8.48-14.43 2.11-32.25 2.76-20.37.75-38.35-2.79-13.81-3.89-23.98-13.02-.28-.24-.87-.12c-.14-.72-.05-1.16-.44-1.77q-5.38-8.31-8.71-17.29-.75-2.04 1.36-2.54l3.44-.82q2.17-.52 2.58 1.67 1.52 8.25 6.58 15.49 3.17 4.55 8.73 5.22z"></path>
  <path fill="#c64bb6" d="M913.95 1085.42q-8.92-.25-24.45.08-31.39.65-66.24-1.79 12.18-3.29 18.24-3.75 10.45-.81 20.06-1.33c11.56-.64 22.49.84 33.37 2.43q3.5.51 9.47 2.24 4.71 1.37 9.55 2.12z"></path>
  <path fill="#fff" d="M182.66 1081.27q2.11.98 2.05 3.16-1.66.04-3.09-.25-.29-.06-.42-.23-.13-.19-.18-.44.56-1.43 1.64-2.24z"></path>
  <path fill="#486c8b" d="M181.02 1083.51q.05.25.18.44.13.17.42.23 1.43.29 3.09.25-.29.03.26.53-42.48 1.1-84.94.22l11.08-.86q33.48.03 67.14-.07 1.87-.01 2.77-.74z"></path>
  <path fill="#fff" d="M823.26 1083.71q34.85 2.44 66.24 1.79 15.53-.33 24.45-.08l16.81.57q65.04 1.03 129.47.04l89.7-.19q5.08 2.59 8.1.02l47.28-.25 83.64.17 190.03-.44q7.69 1 14.13 3.41 12.52 6.47 20.46 17.21 2.37 3.2 7.63 12.76 1.83 4.75 2.57 9.28.68 4.14-2.51 6.71-.83-.59-.99-.97c-5.29-12.2-11.36-22.51-23.21-29.05q-11.84-6.54-25.81-6.54-103.7-.06-207.75.25-18.99.05-37.54-.09-230.44.08-460.46-.04-7.11 0-15.74 1.2-1.14.16-1.76-.83 23.76-3.83 40.98-8.48 18.48-4.98 34.28-6.45zM774.3 1085.23q-26.65 6.75-54.07 8.78-13.62 1-27.21-.35-11.39-1.13-22.83-6.23-3.28-1.47-4.1-2l45.28.48q12.02 1.08 25.88.35 14.56-.77 29.13-1.41 2.4-.1 6.36-1.15 1.57-.42 1.56 1.53z"></path>
  <path fill="#1b0637" d="M111.11 1084.32l-11.08.86-30.81-.4q1.93-.46 4.03-.46 18.84-.04 37.86 0z"></path>
  <path fill="#fff" d="M69.22 1084.78l30.81.4q42.46.88 84.94-.22 22.74.98 45.53.73 1.13-.01 3.62-.42l376.75.24 5.51-.04h36.17q.59-.12.87.12 10.17 9.13 23.98 13.02-4.64.28-9.1.13-7.9-.27-9.09-.27-290.45.09-575.92-.24c-4.38-.01-8.77.27-13.15.45-15.78.65-29.22 8.07-37.85 21.21q-1.6 2.42-4.73 8.98-2.13 4.47-4.59 9.07l-.65-6.73q1.32-12.04 7.38-23.18.64-1.72 2.12-3.46 14.65-17.27 37.4-19.79z"></path>
  <path fill="#486c8b" d="M1493.11 1088.75q9.71 3.36 16.57 10.81 1.28 1.38 4.67 5.77 4.62 5.97 6.85 13.39-5.26-9.56-7.63-12.76-7.94-10.74-20.46-17.21z"></path>
  <path fill="#454eaa" d="M1521.26 1134.71q-.28 1.61.04 2.3 1.36 2.91 2.37 6.04.12.38-.02.76-2.16 5.78-3.91 10.84-.81 2.33-2.52 4.68-3.77 5.18-6.77 9.4-1.39 1.97-3.24 3.26-5.69 3.97-11.85 7.87c-1.35.85-3.17 1.59-4.74 1.83q-4.48.7-8.66 2.01-2.87.91-6.28.92-63.4.18-128.19-.05a1.63 1.63 0 00-1.47.89c-.78 1.54-1.61 3.14-2.16 4.8-3.89 11.64-10.12 23.02-18.26 32.2q-4.33 4.88-11.32 9.62-13.35 9.07-27.57 13.71c-6.08 1.98-12.39 2.19-18.48 3.64q-3.67.87-8.23 1.01c-14.52.44-28.77.86-42.99.71q-71.37-.79-142.76-.4-3.79.02-6.63.1-4.25-1.81-8.87-1.9-11-.23-22-.25-333.81-.3-667.63-.14-2.57 0-4.6 1.98-15.57.02-31.77.2-9.14.11-17.79-.44c-2.94-.19-5.91-1.23-9.01-1.47-7.83-.59-15.66-2.98-23.74-6.44q-8.16-3.49-13.87-7.75-8.17-6.1-13.27-11.9-3.42-3.88-6.52-7.47-3.36-3.91-5.49-7.75-5.57-10.11-8.51-19.89c-1.18-3.92-4.19-3.02-7.13-3.05q1.93-1.23 5.08-1.26c92.69-1 182.43-.88 302.24-.59q9.77.03 20.02 0c157.91-.39 316.16-.3 473.75-.27q10.09 0 20 .06 82.26.46 198.47.3.79 0 1.65.05 3.05.2.28-1.09-3.66-1.69-7.23-3.45c-10.25-5.06-20.42-14.4-24.22-25.5q-6.98-20.32.99-39.17.49-1.16 4.14-7.44 2.25-3.87 3.37-7.91 18.55.14 37.54.09 104.05-.31 207.75-.25 13.97 0 25.81 6.54c11.85 6.54 17.92 16.85 23.21 29.05q.16.38.99.97z"></path>
  <path fill="#596dc0" d="M677.4 1098.61q17.98 3.54 38.35 2.79 17.82-.65 32.25-2.76.62.99 1.76.83 8.63-1.2 15.74-1.2 230.02.12 460.46.04-1.12 4.04-3.37 7.91-3.65 6.28-4.14 7.44-7.97 18.85-.99 39.17c3.8 11.1 13.97 20.44 24.22 25.5q3.57 1.76 7.23 3.45 2.77 1.29-.28 1.09-.86-.05-1.65-.05-116.21.16-198.47-.3-9.91-.06-20-.06c-157.59-.03-315.84-.12-473.75.27q-10.25.03-20.02 0c-119.81-.29-209.55-.41-302.24.59q-3.15.03-5.08 1.26-75.66.19-151.42.22-12.31 0-22.78-3.67-4.92-1.72-12.31-7.13c-6.89-5.04-12.32-13.05-15.38-20.5q-3.16-7.65-2.56-15.56 2.46-4.6 4.59-9.07 3.13-6.56 4.73-8.98c8.63-13.14 22.07-20.56 37.85-21.21 4.38-.18 8.77-.46 13.15-.45q285.47.33 575.92.24 1.19 0 9.09.27 4.46.15 9.1-.13zM29.7 1108.03q-6.06 11.14-7.38 23.18-.04-12.81 7.38-23.18z"></path>
  <path fill="#05fce6" d="M1067.62 1250.85q-11.94 7.87-23.79 14-19.51 10.09-38.73 19.82c-34.89 17.67-71.47 31.55-110.26 41.86q-45.06 11.98-89.35 18.3-12.35 1.77-24.71 3.2-7.37.86-14.53 1-8.05.16-15.75.62-25.37 1.53-52.02.22-12.78-.63-25.56-.75-10.33-.09-19.61-1.18-37.15-4.34-70.1-10.81c-53.12-10.44-105.9-28.43-154.42-51.12q-15.23-7.13-30.9-16.08-16.44-9.4-33.37-19.39 2.03-1.98 4.6-1.98 333.82-.16 667.63.14 11 .02 22 .25 4.62.09 8.87 1.9z"></path>
</svg>
